<svg width="155" height="115" viewBox="0 0 155 115" fill="none" xmlns="http://www.w3.org/2000/svg">
<g clip-path="url(#clip0_182_4712)">
<path d="M86.0618 97.3265C85.6589 97.0184 85.2086 96.7577 84.7287 96.5681C83.2119 95.9637 81.4877 94.8913 82.489 93.3685C83.9347 91.1703 87.1816 96.2481 90.5708 95.8452C91.9632 95.2349 93.3496 94.4943 94.6591 93.6589C94.191 93.096 93.557 92.6635 92.8401 92.4442C91.7913 92.1243 90.5826 91.5081 91.1692 90.4297C92.1409 88.6463 95.2338 93.1552 97.6868 91.1585C97.8764 91.0044 99.2036 89.535 100.395 87.8108C99.6183 87.6331 98.54 87.4257 98.54 87.4257C98.3385 87.3961 98.1193 87.3427 97.906 87.2539C97.0587 86.9221 96.5195 86.2822 96.6973 85.8259C96.875 85.3697 97.7046 85.269 98.5518 85.6008C98.694 85.6541 98.8244 85.7193 98.9429 85.7904C99.0732 85.8674 99.1917 85.9504 99.2984 86.0333C99.4406 86.1518 99.5828 86.2585 99.7368 86.3592C100.187 86.6436 100.714 86.9043 101.04 86.8154C101.888 85.4349 102.51 84.0247 102.326 83.0649C102.314 83.0115 102.296 82.9582 102.285 82.9049C102.279 82.8516 102.273 82.7982 102.261 82.7449C102.077 81.785 100.963 80.7126 99.6657 79.7528C99.3339 79.7942 98.937 80.2386 98.6289 80.6652C98.5222 80.8133 98.4274 80.9674 98.3445 81.1333C98.2793 81.2518 98.2023 81.3762 98.1075 81.4947C98.0186 81.6073 97.9238 81.7139 97.8171 81.8147C97.1594 82.4368 96.3477 82.656 96.01 82.3005C95.6723 81.945 95.933 81.1511 96.5906 80.523C96.7625 80.363 96.9402 80.2327 97.118 80.126C97.118 80.126 98.0423 79.5276 98.694 79.0773C96.9461 77.9219 95.1627 77.0568 94.9316 76.9857C91.9039 76.0555 90.7248 81.394 89.1606 80.1083C88.2126 79.3321 89.1014 78.307 89.9546 77.6138C90.5352 77.1398 90.9618 76.5058 91.187 75.8067C89.6583 75.5282 88.0941 75.3623 86.5773 75.3149C83.283 76.2096 82.1809 82.1346 80.0123 80.6415C78.5074 79.6046 79.7042 77.9693 80.8833 76.8376C81.2566 76.4821 81.5765 76.0733 81.8372 75.6348C81.7602 75.6467 81.6832 75.6585 81.6121 75.6763C74.1702 77.122 71.9483 82.2768 73.0385 87.8879C73.0859 88.1249 73.1393 88.3559 73.1926 88.5811C73.2281 88.8122 73.2637 89.0492 73.3111 89.2802C74.4013 94.8913 78.3948 98.8314 85.8367 97.3857C85.9137 97.362 85.9907 97.3442 86.0618 97.3265Z" fill="#006837"/>
<path d="M91.3406 83.8055C90.7541 83.8943 90.1793 84.0602 89.6342 84.3091C87.9041 85.0912 85.6289 85.6778 85.1608 83.6099C84.4853 80.6356 91.3407 81.9924 93.7225 78.8343C94.3269 77.1812 94.8246 75.4215 95.1801 73.6618C94.3328 73.6025 93.4618 73.7803 92.7034 74.2069C91.5895 74.829 90.1023 75.3445 89.6757 73.9876C88.9647 71.748 95.2216 72.7789 95.5237 69.1172C95.5474 68.8328 95.3815 66.5458 94.8957 64.1639C94.1254 64.6734 93.0826 65.4082 93.0826 65.4082C92.893 65.5563 92.6738 65.6926 92.4309 65.8051C91.4769 66.2436 90.5052 66.1843 90.2682 65.6689C90.0312 65.1534 90.6119 64.3772 91.5658 63.9328C91.7258 63.8617 91.8798 63.8025 92.0398 63.7551C92.2057 63.7077 92.3716 63.6721 92.5316 63.6543C92.739 63.6306 92.9523 63.601 93.1537 63.5477C93.7521 63.3996 94.398 63.1685 94.5817 62.8248C94.1077 61.0058 93.4263 59.3527 92.4783 58.7365C92.4249 58.701 92.3657 58.6773 92.3124 58.6417C92.259 58.6062 92.2116 58.5647 92.1583 58.5292C91.2103 57.9189 89.415 57.9781 87.5664 58.2981C87.3353 58.6062 87.3886 59.2935 87.5012 59.8978C87.5368 60.1052 87.596 60.3067 87.6612 60.5081C87.7086 60.6563 87.7441 60.8222 87.7738 60.994C87.7975 61.154 87.8093 61.3258 87.8093 61.4976C87.8034 62.5523 87.3353 63.3996 86.7665 63.3996C86.1977 63.3936 85.7415 62.5404 85.7474 61.4858C85.7474 61.2132 85.7829 60.9584 85.8363 60.7274C85.8363 60.7274 86.0792 59.4712 86.2273 58.5647C83.8573 59.1039 81.7006 59.8979 81.4517 60.0341C78.2403 61.8176 81.7658 67.0909 79.4254 67.3693C78.0152 67.5352 77.873 65.9651 77.9796 64.6971C78.0507 63.8321 77.8552 62.967 77.4523 62.2145C75.9947 63.2633 74.5964 64.4424 73.3403 65.6748C71.4443 69.1469 75.5148 74.8349 72.5227 75.4452C70.4489 75.8659 70.0401 73.5551 70.0401 71.6591C70.0401 71.0607 69.9571 70.4682 69.7971 69.8934C69.7497 69.9645 69.6964 70.0416 69.649 70.1127C64.8853 77.5071 67.4093 83.4974 72.9789 87.0939C73.21 87.242 73.447 87.3842 73.684 87.5205C73.9032 87.6805 74.1343 87.8345 74.3654 87.9826C79.9349 91.5732 86.4406 91.4014 91.2044 84.0128C91.2458 83.9595 91.2932 83.8825 91.3406 83.8055Z" fill="#8AA200"/>
<path d="M77.5294 75.7592C77.1798 75.9133 76.848 76.1088 76.5458 76.3576C75.5978 77.1338 74.2706 77.8744 73.6366 76.6598C72.7242 74.9119 77.2272 74.6334 78.1989 72.2634C78.3056 71.1317 78.3234 69.9526 78.2523 68.7913C77.7131 68.8921 77.1976 69.1528 76.7947 69.5379C76.2022 70.1067 75.3549 70.6755 74.8631 69.9052C74.0514 68.6195 78.1278 68.2344 77.7131 65.8999C77.6834 65.7162 77.1976 64.3179 76.5044 62.9077C76.1074 63.3521 75.5801 63.9861 75.5801 63.9861C75.4853 64.1105 75.3727 64.229 75.2364 64.3416C74.7091 64.7741 74.0988 64.8986 73.8618 64.6142C73.6248 64.3298 73.8618 63.7491 74.3891 63.3166C74.478 63.2455 74.5669 63.1803 74.6557 63.127C74.7505 63.0677 74.8513 63.0203 74.9461 62.9848C75.0705 62.9374 75.2008 62.8781 75.3194 62.8129C75.6689 62.6233 76.0363 62.3686 76.0955 62.1256C75.4971 61.071 74.8039 60.1467 74.1047 59.9215C74.0632 59.9097 74.0277 59.9037 73.9862 59.8919C73.9447 59.88 73.9092 59.8623 73.8736 59.8445C73.1804 59.6193 72.0724 59.9571 70.9704 60.4607C70.8756 60.6918 71.0237 61.1125 71.1955 61.4739C71.2548 61.5983 71.3259 61.7168 71.397 61.8294C71.4503 61.9183 71.5036 62.0131 71.5451 62.1138C71.5866 62.2086 71.6221 62.3152 71.6517 62.4219C71.8236 63.0796 71.6695 63.6899 71.314 63.7787C70.9585 63.8676 70.5319 63.4114 70.3601 62.7537C70.3186 62.5819 70.2949 62.4219 70.289 62.2619C70.289 62.2619 70.2356 61.4383 70.1764 60.8458C68.784 61.5746 67.5694 62.4278 67.439 62.5522C65.7267 64.1994 68.8018 66.9131 67.3857 67.47C66.5325 67.8078 66.1829 66.8538 66.0407 66.0421C65.9459 65.4911 65.6793 64.9815 65.3001 64.5786C64.5594 65.4792 63.884 66.4391 63.3033 67.4226C62.693 69.9052 66.1711 72.7848 64.4054 73.6617C63.1789 74.2661 62.539 72.8915 62.2309 71.7065C62.1302 71.3332 61.982 70.9777 61.7865 70.6459C61.7687 70.6992 61.745 70.7525 61.7273 70.8059C59.9675 76.2095 62.539 79.5394 66.6095 80.8607C66.7813 80.914 66.9532 80.9673 67.1191 81.0147C67.285 81.0799 67.4509 81.1392 67.6227 81.1925C71.6932 82.5138 75.7282 81.3347 77.4879 75.931C77.4998 75.8718 77.5175 75.8125 77.5294 75.7592Z" fill="#8CC63F"/>
<path d="M76.155 83.5388L78.8983 83.3669C78.9398 83.3669 78.9754 83.3433 78.9931 83.3077L87.2764 67.2508C87.3415 67.1264 87.1638 67.0197 87.0808 67.1323L76.0543 83.3551C76.001 83.438 76.0602 83.5447 76.155 83.5388Z" fill="#8CC63F"/>
<path d="M62.2373 84.4038L65.2235 83.8231L72.0196 65.0051L62.2373 84.4038Z" fill="#006837"/>
<path d="M136.467 101.397H136.277V89.4105H134.962V101.397H134.772C131.063 101.397 128.059 103.625 128.059 106.374H143.18C143.18 103.625 140.176 101.397 136.467 101.397Z" fill="#F7931E"/>
<path d="M132.994 89.4046H120.652C119.461 89.4046 118.489 88.4389 118.489 87.242V82.259C118.489 81.0681 119.455 80.0964 120.652 80.0964H132.994C134.185 80.0964 135.156 81.0622 135.156 82.259V87.242C135.156 88.4389 134.191 89.4046 132.994 89.4046Z" fill="#F7931E"/>
<path d="M135.364 89.4046H123.022C121.831 89.4046 120.859 88.4389 120.859 87.242V82.259C120.859 81.0681 121.825 80.0964 123.022 80.0964H135.364C136.555 80.0964 137.527 81.0622 137.527 82.259V87.242C137.521 88.4389 136.555 89.4046 135.364 89.4046Z" fill="#FBB03B"/>
<path d="M138.836 60.4133H134.161C132.508 60.4667 131.223 61.8294 130.997 63.0441C130.162 67.5708 130.109 72.1627 130.837 76.7013L132.722 88.3796H134.624L138.836 60.4133Z" fill="#F7931E"/>
<path d="M151.196 88.3855L134.642 89.0254L135.234 84.3743C133.605 80.4934 132.781 74.0113 132.829 69.9468C132.864 66.4865 133.32 63.9269 133.32 63.9269C133.895 61.468 136.289 60.4607 137.9 60.4133H149.111C151.919 60.4133 154.129 62.2382 153.892 64.3653L153.59 65.2719C151.475 71.6117 150.592 78.147 150.983 84.6765L151.196 88.3855Z" fill="#F15A24"/>
<path d="M150.971 88.4803L136.686 89.3868L125.588 89.4046V86.3947C125.588 84.2261 127.958 82.4664 130.885 82.4664H145.52C148.447 82.4664 150.817 84.2261 150.817 86.3947L150.971 88.4803Z" fill="#F15A24"/>
<path d="M149.128 60.4133C148.245 60.4133 147.534 60.9407 147.534 61.5983V88.19H151.255L151.042 84.6824C150.645 78.153 151.545 71.6117 153.714 65.2778L154.022 64.3713C154.271 62.2382 152.008 60.4133 149.128 60.4133Z" fill="#F7931E"/>
<path d="M136.514 101.397H136.324V91.4487V89.4105H135.619H134.961V91.4487H135.619V101.889H135.791C139.18 101.889 141.929 103.897 141.929 106.374H143.227C143.233 103.625 140.223 101.397 136.514 101.397Z" fill="#F15A24"/>
<path d="M143.069 55.0758C143.11 54.3112 142.534 53.6587 141.782 53.6185C141.031 53.5783 140.388 54.1656 140.347 54.9303C140.307 55.6949 140.883 56.3474 141.634 56.3876C142.386 56.4278 143.028 55.8405 143.069 55.0758Z" fill="#534741"/>
<path d="M139.845 53.451C139.886 52.6863 139.31 52.0339 138.558 51.9937C137.807 51.9535 137.164 52.5408 137.123 53.3054C137.082 54.0701 137.659 54.7225 138.41 54.7627C139.162 54.8029 139.804 54.2156 139.845 53.451Z" fill="#534741"/>
<path d="M123.538 106.884C122.43 107.02 121.653 106.024 121.345 104.099L119.147 94.595C118.839 92.6752 119.645 90.9392 120.948 90.72C122.252 90.5007 123.555 91.8813 123.864 93.801L124.563 102.149C124.64 103.062 124.675 103.974 124.634 104.869C124.569 106.03 124.349 106.884 123.538 106.884Z" fill="#FFD29B"/>
<path d="M130.286 107.138C129.172 107.192 128.467 106.095 128.295 104.075L126.761 94.032C126.589 92.0116 127.507 90.2755 128.823 90.1511C130.138 90.0267 131.341 91.5613 131.519 93.5817L131.637 102.303C131.649 103.257 131.625 104.205 131.519 105.13C131.377 106.332 131.098 107.203 130.286 107.138Z" fill="#FFD29B"/>
<path d="M130.974 77.4182C112.464 80.1022 117.405 91.9286 119.396 99.3113C119.396 99.3113 121.215 99.7912 124.989 98.5765C125.232 98.4995 125.167 101.272 125.428 101.272C129.232 101.296 133.225 100.828 133.225 99.7616C133.225 95.8925 131.797 88.6462 132.822 87.0819C134.463 84.5756 144.329 88.101 144.542 83.041C144.654 80.3748 138.249 71.736 135.619 73.0751C133.261 74.2779 134.558 76.9027 130.974 77.4182Z" fill="#BF3787"/>
<path d="M136.188 79.8C138.76 79.7408 138.843 76.4227 130.98 77.4182C112.429 79.7763 117.412 91.9286 119.402 99.3112C119.402 99.3112 121.221 99.7912 124.996 98.5765C122.898 91.2413 119.942 80.1733 136.188 79.8Z" fill="#9E005D"/>
<path d="M131.542 76.7073L130.991 77.5546C131.157 77.5961 131.317 77.6553 131.465 77.7501C131.75 77.9397 131.933 78.2064 132.034 78.5026C132.153 78.8818 131.732 79.2669 131.365 79.1188C130.837 78.9055 130.654 79.2077 130.387 79.5039C129.972 79.9483 130.085 80.2268 130.843 80.9082L130.701 81.2637C130.985 81.5125 130.719 82.0695 130.34 81.9806C129.084 81.6962 128.325 80.5705 128.467 80.2327C128.296 79.7232 128.39 79.1129 128.752 78.6152L129.842 76.417L131.542 76.7073Z" fill="#FFD29B"/>
<path d="M140.305 60.7392C137.159 59.0031 134.007 61.5805 133.154 65.0585C131.643 71.2147 131.293 71.6768 130.357 74.7223C130.073 75.6525 131.886 77.2049 132.484 76.3576C134.315 73.7565 132.935 73.1877 134.588 70.9184C136.881 67.7722 137.461 72.0086 139.393 67.5293C140.833 64.1816 142.717 62.0664 140.305 60.7392Z" fill="#808080"/>
<path d="M136.863 81.0325L134.955 79.9186C130.98 79.7053 133.095 78.8343 133.314 74.7223L133.64 71.1673C133.723 69.2002 132.763 67.3041 133.61 65.5444C134.736 63.204 136.377 59.7378 139.115 59.88C143.09 60.0933 145.377 62.5759 144.601 67.5352L143.481 78.3899C143.274 82.2768 142.148 81.8502 138.101 81.3762C137.669 81.3347 137.242 81.2576 136.863 81.0325Z" fill="#999999"/>
<path d="M147.759 71.7834C147.676 71.5227 145.549 64.7326 145.36 64.3475C144.418 62.4278 144.003 61.9419 143.292 62.0604C141.615 62.327 140.543 64.3712 140.916 66.3028L143.404 71.9967C143.511 72.5359 143.25 73.087 142.818 73.2588L137.556 75.3088C136.81 76.3339 137.041 78.6802 139.429 78.141L145.585 76.6005C148.085 75.7829 148.476 74.0764 147.759 71.7834Z" fill="#E6E6E6"/>
<path d="M132.793 75.6348L131.916 77.9278L129.517 77.0805L130.263 74.7401L132.793 75.6348Z" fill="#C7C7C7"/>
<path d="M125.149 104.697L121.008 104.798L118.513 107.032C117.761 107.12 117.091 107.209 117.091 107.209C117.091 107.209 116.398 107.239 116.232 107.991L116.042 109.011C116.042 109.011 119.781 109.182 121.63 109.046C123.473 108.91 125.226 108.679 125.226 108.679L125.149 104.697Z" fill="#2B2522"/>
<path d="M125.209 107.891C125.209 107.891 123.603 108.104 121.76 108.24C119.989 108.371 116.463 108.217 116.191 108.205L116.042 109.01C116.042 109.01 119.781 109.182 121.63 109.046C123.473 108.91 125.226 108.679 125.226 108.679L125.209 107.891Z" fill="#301F13"/>
<path d="M120.047 106.706L119.899 105.912L120.74 106.214" stroke="#C7B299" stroke-width="0.0876316" stroke-miterlimit="10" stroke-linecap="round"/>
<path d="M131.946 104.697L127.804 104.798L125.31 107.032C124.557 107.12 123.888 107.209 123.888 107.209C123.888 107.209 123.194 107.239 123.028 107.991L122.839 109.011C122.839 109.011 126.578 109.182 128.426 109.046C130.269 108.91 132.023 108.679 132.023 108.679L131.946 104.697Z" fill="#534741"/>
<path d="M132.005 107.891C132.005 107.891 130.399 108.104 128.557 108.24C126.785 108.371 123.26 108.217 122.987 108.205L122.839 109.01C122.839 109.01 126.578 109.182 128.426 109.046C130.269 108.91 132.023 108.679 132.023 108.679L132.005 107.891Z" fill="#42210B"/>
<path d="M126.844 106.706L126.696 105.912L127.537 106.214" stroke="#C7B299" stroke-width="0.0876316" stroke-miterlimit="10" stroke-linecap="round"/>
<path d="M146.989 89.4046H134.648C133.457 89.4046 132.485 88.4388 132.485 87.2419V81.8798C132.485 80.6888 133.451 79.7171 134.648 79.7171H146.989C148.18 79.7171 149.152 80.6829 149.152 81.8798V87.2419C149.146 88.4388 148.18 89.4046 146.989 89.4046Z" fill="#F7931E"/>
<path d="M149.353 89.4046H137.011C135.82 89.4046 134.849 88.4389 134.849 87.242V81.8798C134.849 80.6889 135.814 79.7172 137.011 79.7172H149.353C150.544 79.7172 151.516 80.683 151.516 81.8798V87.242C151.516 88.4389 150.544 89.4046 149.353 89.4046Z" fill="#FBB03B"/>
<path d="M142.551 56.1059C142.397 56.177 142.214 56.2007 142.024 56.2066C141.852 56.2184 141.663 56.2125 141.485 56.2007C140.957 56.171 140.519 55.8392 140.318 55.383C140.223 55.1638 140.057 54.9801 139.844 54.8675C139.458 54.672 139.186 54.2928 139.133 53.8425C139.121 53.7595 139.115 53.6766 139.121 53.5936C139.127 53.3863 139.186 53.1967 139.275 53.0308C138.025 53.1078 136.999 54.1387 136.928 55.4423L136.81 57.6108C136.768 58.3337 137.035 58.9973 137.485 59.4891C137.586 59.6017 137.699 59.7024 137.823 59.7913C137.977 59.9098 138.143 60.0046 138.327 60.0816C138.587 60.2001 138.872 60.2712 139.174 60.289C139.47 60.3067 139.755 60.2653 140.021 60.1823C140.069 60.1764 140.11 60.1586 140.158 60.1408C140.146 60.1645 140.128 60.1882 140.11 60.2119C139.695 60.7393 138.836 60.7748 138.593 60.763C138.232 60.7452 137.93 60.6445 137.847 60.2416C137.829 60.2475 137.811 60.2534 137.799 60.2593C137.355 60.4608 137.041 60.7511 137.023 61.0296C136.958 61.865 137.503 62.4931 138.641 62.7301C139.926 62.9967 141.1 62.3035 141.271 61.865C141.497 61.2903 141.325 60.8874 140.94 60.6089L140.981 59.9453L140.987 59.7853V59.6254C141.366 59.2758 141.639 58.8077 141.751 58.2744C141.817 58.2922 141.882 58.3041 141.947 58.3041C142.581 58.3396 143.126 57.8419 143.162 57.1961C143.185 56.728 142.936 56.3073 142.551 56.1059ZM137.497 55.9874C137.485 56.2421 137.426 56.4436 137.373 56.4436C137.319 56.4377 137.29 56.2303 137.302 55.9755C137.314 55.7267 137.373 55.5193 137.426 55.5193C137.479 55.5193 137.509 55.7267 137.497 55.9874ZM137.562 57.2553C137.562 57.2553 137.675 56.9354 137.823 56.6332C137.947 56.3666 138.107 56.1177 138.232 56.1355L138.179 57.0598L138.161 57.3857C138.155 57.4923 138.066 57.5753 137.965 57.5694L137.705 57.5516C137.604 57.5457 137.497 57.4449 137.562 57.2553ZM139.595 56.2066C139.583 56.4554 139.529 56.6628 139.476 56.6628C139.423 56.6628 139.387 56.4495 139.399 56.1947C139.417 55.9459 139.47 55.7385 139.524 55.7385C139.577 55.7385 139.612 55.9518 139.595 56.2066Z" fill="#FFD29B"/>
<path d="M140.11 60.2118C139.695 60.7392 138.836 60.7747 138.593 60.7629C138.232 60.7451 137.93 60.6444 137.847 60.2415C137.995 60.1763 138.155 60.123 138.327 60.0815C138.587 60.2 138.872 60.2711 139.174 60.2889C139.47 60.3066 139.755 60.2652 140.021 60.1822C140.051 60.1941 140.08 60.2 140.11 60.2118Z" fill="#FFD29B"/>
<path d="M137.496 55.9872C137.485 56.242 137.425 56.4435 137.372 56.4435C137.319 56.4376 137.289 56.2302 137.301 55.9754C137.313 55.7265 137.372 55.5192 137.425 55.5192C137.479 55.5192 137.508 55.7265 137.496 55.9872Z" fill="#8C786E"/>
<path d="M138.179 57.0597L138.161 57.3856C138.155 57.4922 138.066 57.5752 137.965 57.5693L137.705 57.5515C137.604 57.5456 137.497 57.4448 137.562 57.2552C137.562 57.2552 137.675 56.9353 137.823 56.6331C137.841 56.7279 137.853 56.8227 137.853 56.9234C137.971 56.9531 138.078 56.9945 138.179 57.0597Z" fill="#8C786E"/>
<path d="M144.388 56.2123C144.222 56.473 144.192 56.7811 144.263 57.0774C144.293 57.1959 144.305 57.3262 144.293 57.4507C144.258 58.1913 143.588 58.452 142.907 58.7245C142.338 58.9497 141.899 60.0103 141.171 59.9688C141.105 59.9629 141.04 59.957 140.981 59.9451L140.987 59.7851V59.6252C141.366 59.2756 141.639 58.8075 141.751 58.2742C141.816 58.292 141.882 58.3039 141.947 58.3039C142.581 58.3394 143.126 57.8417 143.161 57.1959C143.185 56.7278 142.936 56.3071 142.551 56.1057C142.397 56.1768 142.213 56.2005 142.024 56.2064C141.852 56.2182 141.662 56.2123 141.485 56.2005C140.957 56.1708 140.519 55.839 140.317 55.3828C140.223 55.1636 140.057 54.9799 139.843 54.8673C139.458 54.6718 139.186 54.2926 139.132 53.8423C139.121 53.7593 139.115 53.6764 139.121 53.5934C139.126 53.3861 139.186 53.1965 139.275 53.0306C138.024 53.1076 136.999 54.1385 136.928 55.4421L136.81 57.6106C136.768 58.3335 137.035 58.9971 137.485 59.4889H137.432C136.91 59.4652 136.478 59.1571 136.277 58.7245C136.128 58.4046 135.755 58.2268 135.625 57.895C135.329 57.1485 135.891 56.6271 135.998 56.2182C136.17 55.5665 135.832 54.9147 135.803 54.8022C135.536 53.8956 136.034 52.5566 137.13 52.1596C137.254 52.1122 138.03 51.3241 139.375 51.4308C139.606 51.4486 139.855 51.5256 140.069 51.6382C140.294 51.496 140.56 51.4189 140.845 51.4189C141.698 51.4189 142.356 52.0707 142.717 52.6573C142.942 53.0365 143.286 53.315 143.647 53.5757C144.009 53.8423 144.05 54.1385 144.044 54.3992C144.4 54.654 144.625 55.0866 144.595 55.5665C144.583 55.8035 144.506 56.0227 144.388 56.2123Z" fill="#998E82"/>
<path d="M140.157 60.1408C140.145 60.1645 140.127 60.1882 140.11 60.2119C139.695 60.7392 138.836 60.7748 138.593 60.7629C138.231 60.7451 137.929 60.6444 137.846 60.2415C137.828 60.2474 137.811 60.2534 137.799 60.2593L137.817 59.9749C137.817 59.9156 137.817 59.8564 137.823 59.7912C137.977 59.9097 138.142 60.0045 138.326 60.0815C138.587 60.2 138.871 60.2711 139.173 60.2889C139.47 60.3067 139.754 60.2652 140.021 60.1823C140.068 60.1763 140.11 60.1586 140.157 60.1408Z" fill="#FFD29B"/>
<path d="M140.157 60.1408C140.145 60.1645 140.128 60.1882 140.11 60.2119C139.695 60.7392 138.836 60.7748 138.593 60.7629C138.232 60.7451 137.929 60.6444 137.847 60.2415C137.829 60.1645 137.817 60.0756 137.817 59.9749C137.817 59.9156 137.817 59.8564 137.823 59.7912C137.977 59.9097 138.143 60.0045 138.326 60.0815C138.587 60.2 138.872 60.2711 139.174 60.2889C139.47 60.3067 139.754 60.2652 140.021 60.1823C140.068 60.1763 140.11 60.1586 140.157 60.1408Z" fill="#877052"/>
<path d="M137.496 55.9872C137.485 56.242 137.425 56.4435 137.372 56.4435C137.319 56.4376 137.289 56.2302 137.301 55.9754C137.313 55.7265 137.372 55.5192 137.425 55.5192C137.479 55.5192 137.508 55.7265 137.496 55.9872Z" fill="#FFD29B"/>
<path d="M138.232 56.1355L138.179 57.0598L138.161 57.3857C138.155 57.4923 138.066 57.5753 137.965 57.5693L137.705 57.5516C137.604 57.5456 137.497 57.4449 137.562 57.2553C137.562 57.2553 137.675 56.9354 137.823 56.6332C137.948 56.3666 138.108 56.1177 138.232 56.1355Z" fill="#FFD29B"/>
<path d="M139.595 56.2066C139.583 56.4555 139.53 56.6628 139.476 56.6628C139.423 56.6628 139.387 56.4495 139.399 56.1948C139.417 55.9459 139.47 55.7385 139.524 55.7385C139.577 55.7385 139.613 55.9518 139.595 56.2066Z" fill="#FFD29B"/>
<path d="M137.496 55.9872C137.485 56.242 137.425 56.4435 137.372 56.4435C137.319 56.4376 137.289 56.2302 137.301 55.9754C137.313 55.7265 137.372 55.5192 137.425 55.5192C137.479 55.5192 137.508 55.7265 137.496 55.9872Z" fill="#534741"/>
<path d="M139.595 56.2065C139.583 56.4554 139.53 56.6628 139.476 56.6628C139.423 56.6628 139.387 56.4495 139.399 56.1947C139.417 55.9458 139.47 55.7385 139.524 55.7385C139.577 55.7385 139.613 55.9518 139.595 56.2065Z" fill="#534741"/>
<path d="M138.232 56.1354L138.179 57.0597L138.161 57.3856C138.155 57.4923 138.066 57.5752 137.965 57.5693L137.705 57.5515C137.604 57.5456 137.497 57.4449 137.562 57.2553C137.562 57.2553 137.675 56.9353 137.823 56.6331C137.948 56.3665 138.108 56.1176 138.232 56.1354Z" fill="#C79D69"/>
<path d="M137.485 58.2625C137.485 58.2625 137.894 58.8787 138.57 58.5172" stroke="#534741" stroke-width="0.121878" stroke-miterlimit="10" stroke-linecap="round"/>
<path d="M83.8755 81.8857H66.1122C65.9048 81.8857 65.6974 81.9094 65.5019 81.9509L62.5157 62.1908L62.2372 62.2323C60.4715 62.4989 59.2569 64.1461 59.5235 65.9117L63.203 90.2578V97.4034C63.203 100.111 65.3953 102.303 68.103 102.303H81.7484C84.4562 102.303 86.6484 100.111 86.6484 97.4034V84.6705C86.6603 83.13 85.4101 81.8857 83.8755 81.8857Z" fill="#F15A24"/>
<path d="M79.562 95.928H28.9976V89.1142H74.7627C77.4112 89.1142 79.5561 91.2591 79.5561 93.9076V95.928H79.562Z" fill="#DE841B"/>
<path d="M71.125 89.1143H7.09882L3.20605 62.1908H63.5469C65.5081 62.1908 67.1789 63.601 67.4692 65.5148L71.125 89.1143Z" fill="#F7931E"/>
<path d="M10.7607 107.061C10.2748 107.061 9.98449 106.682 9.87191 106.172L9.13721 102.096C9.13721 101.61 10.2748 101.225 10.7607 101.225C11.2465 101.225 12.7396 101.421 12.7396 101.906L11.6968 106.172C11.5606 106.664 11.2465 107.061 10.7607 107.061Z" fill="#F15A24"/>
<path d="M25.9697 107.322C25.4838 107.322 25.1935 106.943 25.0809 106.433L24.3462 102.357C24.3462 101.871 25.4838 101.486 25.9697 101.486C26.4555 101.486 27.9486 101.681 27.9486 102.167L26.9058 106.433C26.7695 106.925 26.4555 107.322 25.9697 107.322Z" fill="#F7931E"/>
<path d="M83.0756 107.061C82.5898 107.061 82.2994 106.682 82.1869 106.172L81.4521 102.096C81.4521 101.61 82.5898 101.225 83.0756 101.225C83.5615 101.225 85.0546 101.421 85.0546 101.906L84.0118 106.172C83.8755 106.664 83.5615 107.061 83.0756 107.061Z" fill="#F7931E"/>
<path d="M69.1459 107.061C68.6601 107.061 68.3697 106.682 68.2572 106.172L67.5225 102.096C67.5225 101.61 68.6601 101.225 69.1459 101.225C69.6318 101.225 71.1249 101.421 71.1249 101.906L70.0821 106.172C69.9458 106.664 69.6318 107.061 69.1459 107.061Z" fill="#F15A24"/>
<path d="M24.5659 81.8858H6.80262C6.59524 81.8858 6.38786 81.9095 6.19233 81.9509L3.2061 62.1909L2.92763 62.2323C1.16196 62.499 -0.0526782 64.1461 0.213949 65.9118L3.89341 90.2579V97.4035C3.89341 100.111 6.08568 102.304 8.79344 102.304H22.4388C25.1466 102.304 27.3389 100.111 27.3389 97.4035V84.6705C27.3448 83.13 26.1005 81.8858 24.5659 81.8858Z" fill="#F15A24"/>
<path d="M83.6508 81.862C81.2216 81.862 79.2307 83.8528 79.2307 86.2821V95.7859H30.5682V86.2821C30.5682 83.8528 28.5774 81.862 26.1481 81.862C23.7188 81.862 21.728 83.8528 21.728 86.2821V98.2685C21.728 100.538 23.4641 102.398 25.6682 102.641V102.689H26.1481H83.6508C86.0801 102.689 88.0709 100.698 88.0709 98.2685V86.2821C88.0709 83.8528 86.0801 81.862 83.6508 81.862Z" fill="#FBB03B"/>
<path d="M116.309 21.1953C107.315 20.4843 99.4463 27.1973 98.7294 36.1916C98.0184 45.1858 104.731 53.0543 113.726 53.7712C116.718 54.0082 119.58 53.4217 122.098 52.207L130.073 54.7844L126.939 48.6579C129.386 46.0509 130.997 42.6262 131.305 38.7808C132.016 29.7747 125.303 21.9063 116.309 21.1953ZM116.09 46.3412L115.675 46.3886L115.468 46.4123C115.397 46.4182 115.331 46.4182 115.26 46.4182C114.982 46.4242 114.709 46.4301 114.431 46.4301C114.146 46.4064 113.862 46.3886 113.584 46.3531C113.305 46.2997 113.021 46.2583 112.748 46.1872C110.538 45.6243 108.601 44.0897 107.575 42.0574C107.06 41.0442 106.782 39.9125 106.752 38.7808C106.752 38.4964 106.734 38.218 106.776 37.9276C106.793 37.7854 106.799 37.6373 106.823 37.4951L106.906 37.0685C106.93 36.9263 106.977 36.7841 107.019 36.6478C107.066 36.5115 107.096 36.3693 107.155 36.2331C107.267 35.9664 107.374 35.6939 107.522 35.445C108.067 34.42 108.909 33.5727 109.892 32.9802C110.888 32.4055 112.025 32.0855 113.163 32.0974C113.305 32.1033 113.441 32.0914 113.589 32.1092L114.022 32.1507C114.306 32.204 114.597 32.2573 114.875 32.3522C115.432 32.5299 115.954 32.8025 116.422 33.1461C117.352 33.8453 118.039 34.8466 118.324 35.9664C118.466 36.5293 118.507 37.0981 118.46 37.6729C118.407 38.2594 118.223 38.8282 117.933 39.3319C117.642 39.8355 117.245 40.274 116.783 40.6117C116.315 40.9494 115.782 41.1864 115.231 41.299C114.674 41.4116 114.105 41.4234 113.536 41.2931C112.973 41.1627 112.458 40.8724 112.043 40.4932C111.213 39.717 110.822 38.5083 111.136 37.424C111.296 36.8848 111.64 36.4108 112.084 36.0968C112.529 35.7828 113.074 35.6109 113.601 35.6346C114.14 35.6406 114.662 35.8776 115.011 36.2627C115.367 36.6419 115.545 37.1692 115.497 37.6669C115.485 37.1692 115.254 36.6952 114.899 36.3812C114.543 36.0612 114.063 35.9072 113.607 35.9487C113.139 35.9724 112.701 36.162 112.357 36.4464C112.013 36.7426 111.776 37.1396 111.693 37.5662C111.61 37.9869 111.664 38.449 111.824 38.8579C111.972 39.2667 112.25 39.6222 112.576 39.8948C112.914 40.1614 113.311 40.3451 113.726 40.4102C114.135 40.4754 114.585 40.4339 114.994 40.3214C115.402 40.2029 115.794 40.0073 116.119 39.7407C116.445 39.4741 116.712 39.1363 116.896 38.769C117.079 38.4016 117.186 37.9928 117.198 37.584C117.21 37.1692 117.15 36.7367 117.026 36.3338C116.759 35.5339 116.238 34.8288 115.551 34.3548C115.207 34.1237 114.822 33.946 114.425 33.8393C114.022 33.7268 113.625 33.6794 113.192 33.709C112.333 33.7327 111.504 34.0171 110.793 34.4615C110.088 34.9236 109.489 35.5458 109.122 36.2923C109.015 36.476 108.95 36.6715 108.873 36.8611C108.832 36.9559 108.814 37.0626 108.784 37.1574C108.755 37.2581 108.725 37.3529 108.713 37.4596L108.66 37.7677C108.642 37.8684 108.642 37.975 108.636 38.0758C108.612 38.2772 108.63 38.4964 108.636 38.7097C108.683 39.5689 108.909 40.4102 109.317 41.1627C109.726 41.9152 110.283 42.5847 110.959 43.1061C111.634 43.6275 112.416 44.0127 113.246 44.2141C113.453 44.2674 113.666 44.2911 113.874 44.3326C114.087 44.3563 114.3 44.3682 114.514 44.3859L115.177 44.3741C115.231 44.3741 115.29 44.3741 115.343 44.3682L115.509 44.3504L115.835 44.3089C116.706 44.1904 117.559 43.9297 118.341 43.5327C119.917 42.7447 121.191 41.3938 121.908 39.794C121.985 39.5926 122.086 39.3911 122.151 39.1837L122.341 38.5557L122.465 37.9099C122.495 37.8032 122.495 37.6906 122.507 37.584L122.536 37.2581C122.566 37.0389 122.554 36.8137 122.554 36.5886C122.548 36.3634 122.56 36.1383 122.536 35.9131C122.477 35.4628 122.459 35.0125 122.341 34.574L122.27 34.2422L122.234 34.0763L122.181 33.9164L121.973 33.2705C121.908 33.0513 121.796 32.8499 121.713 32.6425L121.576 32.3285C121.535 32.2218 121.47 32.127 121.416 32.0263L121.085 31.4278L120.694 30.865C120.575 30.6694 120.421 30.4976 120.273 30.3258L120.054 30.0651C119.983 29.9762 119.911 29.8873 119.823 29.8103C119.195 29.1408 118.46 28.5897 117.69 28.092L117.085 27.7602C116.984 27.7069 116.884 27.6477 116.783 27.6003L116.463 27.464C116.25 27.3751 116.042 27.2744 115.823 27.2033L115.166 26.9959C113.4 26.4804 111.456 26.4923 109.596 26.83C107.735 27.1855 105.946 27.9558 104.382 29.0697C102.818 30.1777 101.485 31.6411 100.513 33.3298C99.5411 35.0244 98.9427 36.9441 98.7649 38.929C98.7412 37.9336 98.836 36.9263 99.0434 35.9427C99.2567 34.9592 99.5826 33.9934 100.009 33.0691C100.868 31.2205 102.184 29.5792 103.772 28.2698C106.989 25.6746 111.391 24.4718 115.574 25.4495L116.351 25.6568C116.605 25.7339 116.854 25.8405 117.103 25.9294L117.476 26.0716C117.601 26.1249 117.719 26.1901 117.838 26.2434L118.561 26.5989L119.242 27.0255C119.473 27.1618 119.686 27.3277 119.9 27.4936L120.22 27.7425C120.326 27.8254 120.433 27.9084 120.528 28.0032L121.12 28.5542C121.221 28.6431 121.31 28.7438 121.399 28.8445L121.665 29.1467C121.843 29.3481 122.027 29.5496 122.175 29.7748L122.649 30.4324L123.064 31.1316C123.129 31.2501 123.206 31.3627 123.265 31.4871L123.437 31.8544C123.544 32.1033 123.674 32.3403 123.763 32.5951L124.029 33.3653L124.095 33.5609L124.142 33.7564L124.237 34.1534C124.385 34.6807 124.432 35.2199 124.503 35.7591C124.533 36.0316 124.527 36.3042 124.539 36.5708C124.545 36.8433 124.557 37.1159 124.527 37.3944L124.497 37.8091C124.486 37.9454 124.48 38.0876 124.45 38.2239L124.296 39.0475L124.065 39.8474C123.982 40.114 123.863 40.3688 123.763 40.6295C122.868 42.6736 121.256 44.3859 119.272 45.3873C118.27 45.8672 117.192 46.1931 116.09 46.3412Z" fill="#808080"/>
<path d="M47.6672 57.7471H47.9279C48.71 57.7471 49.3558 57.1072 49.3558 56.3191V54.2809C49.3558 53.4988 48.7159 52.853 47.9279 52.853H47.6672C46.8851 52.853 46.2393 53.4929 46.2393 54.2809V56.3191C46.2452 57.1072 46.8851 57.7471 47.6672 57.7471Z" fill="#75181B"/>
<path d="M51.5547 61.9775C49.1788 62.1019 47.1228 60.2652 46.9984 57.8833L46.9806 57.5219C46.8561 55.1459 48.6929 53.0899 51.0748 52.9655C53.4507 52.8411 55.5067 54.6778 55.6312 57.0597L55.6489 57.4211C55.7734 59.803 53.9366 61.8531 51.5547 61.9775Z" fill="#8A1C20"/>
<path d="M64.8912 105.236C65.6614 105.23 67.0597 106.125 67.753 106.173C68.9261 106.25 73.5773 104.999 71.3672 104.348C71.2784 104.324 69.8978 104.294 69.1453 103.992C67.8181 103.459 66.9945 102.114 67.1249 100.692L67.5693 95.9222C67.593 94.5002 66.4791 93.3211 65.0808 93.2915C63.6824 93.2618 62.533 94.3817 62.5093 95.8037L63.084 101.948C63.1373 102.54 63.2321 103.133 63.3862 103.708C63.6232 104.626 63.9787 105.319 64.8912 105.236Z" fill="#F2C99B"/>
<path d="M75.272 104.993C76.0423 104.987 77.4406 105.983 78.1338 106.036C79.307 106.125 83.9581 104.733 81.7481 104.004C81.6592 103.974 80.2787 103.945 79.5262 103.613C78.199 103.02 77.3754 101.527 77.5058 99.9393L77.9501 94.6305C77.9738 93.0485 76.8599 91.739 75.4616 91.7035C74.0633 91.6679 72.9138 92.9181 72.8901 94.5001L73.4649 101.338C73.5182 101.995 73.613 102.653 73.767 103.299C74.004 104.318 74.3595 105.088 75.272 104.993Z" fill="#F2C99B"/>
<path d="M47.9809 111.339C48.9171 111.333 50.6294 112.252 51.4648 112.293C52.8928 112.376 58.5631 111.096 55.8731 110.427C55.7664 110.403 54.0837 110.373 53.1653 110.065C51.5478 109.52 50.5465 108.146 50.7064 106.688L51.2456 101.812C51.2753 100.36 49.9125 99.1572 48.212 99.1216C46.5115 99.0861 45.1073 100.241 45.0776 101.693L45.7768 107.974C45.842 108.578 45.9545 109.182 46.1441 109.775C46.4404 110.717 46.8729 111.422 47.9809 111.339Z" fill="#2E3192"/>
<path d="M54.7889 110.249C55.6895 110.243 57.3367 111.221 58.1425 111.274C59.5171 111.363 64.9741 109.994 62.3848 109.271C62.2841 109.242 60.6665 109.212 59.7778 108.886C58.2195 108.306 57.2537 106.83 57.4078 105.272L57.9232 100.052C57.9469 98.4995 56.6434 97.2079 55.0022 97.1723C53.3609 97.1368 52.016 98.3692 51.9863 99.9215L52.6618 106.646C52.727 107.298 52.8336 107.944 53.0114 108.572C53.3076 109.579 53.7224 110.338 54.7889 110.249Z" fill="#22246B"/>
<path d="M68.7782 78.2418C79.6329 77.3589 79.8047 96.1236 78.7678 97.0835C77.9916 97.8004 71.5155 99.5483 71.4622 99.5898C70.6446 100.242 62.6635 100.419 62.391 100.058C60.4475 97.4804 62.4206 91.0991 60.6194 91.4072C57.485 91.9346 53.5567 92.3967 52.5731 87.1234C52.0577 84.3446 50.1202 78.064 53.0827 79.0831C55.1031 79.7764 55.6127 76.9856 61.123 76.4228C62.8353 76.245 62.3969 78.7632 68.7782 78.2418Z" fill="#2E3192"/>
<path d="M53.4385 64.7684C53.4385 64.7684 55.056 64.5373 54.825 63.1508L54.4872 61.4563C54.3036 60.5379 53.4207 59.9335 52.5201 60.1113C51.6195 60.289 51.027 61.1837 51.2107 62.1021L51.5484 63.7967C51.7261 64.7151 52.5379 64.9461 53.4385 64.7684Z" fill="#C79D69"/>
<path d="M49.4921 58.2624C49.5454 58.2506 49.6046 58.2506 49.658 58.2446L49.6046 57.9721C49.3143 56.5145 50.2505 55.0925 51.6843 54.8081C53.1182 54.5237 54.5224 55.4836 54.8128 56.9411L55.2572 59.1986C55.5475 60.6561 54.6113 62.0782 53.1775 62.3626C51.8858 62.6173 50.6238 61.8589 50.1734 60.6384C50.1083 60.6621 50.0431 60.6858 49.972 60.6976C49.3084 60.828 48.6685 60.3895 48.5322 59.7141C48.4019 59.0445 48.8285 58.3928 49.4921 58.2624Z" fill="#F2C99B"/>
<path d="M54.4968 58.0556C54.5513 58.0448 54.5528 57.8201 54.5001 57.5536C54.4474 57.2872 54.3604 57.0799 54.3058 57.0907C54.2513 57.1015 54.2498 57.3263 54.3025 57.5927C54.3552 57.8592 54.4422 58.0664 54.4968 58.0556Z" fill="#534741"/>
<path d="M52.3278 58.6007C52.3824 58.5899 52.3839 58.3651 52.3312 58.0987C52.2784 57.8322 52.1915 57.625 52.1369 57.6358C52.0823 57.6466 52.0808 57.8713 52.1335 58.1378C52.1863 58.4042 52.2732 58.6115 52.3278 58.6007Z" fill="#534741"/>
<path d="M54.4158 58.9439C54.5106 59.1335 54.4158 59.252 54.3092 59.2757L54.0426 59.3291C53.9359 59.3528 53.8293 59.2757 53.8056 59.1691L53.5508 57.8656C53.8174 57.7826 54.4158 58.9439 54.4158 58.9439Z" fill="#C79D69"/>
<path d="M52.2353 55.3295C52.1761 55.0214 52.022 54.7607 51.8087 54.5593C51.8028 54.5297 49.3972 53.0662 48.6685 57.8062C48.9884 58.2743 49.5572 58.5291 50.1379 58.4165C50.837 58.2802 52.3775 56.0465 52.2353 55.3295Z" fill="#8A1C20"/>
<path d="M51.9219 54.4705C51.9753 54.2276 52.1115 54.0261 52.2952 53.872C52.3011 53.8483 54.4223 52.7167 55.0919 56.4317C54.8134 56.7931 54.3097 56.9946 53.7943 56.8998C53.1781 56.7813 51.7975 55.0274 51.9219 54.4705Z" fill="#8A1C20"/>
<path d="M63.2085 103.655C63.2085 103.655 63.9254 103.299 64.4468 104.081C64.8616 104.703 65.62 104.988 67.8004 105.059C68.4225 105.077 69.3291 104.763 69.8149 104.377C70.0519 104.188 70.366 104.111 70.6681 104.176C70.7629 104.2 70.8577 104.217 70.9525 104.247C71.8295 104.478 72.5168 105.165 72.736 106.048C72.736 106.054 72.7419 106.066 72.7419 106.072L72.9671 107.15C72.9671 107.15 69.0091 107.435 67.0479 107.34C65.0927 107.245 63.2322 107.05 63.2322 107.05L63.2085 103.655Z" fill="#2E3192"/>
<path d="M63.2266 106.208C63.2266 106.208 64.933 106.392 66.8882 106.487C68.7724 106.576 72.4993 106.321 72.7837 106.303L72.9614 107.151C72.9614 107.151 69.0035 107.435 67.0423 107.34C65.087 107.245 63.2266 107.05 63.2266 107.05V106.208Z" fill="#1B1464"/>
<path d="M73.548 103.074C73.548 103.074 74.1228 102.534 74.7805 103.465C75.2426 104.122 75.9418 104.49 78.1222 104.59C78.7443 104.62 79.6509 104.282 80.1426 103.856C80.3856 103.642 80.6996 103.565 80.9958 103.642C81.0906 103.666 81.1855 103.696 81.2803 103.725C82.1572 103.992 82.8385 104.768 83.0459 105.752C83.0459 105.758 83.0518 105.77 83.0518 105.775L83.2651 106.978C83.2651 106.978 79.3013 107.251 77.346 107.12C75.3907 106.99 73.5303 106.753 73.5303 106.753L73.548 103.074Z" fill="#1B1464"/>
<path d="M73.5356 105.817C73.5356 105.817 75.2361 106.036 77.1973 106.167C79.0756 106.291 82.8084 106.042 83.0987 106.024L83.2705 106.972C83.2705 106.972 79.3067 107.245 77.3514 107.115C75.3961 106.984 73.5356 106.747 73.5356 106.747V105.817Z" fill="#0C092B"/>
<path d="M57.7105 63.524C56.1403 62.6115 53.0652 63.0796 53.1304 64.5905C53.1482 64.9401 54.825 67.5471 57.9653 71.3332C59.2095 72.8322 60.039 72.69 59.9798 73.3536C59.7369 76.1029 59.2036 75.5874 59.4702 77.6256C59.7191 79.4979 60.7441 79.4801 61.6032 79.172C62.2195 78.9528 62.5631 78.0878 62.8949 77.1101C63.5763 75.1252 62.966 74.3727 62.6401 72.9744C62.4209 72.0383 60.4182 65.1 57.7105 63.524Z" fill="#1A1A1A"/>
<path d="M58.6826 78.8283C59.4884 77.9337 60.3534 75.6762 60.7563 75.0363C61.8169 73.3417 60.3238 68.5543 59.8794 67.0316C58.4337 62.0782 53.664 63.0618 53.664 63.0618C50.3934 63.6128 48.4204 64.9696 48.1123 68.3351C48.0471 69.0461 49.3269 74.0054 49.4632 74.7164L50.8259 79.0772C50.9385 79.4327 51.0926 79.7823 51.3355 80.0667C53.3619 82.4782 56.2592 81.5183 58.6826 78.8283Z" fill="#2E3192"/>
<path d="M48.396 66.7946C49.4033 65.2837 51.1986 65.8644 52.0399 67.1264C52.2354 67.4167 53.1005 68.3351 52.8102 73.2411C52.6976 75.1845 53.7226 76.2451 54.3329 76.5117C56.46 77.4479 59.5647 79.5039 60.7024 79.7409C61.4489 79.8949 60.2224 81.1806 59.3455 81.4414C58.7175 81.625 53.3494 79.9364 52.4547 79.5453C50.529 78.704 50.215 78.4433 49.6521 77.1279C49.267 76.2392 47.4124 68.2699 48.396 66.7946Z" fill="#1A1A1A"/>
<path d="M51.1754 62.2382C51.3946 62.1967 51.8153 63.1329 53.498 62.7892C54.6001 62.5641 54.5231 62.0131 54.6475 61.9479C55.1511 61.6694 55.4296 62.7418 55.4415 63.0025C55.4711 63.5358 55.4829 63.8024 55.3289 64.0039C54.8549 64.626 53.6343 65.1296 52.5263 64.8986C52.236 64.8393 51.4183 64.4068 51.0688 64.0809C50.7962 63.8261 50.5888 62.3567 51.1754 62.2382Z" fill="#1A1A1A"/>
<path d="M62.1729 81.5152C63.2465 80.4416 63.4529 78.9072 62.6338 78.0881C61.8147 77.269 60.2803 77.4754 59.2067 78.549C58.133 79.6226 57.9267 81.157 58.7458 81.9761C59.5649 82.7952 61.0993 82.5889 62.1729 81.5152Z" fill="#F2C99B"/>
<path d="M53.8827 61.4561C53.5983 61.4561 53.3672 61.225 53.3672 60.9406V60.751C53.3672 60.4666 53.5983 60.2355 53.8827 60.2355C54.1671 60.2355 54.3982 60.4666 54.3982 60.751V60.9406C54.3982 61.225 54.1671 61.4561 53.8827 61.4561Z" fill="#1A1A1A"/>
<path d="M53.4087 60.5318C53.4561 60.6088 53.539 60.6681 53.6398 60.6681H54.2145C54.2738 60.6681 54.3271 60.6444 54.3745 60.6088C54.3152 60.3837 54.1256 60.2178 53.8827 60.2178C53.6753 60.2178 53.4916 60.3481 53.4087 60.5318Z" fill="white"/>
<path d="M44.9953 75.0127L43.5436 74.1891C42.406 74.6987 41.0551 74.1713 40.5456 73.0278L35.9003 62.6115C35.3908 61.4621 35.9003 60.1112 37.0379 59.6016L37.9148 59.2106C39.0524 58.701 40.4034 59.2283 40.9129 60.3719L46.0736 71.5939C46.5891 72.7375 46.1388 74.5031 44.9953 75.0127Z" fill="white"/>
<path d="M30.3489 57.1662C29.0868 57.344 25.7925 55.1162 25.7925 52.6099V52.201C25.7925 49.6947 27.8426 47.6447 30.3489 47.6447C32.8552 47.6447 34.3483 48.7763 34.3483 51.2826V51.6915C34.3483 54.1978 32.8552 57.1662 30.3489 57.1662Z" fill="#754C24"/>
<path d="M47.9161 76.1561C59.867 75.2555 60.4595 101.219 59.3278 102.321C58.4805 103.145 54.1611 102.712 51.2993 103.074C51.2045 103.085 51.1749 105.426 51.1216 105.479C50.2269 106.226 41.44 106.338 41.1319 105.918C38.9634 102.92 41.0549 90.9391 39.07 91.2709C35.6216 91.8456 31.3023 92.3374 30.1646 86.2346C29.5662 83.0232 27.3621 75.7532 30.6386 76.956C32.8724 77.7795 33.4057 74.5622 39.467 73.9697C41.3512 73.7801 40.8949 76.6834 47.9161 76.1561Z" fill="#1A1A1A"/>
<path d="M40.1958 77.0922C41.4696 76.4523 43.0042 71.5345 41.203 62.7535C39.9469 56.6329 32.582 58.1261 32.582 58.1261C28.6182 58.7956 23.3271 60.4428 22.9538 64.5192C22.8768 65.3843 26.5622 68.8563 27.5635 72.4706L29.1455 77.5366C29.2818 77.9691 29.1159 78.4135 29.4062 78.763C31.8533 81.6782 36.2734 79.0534 40.1958 77.0922Z" fill="#2E3192"/>
<path d="M32.3038 60.1999C32.3038 60.1999 34.265 59.9214 33.9806 58.2446L33.5777 56.1945C33.3584 55.0806 32.286 54.3518 31.1899 54.5651C30.0997 54.7785 29.3827 55.8687 29.602 56.9826L30.0049 59.0326C30.23 60.1406 31.2136 60.4132 32.3038 60.1999Z" fill="#C79D69"/>
<path d="M27.5287 52.3137C27.5939 52.3018 27.665 52.2959 27.7302 52.2959L27.665 51.9641C27.3154 50.1984 28.4471 48.4742 30.1831 48.1306C31.9192 47.7869 33.6256 48.9542 33.9752 50.7198L34.5144 53.4572C34.8639 55.2229 33.7323 56.9471 31.9962 57.2907C30.432 57.5988 28.9033 56.6805 28.3582 55.1992C28.2812 55.2288 28.1982 55.2584 28.1153 55.2762C27.3154 55.4362 26.5333 54.9029 26.3733 54.0853C26.2074 53.2617 26.7229 52.4737 27.5287 52.3137Z" fill="#F2C99B"/>
<path d="M33.5884 52.0643C33.6558 52.051 33.659 51.7799 33.5955 51.4589C33.5319 51.1379 33.4258 50.8885 33.3584 50.9018C33.291 50.9152 33.2878 51.1862 33.3513 51.5072C33.4148 51.8282 33.521 52.0776 33.5884 52.0643Z" fill="#534741"/>
<path d="M30.9575 52.7284C31.025 52.715 31.0281 52.444 30.9646 52.123C30.9011 51.802 30.7949 51.5525 30.7275 51.5659C30.6601 51.5792 30.657 51.8503 30.7205 52.1713C30.784 52.4923 30.8901 52.7417 30.9575 52.7284Z" fill="#534741"/>
<path d="M33.4946 53.1371C33.6072 53.3682 33.4946 53.5104 33.3642 53.54L33.0384 53.6052C32.908 53.6289 32.7777 53.5459 32.754 53.4097L32.4399 51.8336C32.7717 51.7329 33.4946 53.1371 33.4946 53.1371Z" fill="#C79D69"/>
<path d="M32.737 58.7602L32.3578 61.7523L28.8916 59.2223L29.6678 57.5633L32.737 58.7602Z" fill="#CCCCCC"/>
<path d="M33.5723 58.6653L34.8639 61.065L34.6566 57.9662L33.827 57.4388L33.5723 58.6653Z" fill="#CCCCCC"/>
<path d="M33.3708 59.7733L32.5591 60.1821L32.7368 58.7601L33.3708 59.7733Z" fill="#B3B3B3"/>
<path d="M33.8737 59.2224L33.3701 59.7734L33.5716 58.6654L33.8737 59.2224Z" fill="#B3B3B3"/>
<path d="M27.2316 51.5434C27.4805 51.8752 28.2093 51.8456 28.7129 51.6264C30.0993 51.022 29.9394 49.1023 31.0651 48.6698C31.8769 48.3617 32.3864 48.5631 32.5405 48.6283C33.5359 49.049 33.6722 49.8429 33.6722 49.8429C34.2469 49.8548 34.6024 48.6757 34.6735 47.5973C34.709 47.0108 34.6024 46.4301 34.4839 46.4182C34.3476 46.4123 34.1995 47.2241 34.0988 47.2063C34.0099 47.1944 34.1165 46.6256 33.9092 46.5249C33.7077 46.4242 33.3285 46.8389 33.133 47.0167C32.1613 47.9114 30.9644 47.3307 29.7083 47.7514C27.8834 48.3794 26.7339 50.8857 27.2316 51.5434Z" fill="#754C24"/>
<path d="M51.299 103.068C51.299 102.57 50.8428 85.0911 50.7302 82.176C50.5169 76.6479 41.813 76.0435 41.4397 82.6974C41.2975 85.2452 40.9716 87.1234 40.5095 88.2788C39.9407 89.7067 39.7688 90.6429 38.5542 91.0221" stroke="#F2F2F2" stroke-width="0.335892" stroke-miterlimit="10" stroke-linecap="round"/>
<path d="M37.0912 75.5517H30.3722L28.7606 64.697C28.5176 63.0676 26.989 61.936 25.3596 62.1789C23.7302 62.4218 22.5985 63.9505 22.8414 65.5799L24.7137 78.1943C24.9033 79.486 25.9106 80.4518 27.1312 80.6828C27.3445 80.7421 27.5637 80.7776 27.7948 80.7776H37.0912C38.5251 80.7776 39.7041 79.6045 39.7041 78.1647C39.7041 76.7249 38.531 75.5517 37.0912 75.5517Z" fill="white"/>
<path d="M41.2499 77.5189L42.5593 77.8092C43.5014 78.0166 44.4079 77.5485 44.5798 76.7723L46.0077 74.035C46.4343 71.5346 43.8095 70.3851 43.7562 70.3733C43.2051 70.1481 43.0689 69.9585 42.423 70.551C41.8839 71.0487 41.4869 71.6472 41.2262 72.293L39.8516 75.7295C39.6797 76.5057 40.3078 77.3115 41.2499 77.5189Z" fill="white"/>
<path d="M41.3458 80.7777C43.5382 80.7777 45.3156 79.3558 45.3156 77.6019C45.3156 75.8479 43.5382 74.426 41.3458 74.426C39.1533 74.426 37.376 75.8479 37.376 77.6019C37.376 79.3558 39.1533 80.7777 41.3458 80.7777Z" fill="#F2C99B"/>
<path d="M33.0739 55.9162C32.7895 55.9517 32.5288 55.7562 32.4932 55.4718L32.4695 55.2822C32.434 54.9978 32.6295 54.7371 32.9139 54.7016C33.1983 54.666 33.459 54.8615 33.4945 55.1459L33.5182 55.3355C33.5597 55.6199 33.3583 55.8806 33.0739 55.9162Z" fill="#1A1A1A"/>
<path d="M32.4878 55.0629C32.547 55.134 32.6359 55.1814 32.7366 55.1696L33.3055 55.0925C33.3647 55.0866 33.418 55.0511 33.4536 55.0155C33.3647 54.8022 33.1514 54.66 32.9144 54.6956C32.707 54.7193 32.5411 54.8674 32.4878 55.0629Z" fill="white"/>
<path d="M47.0927 0.676819C27.1252 0.676819 10.938 9.88436 10.938 21.2427C10.938 30.1895 20.981 37.7973 34.9997 40.6295L36.8483 47.8344L40.2137 41.4353C42.4415 41.6782 44.7405 41.8145 47.0927 41.8145C48.4614 41.8145 49.8123 41.7671 51.1454 41.6842L54.0013 50.5006L57.6689 40.9198C72.4757 38.3483 83.2533 30.5154 83.2533 21.2486C83.2533 9.88436 67.0661 0.676819 47.0927 0.676819Z" fill="#808080"/>
<path d="M65.6555 111.778C65.2941 112.459 62.1656 111.796 56.9871 111.902C56.6316 111.908 56.3591 111.932 56.1221 111.944C56.1458 112.021 56.1695 112.098 56.1872 112.181C56.1991 112.246 56.2465 112.477 56.205 112.738C56.4242 112.726 56.6731 112.708 56.9931 112.702C62.1716 112.595 65.3 113.265 65.6614 112.578C65.7918 112.329 65.774 111.985 65.691 111.677C65.6733 111.707 65.6733 111.748 65.6555 111.778Z" fill="#362E2A"/>
<path d="M45.4512 111.973C45.4453 111.878 45.4453 112.678 45.4512 112.773C45.5519 115.131 55.269 115.386 56.1045 113.828C56.2882 113.484 56.2052 113.069 56.1874 112.981C56.1815 112.951 56.1697 112.921 56.1637 112.898C56.1459 112.945 56.1282 112.986 56.1045 113.028C55.269 114.58 45.5579 114.331 45.4512 111.973Z" fill="#534741"/>
<path d="M56.1645 112.892C56.1823 112.838 56.1942 112.785 56.206 112.732C56.1764 112.732 56.1526 112.738 56.1289 112.738C56.1408 112.791 56.1526 112.844 56.1645 112.892Z" fill="#736357"/>
<path d="M65.6555 111.813C65.8451 111.452 65.7325 110.901 65.5488 110.534C65.2704 109.988 64.5594 109.591 64.2276 109.479C63.1847 109.112 62.4974 109.005 61.5376 108.501C60.2459 107.82 59.6001 107.482 59.5231 107.417C58.1958 106.38 58.3499 105.527 57.5085 105.355C56.5191 105.148 55.9502 106.244 54.9252 105.965C54.386 105.817 53.6395 105.337 53.284 105.219C52.8159 105.059 52.5196 105.154 52.3597 105.266C51.7316 105.699 52.099 107.352 52.1404 107.589C52.2886 108.43 52.7803 111.268 54.8837 111.884C55.5888 112.092 55.9621 111.961 56.9871 111.938C62.1656 111.831 65.2881 112.501 65.6555 111.813Z" fill="#534741"/>
<path d="M46.1744 107.097C45.1613 107.304 45.2561 107.713 45.3983 109.437C45.4575 110.113 45.4457 111.914 45.4516 112.009C45.5523 114.367 55.2694 114.622 56.1048 113.063C56.2885 112.72 56.2056 112.305 56.1878 112.216C56.016 111.387 55.5242 110.759 54.4991 110.16C53.1482 109.366 53.1838 108.946 52.7453 108.193C52.4846 107.749 51.8566 106.564 51.4951 106.51C50.4109 106.356 49.8361 107.737 48.5919 107.761C47.4187 107.784 46.9032 106.949 46.1744 107.097Z" fill="#736357"/>
<path d="M138.03 77.7321L137.219 76.719C137.005 76.4464 136.626 76.2864 136.229 76.3101C136.223 76.3101 136.223 76.3101 136.217 76.3101L135.548 76.3042C135.186 76.3101 134.564 76.4168 134.303 76.5353L132.076 77.4063C131.85 77.4951 131.916 77.6847 131.916 77.6847C132.052 77.8743 132.123 77.8151 132.455 77.7618L133.723 77.5366L132.496 78.0462C132.271 78.135 131.685 78.532 131.714 78.7335C131.714 78.7335 131.607 79.5452 132.147 79.6222L134.766 79.4563C135.352 79.4386 135.921 79.2608 136.377 78.9586C136.786 78.6861 137.42 78.2239 137.42 78.2239C137.521 78.1587 138.072 77.8329 138.03 77.7321Z" fill="#FFD29B"/>
<path d="M138.018 77.8389C137.959 77.8922 137.082 79.2372 135.601 79.646C134.985 79.8179 133.497 79.8001 133.379 79.8001C133.26 79.8001 133.018 79.652 133.278 79.5512C133.539 79.4505 134.694 79.2609 135.032 79.1661C135.305 79.0891 135.21 78.698 135.204 78.3603C135.198 78.0167 135.299 77.2879 136.128 77.2227C136.964 77.1575 137.414 77.0923 137.414 77.0923L138.018 77.8389Z" fill="#FFD29B"/>
<path d="M139.903 78.0581L137.569 78.8225L136.401 75.6703L138.677 74.7401L139.903 78.0581Z" fill="#C7C7C7"/>
<path d="M78.608 31.1909C78.1044 30.788 77.4526 30.6932 76.8186 30.6636C77.032 30.0533 77.2393 29.443 77.4526 28.8387C77.5237 28.6432 77.3045 28.3825 77.0971 28.4654C75.8055 28.9809 74.5197 29.4964 73.2281 30.0059C72.5941 30.2607 71.9601 30.5096 71.3261 30.7643C70.9173 30.9302 70.3307 31.2561 69.8271 31.2324C69.8923 31.1495 69.9574 31.0665 70.0226 30.9776C70.6447 30.5688 71.1898 30.0652 71.5631 29.3956C71.6342 29.2712 71.6935 29.1349 71.7586 29.0046C72.3215 28.4358 72.9081 27.8848 73.5302 27.3752C73.8206 27.1204 73.4117 26.7116 73.1214 26.9486C72.8785 27.1619 72.6296 27.3574 72.3808 27.5589C72.4756 27.3159 72.5763 27.0789 72.6711 26.836C73.5362 26.3679 74.3953 25.8939 75.2604 25.4258C75.5151 25.2896 75.4203 24.863 75.1182 24.8689C74.5908 24.8867 74.0635 24.94 73.5421 25.0111C73.8146 24.4956 74.105 23.992 74.4131 23.4943C74.9819 22.5759 75.6336 21.7286 76.2617 20.8517C76.8246 20.0637 77.346 19.1808 77.4289 18.1973C77.4645 17.8003 77.4526 17.273 77.1682 16.9589C76.8483 16.5975 76.3861 16.6982 75.9891 16.8464C75.0471 17.1959 74.1524 17.664 73.2992 18.1854C72.7363 18.535 72.1853 18.9024 71.6401 19.2816C71.6283 19.2519 71.6283 19.2282 71.6164 19.1986C71.2728 18.5409 70.4492 18.4521 69.8271 18.7128C69.0568 19.0268 68.3577 19.6193 67.6763 20.0933C67.0364 20.5377 66.4024 20.9939 65.7803 21.462C66.0054 20.6917 66.2187 19.9155 66.4142 19.1394C66.6512 19.2875 66.9356 19.3882 67.2675 19.4001C68.4643 19.4475 69.4953 18.5054 70.2063 17.6462C71.1543 16.5086 71.8594 15.1933 72.2978 13.7772C72.3334 13.6587 72.2801 13.4987 72.1675 13.4395C71.3557 13.0247 70.5499 13.0306 69.7678 13.2795C70.307 12.5329 70.8521 11.7923 71.3972 11.0517C71.569 10.8206 71.2372 10.4651 71.0002 10.6369C69.7797 11.5197 68.6361 12.4974 67.5519 13.5283C67.6704 12.764 67.777 12.0056 67.8659 11.2353C67.8955 10.9569 67.54 10.868 67.3623 11.0161C66.4853 11.7508 66.0173 12.8173 65.7684 13.9135C65.644 14.4645 65.5373 15.0511 65.4722 15.6377C65.1048 16.0346 64.7434 16.4435 64.3879 16.8523C64.2931 16.7279 64.1983 16.6153 64.0975 16.4968C64.613 15.4303 65.1226 14.3341 65.4425 13.2025C65.7506 12.1004 65.7743 10.9628 65.33 9.89627C64.5301 7.9884 62.5926 6.79154 60.7677 6.0035C58.4865 5.01994 56.0098 4.43336 53.5569 4.10748C48.5146 3.4498 43.271 4.06601 38.5309 5.95018C36.8541 6.61378 34.33 7.90545 35.1833 10.1451C35.3077 10.4769 35.5032 10.7791 35.7343 11.0457C35.361 11.419 35.0114 11.8101 34.6796 12.1833C34.6619 12.2011 34.6441 12.2248 34.6263 12.2485C34.4011 12.3907 34.1819 12.5388 33.9745 12.6751C33.2161 13.1788 32.4755 13.7061 31.7586 14.269C31.7408 14.2808 31.7289 14.2927 31.7112 14.3045C31.4623 14.4526 31.2075 14.6008 30.9528 14.743C30.4432 15.0274 29.8685 15.2999 29.27 15.2466C29.0923 15.2288 28.9205 15.1755 28.7546 15.1044C28.6598 14.8792 28.5709 14.6541 28.4702 14.4289C28.0554 13.475 27.6407 12.4974 27.1193 11.5968C26.7341 10.9332 26.0527 10.1925 25.2114 10.471C25.0633 10.5184 24.9448 10.6725 24.9981 10.8324C25.3003 11.8041 25.7091 12.7344 26.2009 13.6231C25.798 13.9668 25.4721 14.4704 25.2529 14.8318C24.8855 15.4303 24.5418 16.0406 24.216 16.6627C23.9079 16.0702 23.5405 15.5132 23.0784 15.0274C22.7347 14.6659 22.3377 14.3519 21.9111 14.0971C21.7571 14.0023 21.5201 14.0794 21.4727 14.269C21.289 15.0392 21.5201 15.7562 21.8222 16.4612C22.16 17.2374 22.5273 18.0077 22.8769 18.7779C22.9421 18.9201 23.0073 19.0623 23.0724 19.2045C22.7643 20.034 22.5155 20.8813 22.3437 21.7464C22.0355 23.3225 21.9941 24.9637 22.2963 26.5457C21.2712 26.4568 20.2462 26.3798 19.2211 26.3383C18.4035 26.3087 17.5799 26.2909 16.7622 26.2909C16.4423 26.2909 16.3356 26.8064 16.6734 26.8716C18.6405 27.2685 20.6313 27.6359 22.634 27.8729C22.7051 28.0921 22.7762 28.3114 22.8651 28.5247C23.0784 29.052 23.3331 29.5615 23.6353 30.0415C23.9019 30.4562 24.2041 30.948 24.6841 31.1317C25.952 31.6116 25.875 29.5852 25.9105 28.8979C25.9224 28.6372 25.9224 28.3765 25.9283 28.1099C26.349 28.1217 26.7756 28.1158 27.1963 28.104C27.9428 29.6978 28.6953 31.2857 29.4537 32.8736C30.1647 34.3549 30.9409 35.8362 32.1437 36.9856C32.3274 37.1634 32.6414 37.0449 32.6533 36.7842C32.677 36.168 32.6888 35.5518 32.6947 34.9296C33.6783 35.7829 34.7981 36.4879 36.0602 36.8257C36.7356 37.0093 37.4526 37.0923 38.1517 37.033C38.4835 37.0034 38.8094 36.9501 39.1293 36.8612C39.2597 36.8257 39.4374 36.796 39.55 36.719C39.6981 36.6183 39.7278 36.4287 39.7752 36.2628C39.9292 35.771 40.0774 35.2792 40.2314 34.7874C40.3262 35.0126 40.4388 35.2259 40.6165 35.3859C41.0017 35.7295 41.4816 35.6703 41.9437 35.4747C43.5435 36.4465 45.6647 36.4939 47.4659 36.3931C49.3619 36.2865 51.2935 35.8717 52.9407 34.8882C53.4976 34.5564 54.1434 34.1179 54.6174 33.5965C54.7063 33.6439 54.7893 33.6972 54.8782 33.7387C56.4542 34.4497 58.2614 34.4023 59.9382 34.1594C62.1186 33.8394 64.2812 33.2292 66.3668 32.5181C67.2319 32.2219 68.174 31.9256 69.0509 31.5168C69.0746 31.5761 69.1101 31.6294 69.1635 31.659C69.7264 31.9553 70.2952 31.8071 70.864 31.5879C71.569 31.3154 72.2682 31.031 72.9674 30.7466C74.2057 30.2548 75.4381 29.763 76.6764 29.2653C76.4928 29.7985 76.3091 30.3318 76.1195 30.8591C76.0543 31.0428 76.2143 31.2324 76.398 31.2383C76.9431 31.2502 77.5474 31.2502 78.0392 31.5168C78.4599 31.7479 78.7798 32.216 78.6317 32.7018C78.5191 33.0692 79.0879 33.2351 79.2005 32.8677C79.402 32.2397 79.1176 31.5938 78.608 31.1909ZM71.7172 27.6063C71.6283 27.8373 71.5335 28.0625 71.4387 28.2877C70.5085 28.9631 69.5367 29.5734 68.5176 30.1007C67.7 30.5214 66.8527 30.9125 65.9817 31.2146C65.2352 31.4694 64.3938 31.6709 63.6354 31.3924C64.222 30.634 64.8737 29.9348 65.5907 29.3008C66.746 29.7689 68.174 29.2297 69.2464 28.6787C70.1233 28.2284 70.9884 27.7603 71.8534 27.2922C71.812 27.393 71.7646 27.4996 71.7172 27.6063ZM66.1239 28.8505C67.9785 27.3574 70.1826 26.3028 72.5111 25.7991C72.4163 25.9947 72.3275 26.1961 72.2386 26.3916C71.338 26.8775 70.4374 27.3633 69.5367 27.8492C68.6243 28.341 67.2438 29.0994 66.1239 28.8505ZM75.0471 17.901C75.2841 17.7825 75.527 17.6759 75.7699 17.5692C75.9654 17.4863 76.4631 17.2078 76.6764 17.3026C76.9016 17.3974 76.872 17.8773 76.8601 18.0729C76.8483 18.3573 76.7831 18.6417 76.6883 18.9142C76.3328 19.9452 75.5744 20.7984 74.9463 21.6694C74.1524 22.7714 73.4591 23.9327 72.8429 25.1414C70.153 25.6392 67.6111 26.8419 65.5136 28.5958C65.4959 28.5839 65.4781 28.5661 65.4603 28.5543C66.6216 26.9723 67.7829 25.3903 68.9442 23.8024C69.5486 22.9788 70.153 22.1493 70.7573 21.3257C71.0239 20.9643 71.4742 20.4962 71.652 19.9985C72.7481 19.2401 73.8502 18.4935 75.0471 17.901ZM68.7724 20.0696C69.2879 19.72 70.1056 18.9498 70.7751 19.2045C71.0417 19.3053 71.1247 19.4771 71.1069 19.6667C70.147 20.3362 69.1872 20.9998 68.1621 21.5686C67.54 21.9182 66.4853 22.5581 65.7151 22.2678C66.1061 21.9597 66.4972 21.6575 66.9001 21.3731C67.5163 20.9287 68.1444 20.4962 68.7724 20.0696ZM54.5108 32.767C54.5049 32.7848 54.4871 32.7966 54.4812 32.8085C54.3212 32.6959 54.1612 32.5833 54.0249 32.447C54.1494 32.3937 54.2679 32.3404 54.3923 32.2871C54.5226 32.4352 54.5878 32.6011 54.5108 32.767ZM42.08 34.7104C42.0445 34.7282 42.0089 34.7519 41.9734 34.7756C41.2742 34.2601 40.7765 33.5491 40.4743 32.7492C41.926 33.0336 43.425 32.927 44.8707 32.5655C44.7463 32.69 44.6219 32.8144 44.4915 32.9329C43.7568 33.6143 42.951 34.2127 42.08 34.7104ZM31.9541 30.6518C32.0311 31.6057 32.0785 32.5655 32.0963 33.5195C31.4031 32.7966 30.775 32.0264 30.224 31.3094C29.6196 30.5214 29.0567 29.7097 28.5294 28.8683C28.3635 28.6076 28.2095 28.3351 28.0554 28.0625C28.2509 28.0507 28.4465 28.0329 28.642 28.021C29.6789 28.2166 30.7217 28.4476 31.7526 28.7202C31.8356 29.366 31.9008 30.0059 31.9541 30.6518ZM25.3595 27.4937C24.6011 27.4641 23.8368 27.4048 23.0784 27.3219C23.0665 27.2804 23.0547 27.2448 23.0428 27.2034C23.819 27.2804 24.5893 27.3693 25.3595 27.4759C25.3595 27.4878 25.3595 27.4878 25.3595 27.4937ZM24.8263 21.5686C24.5359 20.9406 24.2397 20.3125 23.9493 19.6845C23.8723 19.5126 23.7953 19.3467 23.7183 19.1749C23.8605 18.8076 24.0204 18.4402 24.1804 18.0847C24.3167 18.4758 24.4411 18.8668 24.5418 19.2638C24.7137 19.9511 24.85 20.6562 24.9625 21.3613C24.9151 21.4264 24.8677 21.4975 24.8263 21.5686ZM31.3794 15.3295C31.5927 15.1577 31.806 14.9859 32.0193 14.82C32.3748 14.6185 32.7244 14.423 33.0799 14.2275C32.9495 14.4112 32.8132 14.5889 32.6888 14.7785C32.203 15.1577 31.7349 15.5665 31.3083 16.0346C30.7809 16.6094 30.301 17.2493 29.827 17.8951C29.7204 17.5929 29.6137 17.2967 29.5071 16.9945C30.1114 16.4198 30.7395 15.8628 31.3794 15.3295ZM44.853 11.5553C45.8128 12.1004 46.8675 12.4203 47.9695 12.5033C48.8998 12.5685 49.8241 12.4914 50.7365 12.3433C50.7721 12.4618 50.7958 12.5803 50.8254 12.7047C48.3724 13.1491 45.8721 13.315 43.4072 13.1491C43.3954 13.1491 43.3835 13.1491 43.3717 13.1432C43.4072 12.367 43.2117 11.5908 42.554 11.0931C42.9155 10.9865 43.2769 10.8858 43.6383 10.791C44.0412 11.0457 44.4382 11.3183 44.853 11.5553ZM44.4026 10.5776C45.8424 10.2221 47.4718 9.90219 48.8938 10.3584C49.676 10.6073 50.1855 11.1228 50.5114 11.7627C48.7576 12.0293 46.9741 12.0234 45.3625 11.1583C45.0366 10.9806 44.7226 10.785 44.4026 10.5776ZM51.8564 29.2238C51.9808 29.7393 52.1111 30.2666 52.2948 30.7703C51.7675 30.6814 51.2342 30.634 50.701 30.6043C50.2922 30.5807 49.8774 30.5747 49.4686 30.5629C50.2803 30.0652 51.0565 29.5082 51.7912 28.9039C51.8149 29.0105 51.8327 29.1172 51.8564 29.2238ZM49.8893 29.5912C49.3915 29.9289 48.8642 30.2429 48.331 30.5392C47.9695 30.5392 47.6081 30.5392 47.2467 30.551C47.3059 30.4562 47.3652 30.3673 47.4244 30.2785C48.8524 27.9381 49.8419 24.7208 49.2256 21.9775C49.4567 21.4916 49.6819 21.0058 49.8952 20.514C50.0137 20.2414 50.1322 19.9629 50.2388 19.6845C50.9498 20.2592 50.9439 21.4324 50.9617 22.2678C51.0091 24.2764 51.2402 26.285 51.649 28.2521C51.092 28.7261 50.4995 29.1764 49.8893 29.5912ZM39.5263 31.1554C39.5323 31.262 39.5441 31.3687 39.5559 31.4694C39.3663 31.5109 39.1827 31.5583 38.9931 31.5998C38.9575 31.5701 38.922 31.5464 38.8923 31.5168C39.1056 31.3983 39.3189 31.2798 39.5263 31.1554ZM28.6835 27.4404C28.3457 27.3752 28.008 27.3159 27.6703 27.2567C27.5577 26.9841 27.457 26.6997 27.3977 26.4094C27.0956 25.0348 27.6881 23.8261 28.5768 22.8603C28.9797 23.1684 29.4359 23.4113 29.8744 23.6128C30.2418 23.7846 30.615 23.9446 30.9824 24.1046C31.1898 25.0644 31.3675 26.0361 31.5216 27.0078C31.5156 27.0078 31.5097 27.0138 31.4979 27.0138C30.5676 27.2211 29.6256 27.3574 28.6835 27.4404ZM29.6019 19.1808C29.6137 19.1749 29.6256 19.169 29.6374 19.1631C29.7322 19.4475 29.827 19.7319 29.91 20.0163C29.9929 20.2888 30.0699 20.5673 30.1529 20.8399C30.0877 20.8813 30.0225 20.9169 29.9633 20.9584C29.4715 21.2783 28.9916 21.6338 28.5531 22.0367C28.2924 21.7582 28.1265 21.4501 28.0732 21.1361C28.6183 20.514 29.116 19.8504 29.6019 19.1808ZM34.4663 13.4987C35.207 13.1373 35.9594 12.8055 36.7178 12.4914C36.7356 12.5033 36.7475 12.5211 36.7652 12.5388C36.2675 12.7403 35.7758 12.9536 35.2899 13.1788C34.8989 13.3624 34.5256 13.558 34.1582 13.7713C34.2056 13.7061 34.253 13.6409 34.3063 13.5817C34.3597 13.558 34.413 13.5224 34.4663 13.4987ZM42.791 12.6929C42.8029 12.8232 42.8088 12.9536 42.8029 13.078C41.7719 12.9773 40.7469 12.8055 39.7515 12.5211C39.5145 12.4559 39.2775 12.3848 39.0405 12.3078C39.9352 11.97 40.8358 11.6442 41.7423 11.342C42.3052 11.5494 42.7199 11.9819 42.791 12.6929ZM51.4653 15.217C51.4712 15.1577 51.4831 15.1044 51.489 15.0451C51.5601 14.4349 51.5779 13.7772 51.5127 13.1432C51.6194 13.1195 51.726 13.1017 51.8327 13.078C51.9808 13.7772 51.7912 14.5237 51.4653 15.217ZM65.4662 17.3737C65.5018 17.6996 65.5847 18.0136 65.7151 18.298C65.5966 18.4995 65.4781 18.7009 65.3655 18.9083C65.2826 18.5469 65.1641 18.1913 65.0041 17.8477C65.0693 17.7766 65.1344 17.7055 65.1996 17.6403C65.2885 17.5514 65.3774 17.4626 65.4662 17.3737ZM64.9093 19.803C64.8797 19.8622 64.856 19.9215 64.8263 19.9807C64.4353 19.643 63.9494 19.56 63.4517 19.5541C63.8072 19.1394 64.1746 18.7305 64.5538 18.3336C64.7375 18.7957 64.856 19.2934 64.9093 19.803ZM58.3088 21.3613C56.4542 20.1466 54.1671 19.5541 51.9808 19.2223C52.0815 19.2105 52.1823 19.1868 52.283 19.1749C53.3791 19.0623 54.4575 19.3112 55.524 19.5363C57.4674 19.9511 59.4464 20.1703 61.4372 20.1822C61.0935 20.7391 60.738 21.2902 60.3648 21.8293C60.1752 22.1078 59.9737 22.3744 59.7723 22.647C59.3634 22.1611 58.8598 21.7227 58.3088 21.3613ZM47.8984 28.0507C47.537 28.9394 47.0689 29.7926 46.5238 30.5866C46.0143 30.6103 45.5106 30.634 45.0011 30.6755C45.795 29.0164 46.589 27.3633 47.3948 25.7162C47.857 24.7741 48.325 23.8379 48.7872 22.8958C48.9709 24.6378 48.5502 26.4568 47.8984 28.0507ZM35.6336 25.6806C35.3077 25.5088 34.9759 25.331 34.6441 25.1592C34.6382 24.8689 34.6441 24.5786 34.6678 24.2942C34.733 23.5713 34.9107 22.8544 35.1773 22.1789C35.4143 21.5923 35.7343 20.9228 36.2379 20.508C36.6349 20.4666 37.0319 20.4192 37.4289 20.3718C37.4466 21.1302 37.4703 21.8945 37.4881 22.6529C37.4881 22.6588 37.494 22.6648 37.494 22.6766C37.4229 23.0025 37.3459 23.3284 37.257 23.6424C37.1148 24.1697 36.943 24.6852 36.7534 25.1948C36.386 25.3666 36.0068 25.5266 35.6336 25.6806ZM31.486 23.672C31.2964 22.8129 31.0831 21.9538 30.8461 21.1006C31.1898 20.8932 31.5334 20.6977 31.8889 20.5199C32.6414 20.828 33.4946 20.7806 34.2886 20.7095C34.6559 20.6799 35.0233 20.6384 35.3847 20.6028C35.124 20.9524 34.9107 21.3376 34.7567 21.6694C34.3004 22.6766 34.0634 23.7728 34.0516 24.8748C33.2043 24.4541 32.3511 24.0512 31.486 23.672ZM30.8165 23.3817C30.1884 23.1151 29.5604 22.8307 29.0153 22.4218C29.1397 22.3093 29.2641 22.2026 29.3885 22.096C29.6848 21.859 29.9988 21.6397 30.3247 21.4264C30.5025 22.0723 30.6624 22.724 30.8165 23.3817ZM31.486 18.3158C33.3524 17.5692 35.3314 17.1011 37.34 16.9234C37.3518 17.2967 37.3578 17.664 37.3696 18.0373C35.4677 18.4047 33.619 19.0031 31.883 19.8681C31.7763 19.803 31.6756 19.7259 31.5927 19.6311C31.2668 19.2638 31.2727 18.7957 31.3971 18.3573C31.4208 18.3454 31.4505 18.3276 31.486 18.3158ZM44.5389 17.7114C44.5508 17.7173 44.5626 17.7233 44.5745 17.7292C43.6442 17.6344 42.714 17.5929 41.7778 17.5988C41.8726 17.4152 41.9793 17.2433 42.0682 17.0537C42.9095 17.1959 43.739 17.4033 44.5389 17.7114ZM44.7108 26.1546C44.9478 25.2659 45.2796 24.383 45.6884 23.5298C45.795 23.3995 45.9017 23.2751 46.0083 23.1447C45.8898 23.8616 45.7595 24.5726 45.6232 25.2718C45.3033 26.9071 44.9004 28.5306 44.4323 30.1303C44.1597 28.8268 44.379 27.387 44.7108 26.1546ZM47.2882 19.5126C47.3711 19.6015 47.4541 19.6845 47.5311 19.7733C47.3533 19.9037 47.1756 20.0459 46.9978 20.1762H46.9919C46.9801 20.1822 46.9741 20.1822 46.9623 20.1881C46.9682 20.0933 46.9741 19.9926 46.98 19.8978C46.98 19.7556 46.9563 19.6252 46.9208 19.5067C47.0452 19.5126 47.1697 19.5186 47.2882 19.5126ZM46.6601 18.932C46.589 18.932 46.5179 18.9379 46.4468 18.9379C46.2453 18.8431 45.9906 18.8313 45.7121 18.9142C45.6647 18.932 45.6173 18.9498 45.5699 18.9735C45.0366 19.0031 44.5093 19.0327 43.976 19.0742C42.8918 19.1631 41.8075 19.2756 40.7232 19.4001C40.978 19.0031 41.2268 18.6061 41.452 18.1913C43.0103 18.1617 44.5685 18.2743 46.1091 18.5291C46.3046 18.6535 46.4883 18.7898 46.6601 18.932ZM32.8369 20.1466C32.7955 20.1407 32.754 20.1348 32.7125 20.1288C33.1924 19.9155 33.6783 19.7141 34.1582 19.5363C35.207 19.1571 36.2853 18.8609 37.3755 18.6417C37.3815 18.9735 37.3933 19.3112 37.3992 19.643C36.8837 19.4771 36.4157 19.6371 36.0068 19.9511C34.97 20.0755 33.8797 20.2592 32.8369 20.1466ZM38.205 20.2888C38.6494 20.2355 39.0879 20.1822 39.5322 20.1288C39.2538 20.514 38.9634 20.8873 38.6613 21.2487C38.5309 21.4027 38.3887 21.5449 38.2584 21.6931C38.2643 21.6457 38.2761 21.5983 38.2821 21.5509C38.3472 21.1183 38.3769 20.6562 38.205 20.2888ZM38.0036 19.72C37.9917 19.323 37.9799 18.9261 37.974 18.5232C38.4835 18.4343 38.999 18.3573 39.5145 18.3039C39.9352 18.2625 40.3558 18.2328 40.7824 18.2091C40.5277 18.6417 40.261 19.0683 39.9826 19.483C39.3189 19.566 38.6613 19.643 38.0036 19.72ZM41.1083 17.6166C40.0537 17.6522 38.999 17.7529 37.9562 17.9306C37.9443 17.5811 37.9384 17.2315 37.9266 16.8819C38.0747 16.876 38.2169 16.8641 38.365 16.8582C39.39 16.8167 40.4269 16.8464 41.452 16.9708C41.3453 17.1841 41.2209 17.4033 41.1083 17.6166ZM31.3083 20.1703C31.095 20.2829 30.8876 20.4014 30.6802 20.5258C30.5202 19.9807 30.3543 19.4415 30.1766 18.9024C30.3662 18.8076 30.5558 18.7187 30.7454 18.6298C30.698 19.2164 30.8698 19.7793 31.3083 20.1703ZM37.7607 24.069C37.8792 23.6424 37.9858 23.2158 38.0747 22.7833C38.8983 21.9241 39.6508 21.0058 40.3262 20.034C41.7364 19.8681 43.1525 19.72 44.5685 19.6252C44.2604 19.8563 43.9523 20.0874 43.6442 20.3184C42.2163 21.4205 40.8476 22.5937 39.5322 23.832C39.5085 23.8557 39.4848 23.8794 39.4612 23.9031C38.8153 24.229 38.1636 24.5489 37.5059 24.857C37.5948 24.5963 37.6836 24.3356 37.7607 24.069ZM42.714 21.8175C43.3598 21.2842 44.0175 20.7688 44.6871 20.271C44.9952 20.04 45.3033 19.7793 45.641 19.5956C45.6588 19.5837 45.6825 19.5719 45.7062 19.566C45.9076 19.5541 46.1091 19.5482 46.3164 19.5423C46.4112 19.6608 46.3994 19.8563 46.3875 20.0044C46.3757 20.1585 46.3579 20.3184 46.3461 20.4725C44.8352 21.142 43.3598 21.8886 41.8964 22.647C41.7778 22.7122 41.6534 22.7714 41.5349 22.8366C41.926 22.4929 42.3111 22.1493 42.714 21.8175ZM45.1729 23.2217C43.8516 24.8452 42.5837 26.5161 41.529 28.3291C41.2446 28.815 40.9839 29.3127 40.735 29.8163C40.7706 29.4667 40.6639 29.1172 40.4625 28.8268C40.4388 28.7972 40.4151 28.7676 40.3914 28.738C40.7647 27.4996 41.4638 26.3561 42.2874 25.3488C43.3835 24.0157 44.6811 22.8188 46.0202 21.7049C45.7121 22.1908 45.4277 22.7003 45.1729 23.2217ZM44.3849 25.177C44.3434 25.3073 44.296 25.4318 44.2604 25.5621C43.7687 27.2152 43.4724 29.0935 43.9938 30.7762C42.9036 30.8888 41.8193 31.0487 40.741 31.2443C41.6534 29.0638 42.951 27.0612 44.3849 25.177ZM47.0808 25.017C46.5831 26.0302 46.0972 27.0493 45.6114 28.0625C45.8187 27.2152 46.0143 26.3679 46.1861 25.5088C46.3698 24.5786 46.5238 23.6483 46.6601 22.7122C46.6779 22.5759 46.7016 22.4396 46.7193 22.2974C47.1874 21.7523 47.6555 21.2013 48.1236 20.6562C48.3013 20.9821 48.4613 21.3257 48.568 21.699C48.5857 21.7642 48.5976 21.8353 48.6154 21.9004C48.1117 22.9492 47.5903 23.9801 47.0808 25.017ZM48.5443 20.2059C48.8227 20.0992 49.1012 19.9926 49.3856 19.8978C49.433 19.88 49.4804 19.8681 49.5219 19.8504C49.3441 20.271 49.1664 20.6917 48.9768 21.1124C48.8642 20.8043 48.7102 20.5021 48.5443 20.2059ZM59.0968 19.4949C57.977 19.3941 56.863 19.2223 55.7669 18.9912C54.7182 18.7661 53.6576 18.5113 52.5792 18.5646C51.8801 18.6002 51.1987 18.7483 50.5292 18.9379C50.6417 18.6239 50.7543 18.3039 50.855 17.984C51.4298 17.6936 52.0341 17.4566 52.68 17.2907C55.1863 16.6568 57.7992 17.741 60.0389 18.8076C60.5544 19.0505 61.0639 19.3112 61.5675 19.5897C60.738 19.5897 59.9145 19.566 59.0968 19.4949ZM50.9617 14.0557C50.9439 14.9148 50.8195 15.768 50.618 16.6034C50.5943 16.639 50.5706 16.6745 50.5469 16.7042C50.1796 17.2019 49.8004 17.6818 49.4093 18.1617C49.2434 18.2802 49.0775 18.3987 48.9175 18.5232C48.3073 18.3632 47.697 18.2151 47.0808 18.0965C46.8378 18.0491 46.589 18.0077 46.3461 17.9662C45.1374 17.2019 43.739 16.7516 42.3289 16.5086C42.7377 15.6376 43.1228 14.7193 43.3006 13.789C43.3065 13.7713 43.3065 13.7476 43.3124 13.7298C45.1611 13.8661 47.0334 13.7831 48.8701 13.5698C49.5574 13.4928 50.2448 13.3861 50.9261 13.2676C50.9498 13.5224 50.9676 13.789 50.9617 14.0557ZM42.0563 15.6436C41.9497 15.9043 41.8193 16.1531 41.7067 16.4138C41.6771 16.4079 41.6475 16.402 41.6179 16.402C40.3914 16.2479 39.1471 16.2124 37.9088 16.2894C37.9088 16.1828 37.9029 16.0761 37.9029 15.9695C37.8792 15.0688 37.9384 14.1208 37.7607 13.2321C37.737 13.1017 37.6955 12.9714 37.6481 12.8469C37.8258 12.7758 38.0036 12.7107 38.1813 12.6455C39.0464 12.9951 39.9648 13.238 40.8713 13.4158C41.4875 13.5343 42.1037 13.6231 42.7259 13.6883C42.5955 14.3519 42.3111 15.0274 42.0563 15.6436ZM38.1636 11.9937C38.1339 11.9819 38.1102 11.9641 38.0806 11.9523C38.685 11.7212 39.313 11.4783 39.9529 11.3361C39.3604 11.5494 38.762 11.7686 38.1636 11.9937ZM33.7909 14.6778C34.8218 14.0083 35.9357 13.5165 37.0733 13.0662C37.3874 13.9372 37.2867 15.3118 37.3044 15.9517C37.3104 16.0761 37.3104 16.2005 37.3163 16.3309C36.3386 16.4198 35.3669 16.5679 34.413 16.7871C33.4887 17.0004 32.5822 17.273 31.6934 17.6107C32.0904 16.7634 32.5999 15.9517 33.1332 15.1696C33.3465 14.9977 33.5598 14.8259 33.7909 14.6778ZM30.9172 17.9129C30.7395 17.984 30.5558 18.061 30.3721 18.1439C30.4432 18.0432 30.5202 17.9425 30.5913 17.8477C30.852 17.504 31.1246 17.1722 31.4031 16.8404C31.2135 17.19 31.0476 17.5455 30.9172 17.9129ZM31.6401 24.4008C32.1911 24.6437 32.7421 24.8867 33.2813 25.1474C33.5479 25.2777 33.8027 25.414 34.0634 25.5444C34.0753 25.7636 34.099 25.9769 34.1286 26.1961C34.1286 26.2139 34.1345 26.2317 34.1404 26.2494C33.465 26.4864 32.7836 26.6879 32.0904 26.8597C31.966 26.0361 31.8119 25.2185 31.6401 24.4008ZM35.5802 26.3265C35.7698 26.4272 35.9654 26.5338 36.155 26.6405C35.912 27.156 35.6513 27.6596 35.361 28.1514C35.124 27.6596 34.9463 27.1441 34.8218 26.6168C35.0766 26.522 35.3255 26.4213 35.5802 26.3265ZM36.9252 26.3916C37.0319 26.1428 37.1326 25.888 37.2274 25.6332C37.5414 25.491 37.8495 25.3488 38.1636 25.2007C37.7666 25.6036 37.3696 26.0065 36.9785 26.4213C36.9608 26.4094 36.943 26.3976 36.9252 26.3916ZM39.8463 24.3653C41.6119 23.4706 43.3658 22.5226 45.1492 21.6634C43.8635 22.7596 42.6311 23.9446 41.6001 25.2599C40.895 26.1546 40.3084 27.156 39.9292 28.2284C39.3071 27.6714 38.4835 27.2804 37.7903 26.8775C37.6955 26.8242 37.5948 26.7708 37.5 26.7116C38.2584 25.9058 39.0464 25.1296 39.8463 24.3653ZM40.4862 31.896C41.7186 31.659 42.9569 31.4753 44.2071 31.3509C44.213 31.3687 44.219 31.3865 44.2249 31.3983C44.3256 31.6175 44.4441 31.8249 44.5804 32.0204C43.6857 32.2278 42.7792 32.3404 41.8549 32.3108C41.3572 32.293 40.8772 32.21 40.4032 32.1034C40.4269 32.0323 40.4566 31.9671 40.4862 31.896ZM45.2025 31.8664C45.1492 31.7953 45.09 31.7301 45.0426 31.659C44.9655 31.5405 44.9063 31.4102 44.8411 31.2857C45.2499 31.2502 45.6647 31.2265 46.0735 31.2028C45.9372 31.3805 45.795 31.5524 45.6469 31.7242C45.4988 31.7716 45.3507 31.8249 45.2025 31.8664ZM55.8202 20.8043C57.0941 21.2783 58.5576 22.0012 59.4404 23.121C59.3812 23.198 59.3338 23.2751 59.2745 23.3521C59.0435 23.6602 59.553 23.9624 59.7782 23.6602C59.7841 23.6543 59.7841 23.6483 59.79 23.6424C59.8197 23.6898 59.8433 23.7372 59.8671 23.7846C59.7248 24.0749 59.6004 24.3771 59.476 24.6734C59.3575 24.3238 59.1975 23.9861 58.9842 23.6839C58.1843 22.5344 56.9282 21.8293 55.7195 21.1954C54.967 20.7984 54.2027 20.4369 53.4265 20.0992C54.2382 20.2829 55.0381 20.514 55.8202 20.8043ZM64.6012 20.6088C64.5656 20.7451 64.5419 20.8754 64.5241 21.0117C64.2812 20.7154 63.985 20.4488 63.6828 20.2236C63.6472 20.1999 63.6058 20.1762 63.5702 20.1466C63.9672 20.1644 64.3642 20.2651 64.6012 20.6088ZM62.7289 25.3073C62.4148 25.6629 62.0771 26.0006 61.7275 26.3265C62.3556 25.4377 63.0725 24.626 63.8605 23.8735C63.5169 24.3771 63.1258 24.863 62.7289 25.3073ZM66.2246 17.4685C66.1891 17.5218 66.1595 17.5751 66.1239 17.6344C66.0706 17.3796 66.0469 17.0952 66.041 16.8049C66.1772 16.6686 66.3194 16.5323 66.4616 16.3961C66.3846 16.7516 66.3017 17.1071 66.2246 17.4685ZM60.4003 18.3276C58.1488 17.2493 55.5299 16.1413 52.9881 16.6153C52.3245 16.7397 51.6845 16.953 51.0683 17.2256C51.098 17.1071 51.1276 16.9886 51.1572 16.8701C51.9393 15.7739 52.6977 14.3045 52.4193 12.9536C52.7333 12.8825 53.0473 12.8055 53.3613 12.7284C55.8084 13.1847 58.2614 13.8246 60.5366 14.7844C61.5794 15.2229 62.5926 15.8095 63.4043 16.6094C62.9777 17.4803 62.5274 18.3336 62.0416 19.1749C61.4964 18.8727 60.9454 18.5943 60.4003 18.3276ZM52.5141 11.9819C53.308 11.7982 54.096 11.6027 54.8841 11.4368C55.4173 11.3242 55.9565 11.2294 56.5016 11.1583C55.4766 11.5316 54.4219 11.8575 53.3554 12.1359C53.0769 12.0767 52.7985 12.0293 52.5141 11.9819ZM41.766 10.7139C41.1261 10.548 40.4151 10.631 39.787 10.7791C38.9634 10.9746 38.1517 11.2709 37.3578 11.5908C37.1326 11.4605 36.9074 11.3183 36.7001 11.1524C36.6645 11.1228 36.629 11.0872 36.5875 11.0576C37.2511 10.4473 37.9858 9.90219 38.8272 9.58816C39.9352 9.17341 41.0491 9.29784 42.086 9.82517C42.3941 9.97922 42.6844 10.1629 42.9747 10.3466C42.5718 10.4591 42.1689 10.5836 41.766 10.7139ZM29.4122 18.4698C29.3648 18.535 29.3174 18.6002 29.27 18.6654C28.8434 18.8964 28.4346 19.1571 28.0969 19.483C27.6762 19.8918 27.4451 20.4192 27.4451 20.9643C26.9178 21.5331 26.349 22.0545 25.6972 22.4811C25.6558 22.1552 25.6084 21.8234 25.555 21.4975C25.715 21.2665 25.8868 21.0532 26.0409 20.8517C26.5623 20.1703 27.1133 19.5067 27.6881 18.8668C28.1265 18.375 28.5827 17.9069 29.0508 17.4448C29.1752 17.7884 29.2937 18.1321 29.4122 18.4698ZM25.7624 23.1388C26.4379 22.7299 27.0304 22.2204 27.5814 21.6575C27.611 21.7286 27.6347 21.7997 27.6762 21.8649C27.7947 22.0841 27.9488 22.2796 28.1206 22.4574C27.8006 22.7951 27.5222 23.1684 27.2911 23.5713C26.9059 24.2468 26.7341 24.9637 26.74 25.6925C26.426 25.0289 26.1179 24.3593 25.8098 23.6898C25.798 23.5061 25.7861 23.3225 25.7624 23.1388ZM26.7282 27.0849C26.4734 27.0434 26.2186 27.0138 25.9639 26.9782C25.9639 26.439 25.9461 25.8999 25.9224 25.3607C26.1949 25.9295 26.4616 26.5101 26.7282 27.0849ZM30.461 27.8077C30.8461 27.7425 31.2253 27.6596 31.6045 27.5766C31.6282 27.7544 31.6578 27.9262 31.6815 28.104C31.2727 27.9973 30.8698 27.8966 30.461 27.8077ZM32.1793 27.4404C32.8843 27.2626 33.5716 27.0493 34.2589 26.8123C34.4722 27.7248 34.8633 28.5839 35.3847 29.3542C34.3834 28.9157 33.3524 28.5602 32.2978 28.264C32.2563 27.9914 32.2148 27.7129 32.1793 27.4404ZM35.6987 28.738C36.155 28.2047 36.623 27.6774 37.0971 27.1619C37.5474 27.4226 37.9977 27.6774 38.442 27.9499C38.8923 28.2225 39.3723 28.495 39.7396 28.8802C39.6033 29.4016 39.5263 29.9348 39.5145 30.4799C39.159 30.7051 38.7857 30.9125 38.4124 31.1139C37.8969 30.7169 37.3459 30.3555 36.7771 30.0415C36.7238 30.0118 36.6645 29.9822 36.6112 29.9526C36.2616 29.5912 35.9654 29.1764 35.6987 28.738ZM45.9846 32.2397C46.8615 31.9434 47.7029 31.5642 48.4969 31.1317C49.1368 31.1317 49.7708 31.1495 50.4107 31.1791C51.1217 31.2146 51.8623 31.2561 52.5615 31.4161C52.6859 31.6709 52.8222 31.9256 52.9821 32.1567C52.994 32.1745 53.0118 32.1923 53.0236 32.21C52.3778 32.447 51.7201 32.6426 51.0506 32.7848C49.433 33.1343 47.2348 33.4425 45.801 32.4293C45.8661 32.37 45.9313 32.3048 45.9846 32.2397ZM54.4753 31.5998C54.2086 31.4102 53.9183 31.2561 53.6813 31.1554C53.4621 31.0606 53.2369 30.9895 53.0118 30.9243C52.9644 30.8177 52.917 30.7169 52.8755 30.6103C52.6266 29.917 52.4489 29.1942 52.2948 28.4713C52.9703 27.8788 53.6043 27.2448 54.1968 26.5753C54.5167 26.9071 54.9552 27.1678 55.3285 27.393C56.3179 27.9914 57.4378 28.501 58.5635 28.6728C58.0836 29.1705 57.5563 29.6149 57.0704 29.9941C56.2646 30.6162 55.3877 31.1554 54.4753 31.5998ZM54.339 25.491C54.3745 25.094 54.7182 24.7504 55.1152 24.4778C54.8604 24.8274 54.6056 25.1651 54.339 25.491ZM57.3074 27.7366C56.7208 27.5055 56.1698 27.2034 55.6306 26.8834C55.2988 26.682 54.8426 26.4627 54.5641 26.1428C55.1744 25.414 55.7432 24.6437 56.2528 23.8379C56.3772 23.6365 56.1757 23.2988 55.9269 23.3995C55.0974 23.7254 54.096 24.2764 53.8057 25.1888C53.6931 25.5325 53.7287 25.8288 53.8472 26.0895C53.3199 26.6938 52.7511 27.2685 52.1586 27.8077C52.1171 27.5826 52.0756 27.3574 52.0341 27.1323C51.8208 25.8999 51.6727 24.6615 51.6075 23.4113C51.5483 22.327 51.6905 21.1124 51.252 20.0933C51.2105 19.9985 51.1631 19.9096 51.1098 19.8267C52.9644 20.4784 54.7834 21.2902 56.472 22.2915C57.3193 22.7951 58.1666 23.4054 58.6643 24.2764C58.925 24.7385 59.079 25.2659 59.0849 25.7932C58.9487 26.2139 58.8302 26.6405 58.7354 27.073C58.6643 27.387 59.0909 27.6122 59.2745 27.31C59.5352 26.8775 59.6597 26.3916 59.6774 25.9058C59.8256 25.4614 59.9856 25.0229 60.1752 24.5963C60.4773 25.9117 59.8908 27.1263 59.0435 28.1573C58.4391 28.104 57.8585 27.9499 57.3074 27.7366ZM60.6314 26.4805C60.9336 25.5325 60.8447 24.6437 60.507 23.8439C61.0995 22.6648 61.8282 21.5509 62.6459 20.5021C62.6933 20.4429 62.7407 20.3895 62.7881 20.3362C62.9244 20.4251 63.0607 20.508 63.191 20.6028C63.6058 20.8932 64.0264 21.2428 64.2871 21.6871C64.4412 21.9538 64.5064 22.2263 64.5064 22.4989C64.2397 22.724 63.9731 22.9551 63.7124 23.1921C62.3497 24.4423 61.1469 25.8762 60.2877 27.5292C60.2048 27.6951 60.3055 27.9203 60.4655 27.9796C60.2403 28.0566 60.0152 28.1099 59.79 28.1395C60.1515 27.6181 60.4477 27.0671 60.6314 26.4805ZM62.6637 26.2257C62.1778 26.8716 61.5853 27.4522 60.8565 27.8018C61.4964 27.3219 62.1008 26.8005 62.6637 26.2257ZM71.6579 13.8542C71.3261 14.8437 70.864 15.7799 70.2596 16.6331C69.6553 17.4863 68.8791 18.4284 67.8303 18.7305C67.2497 18.8964 66.8527 18.8016 66.5742 18.5469C66.6394 18.2743 66.6986 18.0017 66.7579 17.7292C67.4867 16.5442 68.2688 15.3888 69.0746 14.2512C69.8863 13.8009 70.7988 13.5224 71.6579 13.8542ZM68.3517 13.5935C68.7783 13.2024 69.2168 12.8232 69.6612 12.45C69.3353 12.8943 69.0153 13.3387 68.6954 13.789C68.2392 14.0616 67.7948 14.3934 67.38 14.7489C67.3919 14.6659 67.4037 14.583 67.4215 14.5C67.7237 14.1919 68.0318 13.8838 68.3517 13.5935ZM66.3076 14.3104C66.4616 13.5283 66.7164 12.7699 67.1667 12.13C67.0779 12.8292 66.9712 13.5283 66.8586 14.2216C66.6394 14.4408 66.4202 14.6659 66.2009 14.8911C66.2424 14.6659 66.278 14.4645 66.3076 14.3104ZM63.2206 18.2684C63.4339 17.8714 63.6413 17.4803 63.8368 17.0774C63.8961 17.1545 63.9613 17.2315 64.0146 17.3144C63.748 17.6285 63.4813 17.9484 63.2206 18.2684ZM35.7698 8.59868C36.1609 7.72177 37.1267 7.20037 37.9621 6.82116C42.2993 4.88367 47.2348 4.17266 51.9571 4.54594C54.333 4.72962 56.6853 5.20955 58.9487 5.96203C60.8506 6.60193 62.8651 7.46107 64.1568 9.06676C64.7789 9.84294 65.1404 10.791 65.1048 11.7923C65.0574 13.0662 64.4767 14.2927 63.9613 15.4303C63.8724 15.6376 63.7657 15.8332 63.6709 16.0406C62.0238 14.4823 59.6419 13.7416 57.5267 13.1254C56.5668 12.8469 55.601 12.604 54.6234 12.3848C55.3048 12.1833 55.9743 11.97 56.6438 11.7271C57.266 11.502 57.8822 11.2531 58.4924 10.9924C58.7709 10.8739 58.6287 10.4414 58.3502 10.4354C56.0987 10.3999 53.9361 11.0635 51.7556 11.5257C51.5542 11.5671 51.3468 11.6086 51.1394 11.6442C50.9854 11.2887 50.778 10.9628 50.4995 10.6725C49.4034 9.50521 47.6733 9.44596 46.192 9.64149C45.3625 9.74814 44.5449 9.92589 43.7331 10.1333C42.5777 9.36301 41.3868 8.63423 39.947 8.72903C38.4835 8.82976 37.2333 9.63556 36.1609 10.631C35.6928 10.0622 35.444 9.33931 35.7698 8.59868ZM29.9692 15.768C29.7381 15.9754 29.5071 16.1828 29.276 16.402C29.1989 16.2065 29.1278 16.005 29.0449 15.8095C29.3589 15.8569 29.667 15.8391 29.9692 15.768ZM25.6972 11.028C26.2897 11.1287 26.6867 12.0234 26.9119 12.4855C27.0422 12.7462 27.1667 13.0128 27.2911 13.2736C27.0837 13.2262 26.8882 13.2439 26.6986 13.315C26.3016 12.5803 25.9639 11.816 25.6972 11.028ZM27.6229 14.7667C27.4096 14.4704 27.2081 14.1682 27.0185 13.8601C27.0541 13.8542 27.0896 13.8483 27.1311 13.8542C27.457 13.8779 27.5162 14.4052 27.6229 14.7667ZM25.1936 16.0998C25.4721 15.608 25.7624 15.1103 26.0764 14.6422C26.1772 14.4941 26.3253 14.2927 26.509 14.1327C26.8408 14.6778 27.1904 15.211 27.5873 15.7147C27.8125 15.9991 28.1917 15.6495 28.0436 15.3592C28.1265 15.4303 28.2154 15.4954 28.3102 15.5547C28.4879 15.9872 28.6598 16.4198 28.8257 16.8523C28.3694 17.2967 27.9251 17.7529 27.4925 18.221C26.7934 18.9853 26.1298 19.7852 25.4958 20.6088C25.478 20.6325 25.4543 20.6621 25.4365 20.6858C25.2469 19.5719 24.9744 18.4165 24.53 17.35C24.7433 16.9234 24.9625 16.5027 25.1936 16.0998ZM22.788 17.1485C22.474 16.4553 22.0119 15.6732 22 14.8792C22.8473 15.5073 23.4457 16.3724 23.8782 17.3263C23.7005 17.6936 23.5346 18.0669 23.3805 18.4402C23.1791 18.0077 22.9836 17.5811 22.788 17.1485ZM22.8117 22.5166C22.9362 21.6457 23.1554 20.7984 23.4279 19.9629C23.7834 20.7391 24.1449 21.5212 24.5063 22.2974C24.4056 22.647 24.37 23.0144 24.4648 23.4054C24.5122 23.6069 24.7255 23.6661 24.8974 23.5891C24.9566 23.5654 25.004 23.5298 25.0633 23.5061C25.1284 23.6424 25.1936 23.7846 25.2588 23.9209C25.318 24.6971 25.3595 25.4733 25.3714 26.2435C25.3773 26.4568 25.3654 26.676 25.3654 26.8893C24.5478 26.7768 23.7242 26.676 22.9065 26.599C22.6281 25.2599 22.6162 23.8616 22.8117 22.5166ZM20.8446 27.0256C21.3719 27.0612 21.8993 27.0908 22.4266 27.1382C22.4385 27.1737 22.4444 27.2152 22.4562 27.2508C21.917 27.1856 21.3838 27.1086 20.8446 27.0256ZM25.2469 29.9526C25.2292 30.154 25.2351 30.5807 24.9685 30.5866C24.7137 30.5925 24.4767 30.2251 24.3522 30.0415C24.056 29.6208 23.8012 29.1705 23.582 28.7024C23.4635 28.4536 23.3628 28.1988 23.268 27.9381C23.9612 28.0092 24.6544 28.0566 25.3536 28.0862C25.3358 28.7083 25.3003 29.3305 25.2469 29.9526ZM29.1575 30.8651C29.276 31.025 29.3885 31.1791 29.5071 31.3331C30.301 32.3996 31.1542 33.4484 32.1082 34.3786C32.1082 34.9296 32.1022 35.4866 32.0904 36.0376C31.3142 35.1429 30.7217 34.1001 30.2003 33.0336C29.8448 32.3108 29.5011 31.5879 29.1575 30.8651ZM39.1827 36.2154C36.7119 37.0093 34.5078 35.7947 32.7007 34.1061C32.6829 32.3582 32.5644 30.6162 32.3689 28.8861C33.7138 29.2771 35.0233 29.7748 36.2498 30.4325C36.6586 30.8591 37.1148 31.2383 37.6007 31.5642C37.1563 31.819 36.7119 32.0678 36.2675 32.3226C35.9831 32.4826 36.155 32.9685 36.4868 32.8677C37.257 32.6366 38.0332 32.4411 38.8094 32.2574C39.0523 32.4826 39.2834 32.7196 39.4967 32.9685C39.4671 33.0751 39.4256 33.1758 39.396 33.2825C39.3604 33.4069 39.4137 33.555 39.5263 33.6202C39.6745 33.7091 39.787 33.8276 39.8759 33.9698C39.6448 34.7223 39.4137 35.4688 39.1827 36.2154ZM40.9069 34.7993C40.8061 34.6512 40.735 34.4853 40.6639 34.3194C40.8595 34.5801 41.0905 34.8111 41.3394 35.0304C41.1794 35.0363 41.0313 34.983 40.9069 34.7993ZM53.5391 33.7565C52.0815 34.9474 50.1974 35.5162 48.3547 35.7295C47.4067 35.8362 46.4468 35.854 45.4988 35.8006C44.5034 35.7414 43.4783 35.5873 42.5777 35.137C42.8029 34.9948 43.0103 34.8408 43.1821 34.7282C43.9879 34.189 44.7344 33.561 45.4099 32.8677C45.6528 33.0514 45.9135 33.2114 46.1979 33.3358C47.2763 33.7861 48.4969 33.7506 49.6345 33.6261C50.9321 33.4839 52.206 33.164 53.4265 32.7018C53.6339 32.921 53.865 33.1107 54.1079 33.2884C53.9183 33.4602 53.705 33.6261 53.5391 33.7565ZM60.0152 33.555C58.3858 33.8157 56.5075 33.8868 54.9907 33.1225C54.9967 33.1107 55.0085 33.0929 55.0204 33.081C55.2514 32.69 55.1626 32.3345 54.9315 32.0323C55.3403 31.8249 55.7373 31.6057 56.1283 31.3628C57.2363 30.6695 58.4213 29.7926 59.3279 28.732C60.1692 28.732 60.9987 28.5128 61.7749 27.9618C62.5867 27.3811 63.2088 26.5753 63.7243 25.734C63.7717 25.6569 63.8131 25.5799 63.8546 25.5029C63.8842 25.7695 64.3227 25.8465 64.4412 25.5384C64.7849 24.6319 65.093 23.7135 65.3892 22.7951C66.669 23.3876 68.7191 21.9656 69.673 21.3494C69.8982 21.2013 70.1233 21.0532 70.3426 20.905C70.2596 21.0176 70.1707 21.1361 70.0878 21.2487C69.5427 21.9952 68.9916 22.7418 68.4465 23.4884C67.2378 25.1414 66.0291 26.7886 64.8145 28.4417C64.7374 28.5424 64.7671 28.7143 64.856 28.8031C64.9271 28.8742 64.9982 28.9335 65.0693 28.9927C64.2812 29.7037 63.5643 30.4858 62.9303 31.3509C62.8355 31.4753 62.9007 31.6827 63.031 31.7597C63.8487 32.2278 64.7849 32.1804 65.6677 31.9375C66.6335 31.6709 67.5756 31.2383 68.4702 30.794C69.0746 30.4977 69.6612 30.16 70.2359 29.8104C70.0345 30.0474 69.8389 30.2903 69.6434 30.5333C68.7783 31.0665 67.777 31.4102 66.829 31.7479C64.6189 32.5241 62.326 33.1877 60.0152 33.555Z" fill="#F2F2F2"/>
<path d="M78.3887 31.4872C80.9562 34.8447 89.35 40.8488 98.8301 38.0047" stroke="#808080" stroke-width="0.592506"/>
</g>
<defs>
<clipPath id="clip0_182_4712">
<rect width="153.868" height="114.128" fill="white" transform="translate(0.177734 0.676758)"/>
</clipPath>
</defs>
</svg>
