<svg width="301" height="216" viewBox="0 0 301 216" fill="none" xmlns="http://www.w3.org/2000/svg">
<path fill-rule="evenodd" clip-rule="evenodd" d="M87.519 178C39.1836 178 0 138.153 0 89C0 39.8467 39.1836 0 87.519 0C130.674 0 166.534 31.7638 173.725 73.5554C187.131 62.5735 204.176 56 222.731 56C265.907 56 300.908 91.5934 300.908 135.5C300.908 179.407 265.907 215 222.731 215C185.987 215 155.163 189.221 146.795 154.479C131.205 169.082 110.386 178 87.519 178Z" fill="url(#paint0_linear_340_1156)"/>
<path d="M184.42 181.552L173.001 160.31C169.758 153.815 162.255 153.244 154.901 155.114L139.006 161.172C136.619 161.877 134.084 160.556 133.422 158.249L121.501 126.358C120.873 124.163 117.184 122.663 114.432 122.483L109.282 123.077C107.501 123.536 108.688 124.701 108.551 126.459L104.463 178.07C102.716 194.139 113.998 208.449 130.887 208.92L135.672 209.054L167.702 209.188C183.803 205.65 189.57 193.355 184.42 181.552Z" fill="#F7931E"/>
<path d="M173.389 181.776L164.847 160.41C162.849 155.942 157.756 153.669 153.006 155.114L128.775 162.482C126.491 163.176 124.081 161.877 123.442 159.627L113.93 125.843C113.325 123.693 111.075 122.427 108.883 122.998L104.064 124.252C102.362 124.7 101.14 126.145 101.003 127.869L97.0981 178.383C95.4309 194.105 106.199 208.124 122.311 208.572L126.879 208.696L157.436 208.819C172.795 205.359 178.299 193.332 173.389 181.776Z" fill="#F15A24"/>
<path d="M156.9 192.537L154.867 178.506C153.714 170.578 146.428 164.923 138.298 165.64L128.215 166.536C125.886 166.737 123.716 165.337 122.985 163.154L110.504 125.327C110.025 123.861 108.609 122.875 107.033 122.92L58.182 124.096L103.356 209.188L141.484 209.715C150.916 209.838 158.224 201.686 156.9 192.537Z" fill="#FBB03B"/>
<path d="M247.83 200.454H247.464V177.79H244.929V200.443H244.564C237.416 200.443 231.626 204.653 231.626 209.849H260.767C260.767 204.664 254.978 200.454 247.83 200.454Z" fill="#F7931E"/>
<path d="M241.138 177.79H217.352C215.057 177.79 213.184 175.964 213.184 173.702V164.285C213.184 162.034 215.046 160.198 217.352 160.198H241.138C243.433 160.198 245.306 162.023 245.306 164.285V173.702C245.306 175.964 243.445 177.79 241.138 177.79Z" fill="#F7931E"/>
<path d="M245.706 177.79H221.92C219.625 177.79 217.752 175.964 217.752 173.702V164.285C217.752 162.034 219.613 160.198 221.92 160.198H245.706C248.001 160.198 249.874 162.023 249.874 164.285V173.702C249.862 175.964 248.001 177.79 245.706 177.79Z" fill="#FBB03B"/>
<path d="M252.397 122.999H243.388C240.202 123.099 237.724 125.675 237.29 127.97C235.68 136.526 235.577 145.204 236.982 153.781L240.613 175.852H244.278L252.397 122.999Z" fill="#F7931E"/>
<path d="M276.217 175.852L244.313 177.062L245.455 168.271C242.314 160.937 240.727 148.686 240.818 141.005C240.887 134.465 241.766 129.628 241.766 129.628C242.874 124.981 247.487 123.077 250.593 122.987H272.198C277.611 122.987 281.87 126.436 281.413 130.456L280.831 132.17C276.754 144.151 275.053 156.503 275.806 168.843L276.217 175.852Z" fill="#F15A24"/>
<path d="M275.783 176.043L248.252 177.756L226.864 177.789V172.101C226.864 168.003 231.432 164.677 237.073 164.677H265.278C270.919 164.677 275.487 168.003 275.487 172.101L275.783 176.043Z" fill="#F15A24"/>
<path d="M271.97 122.999C270.268 122.999 268.898 123.995 268.898 125.238V175.494H276.069L275.658 168.865C274.893 156.525 276.629 144.162 280.808 132.192L281.402 130.479C281.881 126.447 277.519 122.999 271.97 122.999Z" fill="#F7931E"/>
<path d="M247.921 200.454H247.556V181.642V177.79H246.197H244.929V181.642H246.197V201.372H246.528C253.06 201.372 258.358 205.168 258.358 209.849H260.859C260.87 204.664 255.069 200.454 247.921 200.454Z" fill="#F15A24"/>
<path d="M260.557 112.909C260.635 111.464 259.525 110.231 258.077 110.155C256.628 110.079 255.39 111.189 255.311 112.634C255.232 114.079 256.343 115.313 257.791 115.389C259.24 115.464 260.478 114.355 260.557 112.909Z" fill="#534741"/>
<path d="M254.343 109.838C254.422 108.393 253.312 107.16 251.863 107.084C250.415 107.008 249.177 108.118 249.098 109.563C249.019 111.008 250.129 112.241 251.578 112.317C253.026 112.393 254.264 111.283 254.343 109.838Z" fill="#534741"/>
<path d="M222.913 210.823C220.778 211.081 219.282 209.199 218.688 205.56L214.452 187.599C213.858 183.97 215.411 180.69 217.923 180.275C220.435 179.861 222.948 182.47 223.541 186.098L224.889 201.876C225.037 203.6 225.106 205.325 225.026 207.016C224.9 209.199 224.478 210.823 222.913 210.823Z" fill="#917C72"/>
<path d="M235.92 211.305C233.773 211.405 232.414 209.334 232.083 205.515L229.125 186.535C228.794 182.716 230.564 179.436 233.099 179.2C235.634 178.965 237.952 181.865 238.295 185.684L238.523 202.167C238.546 203.97 238.5 205.762 238.295 207.509C238.021 209.782 237.484 211.428 235.92 211.305Z" fill="#917C72"/>
<path d="M237.244 155.136C201.571 160.209 213.276 182.481 213.538 198.013C213.584 200.902 241.595 201.204 241.595 197.363C241.595 190.051 238.843 176.356 240.818 173.4C243.981 168.663 262.994 175.326 263.405 165.763C263.622 160.724 251.278 144.398 246.208 146.928C241.652 149.201 244.153 154.151 237.244 155.136Z" fill="#228E8C"/>
<path d="M222.925 134.107L221.029 133.625C221.2 133.311 221.349 132.976 221.417 132.595C221.543 131.867 221.452 131.173 221.178 130.557C220.835 129.784 219.727 129.84 219.43 130.624C218.997 131.755 218.334 131.565 217.569 131.52C216.404 131.464 216.176 130.859 216.302 128.653L215.628 128.317C215.674 127.5 214.566 127.041 214.155 127.757C212.819 130.109 213.298 133.009 213.949 133.311C214.406 134.364 215.354 135.17 216.53 135.383L221.006 137.119L222.925 134.107Z" fill="#FFD29B"/>
<path d="M255.229 123.603C249.166 120.322 244.484 124.309 240.259 130.691C234.412 139.515 230.473 135.305 225.46 134.286C223.633 133.905 221.429 136.324 221.143 138.25C220.618 141.766 227.515 145.428 232.722 146.861C240.556 149.022 249.748 144.902 253.471 136.436C256.246 130.12 259.877 126.123 255.229 123.603Z" fill="#808080"/>
<path d="M222.148 141.318L219.784 138.653L223.758 132.696L226.659 134.543L222.148 141.318Z" fill="#C7C7C7"/>
<path d="M248.595 161.967L244.918 159.862C237.256 159.459 237.016 157.499 237.438 149.728L239.105 140.434C239.756 136.794 240.83 133.222 242.463 129.896C244.632 125.473 247.67 121.722 252.934 121.991C260.596 122.394 266.523 129.09 266.1 136.861L264.33 155.92C263.931 163.266 258.781 163.512 250.981 162.628C250.148 162.538 249.326 162.381 248.595 161.967Z" fill="#999999"/>
<path d="M268.156 149.895C268.201 149.839 268.236 149.795 268.27 149.739C268.452 149.492 268.612 149.235 268.761 148.966C268.818 148.876 268.864 148.776 268.909 148.686C269.023 148.451 269.126 148.205 269.218 147.947C269.275 147.79 269.32 147.645 269.366 147.488C269.423 147.275 269.469 147.074 269.514 146.85C269.56 146.626 269.594 146.402 269.617 146.178C269.629 146.021 269.754 145.517 269.594 144.487C269.514 143.972 265.895 132.707 265.895 132.707C265.643 131.934 265.335 131.173 264.97 130.445C263.154 126.817 262.355 125.898 260.984 126.122C257.753 126.626 255.686 130.49 256.405 134.14L257.49 139.593C257.696 140.612 257.193 141.654 256.36 141.979L251.518 143.849C247.213 145.248 249.006 147.611 249.052 150.052C249.052 150.052 249.131 154.923 253.745 153.904L264.947 151.989C265.883 151.833 266.717 151.351 267.425 150.713C267.448 150.691 267.47 150.679 267.482 150.657C267.722 150.422 267.939 150.175 268.156 149.895Z" fill="#E6E6E6"/>
<path d="M254.407 153.793L249.737 154.588L247.339 144.935L251.883 143.647L254.407 153.793Z" fill="#C7C7C7"/>
<path d="M244.952 156.424L234.515 157.185C234.013 157.219 233.579 156.849 233.544 156.345L232.357 139.84C232.323 139.336 232.699 138.899 233.202 138.866L243.639 138.104C244.141 138.071 244.575 138.44 244.609 138.944L245.797 155.45C245.831 155.954 245.454 156.39 244.952 156.424Z" fill="#534741"/>
<path fill-rule="evenodd" clip-rule="evenodd" d="M241.049 138.974C241.042 138.818 240.904 138.695 240.741 138.709L240.738 138.709L235.944 139.056C235.771 139.072 235.652 139.216 235.665 139.366L235.666 139.37L235.746 140.527C235.753 140.683 235.891 140.806 236.054 140.791L236.057 140.791L240.851 140.444C241.017 140.429 241.136 140.29 241.129 140.129L241.049 138.974ZM241.364 138.957C241.347 138.622 241.053 138.365 240.714 138.395L235.92 138.742L235.917 138.742C235.589 138.771 235.321 139.052 235.351 139.393L235.431 140.543C235.448 140.879 235.742 141.135 236.081 141.106L240.875 140.759L240.878 140.758C241.214 140.728 241.459 140.443 241.444 140.112L241.364 138.957Z" fill="#C7B299"/>
<path d="M249.12 151.743L248.024 147.331C247.967 147.096 247.75 146.928 247.499 146.928L245.557 146.962C244.906 146.917 244.107 147.063 243.616 147.287L239.848 148.753C239.425 148.921 239.208 149.403 239.38 149.828L239.402 149.884C239.574 150.31 239.859 150.433 240.476 150.355L242.748 149.918L240.419 150.859C239.996 151.027 238.843 151.127 238.854 151.564C238.854 151.564 238.809 154.352 239.437 154.375L244.244 154.263C245.318 154.308 246.379 154.005 247.27 153.412C248.069 152.885 248.88 152.314 248.88 152.314C249.086 152.191 249.177 151.967 249.12 151.743Z" fill="#FFD29B"/>
<path d="M226.019 206.691L218.037 206.882L213.23 211.103C211.78 211.271 210.489 211.439 210.489 211.439C210.489 211.439 209.153 211.495 208.834 212.917L208.468 214.843C208.468 214.843 215.674 215.168 219.236 214.911C222.788 214.653 226.168 214.216 226.168 214.216L226.019 206.691Z" fill="#2B2522"/>
<path d="M226.133 212.727C226.133 212.727 223.039 213.13 219.488 213.388C216.073 213.634 209.279 213.343 208.754 213.321L208.468 214.843C208.468 214.843 215.674 215.168 219.236 214.911C222.788 214.653 226.168 214.216 226.168 214.216L226.133 212.727Z" fill="#301F13"/>
<path fill-rule="evenodd" clip-rule="evenodd" d="M215.805 208.875L217.548 209.477C217.586 209.49 217.607 209.532 217.593 209.571C217.58 209.61 217.538 209.63 217.499 209.617L215.998 209.099L216.26 210.474C216.268 210.514 216.241 210.553 216.201 210.56C216.161 210.568 216.122 210.541 216.115 210.501L215.805 208.875Z" fill="#C7B299"/>
<path d="M239.117 206.691L231.135 206.882L226.328 211.103C224.877 211.271 223.587 211.439 223.587 211.439C223.587 211.439 222.251 211.495 221.931 212.917L221.566 214.843C221.566 214.843 228.771 215.168 232.334 214.911C235.885 214.653 239.265 214.216 239.265 214.216L239.117 206.691Z" fill="#534741"/>
<path d="M239.231 212.727C239.231 212.727 236.137 213.13 232.585 213.388C229.171 213.634 222.377 213.343 221.851 213.321L221.566 214.843C221.566 214.843 228.771 215.168 232.334 214.911C235.885 214.653 239.265 214.216 239.265 214.216L239.231 212.727Z" fill="#42210B"/>
<path fill-rule="evenodd" clip-rule="evenodd" d="M228.903 208.875L230.645 209.477C230.684 209.49 230.704 209.532 230.691 209.571C230.678 209.61 230.636 209.63 230.597 209.617L229.096 209.099L229.358 210.474C229.365 210.514 229.339 210.553 229.299 210.56C229.259 210.568 229.22 210.541 229.212 210.501L228.903 208.875Z" fill="#C7B299"/>
<path d="M268.11 177.789H244.324C242.029 177.789 240.156 175.964 240.156 173.702V163.568C240.156 161.317 242.017 159.481 244.324 159.481H268.11C270.405 159.481 272.278 161.306 272.278 163.568V173.702C272.266 175.964 270.405 177.789 268.11 177.789Z" fill="#F7931E"/>
<path d="M272.666 177.789H248.88C246.585 177.789 244.712 175.964 244.712 173.702V163.568C244.712 161.317 246.574 159.481 248.88 159.481H272.666C274.961 159.481 276.834 161.306 276.834 163.568V173.702C276.834 175.964 274.961 177.789 272.666 177.789Z" fill="#FBB03B"/>
<path d="M259.557 114.858C259.26 114.992 258.906 115.037 258.541 115.048C258.21 115.07 257.844 115.059 257.502 115.037C256.485 114.981 255.64 114.354 255.252 113.491C255.069 113.077 254.75 112.73 254.339 112.517C253.596 112.148 253.071 111.431 252.968 110.58C252.945 110.423 252.934 110.266 252.945 110.11C252.957 109.718 253.071 109.359 253.242 109.046C250.833 109.191 248.857 111.14 248.72 113.603L248.492 117.702C248.412 119.068 248.926 120.322 249.794 121.252C249.988 121.464 250.205 121.655 250.445 121.823C250.742 122.047 251.061 122.226 251.415 122.371C251.918 122.595 252.466 122.73 253.048 122.763C253.619 122.797 254.167 122.718 254.681 122.562C254.772 122.551 254.852 122.517 254.944 122.483C254.921 122.528 254.887 122.573 254.852 122.618C254.053 123.614 252.397 123.682 251.929 123.659C251.233 123.626 250.65 123.435 250.49 122.674C250.456 122.685 250.422 122.696 250.399 122.707C249.543 123.088 248.937 123.637 248.903 124.163C248.777 125.742 249.828 126.929 252.02 127.377C254.498 127.881 256.759 126.571 257.091 125.742C257.524 124.656 257.193 123.894 256.451 123.368L256.531 122.114L256.542 121.811V121.509C257.273 120.848 257.798 119.964 258.015 118.956C258.141 118.99 258.267 119.012 258.392 119.012C259.614 119.079 260.665 118.139 260.733 116.918C260.779 116.033 260.299 115.238 259.557 114.858ZM249.817 114.634C249.794 115.115 249.68 115.496 249.577 115.496C249.474 115.485 249.417 115.093 249.44 114.611C249.463 114.141 249.577 113.749 249.68 113.749C249.782 113.749 249.839 114.141 249.817 114.634ZM249.942 117.03C249.942 117.03 250.159 116.425 250.445 115.854C250.684 115.35 250.993 114.88 251.233 114.914L251.13 116.66L251.096 117.276C251.084 117.478 250.913 117.635 250.719 117.623L250.216 117.59C250.022 117.579 249.817 117.388 249.942 117.03ZM253.859 115.048C253.836 115.518 253.733 115.91 253.631 115.91C253.528 115.91 253.459 115.507 253.482 115.026C253.516 114.555 253.619 114.163 253.722 114.163C253.825 114.163 253.893 114.566 253.859 115.048Z" fill="#FFD29B"/>
<path d="M254.852 122.617C254.053 123.614 252.397 123.681 251.929 123.659C251.233 123.625 250.65 123.435 250.49 122.673C250.776 122.55 251.084 122.449 251.415 122.371C251.918 122.595 252.466 122.729 253.048 122.763C253.619 122.797 254.167 122.718 254.681 122.561C254.738 122.584 254.795 122.595 254.852 122.617Z" fill="#FFD29B"/>
<path d="M249.817 114.634C249.794 115.115 249.68 115.496 249.577 115.496C249.474 115.485 249.417 115.093 249.44 114.611C249.463 114.141 249.577 113.749 249.68 113.749C249.782 113.749 249.839 114.141 249.817 114.634Z" fill="#8C786E"/>
<path d="M251.13 116.66L251.095 117.276C251.084 117.478 250.913 117.634 250.719 117.623L250.216 117.59C250.022 117.578 249.817 117.388 249.942 117.03C249.942 117.03 250.159 116.425 250.445 115.854C250.479 116.033 250.502 116.212 250.502 116.403C250.73 116.459 250.936 116.537 251.13 116.66Z" fill="#8C786E"/>
<path d="M263.097 115.059C262.777 115.552 262.72 116.134 262.857 116.694C262.914 116.918 262.937 117.164 262.914 117.399C262.846 118.799 261.555 119.292 260.242 119.807C259.146 120.232 258.301 122.237 256.896 122.159C256.771 122.147 256.645 122.136 256.531 122.114L256.542 121.811V121.509C257.273 120.848 257.799 119.964 258.015 118.956C258.141 118.99 258.267 119.012 258.392 119.012C259.614 119.079 260.665 118.138 260.733 116.918C260.779 116.033 260.299 115.238 259.557 114.858C259.26 114.992 258.906 115.037 258.541 115.048C258.21 115.07 257.844 115.059 257.502 115.037C256.485 114.981 255.64 114.354 255.252 113.491C255.069 113.077 254.75 112.73 254.339 112.517C253.596 112.148 253.071 111.431 252.968 110.58C252.945 110.423 252.934 110.266 252.945 110.11C252.957 109.718 253.071 109.359 253.242 109.046C250.833 109.191 248.857 111.14 248.72 113.603L248.492 117.702C248.412 119.068 248.926 120.322 249.794 121.251H249.691C248.686 121.207 247.853 120.624 247.464 119.807C247.179 119.202 246.459 118.866 246.208 118.239C245.637 116.828 246.722 115.843 246.928 115.07C247.259 113.839 246.608 112.607 246.551 112.394C246.037 110.681 246.996 108.15 249.109 107.4C249.348 107.31 250.844 105.821 253.436 106.022C253.882 106.056 254.361 106.202 254.772 106.414C255.206 106.146 255.72 106 256.268 106C257.913 106 259.18 107.232 259.877 108.34C260.311 109.057 260.973 109.583 261.67 110.076C262.366 110.58 262.446 111.14 262.435 111.633C263.12 112.114 263.554 112.931 263.497 113.839C263.474 114.286 263.325 114.701 263.097 115.059Z" fill="#998E82"/>
<path d="M254.944 122.483C254.921 122.528 254.887 122.573 254.852 122.618C254.053 123.614 252.397 123.682 251.929 123.659C251.233 123.626 250.65 123.435 250.49 122.674C250.456 122.685 250.422 122.696 250.399 122.707L250.433 122.17C250.433 122.058 250.433 121.946 250.445 121.823C250.741 122.047 251.061 122.226 251.415 122.371C251.918 122.595 252.466 122.73 253.048 122.763C253.619 122.797 254.167 122.719 254.681 122.562C254.772 122.551 254.852 122.517 254.944 122.483Z" fill="#FFD29B"/>
<path d="M254.944 122.483C254.921 122.528 254.887 122.573 254.852 122.618C254.053 123.614 252.397 123.682 251.929 123.659C251.233 123.626 250.65 123.435 250.49 122.674C250.456 122.528 250.433 122.36 250.433 122.17C250.433 122.058 250.433 121.946 250.445 121.823C250.742 122.047 251.061 122.226 251.415 122.371C251.918 122.595 252.466 122.73 253.048 122.763C253.619 122.797 254.167 122.719 254.681 122.562C254.772 122.551 254.852 122.517 254.944 122.483Z" fill="#877052"/>
<path d="M249.817 114.634C249.794 115.115 249.68 115.496 249.577 115.496C249.474 115.485 249.417 115.093 249.44 114.611C249.463 114.141 249.577 113.749 249.68 113.749C249.782 113.749 249.839 114.141 249.817 114.634Z" fill="#FFD29B"/>
<path d="M251.233 114.914L251.13 116.661L251.095 117.277C251.084 117.478 250.913 117.635 250.719 117.624L250.216 117.59C250.022 117.579 249.817 117.389 249.942 117.03C249.942 117.03 250.159 116.426 250.445 115.854C250.684 115.351 250.993 114.88 251.233 114.914Z" fill="#FFD29B"/>
<path d="M253.859 115.048C253.836 115.518 253.733 115.91 253.631 115.91C253.528 115.91 253.459 115.507 253.482 115.025C253.516 114.555 253.619 114.163 253.722 114.163C253.825 114.163 253.893 114.566 253.859 115.048Z" fill="#FFD29B"/>
<path d="M249.817 114.634C249.794 115.115 249.68 115.496 249.577 115.496C249.474 115.485 249.417 115.093 249.44 114.611C249.463 114.141 249.577 113.749 249.68 113.749C249.782 113.749 249.839 114.141 249.817 114.634Z" fill="#534741"/>
<path d="M253.859 115.048C253.836 115.518 253.733 115.91 253.631 115.91C253.528 115.91 253.459 115.507 253.482 115.025C253.516 114.555 253.619 114.163 253.722 114.163C253.825 114.163 253.893 114.566 253.859 115.048Z" fill="#534741"/>
<path d="M251.233 114.914L251.13 116.661L251.095 117.277C251.084 117.478 250.913 117.635 250.719 117.624L250.216 117.59C250.022 117.579 249.817 117.389 249.942 117.03C249.942 117.03 250.159 116.426 250.445 115.854C250.684 115.351 250.993 114.88 251.233 114.914Z" fill="#C79D69"/>
<path d="M102.591 143.972C98.0117 144.207 94.0492 140.736 93.8094 136.234L92.9188 119.919C92.679 115.428 96.2189 111.543 100.809 111.308C105.388 111.073 109.351 114.544 109.591 119.045L110.481 135.361C110.732 139.851 107.181 143.725 102.591 143.972Z" fill="#8A1C20"/>
<path d="M106.576 131.094C107.672 129.157 112.708 128.53 117.972 134.722C125.12 143.132 129.3 143.221 135.911 140.59C137.75 139.862 140.707 141.732 138.367 143.994C137.008 145.315 128.683 148.921 123.659 147.757C118.463 146.547 118.258 142.505 109.979 137.063C107.33 135.327 106.439 131.352 106.576 131.094Z" fill="#C7B299"/>
<path d="M110.31 141.901L107.273 138.9C105.149 136.794 101.791 133.435 103.927 131.341L105.137 130.58C107.284 128.497 112.948 129.213 115.072 131.319L118.109 134.32C120.245 136.425 112.445 144.006 110.31 141.901Z" fill="#6B0E6E"/>
<path d="M127.439 210.084C128.923 210.073 131.618 211.764 132.954 211.854C135.215 211.999 144.179 209.636 139.92 208.405C139.748 208.36 137.088 208.304 135.637 207.733C133.08 206.725 131.492 204.183 131.744 201.496L132.6 192.481C132.646 189.794 130.499 187.565 127.804 187.509C125.109 187.453 122.894 189.57 122.848 192.257L123.956 203.869C124.059 204.989 124.241 206.109 124.538 207.195C125.006 208.931 125.68 210.241 127.439 210.084Z" fill="#C7B299"/>
<path d="M147.445 207.083C148.929 207.072 151.624 208.763 152.96 208.853C155.221 208.998 164.185 206.635 159.926 205.404C159.754 205.359 157.094 205.303 155.644 204.732C153.086 203.724 151.498 201.182 151.75 198.495L152.606 189.48C152.652 186.793 150.505 184.564 147.81 184.508C145.115 184.452 142.9 186.569 142.854 189.256L143.962 200.868C144.065 201.988 144.247 203.108 144.544 204.194C145.012 205.93 145.686 207.24 147.445 207.083Z" fill="#C7B299"/>
<path d="M134.929 159.078C155.849 157.409 156.18 192.873 154.182 194.687C152.686 196.042 145.138 195.415 140.125 196.042C139.965 196.065 140.205 199.345 140.102 199.424C138.526 200.656 123.145 200.992 122.62 200.308C118.874 195.437 122.677 183.377 119.205 183.96C113.165 184.956 105.594 185.83 103.698 175.864C102.705 170.612 98.9708 158.742 104.68 160.668C108.574 161.978 109.556 156.704 120.176 155.64C123.488 155.293 122.643 160.052 134.929 159.078Z" fill="#53948A"/>
<path d="M119.605 159.75C121.775 158.932 122.928 156.603 122.231 154.431C120.347 148.541 117.561 138.709 116.659 135.842C114.238 128.116 105.799 129.482 105.799 129.482C100.364 131.509 96.687 133.076 96.0933 139.437C95.9676 140.781 97.4521 151.06 97.7033 152.404L99.3705 160.298C100.547 166.088 113.119 162.18 119.605 159.75Z" fill="#B33BB3"/>
<path d="M105.366 133.602C105.366 133.602 108.483 133.166 108.038 130.545L107.387 127.343C107.033 125.607 105.331 124.465 103.596 124.801C101.86 125.137 100.718 126.828 101.072 128.563L101.723 131.766C102.065 133.513 103.63 133.938 105.366 133.602Z" fill="#9C8B77"/>
<path d="M104.498 128.306C106.119 127.993 107.421 128.284 107.341 126.951C107.375 127.052 107.421 127.142 107.444 127.254C107.729 128.698 106.576 129.997 104.84 130.355C103.847 130.557 102.271 130.411 101.403 128.396C101.357 128.295 101.095 127.13 101.095 127.018C101.529 128.284 102.876 128.62 104.498 128.306Z" fill="#534741"/>
<path d="M97.7719 121.307C97.8746 121.285 97.9888 121.285 98.0916 121.274L97.9888 120.759C97.4293 118.004 99.2335 115.316 101.997 114.779C104.76 114.241 107.467 116.055 108.026 118.81L108.883 123.077C109.442 125.831 107.638 128.519 104.875 129.056C102.385 129.538 99.9529 128.104 99.0851 125.798C98.9594 125.842 98.8338 125.887 98.6968 125.91C97.4179 126.156 96.1846 125.327 95.922 124.051C95.6708 122.785 96.4929 121.554 97.7719 121.307Z" fill="#C7B299"/>
<path d="M137.978 144.308L136.049 142.236C135.535 141.688 135.352 140.904 135.603 140.198C135.603 140.187 135.603 140.187 135.615 140.176L135.934 138.944C136.128 138.284 136.677 137.209 137.088 136.805L140.194 133.245C140.513 132.886 140.913 133.11 140.913 133.11C141.29 133.468 141.107 133.569 140.822 134.14L139.68 136.324L141.461 134.375C141.781 134.017 142.98 133.177 143.425 133.345C143.425 133.345 145.355 133.614 145.252 134.644L143.585 139.336C143.254 140.4 142.569 141.329 141.655 142.001C140.833 142.595 139.451 143.479 139.451 143.479C139.212 143.625 138.184 144.442 137.978 144.308Z" fill="#C7A47B"/>
<path d="M107.402 120.929C107.507 120.908 107.51 120.484 107.408 119.98C107.307 119.476 107.139 119.085 107.034 119.105C106.929 119.126 106.926 119.55 107.028 120.054C107.129 120.557 107.297 120.949 107.402 120.929Z" fill="#534741"/>
<path d="M103.222 121.958C103.327 121.938 103.33 121.513 103.229 121.01C103.127 120.506 102.959 120.115 102.854 120.135C102.749 120.155 102.746 120.58 102.848 121.084C102.949 121.587 103.117 121.979 103.222 121.958Z" fill="#534741"/>
<path d="M104.578 125.518C104.326 125.809 105.24 125.899 106.085 125.742C106.93 125.585 107.604 124.947 107.398 124.835C106.896 124.555 106.896 124.398 105.845 124.667C105 124.891 104.977 125.07 104.578 125.518Z" fill="white"/>
<path d="M105.034 125.014C105.24 125.159 105.605 125.204 106.005 125.092C106.393 124.98 106.679 124.767 106.781 124.543C107.147 124.543 107.398 124.7 107.444 124.868C107.615 125.428 107.101 126.257 106.062 126.358C105.114 126.458 104.566 126.111 104.543 125.618C104.532 125.45 104.703 125.215 105.034 125.014Z" fill="#534741"/>
<path d="M107.261 122.595C107.444 122.954 107.261 123.178 107.056 123.222L106.542 123.323C106.336 123.368 106.131 123.222 106.085 123.021L105.582 120.557C106.108 120.401 107.261 122.595 107.261 122.595Z" fill="#C79D69"/>
<path d="M103.059 115.776C102.945 115.193 102.648 114.701 102.237 114.32C102.225 114.264 102.237 114.208 102.225 114.152C101.917 112.64 100.455 111.666 98.9366 111.957C98.3656 112.069 97.8746 112.338 97.4978 112.719C97.4065 112.719 97.3265 112.719 97.2352 112.741C95.9791 112.987 95.0998 114.04 95.0199 115.261C93.9807 115.82 93.3869 116.996 93.6267 118.217C93.878 119.482 94.9628 120.367 96.196 120.445C96.8127 121.33 97.9089 121.811 99.028 121.599C100.364 121.341 101.278 120.165 101.266 118.844C102.534 118.43 103.333 117.131 103.059 115.776Z" fill="#8A1C20"/>
<path d="M124.207 207.094C124.207 207.094 125.589 206.422 126.594 207.9C127.393 209.076 128.855 209.614 133.057 209.748C134.256 209.782 136.003 209.188 136.939 208.46C137.396 208.102 138.001 207.956 138.584 208.08C138.766 208.124 138.949 208.158 139.132 208.214C140.822 208.651 142.146 209.95 142.569 211.618C142.569 211.629 142.58 211.652 142.58 211.663L143.014 213.701C143.014 213.701 135.386 214.238 131.607 214.059C127.827 213.869 124.253 213.499 124.253 213.499L124.207 207.094Z" fill="#532C17"/>
<path d="M124.241 211.92C124.241 211.92 127.53 212.268 131.298 212.447C134.93 212.615 142.112 212.133 142.66 212.1L143.003 213.701C143.003 213.701 135.375 214.238 131.595 214.059C127.827 213.869 124.253 213.499 124.253 213.499L124.241 211.92Z" fill="#42210B"/>
<path d="M144.122 203.825C144.122 203.825 145.229 202.906 146.497 204.485C147.388 205.594 148.735 206.221 152.937 206.389C154.136 206.434 155.883 205.863 156.831 205.135C157.299 204.776 157.905 204.642 158.476 204.776C158.658 204.821 158.841 204.866 159.024 204.911C160.714 205.37 162.027 206.68 162.427 208.349C162.427 208.36 162.438 208.382 162.438 208.393L162.849 210.431C162.849 210.431 155.21 210.89 151.441 210.678C147.673 210.465 144.088 210.051 144.088 210.051L144.122 203.825Z" fill="#29160B"/>
<path d="M144.11 208.483C144.11 208.483 147.388 208.852 151.167 209.076C154.787 209.289 161.981 208.875 162.541 208.841L162.872 210.443C162.872 210.443 155.233 210.902 151.464 210.689C147.696 210.476 144.11 210.062 144.11 210.062V208.483Z" fill="#0A0502"/>
<path d="M137.978 144.308C138.15 144.218 142.158 143.278 144.065 140.478C144.864 139.302 145.652 136.201 145.72 135.954C145.789 135.708 145.538 135.103 145.127 135.585C144.716 136.066 143.562 138.339 143.128 138.978C142.774 139.493 141.804 139.045 140.924 138.81C140.022 138.575 138.058 138.295 137.43 139.985C136.791 141.676 136.368 142.572 136.368 142.572L137.978 144.308Z" fill="#C7B299"/>
<path d="M125.612 165.058C124.504 165.909 123.019 166.222 121.649 165.774L115.905 165.058L115.666 160.746L117.938 161.318C117.938 160.892 118.006 160.455 118.155 160.019C118.452 159.179 118.977 158.496 119.617 158.003C120.427 157.398 121.569 158.07 121.421 159.067C121.215 160.511 122.026 160.69 122.848 161.082C124.116 161.676 124.709 161.183 125.897 158.787C125.908 158.776 126.811 158.82 126.811 158.82C127.244 157.925 128.683 158.081 128.695 159.067C128.706 162.325 126.491 165.102 125.612 165.058Z" fill="#C7B299"/>
<path d="M95.6479 137.432C97.5891 134.577 101.049 135.674 102.671 138.06C103.047 138.608 104.715 140.344 104.155 149.616C103.938 153.289 105.914 155.293 107.09 155.797C111.189 157.566 117.173 161.452 119.365 161.9C120.804 162.191 118.44 164.621 116.75 165.114C115.54 165.461 105.194 162.269 103.47 161.53C99.7588 159.94 99.1536 159.447 98.0687 156.962C97.3265 155.282 93.7638 140.232 95.6479 137.432Z" fill="#C7B299"/>
<path d="M94.7572 144.397L94.9856 140.153C95.4424 135.73 96.5843 134.062 98.6397 133.961C98.6397 133.961 103.082 133.356 104.909 140.153L105.708 144.151C105.731 146.637 94.9171 147.354 94.7572 144.397Z" fill="#6B0E6E"/>
<path d="M121.523 158.697C120.907 160.757 122.517 161.34 124.001 161.071C126.068 160.701 126.194 157.991 126.651 158.193C126.868 158.283 126.845 158.809 126.822 158.932C125.486 164.497 120.713 161.687 120.53 160.433C120.347 159.234 120.621 157.958 121.249 158.025C121.558 158.059 121.592 158.484 121.523 158.697Z" fill="#C7A47B"/>
<path d="M140 179.861C139.28 175.326 138.378 170.153 134.724 166.928C132.988 165.394 130.727 164.408 128.364 164.554C127.781 164.587 127.815 165.483 128.398 165.438C132.965 165.147 136.151 169.089 137.499 172.93C138.287 175.181 138.721 177.543 139.097 179.895C139.497 182.392 139.76 184.911 139.897 187.442C140.057 190.331 140.034 193.231 139.851 196.121C139.817 196.692 140.719 196.658 140.753 196.087C141.096 190.667 140.845 185.225 140 179.861Z" fill="black"/>
<path d="M128.9 181.552L117.481 160.31C114.238 153.815 106.736 153.244 99.3819 155.114L83.4866 161.183C81.1 161.889 78.565 160.567 77.9027 158.261L65.9812 126.358C65.3532 124.163 61.6648 122.663 58.9128 122.483L53.7628 123.077C51.9814 123.536 53.169 124.701 53.032 126.459L48.9326 178.07C47.1854 194.139 58.4675 208.449 75.3563 208.92L80.1408 209.054L112.171 209.188C128.284 205.65 134.05 193.355 128.9 181.552Z" fill="#F7931E"/>
<path d="M117.869 181.776L109.328 160.41C107.33 155.942 102.237 153.669 97.4864 155.114L73.2551 162.482C70.9713 163.176 68.5619 161.877 67.9224 159.627L58.4104 125.843C57.8052 123.693 55.5556 122.427 53.3631 122.998L48.5443 124.252C46.8429 124.7 45.621 126.145 45.484 127.869L41.5787 178.383C39.9115 194.105 50.6797 208.124 66.792 208.572L71.3596 208.696L101.917 208.819C117.276 205.359 122.78 193.332 117.869 181.776Z" fill="#F15A24"/>
<path d="M51.8444 188.808H35.4352L36.5315 165.617C36.7484 160.926 36.3488 156.245 35.3325 151.665C34.5331 148.037 33.1514 144.532 31.45 141.15L27.9443 134.196L30.5136 136.593C39.1008 144.599 45.2785 154.453 47.665 165.226C47.8363 166.021 47.9962 166.816 48.1332 167.611L51.8444 188.808Z" fill="#228E8C"/>
<path d="M44.5591 188.808H57.2799L56.4349 168.596C56.2636 164.509 56.5719 160.422 57.3598 156.435C57.9879 153.277 59.0498 150.22 60.3744 147.275L63.0922 141.217L61.0938 143.311C54.4251 150.288 49.6291 158.876 47.7792 168.26C47.6422 168.954 47.5166 169.649 47.4138 170.343L44.5591 188.808Z" fill="#7FC6A7"/>
<path d="M16 185.684C16 185.684 17.9412 145.988 29.4402 160.937C37.6505 171.62 39.9001 188.808 39.9001 188.808H29.5887C29.5887 188.808 27.9786 168.495 24.5072 170.309C20.2593 172.549 16 185.684 16 185.684Z" fill="#7FC6A7"/>
<path d="M61.2537 188.618C61.2537 188.618 62.8181 151.71 72.924 165.898C72.924 165.898 71.4852 149.627 64.8621 155.898C56.492 163.826 50.9081 187.106 51.0337 188.193C51.1593 189.279 61.2537 188.618 61.2537 188.618Z" fill="#228E8C"/>
<path d="M45.4155 209.39C54.5621 209.39 61.9731 199.357 61.9731 186.972H28.8578C28.8578 199.357 36.2802 209.39 45.4155 209.39Z" fill="#8A1700"/>
<path fill-rule="evenodd" clip-rule="evenodd" d="M249.879 118.876C249.847 118.829 249.783 118.816 249.736 118.848C249.689 118.88 249.677 118.944 249.709 118.991L249.794 118.933C249.709 118.991 249.709 118.991 249.709 118.991L249.709 118.991L249.709 118.992L249.71 118.993L249.712 118.996L249.72 119.007C249.727 119.016 249.736 119.029 249.749 119.046C249.775 119.079 249.813 119.124 249.863 119.176C249.962 119.279 250.109 119.411 250.299 119.52C250.685 119.74 251.245 119.866 251.931 119.506C251.982 119.48 252.001 119.417 251.975 119.367C251.948 119.317 251.886 119.297 251.836 119.324C251.22 119.647 250.735 119.532 250.401 119.341C250.232 119.244 250.101 119.127 250.012 119.034C249.967 118.987 249.933 118.947 249.911 118.918C249.9 118.904 249.891 118.893 249.886 118.886L249.88 118.878L249.879 118.876L249.879 118.876C249.879 118.876 249.879 118.876 249.879 118.876" fill="#534741"/>
<defs>
<linearGradient id="paint0_linear_340_1156" x1="150.454" y1="0" x2="150.454" y2="215" gradientUnits="userSpaceOnUse">
<stop stop-color="#F6F7D9"/>
<stop offset="1" stop-color="#FFE9E9"/>
</linearGradient>
</defs>
</svg>
