<svg width="297" height="218" viewBox="0 0 297 218" fill="none" xmlns="http://www.w3.org/2000/svg">
<path fill-rule="evenodd" clip-rule="evenodd" d="M86.3824 178C38.6747 178 0 138.153 0 89C0 39.8467 38.6747 0 86.3824 0C128.977 0 164.372 31.7638 171.469 73.5554C184.701 62.5735 201.524 56 219.838 56C262.453 56 297 91.5934 297 135.5C297 179.407 262.453 215 219.838 215C183.571 215 153.148 189.221 144.889 154.479C129.501 169.082 108.952 178 86.3824 178Z" fill="url(#paint0_linear_340_2006)"/>
<path d="M55.3492 187.89C53.8155 187.89 52.5569 186.629 52.5569 185.092V183.1C52.5569 181.563 53.8155 180.302 55.3492 180.302C56.8829 180.302 58.1414 181.563 58.1414 183.1V185.092C58.1414 186.636 56.8829 187.89 55.3492 187.89Z" fill="#F2C99B"/>
<path d="M64.3175 186.05H64.1662C62.9008 186.05 61.8622 185.009 61.8622 183.741V179.323C61.8622 178.055 62.9008 177.015 64.1662 177.015H64.3175C65.583 177.015 66.6215 178.055 66.6215 179.323V183.741C66.6215 185.009 65.583 186.05 64.3175 186.05Z" fill="#F2C99B"/>
<path d="M254.543 188.938C254.117 188.931 253.732 187.814 253.684 186.45L252.363 164.858L254.984 164.913L255.238 186.477C255.286 187.849 254.97 188.951 254.543 188.938Z" fill="#702582"/>
<path d="M243.553 191.487C243.079 191.377 242.886 190.171 243.127 188.793L246.235 166.87L249.144 167.559L244.853 189.199C244.612 190.578 244.028 191.598 243.553 191.487Z" fill="#BF3787"/>
<path d="M268.326 189.992C267.906 190.068 267.308 189.055 266.999 187.725L261.462 166.815L264.041 166.354L268.525 187.449C268.842 188.779 268.752 189.923 268.326 189.992Z" fill="#702582"/>
<path d="M273.939 155.412C274.84 143.673 267.023 133.498 256.479 132.686C245.935 131.873 236.657 140.73 235.756 152.468C234.855 164.207 242.672 174.382 253.216 175.194C263.76 176.007 273.038 167.15 273.939 155.412Z" fill="#BF3787"/>
<path d="M258.058 194.658C257.569 194.637 257.143 193.493 257.109 192.101L255.85 169.992L258.835 170.096L258.876 192.156C258.911 193.562 258.546 194.678 258.058 194.658Z" fill="#BF3787"/>
<path d="M268.327 153.229C269.084 143.369 263.044 134.863 254.837 134.23C246.63 133.598 239.363 141.078 238.606 150.938C237.849 160.798 243.889 169.303 252.096 169.936C260.303 170.569 267.57 163.088 268.327 153.229Z" fill="#D98DBA"/>
<path d="M267.886 156.836C265.286 154.665 261.297 153.101 256.73 152.749C248.457 152.108 241.435 155.678 241.05 160.716C240.981 161.653 241.139 162.57 241.504 163.452C243.051 165.906 245.142 167.849 247.583 169.034C247.955 169.207 248.333 169.372 248.732 169.524C249.819 169.923 250.96 170.185 252.15 170.275C259.44 170.84 265.988 165.023 267.886 156.836Z" fill="#BF5292"/>
<path d="M62.3024 105.217C62.3024 105.217 63.4165 106.361 62.9695 106.643C62.5293 106.933 62.7976 107.036 62.887 107.009C63.0658 106.967 63.1002 107.133 63.1002 107.133C63.1002 107.133 63.2033 107.457 63.4784 107.291C63.8292 107.022 64.0493 106.636 64.0493 106.636L63.0383 105.837L62.3024 105.217Z" fill="black"/>
<path d="M165.005 163.638C163.836 163.638 162.88 162.721 162.818 161.557L161.965 138.387H168.038L167.192 161.564C167.13 162.721 166.167 163.638 165.005 163.638Z" fill="#FFD29B"/>
<path d="M173.89 163.638C172.721 163.638 171.765 162.721 171.703 161.557L170.851 138.387H176.923L176.078 161.564C176.016 162.721 175.053 163.638 173.89 163.638Z" fill="#FFD29B"/>
<path d="M215.974 106.933C212.886 105.127 210.506 107.319 208.361 110.834C205.39 115.692 203.381 113.377 200.837 112.811C199.908 112.605 198.787 113.928 198.636 114.996C198.368 116.933 201.882 118.945 204.523 119.738C208.505 120.923 213.182 118.656 215.08 113.997C216.497 110.517 218.34 108.318 215.974 106.933Z" fill="#F15A24"/>
<path fill-rule="evenodd" clip-rule="evenodd" d="M122.426 107.356C123.109 107.469 123.572 108.116 123.458 108.8L113.657 167.71C113.544 168.394 112.897 168.856 112.213 168.743C111.529 168.629 111.067 167.982 111.181 167.298L120.981 108.388C121.095 107.704 121.742 107.242 122.426 107.356Z" fill="#534741"/>
<path fill-rule="evenodd" clip-rule="evenodd" d="M121.982 107.12C122.663 106.989 123.321 107.434 123.452 108.115L134.855 167.267C134.986 167.948 134.541 168.606 133.86 168.737C133.179 168.868 132.521 168.423 132.39 167.742L120.987 108.59C120.856 107.91 121.301 107.251 121.982 107.12Z" fill="#534741"/>
<path fill-rule="evenodd" clip-rule="evenodd" d="M114.37 149.779C114.37 149.227 114.817 148.779 115.37 148.779H130.204C130.757 148.779 131.204 149.227 131.204 149.779C131.204 150.331 130.757 150.779 130.204 150.779H115.37C114.817 150.779 114.37 150.331 114.37 149.779Z" fill="#534741"/>
<path d="M137.336 136.65H108.382C103.148 136.65 98.9047 132.398 98.9047 127.153V79.4968C98.9047 74.2522 103.148 70 108.382 70H137.336C142.57 70 146.814 74.2522 146.814 79.4968V127.16C146.807 132.398 142.563 136.65 137.336 136.65Z" fill="#534741"/>
<path d="M136.27 134.5H109.448C104.929 134.5 101.264 130.827 101.264 126.299V80.3447C101.264 75.8168 104.929 72.1436 109.448 72.1436H136.27C140.789 72.1436 144.455 75.8168 144.455 80.3447V126.299C144.448 130.834 140.789 134.5 136.27 134.5Z" fill="#F2F2F2"/>
<path opacity="0.33" fill-rule="evenodd" clip-rule="evenodd" d="M110.541 82.3745C107.799 82.3745 105.546 84.6242 105.546 87.381V91.7848C105.546 94.5355 107.793 96.7913 110.541 96.7913C113.284 96.7913 115.537 94.5351 115.537 91.7848V87.381C115.537 84.6303 113.29 82.3745 110.541 82.3745ZM104.546 87.381C104.546 84.0731 107.246 81.3745 110.541 81.3745C113.845 81.3745 116.537 84.0808 116.537 87.381V91.7848C116.537 95.0855 113.838 97.7913 110.541 97.7913C107.238 97.7913 104.546 95.0851 104.546 91.7848V87.381Z" fill="#0000FF"/>
<path opacity="0.33" fill-rule="evenodd" clip-rule="evenodd" d="M116.573 92.0781C114.34 92.0781 112.506 93.9139 112.506 96.1542V106.485C112.506 108.725 114.34 110.561 116.573 110.561H121.154C123.387 110.561 125.22 108.725 125.22 106.485V96.1542C125.22 93.9139 123.387 92.0781 121.154 92.0781H116.573ZM111.506 96.1542C111.506 93.3636 113.786 91.0781 116.573 91.0781H121.154C123.941 91.0781 126.22 93.3636 126.22 96.1542V106.485C126.22 109.276 123.941 111.561 121.154 111.561H116.573C113.786 111.561 111.506 109.276 111.506 106.485V96.1542Z" fill="#C1272D"/>
<path opacity="0.51" d="M138.182 85.9612H119.544C119.173 85.9612 118.863 85.6511 118.863 85.279C118.863 84.9068 119.173 84.5967 119.544 84.5967H138.182C138.554 84.5967 138.863 84.9068 138.863 85.279C138.863 85.6511 138.554 85.9612 138.182 85.9612Z" fill="black"/>
<path opacity="0.51" d="M115.658 117.243H106.718C106.346 117.243 106.037 116.933 106.037 116.561C106.037 116.189 106.346 115.878 106.718 115.878H115.658C116.03 115.878 116.339 116.189 116.339 116.561C116.339 116.94 116.03 117.243 115.658 117.243Z" fill="black"/>
<path opacity="0.51" d="M115.658 120.31H106.718C106.346 120.31 106.037 120 106.037 119.628C106.037 119.255 106.346 118.945 106.718 118.945H115.658C116.03 118.945 116.339 119.255 116.339 119.628C116.339 120.007 116.03 120.31 115.658 120.31Z" fill="black"/>
<path opacity="0.51" d="M115.658 123.376H106.718C106.346 123.376 106.037 123.066 106.037 122.694C106.037 122.322 106.346 122.012 106.718 122.012H115.658C116.03 122.012 116.339 122.322 116.339 122.694C116.339 123.073 116.03 123.376 115.658 123.376Z" fill="black"/>
<path opacity="0.51" d="M115.658 126.443H106.718C106.346 126.443 106.037 126.133 106.037 125.761C106.037 125.389 106.346 125.079 106.718 125.079H115.658C116.03 125.079 116.339 125.389 116.339 125.761C116.339 126.14 116.03 126.443 115.658 126.443Z" fill="black"/>
<path d="M181.662 144.927L180.128 145.361C173.533 147.222 166.538 147.146 159.977 145.148L158.272 144.624C156.999 144.231 156.195 142.97 156.387 141.647L160.493 112.991C160.686 111.647 161.628 107.767 162.99 107.822L176.697 108.353C177.955 108.401 178.691 112.205 178.897 113.452L183.595 141.874C183.822 143.238 182.989 144.548 181.662 144.927Z" fill="#B3B3B3"/>
<path d="M176.227 82.4992C176.29 81.3133 175.397 80.3014 174.233 80.239C173.069 80.1766 172.073 81.0873 172.01 82.2732C171.947 83.4591 172.839 84.471 174.004 84.5334C175.168 84.5958 176.164 83.685 176.227 82.4992Z" fill="#534741"/>
<path d="M171.24 79.9845C171.303 78.7986 170.41 77.7867 169.246 77.7243C168.081 77.6619 167.086 78.5727 167.023 79.7586C166.959 80.9444 167.852 81.9563 169.017 82.0187C170.181 82.0811 171.176 81.1704 171.24 79.9845Z" fill="#534741"/>
<path d="M167.598 83.9146C167.577 84.3074 167.488 84.6244 167.405 84.6244C167.322 84.6175 167.274 84.2936 167.295 83.9008C167.316 83.5148 167.405 83.1909 167.487 83.1909C167.57 83.1909 167.618 83.5148 167.598 83.9146Z" fill="#8C786E"/>
<path d="M168.657 85.5821L168.629 86.0852C168.622 86.2506 168.485 86.3815 168.327 86.3677L167.921 86.3402C167.763 86.3333 167.598 86.1748 167.701 85.8784C167.701 85.8784 167.873 85.3822 168.107 84.9136C168.134 85.0583 168.155 85.2099 168.155 85.3615C168.334 85.4167 168.499 85.4787 168.657 85.5821Z" fill="#8C786E"/>
<path d="M178.265 84.2658C178.01 84.6724 177.962 85.1479 178.072 85.6096C178.12 85.7957 178.134 85.9956 178.12 86.1885C178.065 87.3395 177.027 87.7392 175.974 88.1665C175.094 88.518 174.413 90.1582 173.285 90.0962C173.182 90.0893 173.086 90.0755 172.99 90.0617L172.996 89.8136V89.5655C173.581 89.0211 174.007 88.2974 174.179 87.4704C174.282 87.498 174.379 87.5187 174.482 87.5187C175.465 87.5738 176.304 86.8019 176.36 85.8026C176.394 85.079 176.009 84.4243 175.417 84.1141C175.177 84.2244 174.895 84.2589 174.599 84.2726C174.331 84.2933 174.042 84.2795 173.767 84.2658C172.948 84.2175 172.274 83.7075 171.958 82.9977C171.813 82.66 171.552 82.3705 171.222 82.1982C170.624 81.895 170.204 81.3092 170.122 80.6062C170.101 80.4753 170.094 80.3513 170.101 80.2203C170.108 79.8964 170.204 79.6069 170.342 79.3451C168.409 79.4622 166.82 81.0611 166.71 83.0873L166.525 86.4504C166.463 87.5738 166.875 88.6007 167.57 89.3656H167.487C166.683 89.3312 166.009 88.8488 165.699 88.1803C165.472 87.6841 164.895 87.4084 164.688 86.8915C164.228 85.7337 165.101 84.9274 165.266 84.2933C165.534 83.2802 165.012 82.274 164.963 82.0949C164.551 80.6889 165.321 78.6145 167.02 77.9943C167.212 77.9185 168.416 76.6986 170.493 76.864C170.851 76.8916 171.236 77.0088 171.566 77.1879C171.917 76.9674 172.329 76.8502 172.769 76.8502C174.09 76.8502 175.108 77.8633 175.665 78.773C176.016 79.3588 176.545 79.793 177.102 80.1996C177.659 80.6131 177.728 81.0749 177.714 81.4746C178.265 81.8674 178.615 82.5428 178.567 83.2871C178.567 83.6317 178.45 83.9694 178.265 84.2658Z" fill="#998E82"/>
<path d="M171.717 90.3584C171.697 90.3928 171.669 90.4342 171.642 90.4686C171.002 91.2887 169.668 91.3439 169.296 91.3232C168.739 91.2956 168.272 91.1371 168.141 90.5169C168.113 90.5238 168.086 90.5375 168.065 90.5444L168.093 90.1034C168.093 90.0138 168.093 89.9173 168.1 89.8208C168.34 90.0069 168.595 90.1516 168.877 90.2688C169.283 90.4548 169.723 90.5651 170.19 90.5927C170.651 90.6202 171.091 90.5582 171.504 90.4273C171.58 90.4135 171.642 90.3859 171.717 90.3584Z" fill="#FFD29B"/>
<path d="M167.735 146.602C167.708 146.636 167.721 146.926 167.721 146.926C167.295 147.139 165.837 147.229 164.303 146.953C163.347 146.781 162.24 146.292 162.24 146.292C162.24 146.202 162.219 145.85 162.233 145.747C162.611 145.885 167.625 146.629 167.735 146.602Z" fill="#877052"/>
<path d="M171.133 146.636C171.16 146.678 171.133 146.96 171.133 146.96C171.545 147.194 172.996 147.346 174.544 147.139C175.507 147.008 176.635 146.567 176.635 146.567C176.641 146.478 176.669 146.126 176.662 146.03C176.277 146.14 171.243 146.671 171.133 146.636Z" fill="#877052"/>
<path d="M167.598 83.9146C167.577 84.3074 167.488 84.6244 167.405 84.6244C167.322 84.6175 167.274 84.2936 167.295 83.9008C167.316 83.5148 167.405 83.1909 167.487 83.1909C167.57 83.1909 167.618 83.5148 167.598 83.9146Z" fill="#FFD29B"/>
<path d="M168.739 84.1489L168.657 85.5823L168.629 86.0854C168.622 86.2508 168.485 86.3818 168.327 86.368L167.921 86.3404C167.763 86.3335 167.598 86.175 167.701 85.8787C167.701 85.8787 167.873 85.3825 168.107 84.9138C168.299 84.5072 168.547 84.1213 168.739 84.1489Z" fill="#FFD29B"/>
<path d="M170.844 84.2589C170.823 84.6448 170.741 84.9687 170.658 84.9687C170.575 84.9687 170.52 84.6379 170.541 84.2451C170.569 83.8592 170.651 83.5353 170.734 83.5353C170.816 83.5284 170.871 83.8592 170.844 84.2589Z" fill="#FFD29B"/>
<path d="M167.598 83.9146C167.577 84.3074 167.488 84.6244 167.405 84.6244C167.322 84.6175 167.274 84.2936 167.295 83.9008C167.316 83.5148 167.405 83.1909 167.487 83.1909C167.57 83.1909 167.618 83.5148 167.598 83.9146Z" fill="#534741"/>
<path d="M170.844 84.2589C170.823 84.6448 170.741 84.9687 170.658 84.9687C170.575 84.9687 170.52 84.6379 170.541 84.2451C170.569 83.8592 170.651 83.5353 170.734 83.5353C170.816 83.5284 170.871 83.8592 170.844 84.2589Z" fill="#534741"/>
<path d="M168.739 84.1489L168.657 85.5823L168.629 86.0854C168.622 86.2508 168.485 86.3818 168.327 86.368L167.921 86.3404C167.763 86.3335 167.598 86.175 167.701 85.8787C167.701 85.8787 167.873 85.3825 168.107 84.9138C168.299 84.5072 168.547 84.1213 168.739 84.1489Z" fill="#C79D69"/>
<path fill-rule="evenodd" clip-rule="evenodd" d="M167.502 87.328C167.565 87.2866 167.65 87.3044 167.692 87.3678L167.577 87.4428C167.692 87.3678 167.692 87.3677 167.692 87.3677L167.692 87.3676L167.692 87.3675C167.691 87.3675 167.691 87.3675 167.692 87.3675L167.692 87.3686L167.696 87.3745C167.7 87.38 167.706 87.3886 167.715 87.3996C167.732 87.4217 167.757 87.4535 167.792 87.4904C167.86 87.5645 167.961 87.657 168.091 87.7328C168.343 87.8809 168.712 87.9718 169.19 87.7148C169.257 87.679 169.34 87.704 169.376 87.7707C169.412 87.8374 169.387 87.9206 169.32 87.9564C168.746 88.2646 168.275 88.159 167.952 87.9694C167.793 87.8764 167.672 87.7647 167.591 87.6769C167.55 87.6328 167.518 87.5941 167.497 87.5661C167.486 87.552 167.478 87.5406 167.472 87.5323L167.465 87.5224L167.463 87.5194L167.463 87.5184L167.462 87.518L167.462 87.5179C167.462 87.5178 167.462 87.5178 167.577 87.4428L167.462 87.5178C167.421 87.4544 167.439 87.3694 167.502 87.328Z" fill="#534741"/>
<path d="M205.376 173.886C204.901 173.776 204.709 172.57 204.95 171.191L208.058 149.269L210.967 149.958L206.676 171.598C206.435 172.976 205.85 174.003 205.376 173.886Z" fill="#BF3787"/>
<path d="M216.366 171.343C215.94 171.336 215.555 170.22 215.507 168.855L214.186 147.263L216.806 147.318L217.061 168.883C217.102 170.254 216.793 171.35 216.366 171.343Z" fill="#702582"/>
<path d="M230.149 172.397C229.722 172.473 229.131 171.46 228.821 170.13L223.285 149.22L225.864 148.758L230.348 169.854C230.665 171.184 230.575 172.321 230.149 172.397Z" fill="#702582"/>
<path d="M235.761 137.819C236.662 126.08 228.845 115.906 218.301 115.093C207.757 114.28 198.479 123.137 197.578 134.876C196.677 146.614 204.494 156.789 215.038 157.601C225.582 158.414 234.86 149.557 235.761 137.819Z" fill="#BF3787"/>
<path d="M219.874 177.063C219.385 177.042 218.959 175.898 218.925 174.506L217.666 152.397L220.651 152.501L220.692 174.561C220.733 175.96 220.362 177.077 219.874 177.063Z" fill="#BF3787"/>
<path d="M230.142 135.635C230.899 125.776 224.86 117.27 216.652 116.637C208.445 116.004 201.178 123.485 200.422 133.344C199.665 143.204 205.704 151.71 213.912 152.343C222.119 152.975 229.386 145.495 230.142 135.635Z" fill="#D98DBA"/>
<path d="M229.702 139.241C227.102 137.07 223.113 135.505 218.546 135.154C210.273 134.513 203.251 138.083 202.866 143.121C202.797 144.058 202.955 144.975 203.319 145.857C204.867 148.31 206.958 150.254 209.399 151.439C209.771 151.611 210.149 151.777 210.548 151.928C211.634 152.328 212.776 152.59 213.966 152.68C221.263 153.238 227.804 147.421 229.702 139.241Z" fill="#BF5292"/>
<path d="M68.2033 169.076C68.6297 169.069 69.0149 167.952 69.063 166.588L70.3835 144.996L67.7632 145.051L67.5087 166.615C67.4605 167.987 67.7769 169.083 68.2033 169.076Z" fill="#702582"/>
<path d="M79.1936 171.619C79.6682 171.508 79.8607 170.302 79.62 168.924L76.5114 147.001L73.6022 147.691L77.8938 169.331C78.1345 170.709 78.7191 171.736 79.1936 171.619Z" fill="#BF3787"/>
<path d="M54.4207 170.13C54.8471 170.206 55.4386 169.193 55.7481 167.863L61.2845 146.953L58.7054 146.492L54.2213 167.587C53.9049 168.917 53.9943 170.055 54.4207 170.13Z" fill="#702582"/>
<path d="M69.5437 155.342C80.0877 154.529 87.9048 144.355 87.0037 132.616C86.1026 120.878 76.8245 112.021 66.2806 112.834C55.7366 113.646 47.9195 123.821 48.8206 135.559C49.7217 147.298 58.9998 156.155 69.5437 155.342Z" fill="#BF3787"/>
<path d="M64.6889 174.789C65.1772 174.768 65.6036 173.624 65.638 172.232L66.8966 150.124L63.9117 150.227L63.8705 172.287C63.8361 173.693 64.2006 174.81 64.6889 174.789Z" fill="#BF3787"/>
<path d="M70.6715 150.079C78.8787 149.447 84.9184 140.941 84.1615 131.081C83.4046 121.221 76.1378 113.741 67.9306 114.374C59.7234 115.006 53.6838 123.512 54.4407 133.372C55.1975 143.232 62.4644 150.712 70.6715 150.079Z" fill="#D98DBA"/>
<path d="M55.7 140.041C58.2997 137.87 62.2886 136.306 66.8553 135.954C75.129 135.313 81.3119 135.81 81.6971 140.847C81.7658 141.785 81.6076 142.701 81.2431 143.583C79.6957 146.037 77.6049 147.98 75.1634 149.166C74.792 149.338 74.4137 149.503 74.0148 149.655C72.9282 150.055 71.7865 150.317 70.5967 150.406C63.3065 150.971 57.605 148.228 55.7 140.041Z" fill="#BF5292"/>
<path d="M41.4566 190.715C41.883 190.709 42.2682 189.592 42.3163 188.228L43.6368 166.636L41.0165 166.691L40.762 188.255C40.7138 189.627 41.0302 190.722 41.4566 190.715Z" fill="#702582"/>
<path d="M52.4469 193.266C52.9215 193.155 53.114 191.949 52.8733 190.571L49.7647 168.648L46.8555 169.338L51.1471 190.978C51.3878 192.356 51.9655 193.376 52.4469 193.266Z" fill="#BF3787"/>
<path d="M27.674 191.77C28.1004 191.846 28.6919 190.833 29.0014 189.503L34.5378 168.593L31.9587 168.131L27.4746 189.227C27.1582 190.557 27.2476 191.694 27.674 191.77Z" fill="#702582"/>
<path d="M42.7963 176.984C53.3403 176.171 61.1574 165.996 60.2563 154.258C59.3552 142.519 50.0771 133.662 39.5331 134.475C28.9892 135.288 21.1721 145.463 22.0732 157.201C22.9743 168.94 32.2523 177.797 42.7963 176.984Z" fill="#BF3787"/>
<path d="M37.9421 196.436C38.4304 196.415 38.8568 195.271 38.8912 193.879L40.1498 171.77L37.165 171.873L37.1237 193.934C37.0893 195.333 37.4538 196.456 37.9421 196.436Z" fill="#BF3787"/>
<path d="M43.794 171.728C52.0011 171.095 58.0408 162.59 57.2839 152.73C56.527 142.87 49.2602 135.39 41.053 136.023C32.8459 136.655 26.8062 145.161 27.5631 155.021C28.32 164.881 35.5868 172.361 43.794 171.728Z" fill="#D98DBA"/>
<path d="M28.1141 158.614C30.7138 156.443 34.7028 154.879 39.2695 154.527C47.5432 153.886 54.5652 157.456 54.9503 162.494C55.0191 163.431 54.8609 164.348 54.4964 165.23C52.9489 167.683 50.8582 169.627 48.4166 170.812C48.0453 170.985 47.667 171.15 47.2681 171.302C46.1814 171.701 45.0398 171.963 43.85 172.053C36.5598 172.618 30.0123 166.801 28.1141 158.614Z" fill="#BF5292"/>
<path d="M84.7919 169.455C85.8786 169.448 87.8662 170.516 88.8359 170.564C90.4934 170.661 97.0752 169.172 93.9528 168.394C93.829 168.366 91.8758 168.331 90.8098 167.973C88.9322 167.339 87.7699 165.74 87.9556 164.045L88.5815 158.373C88.6158 156.684 87.034 155.285 85.0602 155.244C83.0863 155.203 81.4563 156.547 81.4219 158.235L82.2335 165.54C82.3091 166.243 82.4398 166.946 82.6599 167.635C83.0038 168.724 83.499 169.551 84.7919 169.455Z" fill="#F2C99B"/>
<path d="M92.6942 168.18C93.7396 168.173 95.6516 169.31 96.5869 169.372C98.1825 169.475 104.517 167.883 101.511 167.043C101.394 167.008 99.5168 166.974 98.4851 166.595C96.6763 165.919 95.5553 164.203 95.7341 162.391L96.3325 156.319C96.36 154.513 94.8469 153.011 92.9418 152.97C91.0368 152.928 89.4755 154.362 89.4412 156.167L90.2252 163.99C90.3009 164.748 90.4247 165.499 90.631 166.229C90.9749 167.408 91.4494 168.29 92.6942 168.18Z" fill="#F2C99B"/>
<path d="M81.3257 127.194L79.6407 126.237C78.3202 126.829 76.7521 126.216 76.1606 124.886L70.7618 112.77C70.1703 111.433 70.7618 109.862 72.0822 109.269L67.5775 107.353C68.1277 107.215 69.9433 107.457 70.8787 107.705C73.9736 108.518 76.5114 110.73 77.9075 113.618L82.5705 123.225C83.1688 124.555 82.6462 126.609 81.3257 127.194Z" fill="#6B1619"/>
<path d="M64.3175 106.444C62.8526 106.65 59.0287 104.059 59.0287 101.144V100.668C59.0287 97.7532 61.4083 95.3687 64.3175 95.3687C67.2267 95.3687 68.9599 96.685 68.9599 99.6002V100.076C68.9667 102.984 67.2267 106.444 64.3175 106.444Z" fill="black"/>
<path d="M84.7094 128.525C94.1798 127.884 97.7768 133.673 97.8524 142.749C97.9212 150.868 97.9556 158.959 97.9556 158.959C96.9721 159.917 91.9584 159.413 88.6365 159.834C88.5265 159.848 88.4921 162.57 88.4302 162.632C87.3917 163.5 77.1923 163.631 76.8346 163.142C74.3175 159.655 76.7452 145.72 74.4413 146.105C70.4385 146.774 65.4248 147.346 64.1043 140.248C63.4097 136.512 60.8512 128.056 64.6545 129.455C67.2473 130.413 67.8663 126.671 74.9021 125.982C77.0891 125.768 76.5527 129.076 84.7094 128.525Z" fill="#1A1A1A"/>
<path d="M75.858 129.62C77.3367 128.876 79.6338 123.611 76.8553 113.563C75.1772 107.512 66.6009 107.043 66.6009 107.043C61.9998 107.822 56.7247 110.516 56.7247 115.41C56.7247 116.416 60.0328 120.055 61.1951 124.252L63.0314 130.144C63.1896 130.647 62.997 131.164 63.334 131.571C66.1813 134.954 71.3051 131.901 75.858 129.62Z" fill="#922E2E"/>
<path d="M66.5939 109.972C66.5939 109.972 68.8704 109.648 68.5403 107.698L68.0726 105.313C67.8181 104.018 66.5733 103.17 65.301 103.418C64.0355 103.666 63.2033 104.934 63.4578 106.23L63.9255 108.614C64.1868 109.896 65.3285 110.22 66.5939 109.972Z" fill="#C79D69"/>
<path d="M61.0438 100.799C61.1194 100.785 61.202 100.779 61.2776 100.779L61.202 100.386C60.7962 98.332 62.1098 96.3265 64.1249 95.9268C66.1401 95.527 68.1208 96.8847 68.5266 98.9385L69.1524 102.122C69.5582 104.176 68.2446 106.182 66.2295 106.581C64.4138 106.94 62.6394 105.872 62.0067 104.149C61.9172 104.183 61.821 104.218 61.7247 104.238C60.7962 104.424 59.8884 103.804 59.7027 102.853C59.5101 101.902 60.1153 100.985 61.0438 100.799Z" fill="#F2C99B"/>
<path d="M68.0773 100.509C68.1555 100.494 68.1592 100.178 68.0854 99.805C68.0117 99.4316 67.8885 99.1415 67.8103 99.157C67.732 99.1725 67.7283 99.4877 67.8021 99.8611C67.8758 100.235 67.999 100.525 68.0773 100.509Z" fill="#534741"/>
<path d="M65.0308 101.28C65.1091 101.265 65.1127 100.949 65.039 100.576C64.9653 100.203 64.8421 99.9124 64.7638 99.928C64.6856 99.9435 64.6819 100.259 64.7556 100.632C64.8294 101.006 64.9526 101.296 65.0308 101.28Z" fill="#534741"/>
<path d="M67.9763 101.757C68.107 102.026 67.9763 102.191 67.825 102.226L67.4468 102.302C67.2955 102.329 67.1442 102.233 67.1166 102.074L66.7521 100.241C67.1304 100.124 67.9763 101.757 67.9763 101.757Z" fill="#C79D69"/>
<path fill-rule="evenodd" clip-rule="evenodd" d="M82.8676 130.037C85.4496 130.365 88.1286 132.124 88.2595 135.523C88.3902 138.914 88.9199 159.249 88.9199 159.834C88.9199 159.99 88.793 160.117 88.6365 160.117C88.4799 160.117 88.353 159.99 88.353 159.834C88.353 159.261 87.8237 138.935 87.693 135.545C87.5763 132.513 85.2037 130.905 82.7961 130.6C81.5936 130.447 80.4166 130.626 79.5522 131.096C78.6973 131.56 78.1566 132.299 78.1566 133.301C78.1566 133.522 78.1144 133.765 77.9291 133.91C77.7296 134.066 77.4917 134.014 77.3361 133.951C77.1689 133.884 76.9928 133.764 76.8237 133.629C76.6512 133.492 76.4708 133.325 76.2942 133.149C75.9408 132.797 75.5899 132.396 75.3289 132.084C75.198 131.928 75.0889 131.794 75.0124 131.698C74.9742 131.65 74.944 131.612 74.9234 131.586L74.8996 131.556L74.8934 131.548L74.8918 131.545C74.8917 131.545 74.8911 131.545 75.1153 131.371L74.8911 131.545C74.7953 131.421 74.818 131.243 74.9418 131.147C75.0655 131.051 75.2436 131.074 75.3394 131.198M77.5787 133.437C77.5842 133.41 77.5897 133.367 77.5897 133.301C77.5897 132.052 78.2809 131.141 79.2816 130.598C80.2729 130.059 81.5753 129.873 82.8676 130.037M77.5787 133.437C77.5701 133.434 77.56 133.43 77.5483 133.425C77.457 133.389 77.3315 133.309 77.1774 133.186C77.0267 133.066 76.8623 132.915 76.6942 132.748C76.3581 132.413 76.0195 132.026 75.7634 131.72C75.6358 131.568 75.5294 131.437 75.4551 131.344C75.4179 131.297 75.3888 131.261 75.3691 131.236L75.3467 131.207L75.3411 131.2L75.3394 131.198" fill="#F2F2F2"/>
<path d="M72.0066 127.822L65.0741 126.602C64.3863 126.56 63.8292 126.03 63.7605 125.341L63.1827 116.292C63.1827 113.101 60.9407 111.419 59.7027 111.592C58.2172 111.798 57.1924 112.529 56.7454 114.121C56.5184 114.934 56.2846 117.043 56.3465 117.884L57.3987 127.443C57.6188 128.945 58.5129 132.219 61.8554 132.729C62.103 132.797 72.151 133.893 72.151 133.893C73.9186 133.893 75.3491 132.35 75.1703 130.544C75.0052 128.973 73.5885 127.822 72.0066 127.822Z" fill="#B52B30"/>
<path d="M76.9722 130.116L78.4921 130.454C79.5857 130.695 80.6379 130.151 80.8374 129.248L82.4949 126.064C82.99 123.156 79.9433 121.819 79.8814 121.805C79.2418 121.543 79.0836 121.323 78.3339 122.012C77.7081 122.591 77.2473 123.287 76.9447 124.038L75.3491 128.035C75.1496 128.938 75.8787 129.875 76.9722 130.116Z" fill="#6B1619"/>
<path d="M77.0822 133.9C79.6271 133.9 81.6902 132.246 81.6902 130.206C81.6902 128.166 79.6271 126.512 77.0822 126.512C74.5373 126.512 72.4742 128.166 72.4742 130.206C72.4742 132.246 74.5373 133.9 77.0822 133.9Z" fill="#F2C99B"/>
<path d="M67.4881 104.99C67.158 105.031 66.8554 104.804 66.8141 104.473L66.7866 104.253C66.7453 103.922 66.9723 103.618 67.3024 103.577C67.6325 103.536 67.9351 103.763 67.9764 104.094L68.0039 104.315C68.0452 104.638 67.8113 104.942 67.4881 104.99Z" fill="#1A1A1A"/>
<path d="M66.8073 103.99C66.8761 104.073 66.9792 104.128 67.0962 104.114L67.7564 104.025C67.8252 104.018 67.8871 103.976 67.9283 103.935C67.8252 103.687 67.5776 103.522 67.3025 103.563C67.0549 103.591 66.8692 103.77 66.8073 103.99Z" fill="white"/>
<path d="M105.301 169.965C104.881 170.757 101.25 169.985 95.2389 170.11C94.8263 170.116 94.5099 170.144 94.2348 170.158C94.2623 170.247 94.2898 170.337 94.3105 170.433C94.3242 170.509 94.3792 170.778 94.3311 171.081C94.5856 171.067 94.8744 171.047 95.2458 171.04C101.257 170.916 104.888 171.695 105.308 170.895C105.459 170.606 105.438 170.206 105.342 169.848C105.328 169.882 105.321 169.923 105.301 169.965Z" fill="#362E2A"/>
<path d="M81.8553 170.185C81.8484 170.075 81.8484 171.005 81.8553 171.116C81.9722 173.859 93.2513 174.155 94.2211 172.342C94.4343 171.943 94.338 171.46 94.3174 171.357C94.3105 171.322 94.2967 171.288 94.2899 171.26C94.2692 171.316 94.2486 171.364 94.2211 171.412C93.2513 173.225 81.9722 172.935 81.8553 170.185Z" fill="#534741"/>
<path d="M105.301 170.006C105.521 169.585 105.39 168.944 105.177 168.517C104.854 167.883 104.028 167.421 103.643 167.29C102.433 166.863 101.635 166.739 100.521 166.153C99.0216 165.361 98.2719 164.968 98.1825 164.892C96.6419 163.686 96.8208 162.694 95.8442 162.494C94.6956 162.253 94.0354 163.527 92.8455 163.204C92.2197 163.031 91.3531 162.473 90.9405 162.335C90.3971 162.149 90.0533 162.259 89.8676 162.39C89.1386 162.893 89.565 164.816 89.6131 165.092C89.785 166.071 90.3559 169.372 92.7974 170.088C93.6158 170.33 94.0491 170.178 95.2389 170.15C101.25 170.019 104.881 170.798 105.301 170.006Z" fill="#534741"/>
<path d="M82.6943 164.52C81.5183 164.761 81.6283 165.237 81.7934 167.242C81.8622 168.028 81.8484 170.123 81.8553 170.233C81.9722 172.976 93.2514 173.272 94.2211 171.46C94.4343 171.06 94.338 170.578 94.3174 170.474C94.1179 169.51 93.5471 168.779 92.3573 168.083C90.7892 167.159 90.8305 166.67 90.3215 165.795C90.0189 165.278 89.2899 163.9 88.8704 163.838C87.6118 163.658 86.9447 165.264 85.5004 165.292C84.1317 165.313 83.5403 164.348 82.6943 164.52Z" fill="#736357"/>
<path d="M60.2529 100.427C60.6587 100.978 61.8622 100.847 62.7013 100.303C64.1112 99.3863 64.3794 97.1052 64.8815 97.181C65.0809 97.2086 65.0672 97.5876 65.3147 97.6358C65.8099 97.7392 66.7522 96.4229 66.4289 95.8853C66.3945 95.8233 66.2295 95.589 65.1634 95.6303C64.1662 95.6717 63.0108 95.7131 61.9448 96.5194C60.693 97.4567 59.6614 99.6276 60.2529 100.427Z" fill="black"/>
<path d="M60.6793 97.4981C60.2529 97.6773 59.737 97.319 59.7577 97.2431C59.7714 97.188 60.1016 97.3327 60.2872 97.1604C60.4729 96.9881 60.3423 96.6711 60.4523 96.6298C60.5967 96.5678 61.03 96.9813 60.9269 97.2776C60.8856 97.4085 60.7412 97.4706 60.6793 97.4981Z" fill="black"/>
<path d="M68.7398 107.043C68.8911 107.967 69.235 110.048 66.1332 110.248C64.0631 110.379 63.4854 108.249 63.4854 107.312C63.4854 106.375 64.4482 107.463 66.0576 107.36C68.1552 107.215 68.4853 105.506 68.7398 107.043Z" fill="#6B1619"/>
<path d="M149.86 218C188.38 218 219.606 207.543 219.606 194.644C219.606 181.744 188.38 171.288 149.86 171.288C111.341 171.288 80.1152 181.744 80.1152 194.644C80.1152 207.543 111.341 218 149.86 218Z" fill="#F15A24"/>
<path d="M47.5432 151.412C68.1552 151.777 66.8003 162.418 66.6971 179.592C66.6971 180.088 66.3464 180.509 65.8718 180.592C64.9846 180.743 63.4853 180.86 61.9516 180.378C61.759 180.316 59.5445 159.744 57.6738 162.404C57.4399 162.735 59.3106 181.591 58.1139 183.155C57.4606 184.003 52.4675 183.5 52.4675 181.997C52.4606 176.574 50.1016 168.731 48.6848 166.539C46.4152 163.018 36.0302 166.436 35.5556 159.351C35.0879 152.342 35.0192 150.33 35.6725 150.13C40.4112 148.669 42.5569 151.322 47.5432 151.412Z" fill="#1B1464"/>
<path fill-rule="evenodd" clip-rule="evenodd" d="M50.0278 154.155C50.1569 154.4 50.0637 154.702 49.8196 154.831C49.7977 154.843 49.7779 154.854 49.7601 154.864C49.7816 154.876 49.8046 154.888 49.8287 154.9C49.869 154.92 49.9049 154.935 49.9302 154.945C49.938 154.948 49.9447 154.951 49.9499 154.953C49.953 154.953 49.9566 154.954 49.9608 154.955C50.0106 154.967 50.1219 154.993 50.3645 155.047C50.8488 155.155 51.8483 155.376 53.908 155.823M53.908 155.823C56.2742 156.338 57.3625 157.702 57.8299 158.966C58.0585 159.585 58.1346 160.167 58.1543 160.592C58.1643 160.805 58.1601 160.982 58.1532 161.108C58.1497 161.171 58.1455 161.221 58.142 161.257C58.1403 161.275 58.1387 161.289 58.1375 161.3L58.1359 161.313L58.1353 161.317L58.1351 161.319L58.135 161.319C58.135 161.32 58.1349 161.32 57.666 161.257L58.1349 161.32C58.0982 161.594 57.8465 161.786 57.5728 161.749C57.2996 161.712 57.1078 161.461 57.1437 161.188C57.1437 161.188 57.1438 161.187 57.1439 161.187L57.6394 161.253C57.1439 161.187 57.1438 161.187 57.1438 161.187L57.1442 161.184L57.1467 161.16C57.1489 161.137 57.152 161.101 57.1547 161.053C57.16 160.956 57.1636 160.814 57.1554 160.638C57.1391 160.286 57.0759 159.811 56.8919 159.313C56.5339 158.344 55.7034 157.237 53.6955 156.801L53.6955 156.801C51.6355 156.353 50.6337 156.132 50.1465 156.023C49.9034 155.969 49.7864 155.942 49.7294 155.928C49.7036 155.922 49.6823 155.917 49.6658 155.912C49.6615 155.911 49.6514 155.908 49.6392 155.904C49.6348 155.902 49.6265 155.9 49.616 155.895L49.6111 155.894C49.5979 155.889 49.5801 155.882 49.5587 155.873C49.5161 155.856 49.4575 155.832 49.3913 155.799C49.2677 155.739 49.0809 155.636 48.9281 155.487C48.7805 155.343 48.5702 155.057 48.6675 154.675C48.7541 154.336 49.0448 154.11 49.352 153.947C49.5961 153.818 49.8986 153.911 50.0278 154.155" fill="#0071BC"/>
<path d="M168.622 166.808L167.446 160.633L167.233 160.626L167.199 161.529C167.137 162.694 166.174 163.604 165.012 163.604C165.005 163.604 164.998 163.604 164.991 163.604C164.984 163.604 164.977 163.604 164.97 163.604C163.808 163.604 162.845 162.694 162.783 161.529L162.749 160.626L162.536 160.633L161.36 166.808C161.291 167.174 161.408 167.553 161.676 167.808C162.831 168.91 163.973 169.303 164.984 169.317C165.995 169.296 167.137 168.91 168.292 167.808C168.574 167.553 168.691 167.174 168.622 166.808Z" fill="#534741"/>
<path d="M168.622 166.808L168.512 166.25C168.457 166.409 168.368 166.56 168.244 166.684C167.089 167.787 165.947 168.18 164.936 168.193C163.925 168.173 162.783 167.787 161.628 166.684C161.552 166.615 161.497 166.533 161.442 166.443L161.373 166.815C161.305 167.18 161.421 167.559 161.69 167.814C162.845 168.917 163.987 169.31 164.998 169.324C166.009 169.303 167.15 168.917 168.306 167.814C168.574 167.553 168.691 167.173 168.622 166.808Z" fill="#362E2A"/>
<path fill-rule="evenodd" clip-rule="evenodd" d="M166.025 164.1C166.124 164.196 166.126 164.355 166.03 164.453L164.255 166.273C164.159 166.372 164.001 166.374 163.902 166.277C163.803 166.181 163.801 166.023 163.897 165.924L165.672 164.104C165.768 164.005 165.926 164.003 166.025 164.1Z" fill="#736357"/>
<path fill-rule="evenodd" clip-rule="evenodd" d="M163.902 164.1C164.001 164.003 164.159 164.005 164.255 164.104L166.03 165.924C166.126 166.023 166.124 166.181 166.025 166.277C165.926 166.374 165.768 166.372 165.672 166.273L163.897 164.453C163.801 164.355 163.803 164.196 163.902 164.1Z" fill="#736357"/>
<path d="M177.508 166.808L176.332 160.633L176.119 160.626L176.084 161.529C176.023 162.694 175.06 163.604 173.897 163.604C173.89 163.604 173.884 163.604 173.877 163.604C173.87 163.604 173.863 163.604 173.856 163.604C172.694 163.604 171.731 162.694 171.669 161.529L171.635 160.626L171.421 160.633L170.245 166.808C170.177 167.174 170.294 167.553 170.562 167.808C171.717 168.91 172.859 169.303 173.87 169.317C174.881 169.296 176.023 168.91 177.178 167.808C177.46 167.553 177.577 167.174 177.508 166.808Z" fill="#534741"/>
<path d="M177.508 166.808L177.398 166.25C177.343 166.409 177.254 166.56 177.13 166.684C175.974 167.787 174.833 168.18 173.822 168.193C172.811 168.173 171.669 167.787 170.514 166.684C170.438 166.615 170.383 166.533 170.328 166.443L170.259 166.815C170.19 167.18 170.307 167.559 170.576 167.814C171.731 168.917 172.873 169.31 173.884 169.324C174.895 169.303 176.036 168.917 177.192 167.814C177.46 167.553 177.577 167.173 177.508 166.808Z" fill="#362E2A"/>
<path fill-rule="evenodd" clip-rule="evenodd" d="M174.911 164.1C175.01 164.196 175.012 164.355 174.915 164.453L173.141 166.273C173.045 166.372 172.886 166.374 172.787 166.277C172.689 166.181 172.687 166.023 172.783 165.924L174.557 164.104C174.654 164.005 174.812 164.003 174.911 164.1Z" fill="#736357"/>
<path fill-rule="evenodd" clip-rule="evenodd" d="M172.787 164.1C172.886 164.003 173.045 164.005 173.141 164.104L174.915 165.924C175.012 166.023 175.01 166.181 174.911 166.277C174.812 166.374 174.654 166.372 174.557 166.273L172.783 164.453C172.687 164.355 172.689 164.196 172.787 164.1Z" fill="#736357"/>
<path d="M208.127 161.557H200.094V171.219H208.127V161.557Z" fill="#FFD29B"/>
<path d="M199.2 167.78H204.434V180.481L203.182 180.681L203.175 177.256C203.175 177.256 202.934 179.627 200.775 180.681C198.89 181.598 195.417 181.474 194.564 181.425C194.441 181.419 194.337 181.343 194.289 181.232C194.11 180.791 193.76 179.661 194.674 179.103C196.359 178.076 199.2 173.245 199.2 173.245V167.78Z" fill="#1A1A1A"/>
<path d="M204.248 175.471C204.248 175.471 203.43 179.42 204.049 181.412C204.757 183.693 205.754 184.582 206.401 184.947C206.834 185.195 207.357 185.188 207.783 184.933C208.423 184.554 209.454 183.686 209.943 181.694C210.637 178.855 209.337 176.312 209.289 175.519C209.234 174.603 209.496 167.773 209.496 167.773H203.595L204.248 175.471Z" fill="#333333"/>
<path d="M202.639 131.068C193.161 131.653 190.342 137.856 191.428 146.87C192.405 154.934 193.595 164.727 193.595 164.727C198.347 167.814 213.684 165.94 214.894 164.382C217.529 160.985 212.749 147.091 215.08 147.181C219.131 147.332 224.179 147.249 224.585 140.041C224.798 136.243 226.249 127.532 222.659 129.407C220.211 130.689 219.117 127.064 212.054 127.284C209.839 127.353 210.795 130.565 202.639 131.068Z" fill="#1A1A1A"/>
<path d="M213.402 137.918C217.659 138.49 227.109 141.667 225.376 131.378C225.224 130.468 225.114 129.545 225.073 128.628L224.537 115.809C225.176 111.068 222.088 106.699 217.673 106.106C213.258 105.513 208.416 108.718 208.313 115.01L207.852 124.472C200.954 132.673 203.395 137.319 213.402 137.918Z" fill="#F15A24"/>
<path d="M216.407 130.179L209.227 128.986C208.436 128.855 207.955 128.235 208.182 127.636L209.874 123.183C210.128 122.515 210.988 122.088 211.889 122.198L215.864 122.667C216.758 122.77 217.446 123.321 217.549 124.01L218.264 128.883C218.381 129.689 217.439 130.351 216.407 130.179Z" fill="#A13C18"/>
<path d="M226.593 123.742C226.621 123.707 226.641 123.68 226.662 123.645C226.772 123.494 226.868 123.335 226.958 123.17C226.992 123.115 227.02 123.053 227.047 122.998C227.116 122.853 227.178 122.701 227.233 122.543C227.267 122.446 227.295 122.357 227.322 122.26C227.357 122.129 227.384 122.005 227.412 121.867C227.439 121.73 227.46 121.592 227.473 121.454C227.48 121.357 227.556 121.047 227.46 120.413C227.412 120.096 225.231 113.163 225.231 113.163C225.08 112.688 224.894 112.219 224.674 111.771C223.581 109.538 223.099 108.973 222.274 109.111C220.328 109.421 219.083 111.799 219.516 114.045L220.17 117.402C220.293 118.029 219.991 118.67 219.489 118.869L216.573 120.02C213.98 120.882 215.059 122.336 215.087 123.838C215.087 123.838 215.135 126.836 217.914 126.209L224.661 125.031C225.224 124.934 225.727 124.638 226.153 124.245C226.167 124.231 226.18 124.224 226.187 124.211C226.332 124.066 226.469 123.907 226.593 123.742Z" fill="#FF6A36"/>
<path d="M215.431 111.123C216.291 111.405 217.817 111.123 218.897 110.358C219.674 109.813 220.761 109.083 221.167 108.931C221.628 108.759 222.934 108.917 223.457 109.641C223.856 110.206 224.447 111.288 224.606 111.626C224.846 112.143 225.582 111.026 225.857 110.041C226.284 108.511 223.546 105.375 221.834 105.092C218.904 104.596 215.41 105.03 214.392 105.795C212.969 106.871 213.106 109.462 213.911 110.22C214.159 110.447 214.626 110.861 215.431 111.123Z" fill="#A13C18"/>
<path d="M223.313 102.267C223.409 101.916 223.498 101.516 223.574 101.116C223.952 100.31 224.158 99.4485 224.062 98.6008L224 98.0771C223.636 94.8586 220.706 92.5292 217.501 92.9014C214.289 93.2666 212.542 94.9413 212.914 98.1529L212.976 98.6766C213.278 101.337 214.949 104.252 217.329 104.969C216.187 106.499 216.07 106.898 216.229 107.236C216.462 107.732 219.702 108.27 222.597 107.912C222.914 107.87 223.615 107.739 223.815 107.236C224.11 106.485 223.354 106.967 223.031 105.768C222.865 105.155 222.652 104.569 223.313 102.267Z" fill="#603813"/>
<path d="M222.528 95.7959L222.728 95.8649C223.196 96.0303 223.711 95.7753 223.876 95.3066L224.11 94.6243C224.275 94.1557 224.021 93.6388 223.553 93.4734L223.354 93.4045C222.886 93.2391 222.37 93.4941 222.205 93.9627L221.971 94.645C221.806 95.1137 222.054 95.6374 222.528 95.7959Z" fill="#603813"/>
<path d="M216.834 109.29C216.834 109.29 214.282 109.214 214.399 107.023L214.619 104.335C214.736 102.874 216.009 101.778 217.439 101.895C218.87 102.012 219.942 103.301 219.826 104.762L219.605 107.45C219.482 108.911 218.264 109.407 216.834 109.29Z" fill="#C79D69"/>
<path d="M221.799 98.4699C221.71 98.463 221.621 98.4699 221.538 98.4768L221.572 98.0426C221.758 95.727 220.059 93.6802 217.783 93.4941C215.513 93.308 213.498 95.0516 213.313 97.3672L213.024 100.958C212.838 103.273 214.537 105.32 216.813 105.506C218.863 105.672 220.685 104.266 221.167 102.288C221.27 102.316 221.38 102.336 221.49 102.35C222.542 102.433 223.464 101.64 223.546 100.565C223.629 99.4968 222.845 98.5595 221.799 98.4699Z" fill="#F2C99B"/>
<path d="M214.222 98.2906C214.257 97.8657 214.214 97.5155 214.127 97.5084C214.04 97.5013 213.941 97.84 213.907 98.2649C213.872 98.6897 213.915 99.0399 214.002 99.0471C214.089 99.0542 214.188 98.7155 214.222 98.2906Z" fill="#534741"/>
<path d="M217.683 98.7569C217.717 98.332 217.675 97.9818 217.588 97.9747C217.501 97.9676 217.402 98.3063 217.367 98.7312C217.333 99.1561 217.376 99.5063 217.463 99.5134C217.55 99.5205 217.648 99.1818 217.683 98.7569Z" fill="#534741"/>
<path d="M214.275 100.407C214.158 100.717 214.33 100.889 214.502 100.903L214.929 100.937C215.101 100.951 215.252 100.82 215.266 100.648L215.431 98.5735C214.998 98.4977 214.275 100.407 214.275 100.407Z" fill="#C79D69"/>
<path d="M215.507 115.23C215.63 115.23 215.734 115.127 215.734 115.003V114.079C215.734 113.955 215.63 113.852 215.507 113.852C215.383 113.852 215.28 113.955 215.28 114.079V115.003C215.273 115.127 215.376 115.23 215.507 115.23Z" fill="#A13C18"/>
<path d="M212.46 114.224C212.343 114.224 212.247 114.128 212.247 114.011V113.005C212.247 112.888 212.343 112.791 212.46 112.791C212.577 112.791 212.673 112.888 212.673 113.005V114.011C212.673 114.135 212.577 114.224 212.46 114.224Z" fill="#A13C18"/>
<path fill-rule="evenodd" clip-rule="evenodd" d="M215.718 111.034L216.324 110.742L216.106 110.292L215.144 110.757L215.598 112.791L215.27 113.765L215.743 113.925L216.116 112.818L215.718 111.034Z" fill="black"/>
<path fill-rule="evenodd" clip-rule="evenodd" d="M214.414 109.599C214.42 109.596 214.443 109.583 214.472 109.574L214.616 110.053C214.632 110.048 214.643 110.043 214.646 110.042C214.65 110.04 214.652 110.038 214.653 110.038C214.653 110.038 214.651 110.038 214.646 110.042C214.635 110.048 214.618 110.06 214.596 110.075C214.551 110.104 214.49 110.146 214.416 110.197C214.27 110.298 214.081 110.432 213.893 110.566C213.705 110.7 213.519 110.833 213.38 110.933L213.304 110.987L213.624 111.854L213.452 111.962L213.451 111.96C213.452 111.962 213.452 111.962 213.452 111.962L213.443 111.968L213.417 111.984L213.322 112.045C213.243 112.095 213.138 112.162 213.033 112.231C212.928 112.301 212.825 112.37 212.748 112.424C212.736 112.434 212.724 112.442 212.714 112.45C212.714 112.49 212.714 112.538 212.714 112.586C212.715 112.639 212.715 112.691 212.716 112.73L212.716 112.776L212.717 112.793L212.217 112.802L212.216 112.784L212.216 112.737C212.215 112.698 212.215 112.644 212.214 112.59C212.214 112.535 212.213 112.477 212.214 112.43C212.214 112.39 212.215 112.337 212.219 112.305C212.226 112.242 212.256 112.199 212.264 112.188C212.276 112.17 212.288 112.157 212.296 112.148C212.313 112.131 212.331 112.115 212.345 112.103C212.376 112.077 212.416 112.048 212.457 112.018C212.542 111.957 212.651 111.884 212.758 111.814C212.85 111.754 212.941 111.695 213.015 111.647L212.703 110.804L212.857 110.693L213.003 110.896C212.857 110.693 212.857 110.693 212.857 110.693L213.088 110.526C213.228 110.426 213.414 110.293 213.603 110.159C213.791 110.025 213.983 109.889 214.131 109.786C214.206 109.734 214.271 109.69 214.32 109.658C214.344 109.641 214.366 109.627 214.385 109.616C214.394 109.61 214.404 109.604 214.414 109.599C214.414 109.599 214.415 109.599 214.414 109.599Z" fill="black"/>
<path d="M222.838 95.1825C222.033 94.0385 220.348 92.9014 219.516 92.4396C219.152 92.2398 217.274 91.6815 215.85 92.0881C214.427 92.4948 213.223 94.004 213.271 95.6787C213.278 95.9062 213.216 96.9813 213.333 96.7814C213.574 96.3679 214.172 94.8793 215.225 94.5829C216.49 94.2246 217.976 94.3831 218.952 95.1412C219.289 95.4031 220.149 95.9062 220.335 97.1536C220.403 97.6222 220.383 98.4768 220.438 98.8765C220.266 99.1935 220.08 100.062 220.479 100.593C220.658 100.827 220.967 101.027 220.933 101.309C220.912 101.488 220.761 101.592 220.782 101.613C220.823 101.654 221.387 101.385 221.456 100.972C221.511 100.675 221.27 100.531 220.988 99.9723C220.775 99.5588 220.699 99.228 220.658 99.0143C221.022 98.6973 221.889 98.4079 222.136 98.0977C222.7 97.3948 223.361 95.9268 222.838 95.1825Z" fill="#603813"/>
<path d="M76.1744 189.957C76.2569 189.73 76.2638 188.896 76.0506 188.469C75.7273 187.835 74.902 187.373 74.5169 187.242C73.3064 186.815 72.5086 186.691 71.3945 186.105C69.8952 185.312 69.1455 184.92 69.0561 184.844C67.5155 183.638 67.6944 182.645 66.7177 182.445C65.5692 182.204 64.909 183.479 63.7191 183.155C63.0933 182.983 62.2267 182.425 61.8141 182.287C61.2707 182.101 60.9269 182.211 60.7412 182.342C60.0121 182.845 60.4386 184.768 60.4867 185.044C60.6586 186.022 61.2295 189.323 63.671 190.04C64.4894 190.281 64.9227 190.13 66.1125 190.102C72.1235 189.971 75.8649 190.805 76.1744 189.957Z" fill="#999999"/>
<path fill-rule="evenodd" clip-rule="evenodd" d="M68.568 184.799L67.9565 185.302C67.8636 185.378 67.7263 185.365 67.6499 185.272C67.5734 185.179 67.5869 185.041 67.6798 184.965L68.2932 184.461C68.3978 184.376 68.5015 184.319 68.6064 184.299C68.7195 184.277 68.8216 184.301 68.9021 184.357C68.9754 184.408 69.0159 184.475 69.037 184.519C69.0481 184.542 69.0557 184.563 69.0607 184.579C69.0632 184.587 69.0651 184.594 69.0666 184.599L69.0684 184.606L69.0691 184.609L69.0694 184.611C69.0694 184.611 69.0696 184.612 68.8567 184.658L69.0696 184.612C69.0952 184.729 69.0205 184.845 68.9029 184.871C68.7978 184.894 68.694 184.836 68.6549 184.74C68.6348 184.75 68.606 184.768 68.568 184.799Z" fill="#333333"/>
<path fill-rule="evenodd" clip-rule="evenodd" d="M69.3795 185.336L68.7681 185.839C68.6751 185.915 68.5378 185.902 68.4614 185.809C68.385 185.716 68.3984 185.579 68.4914 185.502L69.1047 184.998C69.2093 184.913 69.313 184.856 69.4179 184.836C69.531 184.814 69.6332 184.838 69.7136 184.894C69.787 184.945 69.8275 185.012 69.8485 185.056C69.8596 185.079 69.8672 185.1 69.8722 185.116C69.8747 185.124 69.8767 185.131 69.8781 185.136L69.88 185.143L69.8806 185.146L69.8809 185.148C69.8809 185.148 69.8812 185.149 69.6682 185.195L69.8812 185.149C69.9067 185.266 69.832 185.382 69.7144 185.408C69.6093 185.431 69.5055 185.374 69.4664 185.277C69.4463 185.288 69.4176 185.306 69.3795 185.336Z" fill="#333333"/>
<path fill-rule="evenodd" clip-rule="evenodd" d="M70.1292 185.716L69.5178 186.218C69.4248 186.295 69.2875 186.281 69.2111 186.188C69.1347 186.095 69.1481 185.958 69.241 185.882L69.8544 185.377C69.959 185.293 70.0627 185.235 70.1676 185.215C70.2807 185.193 70.3829 185.217 70.4633 185.273C70.5367 185.324 70.5772 185.391 70.5982 185.435C70.6093 185.459 70.6169 185.48 70.6219 185.495C70.6244 185.503 70.6264 185.51 70.6278 185.516L70.6297 185.523L70.6303 185.526L70.6306 185.527C70.6306 185.527 70.6309 185.528 70.4179 185.574L70.6309 185.528C70.6564 185.646 70.5817 185.762 70.4641 185.787C70.359 185.81 70.2552 185.753 70.2161 185.657C70.196 185.667 70.1673 185.685 70.1292 185.716Z" fill="#333333"/>
<path d="M62.2611 188.476C62.6486 188.476 62.9627 188.062 62.9627 187.552C62.9627 187.042 62.6486 186.629 62.2611 186.629C61.8737 186.629 61.5596 187.042 61.5596 187.552C61.5596 188.062 61.8737 188.476 62.2611 188.476Z" fill="#4D4D4D"/>
<path d="M72.6256 186.629C73.1345 186.663 73.7329 186.911 74.6751 187.304C75.3216 187.573 75.6448 187.931 75.8718 188.193C76.2225 188.6 76.195 189.206 76.2157 189.447C76.25 189.875 76.1675 190.171 75.9337 190.419C75.7686 190.598 75.4385 190.784 72.66 190.791C71.3601 190.798 71.2088 190.757 71.0644 190.66C70.0534 190.006 71.4289 187.924 71.6008 187.662C71.9447 187.159 72.3642 186.615 72.6256 186.629Z" fill="#666666"/>
<path d="M76.1744 189.916C75.7548 190.709 72.1235 189.937 66.1125 190.061C65.6999 190.068 65.3835 190.095 65.1084 190.109C65.1359 190.199 65.1634 190.288 65.1841 190.385C65.1978 190.46 65.2528 190.729 65.2047 191.032C65.4592 191.019 65.748 190.998 66.1194 190.991C72.1304 190.867 75.7617 191.646 76.1812 190.846C76.3325 190.557 76.3119 190.157 76.2156 189.799C76.2019 189.833 76.195 189.875 76.1744 189.916Z" fill="#362E2A"/>
<path d="M53.561 184.472C52.385 184.713 52.495 185.188 52.6601 187.194C52.7289 187.98 52.7151 190.075 52.722 190.185C52.8389 192.928 64.1181 193.224 65.0878 191.412C65.301 191.012 65.2047 190.529 65.1841 190.426C64.9846 189.461 64.4138 188.731 63.224 188.035C61.6559 187.111 61.6972 186.622 61.1882 185.747C60.8856 185.23 60.1566 183.851 59.7371 183.789C58.4785 183.61 57.8114 185.216 56.3671 185.243C55.0053 185.264 54.4138 184.299 53.561 184.472Z" fill="#E6E6E6"/>
<path fill-rule="evenodd" clip-rule="evenodd" d="M59.1809 186.228L58.3695 186.731C58.2521 186.804 58.098 186.767 58.0253 186.65C57.9525 186.533 57.9887 186.379 58.106 186.306L58.9176 185.803C59.425 185.489 60.0073 185.324 60.6036 185.324H60.975C61.1131 185.324 61.225 185.436 61.225 185.574C61.225 185.712 61.1131 185.824 60.975 185.824H60.6036C60.0997 185.824 59.6087 185.963 59.1809 186.228Z" fill="#333333"/>
<path fill-rule="evenodd" clip-rule="evenodd" d="M59.7724 187.131L58.961 187.634C58.8436 187.706 58.6895 187.67 58.6168 187.553C58.544 187.436 58.5802 187.281 58.6975 187.209L59.5091 186.706C60.0165 186.392 60.5988 186.227 61.1951 186.227H61.5665C61.7046 186.227 61.8165 186.339 61.8165 186.477C61.8165 186.615 61.7046 186.727 61.5665 186.727H61.1951C60.6912 186.727 60.2002 186.866 59.7724 187.131Z" fill="#333333"/>
<path fill-rule="evenodd" clip-rule="evenodd" d="M60.2331 188.075C60.2331 188.075 60.2332 188.075 60.2331 188.075L59.4217 188.578C59.3044 188.651 59.1503 188.615 59.0775 188.497C59.0048 188.38 59.0409 188.226 59.1583 188.153L59.9698 187.65C60.4773 187.336 61.0595 187.171 61.6559 187.171H62.0273C62.1653 187.171 62.2773 187.283 62.2773 187.421C62.2773 187.559 62.1653 187.671 62.0273 187.671H61.6559C61.1519 187.671 60.661 187.81 60.2331 188.075Z" fill="#333333"/>
<path d="M54.0837 190.819C54.4711 190.819 54.7852 190.405 54.7852 189.895C54.7852 189.385 54.4711 188.972 54.0837 188.972C53.6963 188.972 53.3822 189.385 53.3822 189.895C53.3822 190.405 53.6963 190.819 54.0837 190.819Z" fill="#4D4D4D"/>
<path d="M65.2803 190.619C65.3835 191.873 64.008 192.169 63.0658 192.335C62.2474 192.48 62.2474 193.01 61.2364 193.058C60.4042 193.1 60.3767 191.935 60.4798 190.619C60.5555 189.668 61.4358 188.551 62.7081 188.165C64.29 187.669 65.2047 189.668 65.2803 190.619Z" fill="#666666"/>
<path d="M52.722 190.137C52.7151 190.026 52.7151 190.957 52.722 191.067C52.8389 193.81 64.118 194.106 65.0878 192.294C65.301 191.894 65.2047 191.411 65.1841 191.308C65.1772 191.274 65.1634 191.239 65.1566 191.212C65.1359 191.267 65.1153 191.315 65.0878 191.363C64.1249 193.176 52.8458 192.886 52.722 190.137Z" fill="#534741"/>
<path d="M243.842 180.771H237.625V191.743H243.842V180.771Z" fill="#877052"/>
<path d="M250.107 180.716H243.835V191.687H250.107V180.716Z" fill="#FFD29B"/>
<path d="M245.974 191.887C245.912 190.709 245.733 191.432 245.644 189.799C245.651 188.986 245.087 189.654 244.853 190.378C244.406 191.749 243.993 190.075 243.202 190.178C242.748 190.233 240.334 190.412 238.959 189.158C238.216 188.483 238.636 188.455 237.742 187.146C237.281 186.47 236.4 186.07 236.304 186.353C236.235 186.608 236.304 186.312 236.222 186.649C235.61 189.165 235.204 189.447 232.693 191.163C231.579 191.922 229.234 192.059 228.292 193.389C228.01 193.789 227.79 194.485 227.941 195.133L227.989 195.788C228.024 196.277 228.457 196.649 228.945 196.615L239.213 195.836C239.53 195.808 239.77 195.533 239.743 195.216V195.181C240.396 195.105 241.015 195.023 241.6 194.94L241.627 195.264C241.641 195.478 241.834 195.636 242.047 195.622L245.499 195.36C245.781 195.34 245.995 195.092 245.974 194.809L245.905 193.913C246.16 193.389 246.015 192.611 245.974 191.887Z" fill="#1A1A1A"/>
<path d="M250.823 191.639C250.761 190.461 250.761 190.461 250.671 188.827C250.678 188.014 249.984 188.455 249.743 189.179C249.296 190.55 247.164 191.536 246.407 189.834C245.403 187.58 243.45 188.221 243.367 188.559C242.755 191.074 242.893 190.902 240.678 192.99C238.883 194.685 237.996 195.195 236.868 196.374C236.318 196.946 236.566 198.772 236.566 198.772C236.6 199.261 237.013 199.482 237.522 199.599C237.522 199.599 239.31 200.281 243.787 199.799C246.744 199.482 247.411 197.614 247.907 197.201C249.598 195.795 250.816 194.727 250.802 194.554C250.816 194.541 250.864 192.363 250.823 191.639Z" fill="#333333"/>
<path d="M258.367 123.218C255.747 123.218 253.601 121.068 253.601 118.442V117.098C253.601 114.472 255.747 112.322 258.367 112.322C260.988 112.322 263.133 114.472 263.133 117.098V118.442C263.133 121.068 260.988 123.218 258.367 123.218Z" fill="#FFEE9A"/>
<path d="M248.698 146.795C222.783 150.565 233.918 173.611 236.703 183.962C236.703 183.962 237.136 184.961 242.418 183.259C242.762 183.149 242.948 185.843 243.319 185.843C247.783 185.795 251.098 186.491 251.139 186.202C251.896 180.833 247.24 166.87 250.775 163.652C253.883 160.826 263.285 163.528 264.11 156.471C265.967 140.523 257.501 142.984 253.814 144.872C250.506 146.561 253.711 146.064 248.698 146.795Z" fill="#8C6239"/>
<path d="M255.493 150.137C259.089 150.054 259.206 145.396 248.195 146.795C222.219 150.096 233.918 173.61 236.696 183.962C236.696 183.962 237.13 184.954 242.411 183.259C239.489 172.969 232.749 150.661 255.493 150.137Z" fill="#754C24"/>
<path d="M258.367 126.823C256.896 123.563 251.772 124.397 247.989 126.016C242.755 128.256 242.46 125.203 240.713 123.266C240.073 122.557 238.395 122.991 237.659 123.77C236.318 125.189 238.024 128.876 239.722 131.054C242.281 134.335 247.405 135.196 251.641 132.494C254.812 130.475 259.495 129.324 258.367 126.823Z" fill="#006837"/>
<path d="M44.2351 134.045C46.9792 132.625 48.8843 136.512 50.9476 140.075C53.8018 145.009 53.2997 135.706 55.3905 135.361C56.3327 135.209 57.0067 136.691 57.0961 137.759C57.2956 140.151 56.4496 144.741 53.9187 145.864C50.5143 147.373 48.9737 146.098 46.1952 141.557C44.242 138.345 41.8005 135.299 44.2351 134.045Z" fill="#F2C99B"/>
<path d="M240.018 124.155C240.231 123.673 239.977 123.252 239.757 122.715C238.973 120.813 239.729 120.13 238.993 118.47C238.821 118.09 238.319 117.512 237.301 116.361C236.504 115.451 236.235 114.838 235.843 115.086C235.465 115.327 235.561 115.713 235.637 115.94C235.548 115.954 235.465 115.982 235.396 116.03C235.183 116.181 235.245 116.492 235.444 116.753C236.586 118.242 237.04 119.441 237.04 119.441L236.896 119.634C236.504 119.414 236.194 118.352 235.706 118.986C235.623 119.097 236.036 120.248 236.51 121.006C237.088 121.922 237.013 121.84 237.212 122.046C237.721 122.577 237.549 122.37 237.838 123.445C238.223 124.886 238.333 125.01 238.491 125.044C239.014 125.155 239.77 124.707 240.018 124.155Z" fill="#FFD29B"/>
<path d="M249.66 150.11C247.198 149.668 247.687 141.915 248.601 132.329C248.835 129.875 250.19 127.608 251.682 126.374C254.564 123.997 257.721 124.245 261.166 125.692C264.021 126.891 266.338 128.959 266.565 132.081C266.641 133.087 263.601 136.953 262.748 141.226L261.345 147.236C261.228 147.753 261.455 148.249 261.146 148.676C258.553 152.274 254.674 151.005 249.66 150.11Z" fill="#006837"/>
<path d="M256.758 127.381C256.758 127.381 254.461 127.222 254.653 125.251L254.949 122.839C255.107 121.53 256.29 120.592 257.576 120.744C258.862 120.903 259.777 122.102 259.619 123.411L259.323 125.823C259.158 127.133 258.044 127.539 256.758 127.381Z" fill="#C79D69"/>
<path d="M261.627 117.829C261.545 117.822 261.469 117.822 261.393 117.822L261.442 117.429C261.696 115.348 260.238 113.446 258.202 113.191C256.166 112.942 254.289 114.431 254.034 116.512L253.636 119.731C253.381 121.812 254.839 123.714 256.875 123.969C258.711 124.197 260.41 122.998 260.912 121.233C261.008 121.261 261.098 121.288 261.201 121.302C262.143 121.419 263.003 120.737 263.12 119.772C263.237 118.821 262.569 117.946 261.627 117.829Z" fill="#F2C99B"/>
<path d="M254.827 117.394C254.873 117.016 254.847 116.702 254.767 116.692C254.688 116.682 254.586 116.981 254.54 117.358C254.494 117.736 254.52 118.05 254.599 118.06C254.678 118.07 254.78 117.772 254.827 117.394Z" fill="#534741"/>
<path d="M257.925 117.936C257.971 117.559 257.945 117.244 257.866 117.235C257.787 117.225 257.685 117.523 257.638 117.901C257.592 118.279 257.618 118.593 257.698 118.603C257.777 118.612 257.879 118.314 257.925 117.936Z" fill="#534741"/>
<path d="M254.784 119.29C254.667 119.566 254.812 119.724 254.97 119.745L255.348 119.793C255.499 119.814 255.644 119.696 255.664 119.545L255.891 117.684C255.506 117.601 254.784 119.29 254.784 119.29Z" fill="#C79D69"/>
<path d="M252.92 146.229L259.482 143.858C260.169 143.769 260.685 143.197 260.706 142.501L260.623 133.438C260.389 130.254 262.508 128.414 263.753 128.497C265.252 128.593 266.325 129.248 266.889 130.806C267.178 131.598 267.563 133.686 267.556 134.534L267.198 144.141C267.088 145.657 266.435 148.986 263.134 149.737C262.893 149.82 253.216 152.301 253.216 152.301C251.449 152.432 249.915 150.998 249.963 149.179C250.018 147.601 251.345 146.346 252.92 146.229Z" fill="#009245"/>
<path d="M255.774 114.982C255.754 114.659 255.726 114.335 255.706 114.011L255.774 114.982Z" fill="#C7B299"/>
<path d="M261.27 113.714C261.27 113.714 259.433 111.633 258.175 111.633C257.618 111.633 257.246 112.171 257.074 112.488L256.758 111.943C256.345 111.006 255.362 111.399 254.812 112.164C254.268 112.915 253.395 114.507 253.636 116.368C253.739 117.181 254.557 116.423 255.121 115.403C255.231 115.196 255.857 114.217 256.304 114.114C256.579 114.052 256.655 114.307 256.675 114.521C256.675 114.583 256.675 114.638 256.675 114.7L256.682 114.769C256.682 114.769 257.439 113.549 257.776 114.5C257.989 115.106 257.927 115.741 258.505 116.712C259.165 117.822 260.204 118.415 260.362 118.38C260.52 118.346 262.198 117.374 262.198 117.374L261.27 113.714Z" fill="#FFEE9A"/>
<path d="M254.509 120.765C254.853 121.84 256.455 121.75 256.909 121.047L254.509 120.765Z" fill="#C79D69"/>
<path d="M248.863 149.655C245.279 150.957 244.901 149.806 244.138 151.385C243.374 152.963 243.306 154.279 243.821 154.424C243.828 154.424 243.828 154.424 243.835 154.424C243.89 154.679 243.993 154.851 244.131 154.886C244.53 154.996 244.977 152.68 245.878 152.605C245.94 152.598 245.995 152.598 246.057 152.591C246.208 152.577 246.373 152.563 246.497 152.549C246.545 152.542 246.6 152.542 246.648 152.536C247.006 152.501 247.315 152.494 247.687 152.384C247.735 152.37 247.803 152.363 247.879 152.35C248.209 152.329 248.594 152.336 248.78 152.37C249.035 152.418 249.33 152.432 249.619 152.391C250.156 152.377 250.713 152.191 250.926 151.626C251.098 151.178 251.153 150.882 251.6 150.792C252.047 150.702 252.535 148.325 248.863 149.655Z" fill="#BF9E74"/>
<path d="M250.754 149.11C250.087 149.234 249.495 149.861 248.684 150.22C245.197 151.77 245.775 150.716 245.011 152.294C244.248 153.872 244.179 155.189 244.695 155.333C244.729 155.347 244.77 155.333 244.812 155.313C244.867 155.506 244.956 155.643 245.101 155.685C245.499 155.795 245.995 153.955 246.896 153.886C247.102 153.872 247.425 153.845 247.59 153.824C247.982 153.789 248.299 153.783 248.691 153.672C248.931 153.603 249.764 153.583 250.059 153.638C250.713 153.755 251.634 153.686 251.937 152.914C252.109 152.466 252.054 151.047 252.487 150.923C253.292 150.668 252.57 148.772 250.754 149.11Z" fill="#FFD29B"/>
<path d="M186.078 104.879C185.954 100.261 182.46 97.4083 179.984 95.4028C178.911 94.5344 178.148 93.859 177.57 93.349C175.699 91.4745 172.948 90.2822 169.895 90.2822C168.409 90.2822 166.992 90.5648 165.713 91.0748C164.902 91.2815 163.382 91.7639 162.047 92.7495C160.472 93.9073 156.6 97.7391 153.024 97.4083C151.47 97.2636 150.294 96.7191 149.427 96.0782C148.334 95.2718 146.786 95.8714 146.587 97.2153C146.435 98.2766 146.36 98.3318 146.36 99.2277C146.36 101.791 151.325 104.245 154.936 104.438C156.807 104.541 158.671 103.99 160.232 103.232L160.878 108.332C162.501 115.12 173.492 115.795 177.391 110.82C179.104 111.44 181.139 111.467 183.203 110.516C186.126 109.172 186.146 107.394 186.078 104.879Z" fill="#2E7E92"/>
<path d="M175.424 84.1006C175.183 84.2109 174.901 84.2454 174.606 84.2591C174.338 84.2798 174.049 84.266 173.774 84.2522C172.955 84.204 172.281 83.694 171.965 82.9842C171.82 82.6465 171.559 82.357 171.229 82.1847C170.631 81.8815 170.211 81.2957 170.128 80.5927C170.108 80.4618 170.101 80.3377 170.108 80.2068C170.115 79.8829 170.211 79.5934 170.349 79.3315C168.416 79.4487 166.827 81.0476 166.717 83.0738L166.532 86.4369C166.47 87.5603 166.882 88.5871 167.577 89.3521C167.735 89.5244 167.907 89.6829 168.1 89.8208C168.34 90.0068 168.595 90.1516 168.877 90.2687C169.283 90.4548 169.723 90.5651 170.19 90.5926C170.651 90.6202 171.091 90.5582 171.504 90.4272C171.58 90.4203 171.642 90.3928 171.717 90.3652C171.697 90.3997 171.669 90.441 171.642 90.4755C171.002 91.2956 169.668 91.3507 169.296 91.3301C168.739 91.3025 168.272 91.144 168.141 90.5237C168.113 90.5306 168.086 90.5444 168.065 90.5513C167.377 90.8614 166.889 91.3163 166.862 91.7436C166.758 93.0392 167.604 94.0109 169.365 94.3831C171.353 94.7966 173.168 93.7215 173.437 93.0392C173.787 92.1502 173.519 91.523 172.921 91.0888L172.983 90.062L172.99 89.8139V89.5658C173.574 89.0213 174.001 88.2977 174.172 87.4707C174.276 87.4982 174.372 87.5189 174.475 87.5189C175.459 87.5741 176.298 86.8022 176.353 85.8029C176.401 85.0655 176.016 84.4108 175.424 84.1006ZM167.598 83.9145C167.577 84.3074 167.487 84.6244 167.405 84.6244C167.322 84.6175 167.274 84.2936 167.295 83.9008C167.316 83.5148 167.405 83.1909 167.487 83.1909C167.57 83.1909 167.618 83.5148 167.598 83.9145ZM167.701 85.8856C167.701 85.8856 167.873 85.3894 168.106 84.9207C168.299 84.5072 168.547 84.1213 168.739 84.1489L168.657 85.5823L168.629 86.0854C168.622 86.2508 168.485 86.3818 168.327 86.368L167.921 86.3404C167.763 86.3335 167.598 86.175 167.701 85.8856ZM170.844 84.2591C170.823 84.6451 170.741 84.969 170.658 84.969C170.575 84.969 170.52 84.6382 170.541 84.2453C170.569 83.8594 170.651 83.5355 170.734 83.5355C170.816 83.5286 170.871 83.8594 170.844 84.2591Z" fill="#FFD29B"/>
<path d="M171.717 90.3584C171.697 90.3928 171.669 90.4342 171.642 90.4686C171.002 91.2887 169.668 91.3439 169.296 91.3232C168.739 91.2956 168.272 91.1371 168.141 90.5169C168.113 90.3997 168.093 90.2619 168.093 90.1034C168.093 90.0138 168.093 89.9173 168.1 89.8208C168.34 90.0069 168.595 90.1516 168.877 90.2688C169.283 90.4548 169.723 90.5651 170.19 90.5927C170.651 90.6202 171.091 90.5582 171.504 90.4273C171.58 90.4135 171.642 90.3859 171.717 90.3584Z" fill="#877052"/>
<path d="M148.196 97.7046C148.107 97.1808 147.556 96.9603 146.965 96.6226C144.867 95.4235 145.225 94.4379 143.347 93.4248C142.914 93.1905 141.992 92.97 140.156 92.5289C138.705 92.1843 138.01 91.8053 137.763 92.2188C137.515 92.6254 137.873 92.908 138.107 93.0527C138.024 93.1147 137.948 93.1767 137.914 93.2526C137.79 93.4938 138.059 93.7212 138.444 93.8384C140.644 94.4931 141.917 95.2787 141.917 95.2787L141.889 95.5199C141.325 95.5406 140.294 94.8101 140.197 95.6026C140.184 95.7405 141.38 96.4986 142.391 96.8914C143.616 97.3669 143.478 97.3256 143.829 97.4014C144.723 97.5875 144.4 97.4979 145.424 98.256C146.786 99.2759 146.986 99.3173 147.178 99.2621C147.783 99.083 148.299 98.2973 148.196 97.7046Z" fill="#FFD29B"/>
<path d="M176.834 112.171L168.285 110.978C167.873 110.923 167.591 110.537 167.646 110.117L169.62 96.3128C169.682 95.8924 170.06 95.5961 170.472 95.6581L179.021 96.8504C179.434 96.9055 179.716 97.2915 179.661 97.7118L177.687 111.516C177.632 111.936 177.247 112.226 176.834 112.171Z" fill="#534741"/>
<path d="M172.088 96.5592C172.132 96.2355 172.432 96.0068 172.751 96.0508L176.677 96.5952C177.01 96.6399 177.221 96.9488 177.179 97.2649L177.179 97.2667L177.041 98.2376C176.998 98.5597 176.706 98.7897 176.379 98.7461L176.378 98.7459L172.452 98.2016C172.12 98.1569 171.908 97.848 171.95 97.5319L171.95 97.5301L172.088 96.5592Z" fill="#C7B299"/>
<path d="M179.461 105.685C178.533 104.92 178.932 104.176 178.265 102.253C177.618 100.399 175.858 99.2555 175.479 99.4898C175.17 99.6896 175.252 100.117 174.805 101.564C174.565 102.336 174.957 102.977 174.84 103.645C174.661 104.638 175.17 105.706 175.844 106.347C176.552 107.022 176.882 106.692 177.735 107.464C178.526 108.173 178.54 108.725 179.179 108.883C179.606 108.993 180.211 108.904 180.569 108.463C180.844 108.125 180.961 107.594 180.761 107.209C180.438 106.588 180.108 106.223 179.461 105.685Z" fill="#FFD29B"/>
<path d="M50.5212 139.924L47.6326 142.37C47.1925 142.742 46.5322 142.687 46.1608 142.246L42.33 137.704C41.2847 136.464 41.4428 134.61 42.6808 133.563C43.9188 132.515 45.7688 132.674 46.8142 133.914L50.645 138.456C51.0095 138.897 50.9545 139.551 50.5212 139.924Z" fill="#141414"/>
<path d="M33.1279 122.226C32.4057 121.998 30.9821 122.639 30.2874 123.838C29.2283 125.658 30.9683 126.76 30.37 129.917C29.9986 131.895 29.077 132.756 29.6341 134.086C29.8954 134.707 30.2943 134.996 30.59 135.981C30.6726 136.25 30.2943 137.126 30.1911 138.077C29.9711 140.117 29.4759 140.33 29.4552 141.743C29.4346 142.99 30.198 144.217 31.0164 144.693C33.905 146.354 35.8032 144.314 35.9339 142.088C36.0508 140.048 35.1223 138.931 34.5928 135.664C34.4002 134.465 34.9573 134.672 35.4937 130.675C35.9408 127.353 35.6794 126.278 35.143 125.527C34.8541 125.141 35.3424 122.922 33.1279 122.226Z" fill="#230030"/>
<path d="M42.0618 120.103C42.7839 119.876 44.2076 120.517 44.9022 121.716C45.9613 123.535 44.2213 124.638 44.8197 127.794C45.1911 129.772 46.1127 130.634 45.5556 131.964C45.2942 132.584 44.8953 132.873 44.5996 133.859C44.5171 134.128 44.8953 135.003 44.9985 135.954C45.2186 137.994 45.7138 138.208 45.7344 139.62C45.755 140.868 44.9916 142.095 44.1732 142.57C41.2846 144.231 39.3864 142.191 39.2557 139.965C39.1388 137.925 40.0673 136.809 40.5969 133.542C40.7894 132.343 40.2324 132.549 39.6959 128.552C39.2489 125.23 39.5102 124.155 40.0467 123.404C40.3355 123.018 39.8472 120.799 42.0618 120.103Z" fill="#230030"/>
<path d="M43.6299 155.506C43.6299 155.506 35.3975 158.311 35.5625 156.367L33.7537 140.847C33.1829 136.574 35.9614 132.639 39.9366 132.101C43.9119 131.564 48.2722 134.451 48.396 140.702L48.8087 149.165C48.8637 150.344 49.7028 151.343 50.8582 151.591C53.1965 152.108 50.6381 152.032 43.6299 155.506Z" fill="black"/>
<path d="M38.7881 131.137C37.3232 131.343 33.4993 128.752 33.4993 125.837V125.361C33.4993 122.446 35.8789 120.062 38.7881 120.062C41.6973 120.062 43.4304 121.378 43.4304 124.293V124.769C43.4304 127.677 41.6973 131.137 38.7881 131.137Z" fill="#22002E"/>
<path d="M41.0645 134.658C41.0645 134.658 43.341 134.334 43.0109 132.384L42.5432 129.999C42.2887 128.704 41.0439 127.856 39.7716 128.104C38.5061 128.352 37.6739 129.62 37.9284 130.916L38.396 133.301C38.6505 134.589 39.7922 134.913 41.0645 134.658Z" fill="#C79D69"/>
<path d="M35.5144 125.492C35.59 125.478 35.6726 125.471 35.7482 125.471L35.6726 125.085C35.2668 123.032 36.5804 121.026 38.5955 120.626C40.6106 120.227 42.5914 121.584 42.9971 123.638L43.623 126.822C44.0288 128.876 42.7152 130.881 40.7 131.281C38.8844 131.639 37.11 130.571 36.4772 128.848C36.3878 128.883 36.2915 128.917 36.1953 128.938C35.2668 129.124 34.359 128.504 34.1733 127.553C33.9807 126.595 34.5859 125.678 35.5144 125.492Z" fill="#F2C99B"/>
<path d="M42.5487 125.203C42.6269 125.187 42.6306 124.872 42.5569 124.499C42.4832 124.125 42.3599 123.835 42.2817 123.851C42.2034 123.866 42.1998 124.182 42.2735 124.555C42.3472 124.928 42.4704 125.218 42.5487 125.203Z" fill="#534741"/>
<path d="M39.4955 125.975C39.5737 125.96 39.5774 125.645 39.5037 125.271C39.4299 124.898 39.3067 124.608 39.2285 124.623C39.1502 124.639 39.1466 124.954 39.2203 125.327C39.294 125.701 39.4172 125.991 39.4955 125.975Z" fill="#534741"/>
<path d="M42.4401 126.45C42.5708 126.719 42.4401 126.884 42.2888 126.919L41.9105 126.994C41.7592 127.022 41.6079 126.925 41.5804 126.767L41.2159 124.934C41.601 124.817 42.4401 126.45 42.4401 126.45Z" fill="#C79D69"/>
<path d="M39.8403 120.696C40.4593 121.854 38.85 123.115 37.4057 123.535C36.938 123.673 36.9036 124.376 36.9655 124.81C38.0178 132.239 37.5845 131.895 38.2447 135.561C38.2723 135.727 35.59 126.23 35.4387 124.914C35.2736 123.487 35.645 122.295 36.3809 121.502C36.5185 121.357 37.6051 120.103 39.3589 120.213C39.6202 120.241 39.6821 120.406 39.8403 120.696Z" fill="#3A004F"/>
<path d="M39.7097 120.668C39.5171 121.385 41.2709 122.618 42.4126 122.777C42.894 122.846 43.3754 125.403 43.4304 125.837C43.8018 128.525 43.6987 130.468 43.9944 134.155C44.0082 134.32 44.2557 129.131 44.1526 127.815C44.0082 125.899 43.7055 122.322 42.2613 121.102C41.8761 120.778 40.4593 120.137 39.6547 120.296C39.4002 120.351 39.7991 120.344 39.7097 120.668Z" fill="#3A004F"/>
<path d="M36.3947 135.313C33.3067 135.313 33.3823 139.634 33.1829 143.755C32.9009 149.448 29.0907 140.944 27.0825 141.598C26.1747 141.895 26.2503 143.521 26.663 144.513C27.5777 146.733 30.425 150.427 33.1829 150.261C36.9036 150.041 37.6877 148.201 38.0797 142.894C38.3548 139.145 39.1319 135.32 36.3947 135.313Z" fill="#F2C99B"/>
<path d="M37.6464 144.748L33.8844 144.383C33.3135 144.328 32.8871 143.838 32.9422 143.287L33.4855 137.594C33.6368 136.044 35.0604 134.907 36.6767 135.065C38.2929 135.224 39.4758 136.609 39.3245 138.159L38.7812 143.852C38.7262 144.403 38.2172 144.803 37.6464 144.748Z" fill="#141414"/>
<path d="M54.0494 136.795L54.7715 135.396C54.4826 135.327 54.2007 135.23 53.9393 135.065C53.4304 134.748 53.059 134.307 52.832 133.811C52.5501 133.184 53.1622 132.55 53.8018 132.798C54.7234 133.156 54.9572 132.653 55.3423 132.17C55.9269 131.433 55.6862 130.978 54.2694 129.848L54.4276 129.262C53.9049 128.842 54.2144 127.925 54.8678 128.077C57.0136 128.559 58.5266 130.427 58.3616 130.978C58.7605 131.826 58.7398 132.832 58.2515 133.652L56.931 137.284L54.0494 136.795Z" fill="#F2C99B"/>
<path d="M23.2242 135.947C23.2448 135.596 23.3549 133.887 23.8019 133.825C24.0839 133.79 24.3865 134.438 24.5103 134.693C25.1293 136.023 24.5653 136.698 25.1499 137.684C25.5351 138.325 25.8652 138.187 26.2091 138.876C26.5873 139.627 26.6492 140.723 26.2091 140.999C25.6864 141.323 24.4278 140.489 23.7744 139.49C23.066 138.408 23.1417 137.257 23.2242 135.947Z" fill="#C79D69"/>
<path d="M23.9119 136.436C23.9326 136.085 24.0426 134.376 24.4897 134.314C24.7716 134.279 25.0743 134.927 25.198 135.182C25.817 136.512 25.2531 137.188 25.8377 138.173C26.2228 138.814 26.5529 138.676 26.8968 139.365C27.2751 140.117 27.337 141.212 26.8968 141.488C26.3741 141.812 25.1155 140.978 24.4622 139.979C23.7538 138.897 23.8294 137.746 23.9119 136.436Z" fill="#C79D69"/>
<path d="M22.8322 135.802C22.7771 138.552 22.1582 139.276 22.784 140.254C23.2654 141.012 23.9051 140.84 25.0536 142.018C25.9202 142.907 26.1059 143.342 26.6905 143.542C27.0343 143.659 27.6121 143.452 27.8596 143.135C28.1141 142.804 28.2035 142.315 27.9766 141.626C27.6946 140.764 27.392 140.757 27.2751 140.254C27.0206 139.138 27.4607 138.421 27.3645 138.221C26.7799 136.932 26.1746 138.621 25.6107 139.234C25.2668 139.606 24.469 138.462 24.2902 138.2C23.8088 137.497 24.4346 136.505 23.9394 134.789C23.63 133.735 23.3136 133.321 22.8941 133.473C22.6809 133.555 22.8734 133.879 22.8322 135.802Z" fill="#F2C99B"/>
<path d="M200.74 113.17C200.555 112.804 199.083 112.811 198.98 112.012C198.918 111.543 198.987 111.902 198.932 111.178C198.883 110.468 198.141 109.903 196.449 108.979C194.743 108.042 191.999 106.464 191.71 106.953C191.428 107.429 192.054 107.904 192.398 108.152C193.251 108.773 193.835 108.959 194.055 109.414C194.282 109.889 193.361 111.13 193.313 111.977C193.23 113.376 194.791 114.424 195.96 114.734C197.047 115.024 197.157 114.844 197.735 115.058C198.306 115.279 198.911 115.561 199.303 115.823C200.039 116.305 201.112 113.907 200.74 113.17Z" fill="#F2C99B"/>
<path d="M211.628 123.259C211.621 123.549 210.348 123.583 208.491 124.327C207.302 124.803 206.497 125.134 206.435 125.692C206.353 126.409 207.508 127.181 208.423 127.463C209.365 127.753 210.197 127.56 211.449 127.27C212.027 127.139 212.529 127.015 213.12 126.691C213.746 126.347 213.76 126.161 214.509 125.678C215.548 125.017 216.057 124.941 216.277 124.541C216.662 123.824 216.284 122.584 215.431 122.177C214.977 121.957 214.496 122.039 213.615 121.984C212.212 121.888 211.242 121.646 210.121 121.674C209.276 121.695 209.062 122.17 209.138 122.425C209.282 122.887 211.641 122.853 211.628 123.259Z" fill="#F2C99B"/>
<path d="M167.302 87.5807C167.481 86.7951 168.278 87.3878 168.808 87.3946C169.228 87.4015 170.596 87.0638 170.328 88.2975C170.218 88.8006 169.186 88.9039 168.56 88.835C167.811 88.7592 167.206 88.008 167.302 87.5807Z" fill="#534741"/>
<path d="M170.197 87.5534C169.853 87.2295 169.111 87.3949 168.815 87.388C168.361 87.3811 167.715 86.94 167.426 87.3122C167.653 87.6223 168.045 87.9117 168.485 87.96C169.049 88.022 169.943 87.9393 170.197 87.5534Z" fill="white"/>
<path d="M213.732 101.881C213.856 102.019 214.33 102.522 215.039 102.557C215.383 102.571 215.678 102.474 215.775 102.44C216.077 102.336 216.297 102.178 216.435 102.067" fill="#C79D69"/>
<path d="M42.2887 128.966L41.5597 129.055C41.037 129.159 40.4937 128.766 40.4593 128.518C40.4318 128.27 40.6037 128.042 40.8513 128.015L42.4813 127.815C42.7289 127.787 42.9559 127.96 42.9834 128.208C43.0178 128.456 42.9008 128.814 42.2887 128.966Z" fill="#534741"/>
<path d="M40.8032 128.022C40.6656 128.042 40.5556 128.132 40.5143 128.249C40.59 128.352 40.7207 128.407 40.8582 128.394L42.5845 128.166C42.722 128.146 42.8321 128.056 42.8733 127.939C42.7977 127.835 42.667 127.78 42.5295 127.794L40.8032 128.022Z" fill="white"/>
<path opacity="0.36" d="M118.808 108.938C115.995 108.938 113.719 106.657 113.719 103.838V102.184C113.719 99.3656 115.995 97.0845 118.808 97.0845C121.621 97.0845 123.898 99.3656 123.898 102.184V103.831C123.898 106.65 121.614 108.938 118.808 108.938Z" fill="#1B1464"/>
<path opacity="0.36" d="M109.469 95.5061H108.808C107.282 95.5061 106.044 94.2656 106.044 92.7357V86.4228C106.044 84.8929 107.282 83.6523 108.808 83.6523H109.469C110.995 83.6523 112.233 84.8929 112.233 86.4228V92.7357C112.233 94.2656 110.995 95.5061 109.469 95.5061Z" fill="#C1272D"/>
<path opacity="0.56" fill-rule="evenodd" clip-rule="evenodd" d="M132.801 89.0495C133.036 89.0016 133.209 88.7895 133.201 88.5417C133.191 88.2657 132.959 88.05 132.683 88.0599C132.513 88.066 132.366 88.146 132.291 88.189C132.194 88.2456 132.089 88.3203 131.983 88.4058C131.769 88.578 131.519 88.8188 131.262 89.1142C130.749 89.7041 130.184 90.5416 129.827 91.54C129.469 92.5421 129.318 93.7184 129.656 94.9624C129.996 96.2082 130.814 97.4736 132.313 98.674C135.048 100.868 137.109 105.963 134.245 110.806C132.836 113.182 129.868 114.685 126.769 115.61C123.693 116.528 120.611 116.841 119.132 116.923C118.856 116.938 118.645 117.174 118.66 117.45C118.675 117.725 118.911 117.937 119.186 117.921C120.712 117.837 123.878 117.517 127.055 116.569C130.207 115.628 133.494 114.033 135.105 111.316L135.105 111.316C138.265 105.973 135.994 100.345 132.938 97.8938L132.938 97.8936C131.572 96.7991 130.895 95.7041 130.621 94.6995C130.347 93.6931 130.464 92.7291 130.769 91.8765C131.075 91.0201 131.567 90.2884 132.017 89.7703C132.242 89.5117 132.45 89.3137 132.611 89.1844C132.692 89.1191 132.753 89.0774 132.792 89.0545C132.796 89.0527 132.799 89.051 132.801 89.0495ZM132.815 89.042C132.821 89.0395 132.823 89.0386 132.823 89.0388C132.823 89.039 132.82 89.0402 132.815 89.042Z" fill="#006837"/>
<path opacity="0.56" fill-rule="evenodd" clip-rule="evenodd" d="M126.328 107.064C126.328 106.814 126.53 106.612 126.779 106.612C127.822 106.612 128.536 106.792 129 107.167C129.485 107.558 129.605 108.086 129.644 108.529C129.659 108.688 129.663 108.856 129.668 109.006C129.669 109.058 129.671 109.108 129.672 109.154C129.68 109.349 129.692 109.509 129.724 109.646C129.754 109.778 129.799 109.873 129.862 109.947C129.922 110.019 130.022 110.096 130.202 110.159L130.202 110.159C130.458 110.249 130.71 110.182 131.124 110.044C131.14 110.038 131.156 110.033 131.173 110.027C131.532 109.906 132.053 109.731 132.598 109.935L132.599 109.935C132.959 110.071 133.235 110.265 133.43 110.519C133.624 110.771 133.713 111.051 133.752 111.319C133.79 111.58 133.782 111.847 133.771 112.082C133.769 112.135 133.766 112.185 133.764 112.235C133.754 112.418 133.745 112.581 133.75 112.742C133.758 112.992 133.562 113.2 133.313 113.207C133.064 113.215 132.856 113.019 132.848 112.77C132.842 112.567 132.853 112.356 132.863 112.169C132.866 112.124 132.868 112.081 132.87 112.039C132.881 111.809 132.883 111.617 132.859 111.449C132.835 111.286 132.789 111.165 132.714 111.068C132.641 110.973 132.515 110.868 132.281 110.78C132.06 110.698 131.834 110.758 131.41 110.899C131.399 110.903 131.389 110.906 131.378 110.91C131.009 111.034 130.477 111.212 129.904 111.011C129.596 110.903 129.353 110.743 129.172 110.529C128.993 110.317 128.898 110.078 128.845 109.849C128.793 109.623 128.778 109.392 128.771 109.188C128.768 109.124 128.767 109.064 128.765 109.006C128.761 108.866 128.757 108.738 128.746 108.608C128.714 108.256 128.634 108.031 128.433 107.869C128.211 107.689 127.752 107.515 126.779 107.515C126.53 107.515 126.328 107.313 126.328 107.064Z" fill="#006837"/>
<path opacity="0.56" fill-rule="evenodd" clip-rule="evenodd" d="M119.966 88.3856C119.07 88.7118 118.412 89.2186 118.103 89.8107C117.975 90.0555 117.673 90.1503 117.428 90.0225C117.183 89.8946 117.089 89.5926 117.216 89.3478C117.681 88.4582 118.589 87.8227 119.623 87.4459C120.666 87.0663 121.893 86.9269 123.085 87.0741C124.276 87.2212 125.461 87.659 126.392 88.4646C127.332 89.2774 127.987 90.4432 128.137 91.9844L128.137 91.9844C128.573 96.4766 129.495 98.4223 130.525 99.257C131.525 100.067 132.746 99.9422 134.296 99.7839L134.356 99.7778C134.63 99.7498 134.876 99.9498 134.904 100.224C134.932 100.499 134.732 100.745 134.457 100.773C134.389 100.78 134.319 100.787 134.25 100.794C132.836 100.941 131.223 101.109 129.896 100.034C128.521 98.92 127.579 96.5894 127.141 92.081C127.016 90.7897 126.479 89.8621 125.738 89.2208C124.988 88.5722 124.003 88.1951 122.962 88.0665C121.921 87.938 120.853 88.0622 119.966 88.3856Z" fill="#006837"/>
<defs>
<linearGradient id="paint0_linear_340_2006" x1="148.5" y1="0" x2="148.5" y2="215" gradientUnits="userSpaceOnUse">
<stop stop-color="#A6A758" stop-opacity="0.42"/>
<stop offset="1" stop-color="#F2C99B" stop-opacity="0.29"/>
</linearGradient>
</defs>
</svg>
