<svg width="297" height="221" viewBox="0 0 297 221" fill="none" xmlns="http://www.w3.org/2000/svg">
<path fill-rule="evenodd" clip-rule="evenodd" d="M86.3824 178C38.6747 178 0 138.153 0 89C0 39.8467 38.6747 0 86.3824 0C128.977 0 164.372 31.7638 171.469 73.5554C184.701 62.5735 201.524 56 219.838 56C262.453 56 297 91.5934 297 135.5C297 179.407 262.453 215 219.838 215C183.571 215 153.148 189.221 144.889 154.479C129.501 169.082 108.952 178 86.3824 178Z" fill="url(#paint0_linear_340_1813)"/>
<path d="M163.95 191.12C163.27 190.6 162.51 190.16 161.7 189.84C159.14 188.82 156.23 187.01 157.92 184.44C160.36 180.73 165.84 189.3 171.56 188.62C173.91 187.59 176.25 186.34 178.46 184.93C177.67 183.98 176.6 183.25 175.39 182.88C173.62 182.34 171.58 181.3 172.57 179.48C174.21 176.47 179.43 184.08 183.57 180.71C183.89 180.45 186.13 177.97 188.14 175.06C186.83 174.76 185.01 174.41 185.01 174.41C184.67 174.36 184.3 174.27 183.94 174.12C182.51 173.56 181.6 172.48 181.9 171.71C182.2 170.94 183.6 170.77 185.03 171.33C185.27 171.42 185.49 171.53 185.69 171.65C185.91 171.78 186.11 171.92 186.29 172.06C186.53 172.26 186.77 172.44 187.03 172.61C187.79 173.09 188.68 173.53 189.23 173.38C190.66 171.05 191.71 168.67 191.4 167.05C191.38 166.96 191.35 166.87 191.33 166.78C191.32 166.69 191.31 166.6 191.29 166.51C190.98 164.89 189.1 163.08 186.91 161.46C186.35 161.53 185.68 162.28 185.16 163C184.98 163.25 184.82 163.51 184.68 163.79C184.57 163.99 184.44 164.2 184.28 164.4C184.13 164.59 183.97 164.77 183.79 164.94C182.68 165.99 181.31 166.36 180.74 165.76C180.17 165.16 180.61 163.82 181.72 162.76C182.01 162.49 182.31 162.27 182.61 162.09C182.61 162.09 184.17 161.08 185.27 160.32C182.32 158.37 179.31 156.91 178.92 156.79C173.81 155.22 171.82 164.23 169.18 162.06C167.58 160.75 169.08 159.02 170.52 157.85C171.5 157.05 172.22 155.98 172.6 154.8C170.02 154.33 167.38 154.05 164.82 153.97C159.26 155.48 157.4 165.48 153.74 162.96C151.2 161.21 153.22 158.45 155.21 156.54C155.84 155.94 156.38 155.25 156.82 154.51C156.69 154.53 156.56 154.55 156.44 154.58C143.88 157.02 140.13 165.72 141.97 175.19C142.05 175.59 142.14 175.98 142.23 176.36C142.29 176.75 142.35 177.15 142.43 177.54C144.27 187.01 151.01 193.66 163.57 191.22C163.7 191.18 163.83 191.15 163.95 191.12Z" fill="#006837"/>
<path d="M172.86 168.3C171.87 168.45 170.9 168.73 169.98 169.15C167.06 170.47 163.22 171.46 162.43 167.97C161.29 162.95 172.86 165.24 176.88 159.91C177.9 157.12 178.74 154.15 179.34 151.18C177.91 151.08 176.44 151.38 175.16 152.1C173.28 153.15 170.77 154.02 170.05 151.73C168.85 147.95 179.41 149.69 179.92 143.51C179.96 143.03 179.68 139.17 178.86 135.15C177.56 136.01 175.8 137.25 175.8 137.25C175.48 137.5 175.11 137.73 174.7 137.92C173.09 138.66 171.45 138.56 171.05 137.69C170.65 136.82 171.63 135.51 173.24 134.76C173.51 134.64 173.77 134.54 174.04 134.46C174.32 134.38 174.6 134.32 174.87 134.29C175.22 134.25 175.58 134.2 175.92 134.11C176.93 133.86 178.02 133.47 178.33 132.89C177.53 129.82 176.38 127.03 174.78 125.99C174.69 125.93 174.59 125.89 174.5 125.83C174.41 125.77 174.33 125.7 174.24 125.64C172.64 124.61 169.61 124.71 166.49 125.25C166.1 125.77 166.19 126.93 166.38 127.95C166.44 128.3 166.54 128.64 166.65 128.98C166.73 129.23 166.79 129.51 166.84 129.8C166.88 130.07 166.9 130.36 166.9 130.65C166.89 132.43 166.1 133.86 165.14 133.86C164.18 133.85 163.41 132.41 163.42 130.63C163.42 130.17 163.48 129.74 163.57 129.35C163.57 129.35 163.98 127.23 164.23 125.7C160.23 126.61 156.59 127.95 156.17 128.18C150.75 131.19 156.7 140.09 152.75 140.56C150.37 140.84 150.13 138.19 150.31 136.05C150.43 134.59 150.1 133.13 149.42 131.86C146.96 133.63 144.6 135.62 142.48 137.7C139.28 143.56 146.15 153.16 141.1 154.19C137.6 154.9 136.91 151 136.91 147.8C136.91 146.79 136.77 145.79 136.5 144.82C136.42 144.94 136.33 145.07 136.25 145.19C128.21 157.67 132.47 167.78 141.87 173.85C142.26 174.1 142.66 174.34 143.06 174.57C143.43 174.84 143.82 175.1 144.21 175.35C153.61 181.41 164.59 181.12 172.63 168.65C172.7 168.56 172.78 168.43 172.86 168.3Z" fill="#8AA200"/>
<path d="M149.55 154.72C148.96 154.98 148.4 155.31 147.89 155.73C146.29 157.04 144.05 158.29 142.98 156.24C141.44 153.29 149.04 152.82 150.68 148.82C150.86 146.91 150.89 144.92 150.77 142.96C149.86 143.13 148.99 143.57 148.31 144.22C147.31 145.18 145.88 146.14 145.05 144.84C143.68 142.67 150.56 142.02 149.86 138.08C149.81 137.77 148.99 135.41 147.82 133.03C147.15 133.78 146.26 134.85 146.26 134.85C146.1 135.06 145.91 135.26 145.68 135.45C144.79 136.18 143.76 136.39 143.36 135.91C142.96 135.43 143.36 134.45 144.25 133.72C144.4 133.6 144.55 133.49 144.7 133.4C144.86 133.3 145.03 133.22 145.19 133.16C145.4 133.08 145.62 132.98 145.82 132.87C146.41 132.55 147.03 132.12 147.13 131.71C146.12 129.93 144.95 128.37 143.77 127.99C143.7 127.97 143.64 127.96 143.57 127.94C143.5 127.92 143.44 127.89 143.38 127.86C142.21 127.48 140.34 128.05 138.48 128.9C138.32 129.29 138.57 130 138.86 130.61C138.96 130.82 139.08 131.02 139.2 131.21C139.29 131.36 139.38 131.52 139.45 131.69C139.52 131.85 139.58 132.03 139.63 132.21C139.92 133.32 139.66 134.35 139.06 134.5C138.46 134.65 137.74 133.88 137.45 132.77C137.38 132.48 137.34 132.21 137.33 131.94C137.33 131.94 137.24 130.55 137.14 129.55C134.79 130.78 132.74 132.22 132.52 132.43C129.63 135.21 134.82 139.79 132.43 140.73C130.99 141.3 130.4 139.69 130.16 138.32C130 137.39 129.55 136.53 128.91 135.85C127.66 137.37 126.52 138.99 125.54 140.65C124.51 144.84 130.38 149.7 127.4 151.18C125.33 152.2 124.25 149.88 123.73 147.88C123.56 147.25 123.31 146.65 122.98 146.09C122.95 146.18 122.91 146.27 122.88 146.36C119.91 155.48 124.25 161.1 131.12 163.33C131.41 163.42 131.7 163.51 131.98 163.59C132.26 163.7 132.54 163.8 132.83 163.89C139.7 166.12 146.51 164.13 149.48 155.01C149.5 154.91 149.53 154.81 149.55 154.72Z" fill="#8CC63F"/>
<path d="M147.23 167.85L151.86 167.56C151.93 167.56 151.99 167.52 152.02 167.46L166 140.36C166.11 140.15 165.81 139.97 165.67 140.16L147.06 167.54C146.97 167.68 147.07 167.86 147.23 167.85Z" fill="#8CC63F"/>
<path d="M123.74 169.31L128.78 168.33L140.25 136.57L123.74 169.31Z" fill="#006837"/>
<path d="M249.02 197.99H248.7V177.76H246.48V197.99H246.16C239.9 197.99 234.83 201.75 234.83 206.39H260.35C260.35 201.75 255.28 197.99 249.02 197.99Z" fill="#F7931E"/>
<path d="M243.16 177.75H222.33C220.32 177.75 218.68 176.12 218.68 174.1V165.69C218.68 163.68 220.31 162.04 222.33 162.04H243.16C245.17 162.04 246.81 163.67 246.81 165.69V174.1C246.81 176.12 245.18 177.75 243.16 177.75Z" fill="#F7931E"/>
<path d="M247.16 177.75H226.33C224.32 177.75 222.68 176.12 222.68 174.1V165.69C222.68 163.68 224.31 162.04 226.33 162.04H247.16C249.17 162.04 250.81 163.67 250.81 165.69V174.1C250.8 176.12 249.17 177.75 247.16 177.75Z" fill="#FBB03B"/>
<path d="M253.02 128.82H245.13C242.34 128.91 240.17 131.21 239.79 133.26C238.38 140.9 238.29 148.65 239.52 156.31L242.7 176.02H245.91L253.02 128.82Z" fill="#F7931E"/>
<path d="M273.88 176.03L245.94 177.11L246.94 169.26C244.19 162.71 242.8 151.77 242.88 144.91C242.94 139.07 243.71 134.75 243.71 134.75C244.68 130.6 248.72 128.9 251.44 128.82H270.36C275.1 128.82 278.83 131.9 278.43 135.49L277.92 137.02C274.35 147.72 272.86 158.75 273.52 169.77L273.88 176.03Z" fill="#F15A24"/>
<path d="M273.5 176.19L249.39 177.72L230.66 177.75V172.67C230.66 169.01 234.66 166.04 239.6 166.04H264.3C269.24 166.04 273.24 169.01 273.24 172.67L273.5 176.19Z" fill="#F15A24"/>
<path d="M270.39 128.82C268.9 128.82 267.7 129.71 267.7 130.82V175.7H273.98L273.62 169.78C272.95 158.76 274.47 147.72 278.13 137.03L278.65 135.5C279.07 131.9 275.25 128.82 270.39 128.82Z" fill="#F7931E"/>
<path d="M249.1 197.99H248.78V181.2V177.76H247.59H246.48V181.2H247.59V198.82H247.88C253.6 198.82 258.24 202.21 258.24 206.39H260.43C260.44 201.75 255.36 197.99 249.1 197.99Z" fill="#F15A24"/>
<path d="M260.164 119.812C260.233 118.521 259.261 117.42 257.993 117.352C256.724 117.284 255.64 118.276 255.571 119.566C255.502 120.857 256.474 121.958 257.743 122.026C259.011 122.093 260.095 121.102 260.164 119.812Z" fill="#534741"/>
<path d="M254.723 117.07C254.792 115.779 253.82 114.678 252.552 114.61C251.283 114.542 250.199 115.533 250.13 116.824C250.061 118.114 251.033 119.216 252.302 119.283C253.57 119.351 254.654 118.36 254.723 117.07Z" fill="#534741"/>
<path d="M227.2 207.25C225.33 207.48 224.02 205.8 223.5 202.55L219.79 186.51C219.27 183.27 220.63 180.34 222.83 179.97C225.03 179.6 227.23 181.93 227.75 185.17L228.93 199.26C229.06 200.8 229.12 202.34 229.05 203.85C228.94 205.81 228.57 207.25 227.2 207.25Z" fill="#FFD29B"/>
<path d="M238.59 207.68C236.71 207.77 235.52 205.92 235.23 202.51L232.64 185.56C232.35 182.15 233.9 179.22 236.12 179.01C238.34 178.8 240.37 181.39 240.67 184.8L240.87 199.52C240.89 201.13 240.85 202.73 240.67 204.29C240.43 206.32 239.96 207.79 238.59 207.68Z" fill="#FFD29B"/>
<path d="M239.75 157.52C208.51 162.05 216.85 182.01 220.21 194.47C220.21 194.47 223.28 195.28 229.65 193.23C230.06 193.1 229.95 197.78 230.39 197.78C236.81 197.82 243.55 197.03 243.55 195.23C243.55 188.7 241.14 176.47 242.87 173.83C245.64 169.6 262.29 175.55 262.65 167.01C262.84 162.51 252.03 147.93 247.59 150.19C243.61 152.22 245.8 156.65 239.75 157.52Z" fill="#BF3787"/>
<path d="M248.55 161.54C252.89 161.44 253.03 155.84 239.76 157.52C208.45 161.5 216.86 182.01 220.22 194.47C220.22 194.47 223.29 195.28 229.66 193.23C226.12 180.85 221.13 162.17 248.55 161.54Z" fill="#9E005D"/>
<path d="M240.71 156.32L239.78 157.75C240.06 157.82 240.33 157.92 240.58 158.08C241.06 158.4 241.37 158.85 241.54 159.35C241.74 159.99 241.03 160.64 240.41 160.39C239.52 160.03 239.21 160.54 238.76 161.04C238.06 161.79 238.25 162.26 239.53 163.41L239.29 164.01C239.77 164.43 239.32 165.37 238.68 165.22C236.56 164.74 235.28 162.84 235.52 162.27C235.23 161.41 235.39 160.38 236 159.54L237.84 155.83L240.71 156.32Z" fill="#FFD29B"/>
<path d="M255.5 129.37C250.19 126.44 244.87 130.79 243.43 136.66C240.88 147.05 240.29 147.83 238.71 152.97C238.23 154.54 241.29 157.16 242.3 155.73C245.39 151.34 243.06 150.38 245.85 146.55C249.72 141.24 250.7 148.39 253.96 140.83C256.39 135.18 259.57 131.61 255.5 129.37Z" fill="#808080"/>
<path d="M249.69 163.62L246.47 161.74C239.76 161.38 243.33 159.91 243.7 152.97L244.25 146.97C244.39 143.65 242.77 140.45 244.2 137.48C246.1 133.53 248.87 127.68 253.49 127.92C260.2 128.28 264.06 132.47 262.75 140.84L260.86 159.16C260.51 165.72 258.61 165 251.78 164.2C251.05 164.13 250.33 164 249.69 163.62Z" fill="#999999"/>
<path d="M268.08 148.01C267.94 147.57 264.35 136.11 264.03 135.46C262.44 132.22 261.74 131.4 260.54 131.6C257.71 132.05 255.9 135.5 256.53 138.76L260.73 148.37C260.91 149.28 260.47 150.21 259.74 150.5L250.86 153.96C249.6 155.69 249.99 159.65 254.02 158.74L264.41 156.14C268.63 154.76 269.29 151.88 268.08 148.01Z" fill="#E6E6E6"/>
<path d="M242.82 154.51L241.34 158.38L237.29 156.95L238.55 153L242.82 154.51Z" fill="#C7C7C7"/>
<path d="M229.92 203.56L222.93 203.73L218.72 207.5C217.45 207.65 216.32 207.8 216.32 207.8C216.32 207.8 215.15 207.85 214.87 209.12L214.55 210.84C214.55 210.84 220.86 211.13 223.98 210.9C227.09 210.67 230.05 210.28 230.05 210.28L229.92 203.56Z" fill="#2B2522"/>
<path d="M230.02 208.95C230.02 208.95 227.31 209.31 224.2 209.54C221.21 209.76 215.26 209.5 214.8 209.48L214.55 210.84C214.55 210.84 220.86 211.13 223.98 210.9C227.09 210.67 230.05 210.28 230.05 210.28L230.02 208.95Z" fill="#301F13"/>
<path fill-rule="evenodd" clip-rule="evenodd" d="M220.964 205.497L222.505 206.051C222.543 206.064 222.563 206.107 222.55 206.145C222.536 206.184 222.493 206.204 222.455 206.19L221.156 205.723L221.383 206.937C221.39 206.977 221.364 207.015 221.324 207.023C221.283 207.03 221.245 207.004 221.237 206.964L220.964 205.497Z" fill="#C7B299"/>
<path d="M241.39 203.56L234.4 203.73L230.19 207.5C228.92 207.65 227.79 207.8 227.79 207.8C227.79 207.8 226.62 207.85 226.34 209.12L226.02 210.84C226.02 210.84 232.33 211.13 235.45 210.9C238.56 210.67 241.52 210.28 241.52 210.28L241.39 203.56Z" fill="#534741"/>
<path d="M241.49 208.95C241.49 208.95 238.78 209.31 235.67 209.54C232.68 209.76 226.73 209.5 226.27 209.48L226.02 210.84C226.02 210.84 232.33 211.13 235.45 210.9C238.56 210.67 241.52 210.28 241.52 210.28L241.49 208.95Z" fill="#42210B"/>
<path fill-rule="evenodd" clip-rule="evenodd" d="M232.434 205.497L233.975 206.051C234.013 206.064 234.033 206.107 234.02 206.145C234.006 206.184 233.963 206.204 233.925 206.19L232.626 205.723L232.853 206.937C232.86 206.977 232.834 207.015 232.794 207.023C232.753 207.03 232.715 207.004 232.707 206.964L232.434 205.497Z" fill="#C7B299"/>
<path d="M266.78 177.75H245.95C243.94 177.75 242.3 176.12 242.3 174.1V165.05C242.3 163.04 243.93 161.4 245.95 161.4H266.78C268.79 161.4 270.43 163.03 270.43 165.05V174.1C270.42 176.12 268.79 177.75 266.78 177.75Z" fill="#F7931E"/>
<path d="M270.77 177.75H249.94C247.93 177.75 246.29 176.12 246.29 174.1V165.05C246.29 163.04 247.92 161.4 249.94 161.4H270.77C272.78 161.4 274.42 163.03 274.42 165.05V174.1C274.42 176.12 272.78 177.75 270.77 177.75Z" fill="#FBB03B"/>
<path d="M259.29 121.55C259.03 121.67 258.72 121.71 258.4 121.72C258.11 121.74 257.79 121.73 257.49 121.71C256.6 121.66 255.86 121.1 255.52 120.33C255.36 119.96 255.08 119.65 254.72 119.46C254.07 119.13 253.61 118.49 253.52 117.73C253.5 117.59 253.49 117.45 253.5 117.31C253.51 116.96 253.61 116.64 253.76 116.36C251.65 116.49 249.92 118.23 249.8 120.43L249.6 124.09C249.53 125.31 249.98 126.43 250.74 127.26C250.91 127.45 251.1 127.62 251.31 127.77C251.57 127.97 251.85 128.13 252.16 128.26C252.6 128.46 253.08 128.58 253.59 128.61C254.09 128.64 254.57 128.57 255.02 128.43C255.1 128.42 255.17 128.39 255.25 128.36C255.23 128.4 255.2 128.44 255.17 128.48C254.47 129.37 253.02 129.43 252.61 129.41C252 129.38 251.49 129.21 251.35 128.53C251.32 128.54 251.29 128.55 251.27 128.56C250.52 128.9 249.99 129.39 249.96 129.86C249.85 131.27 250.77 132.33 252.69 132.73C254.86 133.18 256.84 132.01 257.13 131.27C257.51 130.3 257.22 129.62 256.57 129.15L256.64 128.03L256.65 127.76V127.49C257.29 126.9 257.75 126.11 257.94 125.21C258.05 125.24 258.16 125.26 258.27 125.26C259.34 125.32 260.26 124.48 260.32 123.39C260.36 122.6 259.94 121.89 259.29 121.55ZM250.76 121.35C250.74 121.78 250.64 122.12 250.55 122.12C250.46 122.11 250.41 121.76 250.43 121.33C250.45 120.91 250.55 120.56 250.64 120.56C250.73 120.56 250.78 120.91 250.76 121.35ZM250.87 123.49C250.87 123.49 251.06 122.95 251.31 122.44C251.52 121.99 251.79 121.57 252 121.6L251.91 123.16L251.88 123.71C251.87 123.89 251.72 124.03 251.55 124.02L251.11 123.99C250.94 123.98 250.76 123.81 250.87 123.49ZM254.3 121.72C254.28 122.14 254.19 122.49 254.1 122.49C254.01 122.49 253.95 122.13 253.97 121.7C254 121.28 254.09 120.93 254.18 120.93C254.27 120.93 254.33 121.29 254.3 121.72Z" fill="#FFD29B"/>
<path d="M255.17 128.48C254.47 129.37 253.02 129.43 252.61 129.41C252 129.38 251.49 129.21 251.35 128.53C251.6 128.42 251.87 128.33 252.16 128.26C252.6 128.46 253.08 128.58 253.59 128.61C254.09 128.64 254.57 128.57 255.02 128.43C255.07 128.45 255.12 128.46 255.17 128.48Z" fill="#FFD29B"/>
<path d="M250.76 121.35C250.74 121.78 250.64 122.12 250.55 122.12C250.46 122.11 250.41 121.76 250.43 121.33C250.45 120.91 250.55 120.56 250.64 120.56C250.73 120.56 250.78 120.91 250.76 121.35Z" fill="#8C786E"/>
<path d="M251.91 123.16L251.88 123.71C251.87 123.89 251.72 124.03 251.55 124.02L251.11 123.99C250.94 123.98 250.76 123.81 250.87 123.49C250.87 123.49 251.06 122.95 251.31 122.44C251.34 122.6 251.36 122.76 251.36 122.93C251.56 122.98 251.74 123.05 251.91 123.16Z" fill="#8C786E"/>
<path d="M262.39 121.73C262.11 122.17 262.06 122.69 262.18 123.19C262.23 123.39 262.25 123.61 262.23 123.82C262.17 125.07 261.04 125.51 259.89 125.97C258.93 126.35 258.19 128.14 256.96 128.07C256.85 128.06 256.74 128.05 256.64 128.03L256.65 127.76V127.49C257.29 126.9 257.75 126.11 257.94 125.21C258.05 125.24 258.16 125.26 258.27 125.26C259.34 125.32 260.26 124.48 260.32 123.39C260.36 122.6 259.94 121.89 259.29 121.55C259.03 121.67 258.72 121.71 258.4 121.72C258.11 121.74 257.79 121.73 257.49 121.71C256.6 121.66 255.86 121.1 255.52 120.33C255.36 119.96 255.08 119.65 254.72 119.46C254.07 119.13 253.61 118.49 253.52 117.73C253.5 117.59 253.49 117.45 253.5 117.31C253.51 116.96 253.61 116.64 253.76 116.36C251.65 116.49 249.92 118.23 249.8 120.43L249.6 124.09C249.53 125.31 249.98 126.43 250.74 127.26H250.65C249.77 127.22 249.04 126.7 248.7 125.97C248.45 125.43 247.82 125.13 247.6 124.57C247.1 123.31 248.05 122.43 248.23 121.74C248.52 120.64 247.95 119.54 247.9 119.35C247.45 117.82 248.29 115.56 250.14 114.89C250.35 114.81 251.66 113.48 253.93 113.66C254.32 113.69 254.74 113.82 255.1 114.01C255.48 113.77 255.93 113.64 256.41 113.64C257.85 113.64 258.96 114.74 259.57 115.73C259.95 116.37 260.53 116.84 261.14 117.28C261.75 117.73 261.82 118.23 261.81 118.67C262.41 119.1 262.79 119.83 262.74 120.64C262.72 121.04 262.59 121.41 262.39 121.73Z" fill="#998E82"/>
<path d="M255.25 128.36C255.23 128.4 255.2 128.44 255.17 128.48C254.47 129.37 253.02 129.43 252.61 129.41C252 129.38 251.49 129.21 251.35 128.53C251.32 128.54 251.29 128.55 251.27 128.56L251.3 128.08C251.3 127.98 251.3 127.88 251.31 127.77C251.57 127.97 251.85 128.13 252.16 128.26C252.6 128.46 253.08 128.58 253.59 128.61C254.09 128.64 254.57 128.57 255.02 128.43C255.1 128.42 255.17 128.39 255.25 128.36Z" fill="#FFD29B"/>
<path d="M255.25 128.36C255.23 128.4 255.2 128.44 255.17 128.48C254.47 129.37 253.02 129.43 252.61 129.41C252 129.38 251.49 129.21 251.35 128.53C251.32 128.4 251.3 128.25 251.3 128.08C251.3 127.98 251.3 127.88 251.31 127.77C251.57 127.97 251.85 128.13 252.16 128.26C252.6 128.46 253.08 128.58 253.59 128.61C254.09 128.64 254.57 128.57 255.02 128.43C255.1 128.42 255.17 128.39 255.25 128.36Z" fill="#877052"/>
<path d="M250.76 121.35C250.74 121.78 250.64 122.12 250.55 122.12C250.46 122.11 250.41 121.76 250.43 121.33C250.45 120.91 250.55 120.56 250.64 120.56C250.73 120.56 250.78 120.91 250.76 121.35Z" fill="#FFD29B"/>
<path d="M252 121.6L251.91 123.16L251.88 123.71C251.87 123.89 251.72 124.03 251.55 124.02L251.11 123.99C250.94 123.98 250.76 123.81 250.87 123.49C250.87 123.49 251.06 122.95 251.31 122.44C251.52 121.99 251.79 121.57 252 121.6Z" fill="#FFD29B"/>
<path d="M254.3 121.72C254.28 122.14 254.19 122.49 254.1 122.49C254.01 122.49 253.95 122.13 253.97 121.7C254 121.28 254.09 120.93 254.18 120.93C254.27 120.93 254.33 121.29 254.3 121.72Z" fill="#FFD29B"/>
<path d="M250.76 121.35C250.74 121.78 250.64 122.12 250.55 122.12C250.46 122.11 250.41 121.76 250.43 121.33C250.45 120.91 250.55 120.56 250.64 120.56C250.73 120.56 250.78 120.91 250.76 121.35Z" fill="#534741"/>
<path d="M254.3 121.72C254.28 122.14 254.19 122.49 254.1 122.49C254.01 122.49 253.95 122.13 253.97 121.7C254 121.28 254.09 120.93 254.18 120.93C254.27 120.93 254.33 121.29 254.3 121.72Z" fill="#534741"/>
<path d="M252 121.6L251.91 123.16L251.88 123.71C251.87 123.89 251.72 124.03 251.55 124.02L251.11 123.99C250.94 123.98 250.76 123.81 250.87 123.49C250.87 123.49 251.06 122.95 251.31 122.44C251.52 121.99 251.79 121.57 252 121.6Z" fill="#C79D69"/>
<path fill-rule="evenodd" clip-rule="evenodd" d="M250.826 125.133C250.794 125.086 250.73 125.073 250.683 125.104C250.636 125.135 250.623 125.199 250.654 125.247L250.74 125.19C250.654 125.247 250.654 125.247 250.654 125.247L250.654 125.247L250.655 125.247L250.655 125.248L250.657 125.251L250.664 125.261C250.67 125.27 250.679 125.281 250.691 125.296C250.713 125.326 250.747 125.366 250.791 125.413C250.878 125.506 251.007 125.624 251.176 125.722C251.517 125.921 252.013 126.035 252.619 125.71C252.669 125.684 252.687 125.621 252.661 125.571C252.634 125.521 252.572 125.502 252.521 125.529C251.988 125.815 251.568 125.713 251.279 125.545C251.133 125.459 251.018 125.355 250.941 125.272C250.902 125.231 250.873 125.195 250.853 125.17C250.844 125.158 250.836 125.148 250.832 125.142L250.827 125.134L250.826 125.133L250.826 125.133Z" fill="#534741"/>
<path d="M160.26 165.06H130.28C129.93 165.06 129.58 165.1 129.25 165.17L124.21 131.82L123.74 131.89C120.76 132.34 118.71 135.12 119.16 138.1L125.37 179.19V191.25C125.37 195.82 129.07 199.52 133.64 199.52H156.67C161.24 199.52 164.94 195.82 164.94 191.25V169.76C164.96 167.16 162.85 165.06 160.26 165.06Z" fill="#F15A24"/>
<path d="M152.98 188.76H67.64V177.26H144.88C149.35 177.26 152.97 180.88 152.97 185.35V188.76H152.98Z" fill="#DE841B"/>
<path d="M138.74 177.26H30.68L24.11 131.82H125.95C129.26 131.82 132.08 134.2 132.57 137.43L138.74 177.26Z" fill="#F7931E"/>
<path d="M36.86 207.55C36.04 207.55 35.55 206.91 35.36 206.05L34.12 199.17C34.12 198.35 36.04 197.7 36.86 197.7C37.68 197.7 40.2 198.03 40.2 198.85L38.44 206.05C38.21 206.88 37.68 207.55 36.86 207.55Z" fill="#F15A24"/>
<path d="M62.53 207.99C61.71 207.99 61.22 207.35 61.03 206.49L59.79 199.61C59.79 198.79 61.71 198.14 62.53 198.14C63.35 198.14 65.87 198.47 65.87 199.29L64.11 206.49C63.88 207.32 63.35 207.99 62.53 207.99Z" fill="#F7931E"/>
<path d="M158.91 207.55C158.09 207.55 157.6 206.91 157.41 206.05L156.17 199.17C156.17 198.35 158.09 197.7 158.91 197.7C159.73 197.7 162.25 198.03 162.25 198.85L160.49 206.05C160.26 206.88 159.73 207.55 158.91 207.55Z" fill="#F7931E"/>
<path d="M135.4 207.55C134.58 207.55 134.09 206.91 133.9 206.05L132.66 199.17C132.66 198.35 134.58 197.7 135.4 197.7C136.22 197.7 138.74 198.03 138.74 198.85L136.98 206.05C136.75 206.88 136.22 207.55 135.4 207.55Z" fill="#F15A24"/>
<path d="M60.16 165.06H30.18C29.83 165.06 29.48 165.1 29.15 165.17L24.11 131.82L23.64 131.89C20.66 132.34 18.61 135.12 19.06 138.1L25.27 179.19V191.25C25.27 195.82 28.97 199.52 33.54 199.52H56.57C61.14 199.52 64.84 195.82 64.84 191.25V169.76C64.85 167.16 62.75 165.06 60.16 165.06Z" fill="#F15A24"/>
<path d="M159.88 165.02C155.78 165.02 152.42 168.38 152.42 172.48V188.52H70.29V172.48C70.29 168.38 66.93 165.02 62.83 165.02C58.73 165.02 55.37 168.38 55.37 172.48V192.71C55.37 196.54 58.3 199.68 62.02 200.09V200.17H62.83H159.88C163.98 200.17 167.34 196.81 167.34 192.71V172.48C167.34 168.38 163.98 165.02 159.88 165.02Z" fill="#FBB03B"/>
<path d="M215 62.6301C199.82 61.4301 186.54 72.7601 185.33 87.9401C184.13 103.12 195.46 116.4 210.64 117.61C215.69 118.01 220.52 117.02 224.77 114.97L238.23 119.32L232.94 108.98C237.07 104.58 239.79 98.8001 240.31 92.3101C241.51 77.1101 230.18 63.8301 215 62.6301ZM214.63 105.07L213.93 105.15L213.58 105.19C213.46 105.2 213.35 105.2 213.23 105.2C212.76 105.21 212.3 105.22 211.83 105.22C211.35 105.18 210.87 105.15 210.4 105.09C209.93 105 209.45 104.93 208.99 104.81C205.26 103.86 201.99 101.27 200.26 97.8401C199.39 96.1301 198.92 94.2201 198.87 92.3101C198.87 91.8301 198.84 91.3601 198.91 90.8701C198.94 90.6301 198.95 90.3801 198.99 90.1401L199.13 89.4201C199.17 89.1801 199.25 88.9401 199.32 88.7101C199.4 88.4801 199.45 88.2401 199.55 88.0101C199.74 87.5601 199.92 87.1001 200.17 86.6801C201.09 84.9501 202.51 83.5201 204.17 82.5201C205.85 81.5501 207.77 81.0101 209.69 81.0301C209.93 81.0401 210.16 81.0201 210.41 81.0501L211.14 81.1201C211.62 81.2101 212.11 81.3001 212.58 81.4601C213.52 81.7601 214.4 82.2201 215.19 82.8001C216.76 83.9801 217.92 85.6701 218.4 87.5601C218.64 88.5101 218.71 89.4701 218.63 90.4401C218.54 91.4301 218.23 92.3901 217.74 93.2401C217.25 94.0901 216.58 94.8301 215.8 95.4001C215.01 95.9701 214.11 96.3701 213.18 96.5601C212.24 96.7501 211.28 96.7701 210.32 96.5501C209.37 96.3301 208.5 95.8401 207.8 95.2001C206.4 93.8901 205.74 91.8501 206.27 90.0201C206.54 89.1101 207.12 88.3101 207.87 87.7801C208.62 87.2501 209.54 86.9601 210.43 87.0001C211.34 87.0101 212.22 87.4101 212.81 88.0601C213.41 88.7001 213.71 89.5901 213.63 90.4301C213.61 89.5901 213.22 88.7901 212.62 88.2601C212.02 87.7201 211.21 87.4601 210.44 87.5301C209.65 87.5701 208.91 87.8901 208.33 88.3701C207.75 88.8701 207.35 89.5401 207.21 90.2601C207.07 90.9701 207.16 91.7501 207.43 92.4401C207.68 93.1301 208.15 93.7301 208.7 94.1901C209.27 94.6401 209.94 94.9501 210.64 95.0601C211.33 95.1701 212.09 95.1001 212.78 94.9101C213.47 94.7101 214.13 94.3801 214.68 93.9301C215.23 93.4801 215.68 92.9101 215.99 92.2901C216.3 91.6701 216.48 90.9801 216.5 90.2901C216.52 89.5901 216.42 88.8601 216.21 88.1801C215.76 86.8301 214.88 85.6401 213.72 84.8401C213.14 84.4501 212.49 84.1501 211.82 83.9701C211.14 83.7801 210.47 83.7001 209.74 83.7501C208.29 83.7901 206.89 84.2701 205.69 85.0201C204.5 85.8001 203.49 86.8501 202.87 88.1101C202.69 88.4201 202.58 88.7501 202.45 89.0701C202.38 89.2301 202.35 89.4101 202.3 89.5701C202.25 89.7401 202.2 89.9001 202.18 90.0801L202.09 90.6001C202.06 90.7701 202.06 90.9501 202.05 91.1201C202.01 91.4601 202.04 91.8301 202.05 92.1901C202.13 93.6401 202.51 95.0601 203.2 96.3301C203.89 97.6001 204.83 98.7301 205.97 99.6101C207.11 100.49 208.43 101.14 209.83 101.48C210.18 101.57 210.54 101.61 210.89 101.68C211.25 101.72 211.61 101.74 211.97 101.77L213.09 101.75C213.18 101.75 213.28 101.75 213.37 101.74L213.65 101.71L214.2 101.64C215.67 101.44 217.11 101 218.43 100.33C221.09 99.0001 223.24 96.7201 224.45 94.0201C224.58 93.6801 224.75 93.3401 224.86 92.9901L225.18 91.9301L225.39 90.8401C225.44 90.6601 225.44 90.4701 225.46 90.2901L225.51 89.7401C225.56 89.3701 225.54 88.9901 225.54 88.6101C225.53 88.2301 225.55 87.8501 225.51 87.4701C225.41 86.7101 225.38 85.9501 225.18 85.2101L225.06 84.6501L225 84.3701L224.91 84.1001L224.56 83.0101C224.45 82.6401 224.26 82.3001 224.12 81.9501L223.89 81.4201C223.82 81.2401 223.71 81.0801 223.62 80.9101L223.06 79.9001L222.4 78.9501C222.2 78.6201 221.94 78.3301 221.69 78.0401L221.32 77.6001C221.2 77.4501 221.08 77.3001 220.93 77.1701C219.87 76.0401 218.63 75.1101 217.33 74.2701L216.31 73.7101C216.14 73.6201 215.97 73.5201 215.8 73.4401L215.26 73.2101C214.9 73.0601 214.55 72.8901 214.18 72.7701L213.07 72.4201C210.09 71.5501 206.81 71.5701 203.67 72.1401C200.53 72.7401 197.51 74.0401 194.87 75.9201C192.23 77.7901 189.98 80.2601 188.34 83.1101C186.7 85.9701 185.69 89.2101 185.39 92.5601C185.35 90.8801 185.51 89.1801 185.86 87.5201C186.22 85.8601 186.77 84.2301 187.49 82.6701C188.94 79.5501 191.16 76.7801 193.84 74.5701C199.27 70.1901 206.7 68.1601 213.76 69.8101L215.07 70.1601C215.5 70.2901 215.92 70.4701 216.34 70.6201L216.97 70.8601C217.18 70.9501 217.38 71.0601 217.58 71.1501L218.8 71.7501L219.95 72.4701C220.34 72.7001 220.7 72.9801 221.06 73.2601L221.6 73.6801C221.78 73.8201 221.96 73.9601 222.12 74.1201L223.12 75.0501C223.29 75.2001 223.44 75.3701 223.59 75.5401L224.04 76.0501C224.34 76.3901 224.65 76.7301 224.9 77.1101L225.7 78.2201L226.4 79.4001C226.51 79.6001 226.64 79.7901 226.74 80.0001L227.03 80.6201C227.21 81.0401 227.43 81.4401 227.58 81.8701L228.03 83.1701L228.14 83.5001L228.22 83.8301L228.38 84.5001C228.63 85.3901 228.71 86.3001 228.83 87.2101C228.88 87.6701 228.87 88.1301 228.89 88.5801C228.9 89.0401 228.92 89.5001 228.87 89.9701L228.82 90.6701C228.8 90.9001 228.79 91.1401 228.74 91.3701L228.48 92.7601L228.09 94.1101C227.95 94.5601 227.75 94.9901 227.58 95.4301C226.07 98.8801 223.35 101.77 220 103.46C218.31 104.27 216.49 104.82 214.63 105.07Z" fill="#808080"/>
<path d="M99.15 124.32H99.59C100.91 124.32 102 123.24 102 121.91V118.47C102 117.15 100.92 116.06 99.59 116.06H99.15C97.83 116.06 96.74 117.14 96.74 118.47V121.91C96.75 123.24 97.83 124.32 99.15 124.32Z" fill="#75181B"/>
<path d="M105.71 131.46C101.7 131.67 98.23 128.57 98.02 124.55L97.99 123.94C97.78 119.93 100.88 116.46 104.9 116.25C108.91 116.04 112.38 119.14 112.59 123.16L112.62 123.77C112.83 127.79 109.73 131.25 105.71 131.46Z" fill="#8A1C20"/>
<path d="M128.22 204.47C129.52 204.46 131.88 205.97 133.05 206.05C135.03 206.18 142.88 204.07 139.15 202.97C139 202.93 136.67 202.88 135.4 202.37C133.16 201.47 131.77 199.2 131.99 196.8L132.74 188.75C132.78 186.35 130.9 184.36 128.54 184.31C126.18 184.26 124.24 186.15 124.2 188.55L125.17 198.92C125.26 199.92 125.42 200.92 125.68 201.89C126.08 203.44 126.68 204.61 128.22 204.47Z" fill="#F2C99B"/>
<path d="M145.74 204.06C147.04 204.05 149.4 205.73 150.57 205.82C152.55 205.97 160.4 203.62 156.67 202.39C156.52 202.34 154.19 202.29 152.92 201.73C150.68 200.73 149.29 198.21 149.51 195.53L150.26 186.57C150.3 183.9 148.42 181.69 146.06 181.63C143.7 181.57 141.76 183.68 141.72 186.35L142.69 197.89C142.78 199 142.94 200.11 143.2 201.2C143.6 202.92 144.2 204.22 145.74 204.06Z" fill="#F2C99B"/>
<path d="M99.68 214.77C101.26 214.76 104.15 216.31 105.56 216.38C107.97 216.52 117.54 214.36 113 213.23C112.82 213.19 109.98 213.14 108.43 212.62C105.7 211.7 104.01 209.38 104.28 206.92L105.19 198.69C105.24 196.24 102.94 194.21 100.07 194.15C97.2 194.09 94.83 196.04 94.78 198.49L95.96 209.09C96.07 210.11 96.26 211.13 96.58 212.13C97.08 213.72 97.81 214.91 99.68 214.77Z" fill="#2E3192"/>
<path d="M111.17 212.93C112.69 212.92 115.47 214.57 116.83 214.66C119.15 214.81 128.36 212.5 123.99 211.28C123.82 211.23 121.09 211.18 119.59 210.63C116.96 209.65 115.33 207.16 115.59 204.53L116.46 195.72C116.5 193.1 114.3 190.92 111.53 190.86C108.76 190.8 106.49 192.88 106.44 195.5L107.58 206.85C107.69 207.95 107.87 209.04 108.17 210.1C108.67 211.8 109.37 213.08 111.17 212.93Z" fill="#22246B"/>
<path d="M134.78 158.91C153.1 157.42 153.39 189.09 151.64 190.71C150.33 191.92 139.4 194.87 139.31 194.94C137.93 196.04 124.46 196.34 124 195.73C120.72 191.38 124.05 180.61 121.01 181.13C115.72 182.02 109.09 182.8 107.43 173.9C106.56 169.21 103.29 158.61 108.29 160.33C111.7 161.5 112.56 156.79 121.86 155.84C124.75 155.54 124.01 159.79 134.78 158.91Z" fill="#2E3192"/>
<path d="M108.89 136.17C108.89 136.17 111.62 135.78 111.23 133.44L110.66 130.58C110.35 129.03 108.86 128.01 107.34 128.31C105.82 128.61 104.82 130.12 105.13 131.67L105.7 134.53C106 136.08 107.37 136.47 108.89 136.17Z" fill="#C79D69"/>
<path d="M102.23 125.19C102.32 125.17 102.42 125.17 102.51 125.16L102.42 124.7C101.93 122.24 103.51 119.84 105.93 119.36C108.35 118.88 110.72 120.5 111.21 122.96L111.96 126.77C112.45 129.23 110.87 131.63 108.45 132.11C106.27 132.54 104.14 131.26 103.38 129.2C103.27 129.24 103.16 129.28 103.04 129.3C101.92 129.52 100.84 128.78 100.61 127.64C100.39 126.51 101.11 125.41 102.23 125.19Z" fill="#F2C99B"/>
<path d="M110.676 124.841C110.768 124.823 110.771 124.444 110.682 123.994C110.593 123.544 110.446 123.194 110.354 123.213C110.262 123.231 110.259 123.61 110.348 124.06C110.437 124.51 110.584 124.859 110.676 124.841Z" fill="#534741"/>
<path d="M107.015 125.761C107.108 125.743 107.11 125.363 107.021 124.914C106.932 124.464 106.785 124.114 106.693 124.133C106.601 124.151 106.599 124.53 106.688 124.98C106.777 125.429 106.923 125.779 107.015 125.761Z" fill="#534741"/>
<path d="M110.54 126.34C110.7 126.66 110.54 126.86 110.36 126.9L109.91 126.99C109.73 127.03 109.55 126.9 109.51 126.72L109.08 124.52C109.53 124.38 110.54 126.34 110.54 126.34Z" fill="#C79D69"/>
<path d="M106.86 120.24C106.76 119.72 106.5 119.28 106.14 118.94C106.13 118.89 102.07 116.42 100.84 124.42C101.38 125.21 102.34 125.64 103.32 125.45C104.5 125.22 107.1 121.45 106.86 120.24Z" fill="#8A1C20"/>
<path d="M106.33 118.79C106.42 118.38 106.65 118.04 106.96 117.78C106.97 117.74 110.55 115.83 111.68 122.1C111.21 122.71 110.36 123.05 109.49 122.89C108.45 122.69 106.12 119.73 106.33 118.79Z" fill="#8A1C20"/>
<path d="M125.38 201.8C125.38 201.8 126.59 201.2 127.47 202.52C128.17 203.57 129.45 204.05 133.13 204.17C134.18 204.2 135.71 203.67 136.53 203.02C136.93 202.7 137.46 202.57 137.97 202.68C138.13 202.72 138.29 202.75 138.45 202.8C139.93 203.19 141.09 204.35 141.46 205.84C141.46 205.85 141.47 205.87 141.47 205.88L141.85 207.7C141.85 207.7 135.17 208.18 131.86 208.02C128.56 207.86 125.42 207.53 125.42 207.53L125.38 201.8Z" fill="#2E3192"/>
<path d="M125.41 206.11C125.41 206.11 128.29 206.42 131.59 206.58C134.77 206.73 141.06 206.3 141.54 206.27L141.84 207.7C141.84 207.7 135.16 208.18 131.85 208.02C128.55 207.86 125.41 207.53 125.41 207.53V206.11Z" fill="#1B1464"/>
<path d="M142.83 200.82C142.83 200.82 143.8 199.91 144.91 201.48C145.69 202.59 146.87 203.21 150.55 203.38C151.6 203.43 153.13 202.86 153.96 202.14C154.37 201.78 154.9 201.65 155.4 201.78C155.56 201.82 155.72 201.87 155.88 201.92C157.36 202.37 158.51 203.68 158.86 205.34C158.86 205.35 158.87 205.37 158.87 205.38L159.23 207.41C159.23 207.41 152.54 207.87 149.24 207.65C145.94 207.43 142.8 207.03 142.8 207.03L142.83 200.82Z" fill="#1B1464"/>
<path d="M142.81 205.45C142.81 205.45 145.68 205.82 148.99 206.04C152.16 206.25 158.46 205.83 158.95 205.8L159.24 207.4C159.24 207.4 152.55 207.86 149.25 207.64C145.95 207.42 142.81 207.02 142.81 207.02V205.45Z" fill="#0C092B"/>
<path d="M116.1 134.07C113.45 132.53 108.26 133.32 108.37 135.87C108.4 136.46 111.23 140.86 116.53 147.25C118.63 149.78 120.03 149.54 119.93 150.66C119.52 155.3 118.62 154.43 119.07 157.87C119.49 161.03 121.22 161 122.67 160.48C123.71 160.11 124.29 158.65 124.85 157C126 153.65 124.97 152.38 124.42 150.02C124.05 148.44 120.67 136.73 116.1 134.07Z" fill="#1A1A1A"/>
<path d="M117.74 159.9C119.1 158.39 120.56 154.58 121.24 153.5C123.03 150.64 120.51 142.56 119.76 139.99C117.32 131.63 109.27 133.29 109.27 133.29C103.75 134.22 100.42 136.51 99.9 142.19C99.79 143.39 101.95 151.76 102.18 152.96L104.48 160.32C104.67 160.92 104.93 161.51 105.34 161.99C108.76 166.06 113.65 164.44 117.74 159.9Z" fill="#2E3192"/>
<path d="M100.38 139.59C102.08 137.04 105.11 138.02 106.53 140.15C106.86 140.64 108.32 142.19 107.83 150.47C107.64 153.75 109.37 155.54 110.4 155.99C113.99 157.57 119.23 161.04 121.15 161.44C122.41 161.7 120.34 163.87 118.86 164.31C117.8 164.62 108.74 161.77 107.23 161.11C103.98 159.69 103.45 159.25 102.5 157.03C101.85 155.53 98.72 142.08 100.38 139.59Z" fill="#1A1A1A"/>
<path d="M105.07 131.9C105.44 131.83 106.15 133.41 108.99 132.83C110.85 132.45 110.72 131.52 110.93 131.41C111.78 130.94 112.25 132.75 112.27 133.19C112.32 134.09 112.34 134.54 112.08 134.88C111.28 135.93 109.22 136.78 107.35 136.39C106.86 136.29 105.48 135.56 104.89 135.01C104.43 134.58 104.08 132.1 105.07 131.9Z" fill="#1A1A1A"/>
<path d="M123.631 164.435C125.443 162.623 125.792 160.033 124.409 158.651C123.027 157.268 120.437 157.617 118.625 159.429C116.813 161.241 116.465 163.83 117.847 165.213C119.23 166.595 121.819 166.247 123.631 164.435Z" fill="#F2C99B"/>
<path d="M109.64 130.58C109.16 130.58 108.77 130.19 108.77 129.71V129.39C108.77 128.91 109.16 128.52 109.64 128.52C110.12 128.52 110.51 128.91 110.51 129.39V129.71C110.51 130.19 110.12 130.58 109.64 130.58Z" fill="#1A1A1A"/>
<path d="M108.84 129.02C108.92 129.15 109.06 129.25 109.23 129.25H110.2C110.3 129.25 110.39 129.21 110.47 129.15C110.37 128.77 110.05 128.49 109.64 128.49C109.29 128.49 108.98 128.71 108.84 129.02Z" fill="white"/>
<path d="M94.64 153.46L92.19 152.07C90.27 152.93 87.99 152.04 87.13 150.11L79.29 132.53C78.43 130.59 79.29 128.31 81.21 127.45L82.69 126.79C84.61 125.93 86.89 126.82 87.75 128.75L96.46 147.69C97.33 149.62 96.57 152.6 94.64 153.46Z" fill="white"/>
<path d="M69.92 123.34C67.79 123.64 62.23 119.88 62.23 115.65V114.96C62.23 110.73 65.69 107.27 69.92 107.27C74.15 107.27 76.67 109.18 76.67 113.41V114.1C76.67 118.33 74.15 123.34 69.92 123.34Z" fill="#754C24"/>
<path d="M99.57 155.39C119.74 153.87 120.74 197.69 118.83 199.55C117.4 200.94 110.11 200.21 105.28 200.82C105.12 200.84 105.07 204.79 104.98 204.88C103.47 206.14 88.64 206.33 88.12 205.62C84.46 200.56 87.99 180.34 84.64 180.9C78.82 181.87 71.53 182.7 69.61 172.4C68.6 166.98 64.88 154.71 70.41 156.74C74.18 158.13 75.08 152.7 85.31 151.7C88.49 151.38 87.72 156.28 99.57 155.39Z" fill="#1A1A1A"/>
<path d="M86.54 156.97C88.69 155.89 91.28 147.59 88.24 132.77C86.12 122.44 73.69 124.96 73.69 124.96C67 126.09 58.07 128.87 57.44 135.75C57.31 137.21 63.53 143.07 65.22 149.17L67.89 157.72C68.12 158.45 67.84 159.2 68.33 159.79C72.46 164.71 79.92 160.28 86.54 156.97Z" fill="#2E3192"/>
<path d="M73.22 128.459C73.22 128.459 76.53 127.989 76.05 125.159L75.37 121.699C75 119.819 73.19 118.589 71.34 118.949C69.5 119.309 68.29 121.149 68.66 123.029L69.34 126.489C69.72 128.359 71.38 128.819 73.22 128.459Z" fill="#C79D69"/>
<path d="M65.16 115.15C65.27 115.13 65.39 115.12 65.5 115.12L65.39 114.56C64.8 111.58 66.71 108.67 69.64 108.09C72.57 107.51 75.45 109.48 76.04 112.46L76.95 117.08C77.54 120.06 75.63 122.97 72.7 123.55C70.06 124.07 67.48 122.52 66.56 120.02C66.43 120.07 66.29 120.12 66.15 120.15C64.8 120.42 63.48 119.52 63.21 118.14C62.93 116.75 63.8 115.42 65.16 115.15Z" fill="#F2C99B"/>
<path d="M75.3878 114.729C75.5016 114.706 75.507 114.249 75.3998 113.707C75.2926 113.165 75.1134 112.744 74.9996 112.767C74.8859 112.789 74.8805 113.247 74.9877 113.789C75.0949 114.33 75.2741 114.751 75.3878 114.729Z" fill="#534741"/>
<path d="M70.9484 115.849C71.0622 115.827 71.0675 115.369 70.9603 114.828C70.8531 114.286 70.674 113.865 70.5602 113.887C70.4464 113.91 70.4411 114.367 70.5483 114.909C70.6555 115.451 70.8346 115.872 70.9484 115.849Z" fill="#534741"/>
<path d="M75.2299 116.54C75.42 116.93 75.2299 117.17 75.0099 117.22L74.4599 117.33C74.2399 117.37 74.0199 117.23 73.9799 117L73.45 114.34C74.01 114.17 75.2299 116.54 75.2299 116.54Z" fill="#C79D69"/>
<path d="M73.95 126.03L73.31 131.08L67.46 126.81L68.77 124.01L73.95 126.03Z" fill="#CCCCCC"/>
<path d="M75.36 125.87L77.54 129.92L77.19 124.69L75.79 123.8L75.36 125.87Z" fill="#CCCCCC"/>
<path d="M75.02 127.74L73.65 128.43L73.95 126.03L75.02 127.74Z" fill="#B3B3B3"/>
<path d="M75.87 126.81L75.02 127.74L75.36 125.87L75.87 126.81Z" fill="#B3B3B3"/>
<path d="M64.66 113.85C65.08 114.41 66.31 114.36 67.16 113.99C69.5 112.97 69.23 109.73 71.13 109C72.5 108.48 73.36 108.82 73.62 108.93C75.3 109.64 75.53 110.98 75.53 110.98C76.5 111 77.1 109.01 77.22 107.19C77.28 106.2 77.1 105.22 76.9 105.2C76.67 105.19 76.42 106.56 76.25 106.53C76.1 106.51 76.28 105.55 75.93 105.38C75.59 105.21 74.95 105.91 74.62 106.21C72.98 107.72 70.96 106.74 68.84 107.45C65.76 108.51 63.82 112.74 64.66 113.85Z" fill="#754C24"/>
<path fill-rule="evenodd" clip-rule="evenodd" d="M96.5825 157.996C100.498 158.014 104.416 160.692 104.603 165.539C104.793 170.459 105.563 199.964 105.563 200.81C105.563 200.966 105.437 201.093 105.28 201.093C105.123 201.093 104.997 200.966 104.997 200.81C104.997 199.976 104.227 170.48 104.037 165.561C103.864 161.078 100.257 158.58 96.5799 158.563C94.7446 158.555 92.9089 159.167 91.4958 160.452C90.0858 161.734 89.0768 163.703 88.923 166.446C88.6825 170.753 88.1308 173.961 87.3333 175.955C87.2007 176.287 87.0793 176.609 86.9629 176.918C86.6683 177.7 86.4055 178.397 86.0741 178.97C85.5941 179.801 84.9552 180.407 83.8544 180.75C83.705 180.797 83.5461 180.714 83.4994 180.564C83.4528 180.415 83.5361 180.256 83.6855 180.209C84.6348 179.913 85.1658 179.409 85.5833 178.687C85.8901 178.156 86.1278 177.525 86.4138 176.766C86.5335 176.449 86.6615 176.109 86.8067 175.745L86.8068 175.744C87.5692 173.838 88.1174 170.706 88.357 166.414L88.357 166.414C88.5181 163.541 89.5816 161.426 91.1145 160.033C92.6441 158.642 94.6217 157.987 96.5825 157.996Z" fill="#F2F2F2"/>
<path d="M81.3 154.37H69.96L67.24 136.05C66.83 133.3 64.25 131.39 61.5 131.8C58.75 132.21 56.84 134.79 57.25 137.54L60.41 158.83C60.73 161.01 62.43 162.64 64.49 163.03C64.85 163.13 65.22 163.19 65.61 163.19H81.3C83.72 163.19 85.71 161.21 85.71 158.78C85.71 156.35 83.73 154.37 81.3 154.37Z" fill="white"/>
<path d="M88.32 157.69L90.53 158.18C92.12 158.53 93.65 157.74 93.94 156.43L96.35 151.81C97.07 147.59 92.64 145.65 92.55 145.63C91.62 145.25 91.39 144.93 90.3 145.93C89.39 146.77 88.72 147.78 88.28 148.87L85.96 154.67C85.67 155.98 86.73 157.34 88.32 157.69Z" fill="white"/>
<path d="M88.48 163.19C92.1803 163.19 95.18 160.79 95.18 157.83C95.18 154.87 92.1803 152.47 88.48 152.47C84.7797 152.47 81.78 154.87 81.78 157.83C81.78 160.79 84.7797 163.19 88.48 163.19Z" fill="#F2C99B"/>
<path d="M74.52 121.23C74.04 121.29 73.6 120.96 73.54 120.48L73.5 120.16C73.44 119.68 73.77 119.24 74.25 119.18C74.73 119.12 75.17 119.45 75.23 119.93L75.27 120.25C75.34 120.73 75 121.17 74.52 121.23Z" fill="#1A1A1A"/>
<path d="M73.53 119.79C73.63 119.91 73.78 119.99 73.95 119.97L74.91 119.84C75.01 119.83 75.1 119.77 75.16 119.71C75.01 119.35 74.65 119.11 74.25 119.17C73.9 119.21 73.62 119.46 73.53 119.79Z" fill="white"/>
<path d="M98.18 28C64.48 28 37.16 43.54 37.16 62.71C37.16 77.81 54.11 90.65 77.77 95.43L80.89 107.59L86.57 96.79C90.33 97.2 94.21 97.43 98.18 97.43C100.49 97.43 102.77 97.35 105.02 97.21L109.84 112.09L116.03 95.92C141.02 91.58 159.21 78.36 159.21 62.72C159.21 43.54 131.89 28 98.18 28Z" fill="#808080"/>
<path d="M129.51 215.51C128.9 216.66 123.62 215.54 114.88 215.72C114.28 215.73 113.82 215.77 113.42 215.79C113.46 215.92 113.5 216.05 113.53 216.19C113.55 216.3 113.63 216.69 113.56 217.13C113.93 217.11 114.35 217.08 114.89 217.07C123.63 216.89 128.91 218.02 129.52 216.86C129.74 216.44 129.71 215.86 129.57 215.34C129.54 215.39 129.54 215.46 129.51 215.51Z" fill="#362E2A"/>
<path d="M95.41 215.84C95.4 215.68 95.4 217.03 95.41 217.19C95.58 221.17 111.98 221.6 113.39 218.97C113.7 218.39 113.56 217.69 113.53 217.54C113.52 217.49 113.5 217.44 113.49 217.4C113.46 217.48 113.43 217.55 113.39 217.62C111.98 220.24 95.59 219.82 95.41 215.84Z" fill="#534741"/>
<path d="M113.49 217.39C113.52 217.3 113.54 217.21 113.56 217.12C113.51 217.12 113.47 217.13 113.43 217.13C113.45 217.22 113.47 217.31 113.49 217.39Z" fill="#736357"/>
<path d="M129.51 215.57C129.83 214.96 129.64 214.03 129.33 213.41C128.86 212.49 127.66 211.82 127.1 211.63C125.34 211.01 124.18 210.83 122.56 209.98C120.38 208.83 119.29 208.26 119.16 208.15C116.92 206.4 117.18 204.96 115.76 204.67C114.09 204.32 113.13 206.17 111.4 205.7C110.49 205.45 109.23 204.64 108.63 204.44C107.84 204.17 107.34 204.33 107.07 204.52C106.01 205.25 106.63 208.04 106.7 208.44C106.95 209.86 107.78 214.65 111.33 215.69C112.52 216.04 113.15 215.82 114.88 215.78C123.62 215.6 128.89 216.73 129.51 215.57Z" fill="#534741"/>
<path d="M96.63 207.61C94.92 207.96 95.08 208.65 95.32 211.56C95.42 212.7 95.4 215.74 95.41 215.9C95.58 219.88 111.98 220.31 113.39 217.68C113.7 217.1 113.56 216.4 113.53 216.25C113.24 214.85 112.41 213.79 110.68 212.78C108.4 211.44 108.46 210.73 107.72 209.46C107.28 208.71 106.22 206.71 105.61 206.62C103.78 206.36 102.81 208.69 100.71 208.73C98.73 208.77 97.86 207.36 96.63 207.61Z" fill="#736357"/>
<path d="M251.66 158.05L250.29 156.34C249.93 155.88 249.29 155.61 248.62 155.65C248.61 155.65 248.61 155.65 248.6 155.65L247.47 155.64C246.86 155.65 245.81 155.83 245.37 156.03L241.61 157.5C241.23 157.65 241.34 157.97 241.34 157.97C241.57 158.29 241.69 158.19 242.25 158.1L244.39 157.72L242.32 158.58C241.94 158.73 240.95 159.4 241 159.74C241 159.74 240.82 161.11 241.73 161.24L246.15 160.96C247.14 160.93 248.1 160.63 248.87 160.12C249.56 159.66 250.63 158.88 250.63 158.88C250.8 158.77 251.73 158.22 251.66 158.05Z" fill="#FFD29B"/>
<path d="M251.64 158.23C251.54 158.32 250.06 160.59 247.56 161.28C246.52 161.57 244.01 161.54 243.81 161.54C243.61 161.54 243.2 161.29 243.64 161.12C244.08 160.95 246.03 160.63 246.6 160.47C247.06 160.34 246.9 159.68 246.89 159.11C246.88 158.53 247.05 157.3 248.45 157.19C249.86 157.08 250.62 156.97 250.62 156.97L251.64 158.23Z" fill="#FFD29B"/>
<path d="M254.82 158.6L250.88 159.89L248.91 154.57L252.75 153L254.82 158.6Z" fill="#C7C7C7"/>
<path d="M151.37 79.4998C150.52 78.8198 149.42 78.6598 148.35 78.6098C148.71 77.5798 149.06 76.5498 149.42 75.5298C149.54 75.1998 149.17 74.7598 148.82 74.8998C146.64 75.7698 144.47 76.6398 142.29 77.4998C141.22 77.9298 140.15 78.3498 139.08 78.7798C138.39 79.0598 137.4 79.6098 136.55 79.5698C136.66 79.4298 136.77 79.2898 136.88 79.1398C137.93 78.4498 138.85 77.5998 139.48 76.4698C139.6 76.2598 139.7 76.0298 139.81 75.8098C140.76 74.8498 141.75 73.9198 142.8 73.0598C143.29 72.6298 142.6 71.9398 142.11 72.3398C141.7 72.6998 141.28 73.0298 140.86 73.3698C141.02 72.9598 141.19 72.5598 141.35 72.1498C142.81 71.3598 144.26 70.5598 145.72 69.7698C146.15 69.5398 145.99 68.8198 145.48 68.8298C144.59 68.8598 143.7 68.9498 142.82 69.0698C143.28 68.1998 143.77 67.3498 144.29 66.5098C145.25 64.9598 146.35 63.5298 147.41 62.0498C148.36 60.7198 149.24 59.2298 149.38 57.5698C149.44 56.8998 149.42 56.0098 148.94 55.4798C148.4 54.8698 147.62 55.0398 146.95 55.2898C145.36 55.8798 143.85 56.6698 142.41 57.5498C141.46 58.1398 140.53 58.7598 139.61 59.3998C139.59 59.3498 139.59 59.3098 139.57 59.2598C138.99 58.1498 137.6 57.9998 136.55 58.4398C135.25 58.9698 134.07 59.9698 132.92 60.7698C131.84 61.5198 130.77 62.2898 129.72 63.0798C130.1 61.7798 130.46 60.4698 130.79 59.1598C131.19 59.4098 131.67 59.5798 132.23 59.5998C134.25 59.6798 135.99 58.0898 137.19 56.6398C138.79 54.7198 139.98 52.4998 140.72 50.1098C140.78 49.9098 140.69 49.6398 140.5 49.5398C139.13 48.8398 137.77 48.8498 136.45 49.2698C137.36 48.0098 138.28 46.7598 139.2 45.5098C139.49 45.1198 138.93 44.5198 138.53 44.8098C136.47 46.2998 134.54 47.9498 132.71 49.6898C132.91 48.3998 133.09 47.1198 133.24 45.8198C133.29 45.3498 132.69 45.1998 132.39 45.4498C130.91 46.6898 130.12 48.4898 129.7 50.3398C129.49 51.2698 129.31 52.2598 129.2 53.2498C128.58 53.9198 127.97 54.6098 127.37 55.2998C127.21 55.0898 127.05 54.8998 126.88 54.6998C127.75 52.8998 128.61 51.0498 129.15 49.1398C129.67 47.2798 129.71 45.3598 128.96 43.5598C127.61 40.3398 124.34 38.3198 121.26 36.9898C117.41 35.3298 113.23 34.3398 109.09 33.7898C100.58 32.6798 91.73 33.7198 83.73 36.8998C80.9 38.0198 76.64 40.1998 78.08 43.9798C78.29 44.5398 78.62 45.0498 79.01 45.4998C78.38 46.1298 77.79 46.7898 77.23 47.4198C77.2 47.4498 77.17 47.4898 77.14 47.5298C76.76 47.7698 76.39 48.0198 76.04 48.2498C74.76 49.0998 73.51 49.9898 72.3 50.9398C72.27 50.9598 72.25 50.9798 72.22 50.9998C71.8 51.2498 71.37 51.4998 70.94 51.7398C70.08 52.2198 69.11 52.6798 68.1 52.5898C67.8 52.5598 67.51 52.4698 67.23 52.3498C67.07 51.9698 66.92 51.5898 66.75 51.2098C66.05 49.5998 65.35 47.9498 64.47 46.4298C63.82 45.3098 62.67 44.0598 61.25 44.5298C61 44.6098 60.8 44.8698 60.89 45.1398C61.4 46.7798 62.09 48.3498 62.92 49.8498C62.24 50.4298 61.69 51.2798 61.32 51.8898C60.7 52.8998 60.12 53.9298 59.57 54.9798C59.05 53.9798 58.43 53.0398 57.65 52.2198C57.07 51.6098 56.4 51.0798 55.68 50.6498C55.42 50.4898 55.02 50.6198 54.94 50.9398C54.63 52.2398 55.02 53.4498 55.53 54.6398C56.1 55.9498 56.72 57.2498 57.31 58.5498C57.42 58.7898 57.53 59.0298 57.64 59.2698C57.12 60.6698 56.7 62.0998 56.41 63.5598C55.89 66.2198 55.82 68.9898 56.33 71.6598C54.6 71.5098 52.87 71.3798 51.14 71.3098C49.76 71.2598 48.37 71.2298 46.99 71.2298C46.45 71.2298 46.27 72.0998 46.84 72.2098C50.16 72.8798 53.52 73.4998 56.9 73.8998C57.02 74.2698 57.14 74.6398 57.29 74.9998C57.65 75.8898 58.08 76.7498 58.59 77.5598C59.04 78.2598 59.55 79.0898 60.36 79.3998C62.5 80.2098 62.37 76.7898 62.43 75.6298C62.45 75.1898 62.45 74.7498 62.46 74.2998C63.17 74.3198 63.89 74.3098 64.6 74.2898C65.86 76.9798 67.13 79.6598 68.41 82.3398C69.61 84.8398 70.92 87.3398 72.95 89.2798C73.26 89.5798 73.79 89.3798 73.81 88.9398C73.85 87.8998 73.87 86.8598 73.88 85.8098C75.54 87.2498 77.43 88.4398 79.56 89.0098C80.7 89.3198 81.91 89.4598 83.09 89.3598C83.65 89.3098 84.2 89.2198 84.74 89.0698C84.96 89.0098 85.26 88.9598 85.45 88.8298C85.7 88.6598 85.75 88.3398 85.83 88.0598C86.09 87.2298 86.34 86.3998 86.6 85.5698C86.76 85.9498 86.95 86.3098 87.25 86.5798C87.9 87.1598 88.71 87.0598 89.49 86.7298C92.19 88.3698 95.77 88.4498 98.81 88.2798C102.01 88.0998 105.27 87.3998 108.05 85.7398C108.99 85.1798 110.08 84.4398 110.88 83.5598C111.03 83.6398 111.17 83.7298 111.32 83.7998C113.98 84.9998 117.03 84.9198 119.86 84.5098C123.54 83.9698 127.19 82.9398 130.71 81.7398C132.17 81.2398 133.76 80.7398 135.24 80.0498C135.28 80.1498 135.34 80.2398 135.43 80.2898C136.38 80.7898 137.34 80.5398 138.3 80.1698C139.49 79.7098 140.67 79.2298 141.85 78.7498C143.94 77.9198 146.02 77.0898 148.11 76.2498C147.8 77.1498 147.49 78.0498 147.17 78.9398C147.06 79.2498 147.33 79.5698 147.64 79.5798C148.56 79.5998 149.58 79.5998 150.41 80.0498C151.12 80.4398 151.66 81.2298 151.41 82.0498C151.22 82.6698 152.18 82.9498 152.37 82.3298C152.71 81.2698 152.23 80.1798 151.37 79.4998ZM139.74 73.4498C139.59 73.8398 139.43 74.2198 139.27 74.5998C137.7 75.7398 136.06 76.7698 134.34 77.6598C132.96 78.3698 131.53 79.0298 130.06 79.5398C128.8 79.9698 127.38 80.3098 126.1 79.8398C127.09 78.5598 128.19 77.3798 129.4 76.3098C131.35 77.0998 133.76 76.1898 135.57 75.2598C137.05 74.4998 138.51 73.7098 139.97 72.9198C139.9 73.0898 139.82 73.2698 139.74 73.4498ZM130.3 75.5498C133.43 73.0298 137.15 71.2498 141.08 70.3998C140.92 70.7298 140.77 71.0698 140.62 71.3998C139.1 72.2198 137.58 73.0398 136.06 73.8598C134.52 74.6898 132.19 75.9698 130.3 75.5498ZM145.36 57.0698C145.76 56.8698 146.17 56.6898 146.58 56.5098C146.91 56.3698 147.75 55.8998 148.11 56.0598C148.49 56.2198 148.44 57.0298 148.42 57.3598C148.4 57.8398 148.29 58.3198 148.13 58.7798C147.53 60.5198 146.25 61.9598 145.19 63.4298C143.85 65.2898 142.68 67.2498 141.64 69.2898C137.1 70.1298 132.81 72.1598 129.27 75.1198C129.24 75.0998 129.21 75.0698 129.18 75.0498C131.14 72.3798 133.1 69.7098 135.06 67.0298C136.08 65.6398 137.1 64.2398 138.12 62.8498C138.57 62.2398 139.33 61.4498 139.63 60.6098C141.48 59.3298 143.34 58.0698 145.36 57.0698ZM134.77 60.7298C135.64 60.1398 137.02 58.8398 138.15 59.2698C138.6 59.4398 138.74 59.7298 138.71 60.0498C137.09 61.1798 135.47 62.2998 133.74 63.2598C132.69 63.8498 130.91 64.9298 129.61 64.4398C130.27 63.9198 130.93 63.4098 131.61 62.9298C132.65 62.1798 133.71 61.4498 134.77 60.7298ZM110.7 82.1598C110.69 82.1898 110.66 82.2098 110.65 82.2298C110.38 82.0398 110.11 81.8498 109.88 81.6198C110.09 81.5298 110.29 81.4398 110.5 81.3498C110.72 81.5998 110.83 81.8798 110.7 82.1598ZM89.72 85.4398C89.66 85.4698 89.6 85.5098 89.54 85.5498C88.36 84.6798 87.52 83.4798 87.01 82.1298C89.46 82.6098 91.99 82.4298 94.43 81.8198C94.22 82.0298 94.01 82.2398 93.79 82.4398C92.55 83.5898 91.19 84.5998 89.72 85.4398ZM72.63 78.5898C72.76 80.1998 72.84 81.8198 72.87 83.4298C71.7 82.2098 70.64 80.9098 69.71 79.6998C68.69 78.3698 67.74 76.9998 66.85 75.5798C66.57 75.1398 66.31 74.6798 66.05 74.2198C66.38 74.1998 66.71 74.1698 67.04 74.1498C68.79 74.4798 70.55 74.8698 72.29 75.3298C72.43 76.4198 72.54 77.4998 72.63 78.5898ZM61.5 73.2598C60.22 73.2098 58.93 73.1098 57.65 72.9698C57.63 72.8998 57.61 72.8398 57.59 72.7698C58.9 72.8998 60.2 73.0498 61.5 73.2298C61.5 73.2498 61.5 73.2498 61.5 73.2598ZM60.6 63.2598C60.11 62.1998 59.61 61.1398 59.12 60.0798C58.99 59.7898 58.86 59.5098 58.73 59.2198C58.97 58.5998 59.24 57.9798 59.51 57.3798C59.74 58.0398 59.95 58.6998 60.12 59.3698C60.41 60.5298 60.64 61.7198 60.83 62.9098C60.75 63.0198 60.67 63.1398 60.6 63.2598ZM71.66 52.7298C72.02 52.4398 72.38 52.1498 72.74 51.8698C73.34 51.5298 73.93 51.1998 74.53 50.8698C74.31 51.1798 74.08 51.4798 73.87 51.7998C73.05 52.4398 72.26 53.1298 71.54 53.9198C70.65 54.8898 69.84 55.9698 69.04 57.0598C68.86 56.5498 68.68 56.0498 68.5 55.5398C69.52 54.5698 70.58 53.6298 71.66 52.7298ZM94.4 46.3598C96.02 47.2798 97.8 47.8198 99.66 47.9598C101.23 48.0698 102.79 47.9398 104.33 47.6898C104.39 47.8898 104.43 48.0898 104.48 48.2998C100.34 49.0498 96.12 49.3298 91.96 49.0498C91.94 49.0498 91.92 49.0498 91.9 49.0398C91.96 47.7298 91.63 46.4198 90.52 45.5798C91.13 45.3998 91.74 45.2298 92.35 45.0698C93.03 45.4998 93.7 45.9598 94.4 46.3598ZM93.64 44.7098C96.07 44.1098 98.82 43.5698 101.22 44.3398C102.54 44.7598 103.4 45.6298 103.95 46.7098C100.99 47.1598 97.98 47.1498 95.26 45.6898C94.71 45.3898 94.18 45.0598 93.64 44.7098ZM106.22 76.1798C106.43 77.0498 106.65 77.9398 106.96 78.7898C106.07 78.6398 105.17 78.5598 104.27 78.5098C103.58 78.4698 102.88 78.4598 102.19 78.4398C103.56 77.5998 104.87 76.6598 106.11 75.6398C106.15 75.8198 106.18 75.9998 106.22 76.1798ZM102.9 76.7998C102.06 77.3698 101.17 77.8998 100.27 78.3998C99.66 78.3998 99.05 78.3998 98.44 78.4198C98.54 78.2598 98.64 78.1098 98.74 77.9598C101.15 74.0098 102.82 68.5798 101.78 63.9498C102.17 63.1298 102.55 62.3098 102.91 61.4798C103.11 61.0198 103.31 60.5498 103.49 60.0798C104.69 61.0498 104.68 63.0298 104.71 64.4398C104.79 67.8298 105.18 71.2198 105.87 74.5398C104.93 75.3398 103.93 76.0998 102.9 76.7998ZM85.41 79.4398C85.42 79.6198 85.44 79.7998 85.46 79.9698C85.14 80.0398 84.83 80.1198 84.51 80.1898C84.45 80.1398 84.39 80.0998 84.34 80.0498C84.7 79.8498 85.06 79.6498 85.41 79.4398ZM67.11 73.1698C66.54 73.0598 65.97 72.9598 65.4 72.8598C65.21 72.3998 65.04 71.9198 64.94 71.4298C64.43 69.1098 65.43 67.0698 66.93 65.4398C67.61 65.9598 68.38 66.3698 69.12 66.7098C69.74 66.9998 70.37 67.2698 70.99 67.5398C71.34 69.1598 71.64 70.7998 71.9 72.4398C71.89 72.4398 71.88 72.4498 71.86 72.4498C70.29 72.7998 68.7 73.0298 67.11 73.1698ZM68.66 59.2298C68.68 59.2198 68.7 59.2098 68.72 59.1998C68.88 59.6798 69.04 60.1598 69.18 60.6398C69.32 61.0998 69.45 61.5698 69.59 62.0298C69.48 62.0998 69.37 62.1598 69.27 62.2298C68.44 62.7698 67.63 63.3698 66.89 64.0498C66.45 63.5798 66.17 63.0598 66.08 62.5298C67 61.4798 67.84 60.3598 68.66 59.2298ZM76.87 49.6398C78.12 49.0298 79.39 48.4698 80.67 47.9398C80.7 47.9598 80.72 47.9898 80.75 48.0198C79.91 48.3598 79.08 48.7198 78.26 49.0998C77.6 49.4098 76.97 49.7398 76.35 50.0998C76.43 49.9898 76.51 49.8798 76.6 49.7798C76.69 49.7398 76.78 49.6798 76.87 49.6398ZM90.92 48.2798C90.94 48.4998 90.95 48.7198 90.94 48.9298C89.2 48.7598 87.47 48.4698 85.79 47.9898C85.39 47.8798 84.99 47.7598 84.59 47.6298C86.1 47.0598 87.62 46.5098 89.15 45.9998C90.1 46.3498 90.8 47.0798 90.92 48.2798ZM105.56 52.5398C105.57 52.4398 105.59 52.3498 105.6 52.2498C105.72 51.2198 105.75 50.1098 105.64 49.0398C105.82 48.9998 106 48.9698 106.18 48.9298C106.43 50.1098 106.11 51.3698 105.56 52.5398ZM129.19 56.1798C129.25 56.7298 129.39 57.2598 129.61 57.7398C129.41 58.0798 129.21 58.4198 129.02 58.7698C128.88 58.1598 128.68 57.5598 128.41 56.9798C128.52 56.8598 128.63 56.7398 128.74 56.6298C128.89 56.4798 129.04 56.3298 129.19 56.1798ZM128.25 60.2798C128.2 60.3798 128.16 60.4798 128.11 60.5798C127.45 60.0098 126.63 59.8698 125.79 59.8598C126.39 59.1598 127.01 58.4698 127.65 57.7998C127.96 58.5798 128.16 59.4198 128.25 60.2798ZM117.11 62.9098C113.98 60.8598 110.12 59.8598 106.43 59.2998C106.6 59.2798 106.77 59.2398 106.94 59.2198C108.79 59.0298 110.61 59.4498 112.41 59.8298C115.69 60.5298 119.03 60.8998 122.39 60.9198C121.81 61.8598 121.21 62.7898 120.58 63.6998C120.26 64.1698 119.92 64.6198 119.58 65.0798C118.89 64.2598 118.04 63.5198 117.11 62.9098ZM99.54 74.1998C98.93 75.6998 98.14 77.1398 97.22 78.4798C96.36 78.5198 95.51 78.5598 94.65 78.6298C95.99 75.8298 97.33 73.0398 98.69 70.2598C99.47 68.6698 100.26 67.0898 101.04 65.4998C101.35 68.4398 100.64 71.5098 99.54 74.1998ZM78.84 70.1998C78.29 69.9098 77.73 69.6098 77.17 69.3198C77.16 68.8298 77.17 68.3398 77.21 67.8598C77.32 66.6398 77.62 65.4298 78.07 64.2898C78.47 63.2998 79.01 62.1698 79.86 61.4698C80.53 61.3998 81.2 61.3198 81.87 61.2398C81.9 62.5198 81.94 63.8098 81.97 65.0898C81.97 65.0998 81.98 65.1098 81.98 65.1298C81.86 65.6798 81.73 66.2298 81.58 66.7598C81.34 67.6498 81.05 68.5198 80.73 69.3798C80.11 69.6698 79.47 69.9398 78.84 70.1998ZM71.84 66.8098C71.52 65.3598 71.16 63.9098 70.76 62.4698C71.34 62.1198 71.92 61.7898 72.52 61.4898C73.79 62.0098 75.23 61.9298 76.57 61.8098C77.19 61.7598 77.81 61.6898 78.42 61.6298C77.98 62.2198 77.62 62.8698 77.36 63.4298C76.59 65.1298 76.19 66.9798 76.17 68.8398C74.74 68.1298 73.3 67.4498 71.84 66.8098ZM70.71 66.3198C69.65 65.8698 68.59 65.3898 67.67 64.6998C67.88 64.5098 68.09 64.3298 68.3 64.1498C68.8 63.7498 69.33 63.3798 69.88 63.0198C70.18 64.1098 70.45 65.2098 70.71 66.3198ZM71.84 57.7698C74.99 56.5098 78.33 55.7198 81.72 55.4198C81.74 56.0498 81.75 56.6698 81.77 57.2998C78.56 57.9198 75.44 58.9298 72.51 60.3898C72.33 60.2798 72.16 60.1498 72.02 59.9898C71.47 59.3698 71.48 58.5798 71.69 57.8398C71.73 57.8198 71.78 57.7898 71.84 57.7698ZM93.87 56.7498C93.89 56.7598 93.91 56.7698 93.93 56.7798C92.36 56.6198 90.79 56.5498 89.21 56.5598C89.37 56.2498 89.55 55.9598 89.7 55.6398C91.12 55.8798 92.52 56.2298 93.87 56.7498ZM94.16 70.9998C94.56 69.4998 95.12 68.0098 95.81 66.5698C95.99 66.3498 96.17 66.1398 96.35 65.9198C96.15 67.1298 95.93 68.3298 95.7 69.5098C95.16 72.2698 94.48 75.0098 93.69 77.7098C93.23 75.5098 93.6 73.0798 94.16 70.9998ZM98.51 59.7898C98.65 59.9398 98.79 60.0798 98.92 60.2298C98.62 60.4498 98.32 60.6898 98.02 60.9098H98.01C97.99 60.9198 97.98 60.9198 97.96 60.9298C97.97 60.7698 97.98 60.5998 97.99 60.4398C97.99 60.1998 97.95 59.9798 97.89 59.7798C98.1 59.7898 98.31 59.7998 98.51 59.7898ZM97.45 58.8098C97.33 58.8098 97.21 58.8198 97.09 58.8198C96.75 58.6598 96.32 58.6398 95.85 58.7798C95.77 58.8098 95.69 58.8398 95.61 58.8798C94.71 58.9298 93.82 58.9798 92.92 59.0498C91.09 59.1998 89.26 59.3898 87.43 59.5998C87.86 58.9298 88.28 58.2598 88.66 57.5598C91.29 57.5098 93.92 57.6998 96.52 58.1298C96.85 58.3398 97.16 58.5698 97.45 58.8098ZM74.12 60.8598C74.05 60.8498 73.98 60.8398 73.91 60.8298C74.72 60.4698 75.54 60.1298 76.35 59.8298C78.12 59.1898 79.94 58.6898 81.78 58.3198C81.79 58.8798 81.81 59.4498 81.82 60.0098C80.95 59.7298 80.16 59.9998 79.47 60.5298C77.72 60.7398 75.88 61.0498 74.12 60.8598ZM83.18 61.0998C83.93 61.0098 84.67 60.9198 85.42 60.8298C84.95 61.4798 84.46 62.1098 83.95 62.7198C83.73 62.9798 83.49 63.2198 83.27 63.4698C83.28 63.3898 83.3 63.3098 83.31 63.2298C83.42 62.4998 83.47 61.7198 83.18 61.0998ZM82.84 60.1398C82.82 59.4698 82.8 58.7998 82.79 58.1198C83.65 57.9698 84.52 57.8398 85.39 57.7498C86.1 57.6798 86.81 57.6298 87.53 57.5898C87.1 58.3198 86.65 59.0398 86.18 59.7398C85.06 59.8798 83.95 60.0098 82.84 60.1398ZM88.08 56.5898C86.3 56.6498 84.52 56.8198 82.76 57.1198C82.74 56.5298 82.73 55.9398 82.71 55.3498C82.96 55.3398 83.2 55.3198 83.45 55.3098C85.18 55.2398 86.93 55.2898 88.66 55.4998C88.48 55.8598 88.27 56.2298 88.08 56.5898ZM71.54 60.8998C71.18 61.0898 70.83 61.2898 70.48 61.4998C70.21 60.5798 69.93 59.6698 69.63 58.7598C69.95 58.5998 70.27 58.4498 70.59 58.2998C70.51 59.2898 70.8 60.2398 71.54 60.8998ZM82.43 67.4798C82.63 66.7598 82.81 66.0398 82.96 65.3098C84.35 63.8598 85.62 62.3098 86.76 60.6698C89.14 60.3898 91.53 60.1398 93.92 59.9798C93.4 60.3698 92.88 60.7598 92.36 61.1498C89.95 63.0098 87.64 64.9898 85.42 67.0798C85.38 67.1198 85.34 67.1598 85.3 67.1998C84.21 67.7498 83.11 68.2898 82 68.8098C82.15 68.3698 82.3 67.9298 82.43 67.4798ZM90.79 63.6798C91.88 62.7798 92.99 61.9098 94.12 61.0698C94.64 60.6798 95.16 60.2398 95.73 59.9298C95.76 59.9098 95.8 59.8898 95.84 59.8798C96.18 59.8598 96.52 59.8498 96.87 59.8398C97.03 60.0398 97.01 60.3698 96.99 60.6198C96.97 60.8798 96.94 61.1498 96.92 61.4098C94.37 62.5398 91.88 63.7998 89.41 65.0798C89.21 65.1898 89 65.2898 88.8 65.3998C89.46 64.8198 90.11 64.2398 90.79 63.6798ZM94.94 66.0498C92.71 68.7898 90.57 71.6098 88.79 74.6698C88.31 75.4898 87.87 76.3298 87.45 77.1798C87.51 76.5898 87.33 75.9998 86.99 75.5098C86.95 75.4598 86.91 75.4098 86.87 75.3598C87.5 73.2698 88.68 71.3398 90.07 69.6398C91.92 67.3898 94.11 65.3698 96.37 63.4898C95.85 64.3098 95.37 65.1698 94.94 66.0498ZM93.61 69.3498C93.54 69.5698 93.46 69.7798 93.4 69.9998C92.57 72.7898 92.07 75.9598 92.95 78.7998C91.11 78.9898 89.28 79.2598 87.46 79.5898C89 75.9098 91.19 72.5298 93.61 69.3498ZM98.16 69.0798C97.32 70.7898 96.5 72.5098 95.68 74.2198C96.03 72.7898 96.36 71.3598 96.65 69.9098C96.96 68.3398 97.22 66.7698 97.45 65.1898C97.48 64.9598 97.52 64.7298 97.55 64.4898C98.34 63.5698 99.13 62.6398 99.92 61.7198C100.22 62.2698 100.49 62.8498 100.67 63.4798C100.7 63.5898 100.72 63.7098 100.75 63.8198C99.9 65.5898 99.02 67.3298 98.16 69.0798ZM100.63 60.9598C101.1 60.7798 101.57 60.5998 102.05 60.4398C102.13 60.4098 102.21 60.3898 102.28 60.3598C101.98 61.0698 101.68 61.7798 101.36 62.4898C101.17 61.9698 100.91 61.4598 100.63 60.9598ZM118.44 59.7598C116.55 59.5898 114.67 59.2998 112.82 58.9098C111.05 58.5298 109.26 58.0998 107.44 58.1898C106.26 58.2498 105.11 58.4998 103.98 58.8198C104.17 58.2898 104.36 57.7498 104.53 57.2098C105.5 56.7198 106.52 56.3198 107.61 56.0398C111.84 54.9698 116.25 56.7998 120.03 58.5998C120.9 59.0098 121.76 59.4498 122.61 59.9198C121.21 59.9198 119.82 59.8798 118.44 59.7598ZM104.71 50.5798C104.68 52.0298 104.47 53.4698 104.13 54.8798C104.09 54.9398 104.05 54.9998 104.01 55.0498C103.39 55.8898 102.75 56.6998 102.09 57.5098C101.81 57.7098 101.53 57.9098 101.26 58.1198C100.23 57.8498 99.2 57.5998 98.16 57.3998C97.75 57.3198 97.33 57.2498 96.92 57.1798C94.88 55.8898 92.52 55.1298 90.14 54.7198C90.83 53.2498 91.48 51.6998 91.78 50.1298C91.79 50.0998 91.79 50.0598 91.8 50.0298C94.92 50.2598 98.08 50.1198 101.18 49.7598C102.34 49.6298 103.5 49.4498 104.65 49.2498C104.69 49.6798 104.72 50.1298 104.71 50.5798ZM89.68 53.2598C89.5 53.6998 89.28 54.1198 89.09 54.5598C89.04 54.5498 88.99 54.5398 88.94 54.5398C86.87 54.2798 84.77 54.2198 82.68 54.3498C82.68 54.1698 82.67 53.9898 82.67 53.8098C82.63 52.2898 82.73 50.6898 82.43 49.1898C82.39 48.9698 82.32 48.7498 82.24 48.5398C82.54 48.4198 82.84 48.3098 83.14 48.1998C84.6 48.7898 86.15 49.1998 87.68 49.4998C88.72 49.6998 89.76 49.8498 90.81 49.9598C90.59 51.0798 90.11 52.2198 89.68 53.2598ZM83.11 47.0998C83.06 47.0798 83.02 47.0498 82.97 47.0298C83.99 46.6398 85.05 46.2298 86.13 45.9898C85.13 46.3498 84.12 46.7198 83.11 47.0998ZM75.73 51.6298C77.47 50.4998 79.35 49.6698 81.27 48.9098C81.8 50.3798 81.63 52.6998 81.66 53.7798C81.67 53.9898 81.67 54.1998 81.68 54.4198C80.03 54.5698 78.39 54.8198 76.78 55.1898C75.22 55.5498 73.69 56.0098 72.19 56.5798C72.86 55.1498 73.72 53.7798 74.62 52.4598C74.98 52.1698 75.34 51.8798 75.73 51.6298ZM70.88 57.0898C70.58 57.2098 70.27 57.3398 69.96 57.4798C70.08 57.3098 70.21 57.1398 70.33 56.9798C70.77 56.3998 71.23 55.8398 71.7 55.2798C71.38 55.8698 71.1 56.4698 70.88 57.0898ZM72.1 68.0398C73.03 68.4498 73.96 68.8598 74.87 69.2998C75.32 69.5198 75.75 69.7498 76.19 69.9698C76.21 70.3398 76.25 70.6998 76.3 71.0698C76.3 71.0998 76.31 71.1298 76.32 71.1598C75.18 71.5598 74.03 71.8998 72.86 72.1898C72.65 70.7998 72.39 69.4198 72.1 68.0398ZM78.75 71.2898C79.07 71.4598 79.4 71.6398 79.72 71.8198C79.31 72.6898 78.87 73.5398 78.38 74.3698C77.98 73.5398 77.68 72.6698 77.47 71.7798C77.9 71.6198 78.32 71.4498 78.75 71.2898ZM81.02 71.3998C81.2 70.9798 81.37 70.5498 81.53 70.1198C82.06 69.8798 82.58 69.6398 83.11 69.3898C82.44 70.0698 81.77 70.7498 81.11 71.4498C81.08 71.4298 81.05 71.4098 81.02 71.3998ZM85.95 67.9798C88.93 66.4698 91.89 64.8698 94.9 63.4198C92.73 65.2698 90.65 67.2698 88.91 69.4898C87.72 70.9998 86.73 72.6898 86.09 74.4998C85.04 73.5598 83.65 72.8998 82.48 72.2198C82.32 72.1298 82.15 72.0398 81.99 71.9398C83.27 70.5798 84.6 69.2698 85.95 67.9798ZM87.03 80.6898C89.11 80.2898 91.2 79.9798 93.31 79.7698C93.32 79.7998 93.33 79.8298 93.34 79.8498C93.51 80.2198 93.71 80.5698 93.94 80.8998C92.43 81.2498 90.9 81.4398 89.34 81.3898C88.5 81.3598 87.69 81.2198 86.89 81.0398C86.93 80.9198 86.98 80.8098 87.03 80.6898ZM94.99 80.6398C94.9 80.5198 94.8 80.4098 94.72 80.2898C94.59 80.0898 94.49 79.8698 94.38 79.6598C95.07 79.5998 95.77 79.5598 96.46 79.5198C96.23 79.8198 95.99 80.1098 95.74 80.3998C95.49 80.4798 95.24 80.5698 94.99 80.6398ZM112.91 61.9698C115.06 62.7698 117.53 63.9898 119.02 65.8798C118.92 66.0098 118.84 66.1398 118.74 66.2698C118.35 66.7898 119.21 67.2998 119.59 66.7898C119.6 66.7798 119.6 66.7698 119.61 66.7598C119.66 66.8398 119.7 66.9198 119.74 66.9998C119.5 67.4898 119.29 67.9998 119.08 68.4998C118.88 67.9098 118.61 67.3398 118.25 66.8298C116.9 64.8898 114.78 63.6998 112.74 62.6298C111.47 61.9598 110.18 61.3498 108.87 60.7798C110.24 61.0898 111.59 61.4798 112.91 61.9698ZM127.73 61.6398C127.67 61.8698 127.63 62.0898 127.6 62.3198C127.19 61.8198 126.69 61.3698 126.18 60.9898C126.12 60.9498 126.05 60.9098 125.99 60.8598C126.66 60.8898 127.33 61.0598 127.73 61.6398ZM124.57 69.5698C124.04 70.1698 123.47 70.7398 122.88 71.2898C123.94 69.7898 125.15 68.4198 126.48 67.1498C125.9 67.9998 125.24 68.8198 124.57 69.5698ZM130.47 56.3398C130.41 56.4298 130.36 56.5198 130.3 56.6198C130.21 56.1898 130.17 55.7098 130.16 55.2198C130.39 54.9898 130.63 54.7598 130.87 54.5298C130.74 55.1298 130.6 55.7298 130.47 56.3398ZM120.64 57.7898C116.84 55.9698 112.42 54.0998 108.13 54.8998C107.01 55.1098 105.93 55.4698 104.89 55.9298C104.94 55.7298 104.99 55.5298 105.04 55.3298C106.36 53.4798 107.64 50.9998 107.17 48.7198C107.7 48.5998 108.23 48.4698 108.76 48.3398C112.89 49.1098 117.03 50.1898 120.87 51.8098C122.63 52.5498 124.34 53.5398 125.71 54.8898C124.99 56.3598 124.23 57.7998 123.41 59.2198C122.49 58.7098 121.56 58.2398 120.64 57.7898ZM107.33 47.0798C108.67 46.7698 110 46.4398 111.33 46.1598C112.23 45.9698 113.14 45.8098 114.06 45.6898C112.33 46.3198 110.55 46.8698 108.75 47.3398C108.28 47.2398 107.81 47.1598 107.33 47.0798ZM89.19 44.9398C88.11 44.6598 86.91 44.7998 85.85 45.0498C84.46 45.3798 83.09 45.8798 81.75 46.4198C81.37 46.1998 80.99 45.9598 80.64 45.6798C80.58 45.6298 80.52 45.5698 80.45 45.5198C81.57 44.4898 82.81 43.5698 84.23 43.0398C86.1 42.3398 87.98 42.5498 89.73 43.4398C90.25 43.6998 90.74 44.0098 91.23 44.3198C90.55 44.5098 89.87 44.7198 89.19 44.9398ZM68.34 58.0298C68.26 58.1398 68.18 58.2498 68.1 58.3598C67.38 58.7498 66.69 59.1898 66.12 59.7398C65.41 60.4298 65.02 61.3198 65.02 62.2398C64.13 63.1998 63.17 64.0798 62.07 64.7998C62 64.2498 61.92 63.6898 61.83 63.1398C62.1 62.7498 62.39 62.3898 62.65 62.0498C63.53 60.8998 64.46 59.7798 65.43 58.6998C66.17 57.8698 66.94 57.0798 67.73 56.2998C67.94 56.8798 68.14 57.4598 68.34 58.0298ZM62.18 65.9098C63.32 65.2198 64.32 64.3598 65.25 63.4098C65.3 63.5298 65.34 63.6498 65.41 63.7598C65.61 64.1298 65.87 64.4598 66.16 64.7598C65.62 65.3298 65.15 65.9598 64.76 66.6398C64.11 67.7798 63.82 68.9898 63.83 70.2198C63.3 69.0998 62.78 67.9698 62.26 66.8398C62.24 66.5298 62.22 66.2198 62.18 65.9098ZM63.81 72.5698C63.38 72.4998 62.95 72.4498 62.52 72.3898C62.52 71.4798 62.49 70.5698 62.45 69.6598C62.91 70.6198 63.36 71.5998 63.81 72.5698ZM70.11 73.7898C70.76 73.6798 71.4 73.5398 72.04 73.3998C72.08 73.6998 72.13 73.9898 72.17 74.2898C71.48 74.1098 70.8 73.9398 70.11 73.7898ZM73.01 73.1698C74.2 72.8698 75.36 72.5098 76.52 72.1098C76.88 73.6498 77.54 75.0998 78.42 76.3998C76.73 75.6598 74.99 75.0598 73.21 74.5598C73.14 74.0998 73.07 73.6298 73.01 73.1698ZM78.95 75.3598C79.72 74.4598 80.51 73.5698 81.31 72.6998C82.07 73.1398 82.83 73.5698 83.58 74.0298C84.34 74.4898 85.15 74.9498 85.77 75.5998C85.54 76.4798 85.41 77.3798 85.39 78.2998C84.79 78.6798 84.16 79.0298 83.53 79.3698C82.66 78.6998 81.73 78.0898 80.77 77.5598C80.68 77.5098 80.58 77.4598 80.49 77.4098C79.9 76.7998 79.4 76.0998 78.95 75.3598ZM96.31 81.2698C97.79 80.7698 99.21 80.1298 100.55 79.3998C101.63 79.3998 102.7 79.4298 103.78 79.4798C104.98 79.5398 106.23 79.6098 107.41 79.8798C107.62 80.3098 107.85 80.7398 108.12 81.1298C108.14 81.1598 108.17 81.1898 108.19 81.2198C107.1 81.6198 105.99 81.9498 104.86 82.1898C102.13 82.7798 98.42 83.2998 96 81.5898C96.11 81.4898 96.22 81.3798 96.31 81.2698ZM110.64 80.1898C110.19 79.8698 109.7 79.6098 109.3 79.4398C108.93 79.2798 108.55 79.1598 108.17 79.0498C108.09 78.8698 108.01 78.6998 107.94 78.5198C107.52 77.3498 107.22 76.1298 106.96 74.9098C108.1 73.9098 109.17 72.8398 110.17 71.7098C110.71 72.2698 111.45 72.7098 112.08 73.0898C113.75 74.0998 115.64 74.9598 117.54 75.2498C116.73 76.0898 115.84 76.8398 115.02 77.4798C113.66 78.5298 112.18 79.4398 110.64 80.1898ZM110.41 69.8798C110.47 69.2098 111.05 68.6298 111.72 68.1698C111.29 68.7598 110.86 69.3298 110.41 69.8798ZM115.42 73.6698C114.43 73.2798 113.5 72.7698 112.59 72.2298C112.03 71.8898 111.26 71.5198 110.79 70.9798C111.82 69.7498 112.78 68.4498 113.64 67.0898C113.85 66.7498 113.51 66.1798 113.09 66.3498C111.69 66.8998 110 67.8298 109.51 69.3698C109.32 69.9498 109.38 70.4498 109.58 70.8898C108.69 71.9098 107.73 72.8798 106.73 73.7898C106.66 73.4098 106.59 73.0298 106.52 72.6498C106.16 70.5698 105.91 68.4798 105.8 66.3698C105.7 64.5398 105.94 62.4898 105.2 60.7698C105.13 60.6098 105.05 60.4598 104.96 60.3198C108.09 61.4198 111.16 62.7898 114.01 64.4798C115.44 65.3298 116.87 66.3598 117.71 67.8298C118.15 68.6098 118.41 69.4998 118.42 70.3898C118.19 71.0998 117.99 71.8198 117.83 72.5498C117.71 73.0798 118.43 73.4598 118.74 72.9498C119.18 72.2198 119.39 71.3998 119.42 70.5798C119.67 69.8298 119.94 69.0898 120.26 68.3698C120.77 70.5898 119.78 72.6398 118.35 74.3798C117.33 74.2898 116.35 74.0298 115.42 73.6698ZM121.03 71.5498C121.54 69.9498 121.39 68.4498 120.82 67.0998C121.82 65.1098 123.05 63.2298 124.43 61.4598C124.51 61.3598 124.59 61.2698 124.67 61.1798C124.9 61.3298 125.13 61.4698 125.35 61.6298C126.05 62.1198 126.76 62.7098 127.2 63.4598C127.46 63.9098 127.57 64.3698 127.57 64.8298C127.12 65.2098 126.67 65.5998 126.23 65.9998C123.93 68.1098 121.9 70.5298 120.45 73.3198C120.31 73.5998 120.48 73.9798 120.75 74.0798C120.37 74.2098 119.99 74.2998 119.61 74.3498C120.22 73.4698 120.72 72.5398 121.03 71.5498ZM124.46 71.1198C123.64 72.2098 122.64 73.1898 121.41 73.7798C122.49 72.9698 123.51 72.0898 124.46 71.1198ZM139.64 50.2398C139.08 51.9098 138.3 53.4898 137.28 54.9298C136.26 56.3698 134.95 57.9598 133.18 58.4698C132.2 58.7498 131.53 58.5898 131.06 58.1598C131.17 57.6998 131.27 57.2398 131.37 56.7798C132.6 54.7798 133.92 52.8298 135.28 50.9098C136.65 50.1498 138.19 49.6798 139.64 50.2398ZM134.06 49.7998C134.78 49.1398 135.52 48.4998 136.27 47.8698C135.72 48.6198 135.18 49.3698 134.64 50.1298C133.87 50.5898 133.12 51.1498 132.42 51.7498C132.44 51.6098 132.46 51.4698 132.49 51.3298C133 50.8098 133.52 50.2898 134.06 49.7998ZM130.61 51.0098C130.87 49.6898 131.3 48.4098 132.06 47.3298C131.91 48.5098 131.73 49.6898 131.54 50.8598C131.17 51.2298 130.8 51.6098 130.43 51.9898C130.5 51.6098 130.56 51.2698 130.61 51.0098ZM125.4 57.6898C125.76 57.0198 126.11 56.3598 126.44 55.6798C126.54 55.8098 126.65 55.9398 126.74 56.0798C126.29 56.6098 125.84 57.1498 125.4 57.6898ZM79.07 41.3698C79.73 39.8898 81.36 39.0098 82.77 38.3698C90.09 35.0998 98.42 33.8998 106.39 34.5298C110.4 34.8398 114.37 35.6498 118.19 36.9198C121.4 37.9998 124.8 39.4498 126.98 42.1598C128.03 43.4698 128.64 45.0698 128.58 46.7598C128.5 48.9098 127.52 50.9798 126.65 52.8998C126.5 53.2498 126.32 53.5798 126.16 53.9298C123.38 51.2998 119.36 50.0498 115.79 49.0098C114.17 48.5398 112.54 48.1298 110.89 47.7598C112.04 47.4198 113.17 47.0598 114.3 46.6498C115.35 46.2698 116.39 45.8498 117.42 45.4098C117.89 45.2098 117.65 44.4798 117.18 44.4698C113.38 44.4098 109.73 45.5298 106.05 46.3098C105.71 46.3798 105.36 46.4498 105.01 46.5098C104.75 45.9098 104.4 45.3598 103.93 44.8698C102.08 42.8998 99.16 42.7998 96.66 43.1298C95.26 43.3098 93.88 43.6098 92.51 43.9598C90.56 42.6598 88.55 41.4298 86.12 41.5898C83.65 41.7598 81.54 43.1198 79.73 44.7998C78.94 43.8398 78.52 42.6198 79.07 41.3698ZM69.28 53.4698C68.89 53.8198 68.5 54.1698 68.11 54.5398C67.98 54.2098 67.86 53.8698 67.72 53.5398C68.25 53.6198 68.77 53.5898 69.28 53.4698ZM62.07 45.4698C63.07 45.6398 63.74 47.1498 64.12 47.9298C64.34 48.3698 64.55 48.8198 64.76 49.2598C64.41 49.1798 64.08 49.2098 63.76 49.3298C63.09 48.0898 62.52 46.7998 62.07 45.4698ZM65.32 51.7798C64.96 51.2798 64.62 50.7698 64.3 50.2498C64.36 50.2398 64.42 50.2298 64.49 50.2398C65.04 50.2798 65.14 51.1698 65.32 51.7798ZM61.22 54.0298C61.69 53.1998 62.18 52.3598 62.71 51.5698C62.88 51.3198 63.13 50.9798 63.44 50.7098C64 51.6298 64.59 52.5298 65.26 53.3798C65.64 53.8598 66.28 53.2698 66.03 52.7798C66.17 52.8998 66.32 53.0098 66.48 53.1098C66.78 53.8398 67.07 54.5698 67.35 55.2998C66.58 56.0498 65.83 56.8198 65.1 57.6098C63.92 58.8998 62.8 60.2498 61.73 61.6398C61.7 61.6798 61.66 61.7298 61.63 61.7698C61.31 59.8898 60.85 57.9398 60.1 56.1398C60.46 55.4198 60.83 54.7098 61.22 54.0298ZM57.16 55.7998C56.63 54.6298 55.85 53.3098 55.83 51.9698C57.26 53.0298 58.27 54.4898 59 56.0998C58.7 56.7198 58.42 57.3498 58.16 57.9798C57.82 57.2498 57.49 56.5298 57.16 55.7998ZM57.2 64.8598C57.41 63.3898 57.78 61.9598 58.24 60.5498C58.84 61.8598 59.45 63.1798 60.06 64.4898C59.89 65.0798 59.83 65.6998 59.99 66.3598C60.07 66.6998 60.43 66.7998 60.72 66.6698C60.82 66.6298 60.9 66.5698 61 66.5298C61.11 66.7598 61.22 66.9998 61.33 67.2298C61.43 68.5398 61.5 69.8498 61.52 71.1498C61.53 71.5098 61.51 71.8798 61.51 72.2398C60.13 72.0498 58.74 71.8798 57.36 71.7498C56.89 69.4898 56.87 67.1298 57.2 64.8598ZM53.88 72.4698C54.77 72.5298 55.66 72.5798 56.55 72.6598C56.57 72.7198 56.58 72.7898 56.6 72.8498C55.69 72.7398 54.79 72.6098 53.88 72.4698ZM61.31 77.4098C61.28 77.7498 61.29 78.4698 60.84 78.4798C60.41 78.4898 60.01 77.8698 59.8 77.5598C59.3 76.8498 58.87 76.0898 58.5 75.2998C58.3 74.8798 58.13 74.4498 57.97 74.0098C59.14 74.1298 60.31 74.2098 61.49 74.2598C61.46 75.3098 61.4 76.3598 61.31 77.4098ZM67.91 78.9498C68.11 79.2198 68.3 79.4798 68.5 79.7398C69.84 81.5398 71.28 83.3098 72.89 84.8798C72.89 85.8098 72.88 86.7498 72.86 87.6798C71.55 86.1698 70.55 84.4098 69.67 82.6098C69.07 81.3898 68.49 80.1698 67.91 78.9498ZM84.83 87.9798C80.66 89.3198 76.94 87.2698 73.89 84.4198C73.86 81.4698 73.66 78.5298 73.33 75.6098C75.6 76.2698 77.81 77.1098 79.88 78.2198C80.57 78.9398 81.34 79.5798 82.16 80.1298C81.41 80.5598 80.66 80.9798 79.91 81.4098C79.43 81.6798 79.72 82.4998 80.28 82.3298C81.58 81.9398 82.89 81.6098 84.2 81.2998C84.61 81.6798 85 82.0798 85.36 82.4998C85.31 82.6798 85.24 82.8498 85.19 83.0298C85.13 83.2398 85.22 83.4898 85.41 83.5998C85.66 83.7498 85.85 83.9498 86 84.1898C85.61 85.4598 85.22 86.7198 84.83 87.9798ZM87.74 85.5898C87.57 85.3398 87.45 85.0598 87.33 84.7798C87.66 85.2198 88.05 85.6098 88.47 85.9798C88.2 85.9898 87.95 85.8998 87.74 85.5898ZM109.06 83.8298C106.6 85.8398 103.42 86.7998 100.31 87.1598C98.71 87.3398 97.09 87.3698 95.49 87.2798C93.81 87.1798 92.08 86.9198 90.56 86.1598C90.94 85.9198 91.29 85.6598 91.58 85.4698C92.94 84.5598 94.2 83.4998 95.34 82.3298C95.75 82.6398 96.19 82.9098 96.67 83.1198C98.49 83.8798 100.55 83.8198 102.47 83.6098C104.66 83.3698 106.81 82.8298 108.87 82.0498C109.22 82.4198 109.61 82.7398 110.02 83.0398C109.7 83.3298 109.34 83.6098 109.06 83.8298ZM119.99 83.4898C117.24 83.9298 114.07 84.0498 111.51 82.7598C111.52 82.7398 111.54 82.7098 111.56 82.6898C111.95 82.0298 111.8 81.4298 111.41 80.9198C112.1 80.5698 112.77 80.1998 113.43 79.7898C115.3 78.6198 117.3 77.1398 118.83 75.3498C120.25 75.3498 121.65 74.9798 122.96 74.0498C124.33 73.0698 125.38 71.7098 126.25 70.2898C126.33 70.1598 126.4 70.0298 126.47 69.8998C126.52 70.3498 127.26 70.4798 127.46 69.9598C128.04 68.4298 128.56 66.8798 129.06 65.3298C131.22 66.3298 134.68 63.9298 136.29 62.8898C136.67 62.6398 137.05 62.3898 137.42 62.1398C137.28 62.3298 137.13 62.5298 136.99 62.7198C136.07 63.9798 135.14 65.2398 134.22 66.4998C132.18 69.2898 130.14 72.0698 128.09 74.8598C127.96 75.0298 128.01 75.3198 128.16 75.4698C128.28 75.5898 128.4 75.6898 128.52 75.7898C127.19 76.9898 125.98 78.3098 124.91 79.7698C124.75 79.9798 124.86 80.3298 125.08 80.4598C126.46 81.2498 128.04 81.1698 129.53 80.7598C131.16 80.3098 132.75 79.5798 134.26 78.8298C135.28 78.3298 136.27 77.7598 137.24 77.1698C136.9 77.5698 136.57 77.9798 136.24 78.3898C134.78 79.2898 133.09 79.8698 131.49 80.4398C127.76 81.7498 123.89 82.8698 119.99 83.4898Z" fill="#F2F2F2"/>
<path fill-rule="evenodd" clip-rule="evenodd" d="M163.676 89.8836C157.522 87.2112 152.826 83.2107 150.603 80.3037L151.397 79.6963C153.507 82.456 158.062 86.3555 164.074 88.9664C170.077 91.573 177.495 92.8794 185.356 90.5211L185.644 91.4789C177.505 93.9206 169.84 92.5603 163.676 89.8836Z" fill="#808080"/>
<defs>
<linearGradient id="paint0_linear_340_1813" x1="148.5" y1="0" x2="148.5" y2="215" gradientUnits="userSpaceOnUse">
<stop stop-color="#D9F7F7"/>
<stop offset="1" stop-color="#F2F2F2"/>
</linearGradient>
</defs>
</svg>
