<svg width="127" height="161" viewBox="0 0 127 161" fill="none" xmlns="http://www.w3.org/2000/svg">
<g clip-path="url(#clip0_182_401)">
<path d="M95.1571 126.72H84.167V143.573H95.1571V126.72Z" fill="#C79D69"/>
<path d="M84.4424 151.032C84.4424 151.032 95.6446 150.31 98.8695 150.777C102.094 151.266 105.828 151.882 107.017 151.627C108.205 151.372 112.787 150.905 113.636 149.991C114.485 149.077 114.167 146.867 114.167 146.867L113.891 145.039L112.363 145.528L100.397 146.378L84.994 144.529L83.8483 145.358C83.8483 145.358 82.936 145.655 83.233 147.207C83.5089 148.758 83.7635 150.395 83.9756 150.671C84.1878 150.947 84.4424 151.032 84.4424 151.032Z" fill="#B3B3B3"/>
<path d="M85.6305 145.868C85.7578 145.825 93.5018 145.613 100.227 146.803C106.953 147.993 109.372 146.973 109.372 146.973C109.372 146.973 113.848 145.868 113.636 145.358C113.424 144.848 113.721 144.061 111.748 143.53C109.775 142.999 106.019 142.808 103.304 140.959C100.567 139.11 96.1538 136.283 95.8992 136.453C95.6446 136.623 95.2203 137.452 95.2203 137.622C95.2203 137.792 94.7323 140.704 91.4438 140.704C88.1341 140.704 84.9728 139.556 84.6334 138.302C84.2515 136.878 83.8484 137.941 83.8484 137.941L83.5938 145.804L85.6305 145.868Z" fill="#333333"/>
<path d="M99.2089 138.281L98.3602 137.75L97.554 138.515C97.4691 138.472 97.3843 138.451 97.2994 138.451C96.9811 138.451 96.7053 138.663 96.7053 138.94C96.7053 139.216 96.9811 139.428 97.2994 139.428C97.5752 139.428 97.8086 139.258 97.8722 139.046L99.2089 138.281Z" fill="#B3B3B3"/>
<path d="M100.715 139.259L99.8667 138.727L99.2939 139.365C99.2515 139.365 99.2302 139.344 99.1878 139.344C98.8696 139.344 98.5938 139.556 98.5938 139.832C98.5938 140.109 98.8696 140.321 99.1878 140.321C99.5061 140.321 99.7819 140.109 99.7819 139.832C99.7819 139.811 99.7819 139.811 99.7819 139.79L100.715 139.259Z" fill="#B3B3B3"/>
<path d="M102.455 140.364L101.607 139.832L101.076 140.427C101.034 140.427 101.012 140.406 100.97 140.406C100.652 140.406 100.376 140.619 100.376 140.895C100.376 141.171 100.652 141.384 100.97 141.384C101.288 141.384 101.564 141.171 101.564 140.895V140.874L102.455 140.364Z" fill="#B3B3B3"/>
<path d="M103.919 141.341L103.07 140.81L102.688 141.277C102.413 141.32 102.222 141.511 102.222 141.745C102.222 142.021 102.497 142.234 102.816 142.234C103.134 142.234 103.41 142.021 103.41 141.745V141.724L103.919 141.341Z" fill="#B3B3B3"/>
<path d="M103.027 132.304L91.9612 134.533L95.3961 151.64L106.462 149.41L103.027 132.304Z" fill="#F2C99B"/>
<path d="M94.0751 160.128C94.0751 160.128 106.105 159.406 109.584 159.873C113.064 160.362 117.074 160.978 118.347 160.723C119.62 160.468 124.563 160.001 125.454 159.087C126.345 158.173 126.027 155.963 126.027 155.963L125.73 154.135L124.096 154.624L111.239 155.474L94.6903 153.625L93.4598 154.454C93.4598 154.454 92.4838 154.751 92.8021 156.303C93.0991 157.854 93.3749 159.491 93.6083 159.767C93.8417 160.043 94.0751 160.128 94.0751 160.128Z" fill="#B3B3B3"/>
<path d="M95.3268 154.964C95.4753 154.921 103.792 154.709 111.006 155.899C118.24 157.068 120.829 156.069 120.829 156.069C120.829 156.069 125.645 154.964 125.412 154.454C125.178 153.944 125.496 153.157 123.375 152.626C121.253 152.095 117.222 151.904 114.294 150.055C111.366 148.206 106.614 145.379 106.338 145.549C106.062 145.719 105.596 146.548 105.596 146.718C105.596 146.888 105.065 149.8 101.522 149.8C97.9789 149.8 94.563 148.652 94.2023 147.398C93.778 145.974 93.3537 147.037 93.3537 147.037L93.0779 154.9L95.3268 154.964Z" fill="#333333"/>
<path d="M109.924 147.377L109.011 146.845L108.142 147.611C108.057 147.568 107.972 147.547 107.866 147.547C107.505 147.547 107.229 147.759 107.229 148.036C107.229 148.312 107.505 148.524 107.866 148.524C108.163 148.524 108.417 148.354 108.481 148.142L109.924 147.377Z" fill="#B3B3B3"/>
<path d="M111.557 148.354L110.645 147.823L110.03 148.461C109.987 148.461 109.966 148.439 109.924 148.439C109.563 148.439 109.287 148.652 109.287 148.928C109.287 149.205 109.563 149.417 109.924 149.417C110.284 149.417 110.56 149.205 110.56 148.928C110.56 148.907 110.56 148.907 110.539 148.886L111.557 148.354Z" fill="#B3B3B3"/>
<path d="M113.403 149.46L112.491 148.928L111.918 149.523C111.876 149.523 111.854 149.502 111.812 149.502C111.451 149.502 111.176 149.715 111.176 149.991C111.176 150.267 111.451 150.48 111.812 150.48C112.173 150.48 112.449 150.267 112.449 149.991V149.97L113.403 149.46Z" fill="#B3B3B3"/>
<path d="M114.994 150.416L114.082 149.885L113.679 150.352C113.382 150.395 113.169 150.586 113.169 150.82C113.169 151.096 113.445 151.308 113.806 151.308C114.167 151.308 114.442 151.096 114.442 150.82V150.798L114.994 150.416Z" fill="#B3B3B3"/>
<path d="M97.0664 129.036L80.9844 76.7767C77.7383 67.8719 70.1641 67.8719 70.1641 67.8719C64.4357 67.7444 61.3805 69.5934 57.3918 75.7991L35.6875 117.56C32.4838 124.658 35.9209 133.138 43.3254 135.922C48.1627 137.728 53.3607 137.452 57.5403 134.434C60.1075 132.564 62.1867 128.059 62.9717 125.274L65.8572 115.328C66.0057 114.712 68.2546 104.065 68.3395 103.427C69.5488 95.6062 69.9943 97.8165 70.1853 98.3478L84.3578 133.393C89.4073 139.492 97.2786 135.752 97.0664 129.036Z" fill="#343418"/>
<path d="M106.019 139.088L88.8553 83.3011C85.3971 73.8013 77.2924 73.8013 77.2924 73.8013C71.1609 73.6525 67.9148 75.629 63.6503 82.2597L40.482 126.847C37.0662 134.434 40.7366 143.488 48.6503 146.442C53.8059 148.376 59.3646 148.078 63.82 144.848C66.5569 142.85 68.7846 138.026 69.6121 135.072L72.6884 124.446C72.8582 123.787 75.2344 112.417 75.3405 111.758C76.6347 103.406 77.1015 105.765 77.2924 106.339L92.4197 143.764C97.8511 150.267 106.232 146.272 106.019 139.088Z" fill="#6F711F"/>
<path d="M86.6915 79.1781L87.9645 81.9197C87.9645 81.9197 87.0946 89.3155 73.5586 84.5337C63.0777 80.8146 62.3988 75.4377 62.9504 72.5687C63.4596 69.9121 63.7778 67.2131 63.5657 64.514C63.2899 61.0074 62.5261 56.9907 60.4681 55.4818C51.5572 48.8936 47.5473 56.5869 36.6209 63.8765C28.0071 69.6146 8.8487 91.7595 15.744 129.992C17.6323 140.555 25.2702 151.861 38.4455 153.009C58.4525 154.751 66.4723 144.572 66.2177 144.104C66.0056 143.721 62.7807 125.253 50.1569 118.707C50.6237 117.411 53.3182 112.608 55.2276 105.999C56.5643 101.366 61.4016 98.6878 66.048 100.005L70.3337 101.238C77.2714 102.364 89.7042 100.622 93.6929 94.8411C99.4213 86.4889 86.6915 79.1781 86.6915 79.1781Z" fill="#A5A693"/>
<path d="M58.7495 77.1167L71.4368 66.193C71.5641 66.0867 71.6702 65.9592 71.7339 65.8104L72.0733 65.5766C77.8866 61.7512 78.2261 56.5657 74.4071 50.7425C70.7367 45.1532 63.311 43.453 57.5826 46.7258C57.328 46.8108 57.0734 46.8958 56.84 46.9809C54.6335 47.831 52.3846 48.4898 50.072 48.8936C46.1257 49.5949 42.2644 50.8063 38.7849 52.804L38.6151 52.889C37.6604 53.0378 40.5246 60.3911 48.1837 70.2522L53.9758 76.9041C57.625 79.4969 55.8004 78.9869 58.7495 77.1167Z" fill="#534741"/>
<path d="M48.3106 74.4389C48.3106 74.4389 51.9598 78.5618 55.3969 75.3315L59.5341 71.251C61.783 69.0408 61.8466 65.4279 59.6614 63.2176C57.4973 61.0074 53.8905 61.0074 51.6416 63.2176L47.5044 67.2981C45.2979 69.5296 46.1465 72.2499 48.3106 74.4389Z" fill="#C79D69"/>
<path d="M59.3007 51.3163C59.428 51.4439 59.5341 51.6139 59.6614 51.7626L60.3403 51.1038C63.9046 47.5972 69.633 47.5972 73.0701 51.1038C76.5071 54.6105 76.4011 60.3486 72.8579 63.8552L67.3417 69.2958C63.7773 72.8025 58.0489 72.8025 54.6119 69.2958C51.5143 66.1292 51.3233 61.1774 53.9117 57.6708C53.7208 57.5433 53.5298 57.3945 53.3601 57.2245C51.7689 55.6093 51.8113 52.974 53.4662 51.3588C55.0786 49.7012 57.7095 49.7012 59.3007 51.3163Z" fill="#F2C99B"/>
<path d="M70.5139 64.1005C71.1656 63.4586 71.5873 62.8296 71.4558 62.6957C71.3243 62.5618 70.6895 62.9737 70.0378 63.6156C69.3862 64.2576 68.9645 64.8865 69.0959 65.0204C69.2274 65.1543 69.8622 64.7425 70.5139 64.1005Z" fill="#534741"/>
<path d="M64.968 59.0024C65.6197 58.3605 66.0414 57.7315 65.9099 57.5976C65.7784 57.4637 65.1436 57.8756 64.4919 58.5175C63.8403 59.1595 63.4186 59.7884 63.55 59.9223C63.6815 60.0562 64.3163 59.6444 64.968 59.0024Z" fill="#534741"/>
<path d="M66.472 66.4268C66.1114 67.0431 65.6022 67.0006 65.3476 66.7455L64.7111 66.0867C64.4565 65.8317 64.4565 65.3854 64.7323 65.1304L67.9148 62.0063C68.6361 62.6013 66.472 66.4268 66.472 66.4268Z" fill="#C79D69"/>
<path d="M66.0054 71.6548C69.6334 68.8495 76.359 63.5576 76.8894 59.0521C77.0379 57.8408 76.4438 54.1854 75.0648 52.7827C75.0011 52.7189 74.9587 52.6977 74.9375 52.6764C74.9587 52.5064 74.9375 52.3152 74.8102 52.1026C72.731 48.4472 68.8059 47.9159 68.3392 47.8309C65.8144 47.4059 62.929 48.2347 60.3194 50.4237C57.9007 52.4427 45.1497 66.8305 45.5316 66.8092C46.9531 66.703 49.1172 65.1728 62.5259 53.3353C63.3109 52.6339 64.7536 51.7838 65.6447 52.5489C67.8512 54.4404 71.2883 55.8218 73.325 54.8229C72.731 56.6719 72.9007 59.7747 73.7281 61.5599C74.2373 62.6225 69.7607 66.9155 68.9757 67.6168C64.1171 71.8885 55.3336 77.3717 55.3548 77.9455C55.3972 78.3493 63.5231 73.5675 66.0054 71.6548Z" fill="#736357"/>
<path d="M62.1866 53.3353L60.2347 50.36C60.0862 50.1262 60.1498 49.8287 60.3832 49.6799C60.6166 49.5311 60.9136 49.5949 61.0621 49.8287L63.014 52.804C63.1625 53.0378 63.0989 53.3353 62.8655 53.4841C62.6321 53.6328 62.3351 53.5691 62.1866 53.3353Z" fill="#343418"/>
<path d="M63.6504 52.3577L61.6985 49.3823C61.55 49.1486 61.6137 48.851 61.8471 48.7023C62.0804 48.5535 62.3775 48.6173 62.526 48.851L64.4779 51.8264C64.6264 52.0601 64.5628 52.3577 64.3294 52.5064C64.1172 52.6552 63.799 52.5914 63.6504 52.3577Z" fill="#343418"/>
<path opacity="0.39" d="M4.50999 31.2081C4.50999 31.5057 4.48877 31.8245 4.48877 32.122C4.48877 75.6043 29.5241 110.862 60.3939 110.862C91.2637 110.862 116.299 75.6043 116.299 32.122C116.299 31.8245 116.278 31.5057 116.278 31.2081H4.50999Z" fill="#A5A693"/>
<path d="M82.257 10.8094C81.8539 8.47163 79.117 6.41015 75.0647 5.07125C74.1312 2.20219 69.6333 0.0131989 64.2231 0.0131989C60.9134 0.0131989 57.9431 0.84204 55.9275 2.11718C54.6546 1.94716 53.3391 1.86215 51.9813 1.86215C43.2189 1.86215 36.0902 5.51755 35.6235 10.1081C32.8017 11.532 31.0195 13.5722 31.0195 15.8462C31.0195 17.7376 32.2501 19.4591 34.2869 20.8192C33.7564 21.6693 33.4382 22.5832 33.4382 23.5395C33.4382 27.79 39.209 31.2329 46.3377 31.2329C50.1779 31.2329 53.615 30.234 55.9912 28.6401C57.4127 29.6602 59.2373 30.2978 61.2528 30.2978C63.0562 30.2978 64.7111 29.7877 66.0477 28.9589C67.3419 29.0439 68.6786 29.0864 70.0364 29.0864C83.7846 29.0864 94.9444 24.7084 94.9444 19.3316C94.9444 15.6549 89.8313 12.4883 82.257 10.8094Z" fill="#343418"/>
<path d="M121.105 25.856C121.105 23.752 118.346 21.9668 114.443 21.2018C114.061 16.6538 107.123 13.0409 98.5941 13.0409C91.9958 13.0409 86.331 15.2086 83.9336 18.3114C82.4908 17.9927 80.9208 17.8014 79.2872 17.8014C72.116 17.8014 66.3028 21.2443 66.3028 25.4947C66.3028 25.6435 66.324 25.8135 66.3452 25.9623C60.0015 26.9399 55.6946 28.7888 55.6946 30.8928C55.6946 34.0382 65.1359 36.5672 76.8049 36.5672C82.7242 36.5672 88.092 35.9084 91.9109 34.8458C94.5205 35.9084 98.3395 36.5672 102.604 36.5672C110.475 36.5672 116.861 34.2932 116.861 31.4879C116.861 30.9778 116.649 30.5103 116.267 30.0427C119.174 29.1501 121.105 27.62 121.105 25.856Z" fill="#5E5F38"/>
<path d="M65.8993 27.45C65.8993 25.8136 63.1412 24.4109 59.2374 23.8371C58.8555 20.3092 51.9177 17.4826 43.3887 17.4826C36.7904 17.4826 31.1257 19.1828 28.7282 21.5843C27.2855 21.3293 25.7155 21.1805 24.0818 21.1805C16.9107 21.1805 11.0974 23.8583 11.0974 27.1737C11.0974 27.3012 11.1187 27.4075 11.1399 27.535C4.77496 28.3001 0.489258 29.724 0.489258 31.3817C0.489258 33.8257 9.93054 35.8021 21.5995 35.8021C27.5189 35.8021 32.8866 35.2921 36.7056 34.4632C39.3152 35.2921 43.1341 35.8021 47.3986 35.8021C55.2699 35.8021 61.656 34.0382 61.656 31.8492C61.656 31.4667 61.4439 31.0841 61.062 30.7228C63.9686 30.0215 65.8993 28.8314 65.8993 27.45Z" fill="#A5A693"/>
</g>
<defs>
<clipPath id="clip0_182_401">
<rect width="125.58" height="160.774" fill="white" transform="translate(0.489502 0.0131836)"/>
</clipPath>
</defs>
</svg>
