<svg width="171" height="130" viewBox="0 0 171 130" fill="none" xmlns="http://www.w3.org/2000/svg">
<g clip-path="url(#clip0_182_598)">
<path d="M56.2039 117.646C54.2067 115.852 53.1994 113.607 55.8913 111.361C58.6179 109.097 59.9552 95.988 39.6704 87.5966C35.1202 85.7163 46.9993 83.2616 47.2078 80.8764C47.3293 79.4314 46.1831 78.6132 44.3943 78.2998L42.7444 68.9334L41.3377 76.5589L40.1393 69.7343L38.4895 78.648C38.42 78.6654 38.3505 78.6828 38.2811 78.7002L36.8743 70.7266L35.4155 78.6306L34.0087 70.6396L32.602 78.265L31.4037 71.4404L29.2328 83.1745L29.4933 83.1049C27.114 85.6293 27.8782 87.9274 31.9942 92.5235C35.2418 96.1621 23.2585 96.5799 19.8372 80.5979C17.7531 70.8659 15.617 46.179 35.2071 49.5391V58.8533L38.1769 51.2278V59.9327L41.355 51.7849V61.3254L44.429 53.4214C44.5506 53.4911 44.6722 53.5433 44.7937 53.613V62.5267L47.7635 54.9187C47.8851 54.9535 48.024 55.0057 48.1456 55.058V63.9195L51.428 55.4758C51.7406 55.4584 52.0532 55.4584 52.3832 55.4236V63.9369L56.1344 54.2919C57.0202 53.8741 57.9406 53.3866 58.9306 52.7077C66.3116 47.6763 67.7183 38.2054 66.2247 29.6225C63.637 14.8243 48.8576 3.82139 28.3123 14.6328C10.0421 24.1907 -4.02523 51.8198 2.31377 79.327C13.0814 126.176 85.1549 129.206 85.7627 126.82C85.7627 126.82 71.6085 124.784 56.2039 117.646ZM59.66 28.1252C60.5804 28.1252 61.3272 29.8662 61.3272 32.025C61.3272 34.1838 60.5804 35.9248 59.66 35.9248C58.7395 35.9248 57.9927 34.1838 57.9927 32.025C57.9927 29.8836 58.7395 28.1252 59.66 28.1252ZM44.3422 23.8947C45.6447 23.8947 46.6867 27.5681 46.6867 32.0946C46.6867 36.6211 45.6273 40.2946 44.3422 40.2946C43.0396 40.2946 41.9976 36.6211 41.9976 32.0946C41.9976 27.5681 43.057 23.8947 44.3422 23.8947Z" fill="#534741"/>
<path d="M128.989 2.04557C101.723 -4.29154 84.4081 9.84509 82.9319 25.1308C82.0809 33.9923 85.0159 43.1149 94.9499 46.5446C96.6519 47.1365 98.2323 47.5021 99.6911 47.7111L106.03 55.7195L104.415 50.4618L108.548 55.6673L106.03 47.4673C106.152 47.4325 106.256 47.4151 106.377 47.3803L112.56 55.1798L109.781 46.1616C109.799 46.1442 109.816 46.1442 109.834 46.1268L115.895 53.787L113.672 46.5272L118.448 52.5509L115.86 44.1421L121.018 50.6533L118.083 41.1128C119.108 40.5035 120.15 39.9289 121.261 39.4937C148.753 28.543 150.386 55.4061 147.729 65.9389C145.731 73.8603 143.005 78.2824 140.348 76.0888C134.304 71.1096 137.065 65.9389 132.828 64.4765C132.307 64.3024 131.786 64.2676 131.265 64.3199L127.635 57.2341L128.451 64.1283L124.926 57.2341L125.863 65.2774L122.199 58.122L123.206 66.7398L118.795 58.122L119.611 65.0162L116.086 58.122L116.832 64.4765C116.138 63.8324 115.599 63.2405 115.078 62.9271L112.769 58.418L113.324 63.1534C111.136 65.2426 110.424 73.5992 114.245 76.82C118.17 80.1104 124.387 75.9147 126.558 78.7002C127.479 79.8841 127.809 82.4955 121.747 92.7846C117.284 100.358 113.498 105.041 111.292 107.774C91.0076 120.153 70.1323 126.159 70.1323 126.159C71.1744 128.405 161.831 109.846 169.733 60.9076C174.335 32.1468 153.234 7.6863 128.989 2.04557ZM90.0871 33.7485C88.993 33.7485 88.0899 31.4679 88.0899 28.6475C88.0899 25.8271 88.9756 23.5465 90.0871 23.5465C91.1813 23.5465 92.0844 25.8271 92.0844 28.6475C92.0844 31.4679 91.1813 33.7485 90.0871 33.7485ZM100.525 36.7256C98.6665 36.7256 97.1556 32.0076 97.1556 26.1753C97.1556 20.3431 98.6665 15.6251 100.525 15.6251C102.383 15.6251 103.894 20.3431 103.894 26.1753C103.877 32.0076 102.383 36.7256 100.525 36.7256Z" fill="#534741"/>
<path d="M79.6324 129.032L76.0895 128.649C62.3522 131.243 66.0514 117.715 67.1281 109.428L67.5797 91.0785C67.9444 80.7372 71.9214 74.7657 82.2375 75.1313C92.5536 75.4969 97.3816 80.1627 97.5553 92.7673L98.58 105.494C98.7536 107.687 99.2746 111.221 99.7262 113.363C101.515 122.085 101.932 128.387 89.3233 128.979C89.2538 128.979 88.3681 129.066 87.3087 129.153C84.7384 129.345 82.1854 129.31 79.6324 129.032Z" fill="#A5A693"/>
<path d="M97.7637 73.7733L97.7463 73.6166C97.2253 70.5699 97.4685 69.299 95.2107 64.3721C94.325 62.4396 93.613 61.604 92.953 59.5671C92.8835 59.3755 92.7446 58.1917 92.6578 57.9828C91.911 53.4563 90.3306 51.0189 85.5373 49.6261C84.2174 49.2431 82.3764 49.4521 81.9249 49.5043C77.5136 50.1136 74.4397 53.4389 73.6755 57.9654C73.5713 58.2265 73.4671 58.4877 73.3976 58.7314C72.9114 60.2809 72.3382 61.8129 71.522 63.2231C69.7332 66.2872 68.3612 69.5776 67.7707 73.0595L67.7533 73.2162C67.3539 73.8952 73.2934 75.8277 83.1753 76.1236C93.0225 75.8625 98.1458 74.4697 97.7637 73.7733Z" fill="#534741"/>
<path d="M83.0711 78.8743C83.0711 78.8743 87.5692 79.1703 87.7081 75.3054L87.7602 70.5525C87.795 67.9759 85.7457 65.8345 83.2274 65.7997C80.6918 65.7649 78.6078 67.854 78.573 70.4306L78.5209 75.1835C78.4862 77.7601 80.5355 78.8395 83.0711 78.8743Z" fill="#C79D69"/>
<path d="M91.3898 59.8282C91.1987 59.7934 91.0077 59.7934 90.8167 59.7934L90.8514 59.4626C91.3029 55.3887 88.4026 51.6979 84.4082 51.2626C80.4138 50.8274 76.784 53.787 76.3325 57.8609L76.2457 58.6269C76.0893 58.5921 75.9504 58.5399 75.7941 58.5224C73.9532 58.3135 72.286 59.6715 72.0775 61.5517C71.8691 63.432 73.189 65.1207 75.0473 65.3296C75.2384 65.347 75.4294 65.347 75.6204 65.3296C75.7941 68.916 78.4686 71.9627 82.081 72.3457C85.8149 72.7635 89.2015 70.1695 90.0004 66.4787C90.1046 66.5135 90.2088 66.5483 90.313 66.5657C92.1366 66.8617 93.8733 65.5734 94.1685 63.7105C94.4638 61.8651 93.2133 60.1241 91.3898 59.8282Z" fill="#F2C99B"/>
<path d="M91.3376 58.4354C91.1987 55.7543 90.2435 53.6651 88.802 52.4465C88.5415 52.2201 86.3706 50.2528 83.505 51.0363C83.3835 51.0711 83.314 51.1407 83.2445 51.2104C83.1751 51.1407 83.1056 51.0711 82.984 51.0363C80.1185 50.2528 77.9476 52.2201 77.6871 52.4465C76.2456 53.6651 75.2904 55.7543 75.1515 58.4354C75.0299 60.9075 76.2282 75.9495 76.4193 75.7057C77.0445 74.8353 77.305 72.7809 77.7044 58.7139C77.7218 57.8957 77.9823 56.6074 78.7986 56.5029C80.4832 56.294 82.3762 55.3887 83.2445 54.1178C84.1129 55.3887 86.0059 56.2766 87.6905 56.5029C88.5068 56.6074 88.7673 57.8957 88.7846 58.7139C89.1841 72.7635 89.4446 74.8353 90.0698 75.7057C90.2608 75.9495 91.4765 60.9075 91.3376 58.4354Z" fill="#736357"/>
<path d="M77.5484 58.4702L74.7696 57.5997C74.5612 57.5301 74.4397 57.3038 74.5091 57.0948C74.5786 56.8859 74.8044 56.7641 75.0128 56.8337L77.7915 57.7042C77.9999 57.7738 78.1215 58.0001 78.052 58.2091C77.9825 58.418 77.7568 58.5398 77.5484 58.4702Z" fill="#666724"/>
<path d="M77.9825 57.0775L75.2037 56.207C74.9953 56.1374 74.8737 55.9111 74.9432 55.7021C75.0127 55.4932 75.2385 55.3714 75.4469 55.441L78.2256 56.3115C78.434 56.3811 78.5556 56.6074 78.4861 56.8164C78.434 57.0253 78.1909 57.1471 77.9825 57.0775Z" fill="#666724"/>
<path d="M84.7559 65.0511C84.8601 65.6256 84.5648 65.8867 84.3043 65.8693L83.6617 65.8345C83.4012 65.8171 83.2102 65.556 83.2102 65.2426L83.4012 61.5866C84.0786 61.5517 84.7559 65.0511 84.7559 65.0511Z" fill="#C79D69"/>
<path d="M67.9966 55.3888C62.8733 58.8359 53.1651 75.3925 57.8715 86.0472C58.3926 87.231 59.7125 90.2255 62.6301 91.4267C66.0515 92.8543 69.8896 91.0959 72.1473 88.8675C75.3602 85.6641 80.4314 79.9016 78.521 77.0812C77.2359 75.1661 71.8868 76.2629 70.5322 74.3305C68.1008 70.8659 70.81 66.7747 71.5916 64.7726C72.8073 61.6388 74.2314 59.1144 73.6583 58.0176C72.842 56.4508 70.7579 54.8317 67.9966 55.3888Z" fill="#A5A693"/>
<path d="M76.2111 50.6011C76.5063 50.8274 76.35 51.5064 76.1937 52.2028C75.968 53.1429 75.6727 53.8219 75.4817 54.2223C74.787 55.7369 74.4397 56.503 74.1618 56.886C73.5887 57.652 72.9113 58.5399 71.7651 58.7836C70.7405 58.9925 69.8547 58.6095 69.5942 58.4877C69.3858 58.4006 68.8995 58.1569 68.4133 57.6868C68.0486 57.3386 67.8054 57.0949 67.7012 56.7293C67.5449 56.1722 67.8749 55.911 68.3264 54.5357C68.6564 53.5607 68.5696 53.4214 68.8648 52.8295C69.16 52.255 69.4032 51.7501 69.9068 51.5412C70.6884 51.2104 71.2267 52.4465 72.1819 52.255C72.7029 52.1505 72.6161 51.8198 73.606 51.3323C73.8144 51.2278 74.1791 51.106 74.9086 50.8796C75.968 50.5314 76.1069 50.5314 76.2111 50.6011Z" fill="#C79D69"/>
<path d="M76.3847 50.4966C76.7668 51.1408 76.1416 51.4193 75.9505 51.4368C75.6726 51.4716 74.3527 51.872 73.8838 50.9667C73.4149 50.0614 74.7696 49.8525 74.7696 49.8525C74.7696 49.8525 75.8984 49.661 76.3847 50.4966Z" fill="#F2C99B"/>
<path d="M70.3928 53.4389C70.3233 53.4912 70.0628 54.3443 69.7676 54.3617C69.4376 54.3791 69.2466 54.1702 69.2466 53.5782C69.2466 52.2899 69.316 51.785 69.4897 51.5761C69.8371 51.1931 70.2712 50.8623 70.7054 51.4368C71.2612 52.1158 70.7054 53.143 70.3928 53.4389Z" fill="#F2C99B"/>
<path d="M72.564 50.6707C72.3729 50.4096 71.7825 50.1484 71.1051 50.6533C70.3757 51.193 69.0905 54.2223 69.8547 54.8839C70.202 55.1798 70.5668 55.3191 70.9315 55.0406C71.4351 54.6575 71.3309 53.8393 71.7304 52.5858C72.0777 51.489 72.7724 50.9319 72.564 50.6707Z" fill="#F2C99B"/>
<path d="M73.4669 52.2202C73.3453 52.4813 73.2238 52.8469 72.8417 53.1429C72.7027 53.2473 72.4249 53.3866 72.147 53.317C71.7823 53.2299 71.5391 52.7773 71.5912 52.4291C71.6781 51.5934 72.1296 50.9493 72.7201 50.3225C73.3627 49.6435 73.6753 49.6261 73.7795 49.6261C74.1616 49.6087 74.6479 49.8524 74.7521 50.218C74.891 50.7229 74.04 50.9144 73.4669 52.2202Z" fill="#F2C99B"/>
<path d="M77.7047 53.8742C77.6352 53.7001 77.4268 53.613 77.3053 53.5782C76.9058 53.4389 76.5411 53.6304 76.4369 53.6652C76.159 53.8045 75.9506 54.1179 75.5338 54.7446C75.1865 55.2669 75.0996 55.4933 74.8044 55.5977C74.596 55.6848 74.3876 55.6499 74.2487 55.6499C73.8318 55.6151 73.6929 55.4236 73.3977 55.3714C72.4772 55.2495 72.1125 55.4236 71.661 55.6674C70.6016 56.2245 70.3411 56.5204 70.1848 56.9034C69.9416 57.5128 70.2195 58.1221 70.2716 58.2266C70.5668 58.8359 71.1399 59.0796 71.2962 59.1493C72.6509 59.7064 74.2313 58.627 75.1344 58.0177C75.8291 57.5476 76.5759 57.0253 76.819 56.1722C76.9058 55.8414 76.8711 55.6499 77.0621 55.2321C77.3747 54.4835 77.8263 54.1875 77.7047 53.8742Z" fill="#F2C99B"/>
<path d="M89.7225 76.5589C89.3926 76.5067 95.6274 77.2901 99.4308 80.3542C105.874 85.5423 105.891 100.706 101.758 104.258C100.264 105.546 96.982 105.407 95.4537 104.118C92.4318 101.559 98.0067 98.3384 94.9327 91.2004C91.7024 83.6969 91.5461 85.7686 94.1164 80.981C95.0542 79.2922 89.7225 76.5589 89.7225 76.5589Z" fill="#646454"/>
<path d="M92.6751 97.7463C90.4695 89.0241 90.9384 83.1048 91.3552 82.1299C92.9182 78.4216 95.4886 76.9766 99.4309 79.2225C104.12 81.8862 103.686 90.0513 103.582 95.0827C103.46 100.393 102.557 105.041 99.4309 105.372C95.5233 105.79 94.516 105.058 92.6751 97.7463Z" fill="#7C7C71"/>
<path d="M96.1307 69.8562C95.766 69.8213 95.4186 70.4307 95.0713 71.0574C94.6024 71.9105 94.3766 72.6243 94.255 73.0421C93.7688 74.6438 93.5256 75.4447 93.4735 75.9147C93.3867 76.8722 93.2998 77.9865 94.0119 78.9266C94.6371 79.7622 95.5576 80.0756 95.8181 80.1627C96.0265 80.2323 96.5649 80.389 97.2422 80.3542C97.7458 80.3368 98.0758 80.3194 98.4058 80.1104C98.8921 79.7971 98.8226 79.3792 99.3957 78.0561C99.7951 77.116 99.9514 77.0638 100.125 76.4196C100.299 75.7928 100.438 75.2531 100.212 74.7657C99.8472 73.9997 98.6315 74.5568 98.0411 73.7733C97.7285 73.3555 98.0063 73.1466 97.5895 72.1368C97.5027 71.9279 97.3116 71.5971 96.9296 70.9356C96.3565 69.9432 96.2523 69.8562 96.1307 69.8562Z" fill="#C79D69"/>
<path d="M96.0611 69.6647C95.349 69.891 95.6442 70.5178 95.7658 70.657C95.9395 70.866 96.6689 72.0498 97.6067 71.6842C98.5446 71.3186 97.6936 70.2566 97.6936 70.2566C97.6936 70.2566 96.9815 69.3513 96.0611 69.6647Z" fill="#F2C99B"/>
<path d="M98.5795 75.8451C98.5795 75.9322 98.2148 76.733 98.4232 76.9419C98.649 77.1682 98.9442 77.1508 99.3437 76.6982C100.195 75.7407 100.49 75.3228 100.49 75.0443C100.49 74.5394 100.386 73.9823 99.6736 74.1216C98.7879 74.2782 98.5448 75.4099 98.5795 75.8451Z" fill="#F2C99B"/>
<path d="M98.7878 72.3284C99.1004 72.2588 99.7083 72.4503 99.882 73.3033C100.073 74.1912 99.0136 77.3076 98.0063 77.2902C97.5548 77.2902 97.1901 77.1335 97.1032 76.6808C96.9817 76.0541 97.6069 75.5318 98.1279 74.3131C98.6142 73.2685 98.4579 72.398 98.7878 72.3284Z" fill="#F2C99B"/>
<path d="M97.0855 72.8854C96.9987 73.1466 96.8597 73.5122 96.9292 73.9822C96.9639 74.1563 97.0855 74.4523 97.3287 74.5742C97.6586 74.7483 98.1275 74.5742 98.336 74.2782C98.8222 73.5992 98.9264 72.8158 98.8917 71.9453C98.857 71.0226 98.6312 70.7789 98.5617 70.7092C98.2839 70.4481 97.7628 70.2914 97.4502 70.5003C97.016 70.8137 97.5197 71.5275 97.0855 72.8854Z" fill="#F2C99B"/>
<path d="M92.8309 71.3012C93.0045 71.2141 93.2129 71.3012 93.3171 71.336C93.7166 71.4927 93.8555 71.8931 93.8902 71.9802C94.0118 72.2761 93.9597 72.6591 93.8555 73.3729C93.7687 73.9997 93.6992 74.226 93.8381 74.4871C93.9424 74.6961 94.116 74.8179 94.2202 74.905C94.5502 75.1487 94.776 75.0965 95.0365 75.2706C95.818 75.7929 95.9569 76.1759 96.1306 76.6459C96.5474 77.7602 96.5474 78.1606 96.4085 78.5436C96.1827 79.1529 95.5575 79.4315 95.4707 79.4663C94.8454 79.7275 94.255 79.5185 94.0987 79.4663C92.7093 78.9788 92.2577 77.116 91.9972 76.054C91.7888 75.2532 91.5804 74.3653 91.9799 73.547C92.1362 73.2337 92.2751 73.1292 92.4314 72.6765C92.6745 71.9802 92.5356 71.4579 92.8309 71.3012Z" fill="#F2C99B"/>
<path d="M87.3433 61.1339C87.3433 61.1339 85.954 61.2906 84.8772 60.9424C83.8005 60.5942 84.1999 60.072 84.1999 60.072" stroke="#534741" stroke-width="0.199968" stroke-miterlimit="10" stroke-linecap="round"/>
<path d="M85.8843 61.308C85.8843 61.3951 85.8669 61.4996 85.8669 61.5866C85.8669 62.3352 85.9885 62.9445 86.1448 62.9445C86.3011 62.9445 86.4227 62.3352 86.4227 61.5866C86.4227 61.4821 86.4227 61.3951 86.4053 61.308H85.8843Z" fill="#534741"/>
<path d="M78.729 61.2558C78.729 61.2558 80.1184 61.3777 81.1778 60.9947C82.2372 60.6291 81.8203 60.1068 81.8203 60.1068" stroke="#534741" stroke-width="0.199968" stroke-miterlimit="10" stroke-linecap="round"/>
<path d="M80.188 61.3777C80.188 61.4647 80.2054 61.5692 80.2054 61.6562C80.2054 62.4049 80.0838 63.0142 79.9275 63.0142C79.7712 63.0142 79.6497 62.4049 79.6497 61.6562C79.6497 61.5518 79.6497 61.4647 79.667 61.3777H80.188Z" fill="#534741"/>
<path d="M82.741 69.0204C83.8872 68.916 84.2172 68.9334 84.2172 68.9334" stroke="#534741" stroke-width="0.163413" stroke-miterlimit="10" stroke-linecap="round"/>
</g>
<defs>
<clipPath id="clip0_182_598">
<rect width="169.572" height="128.779" fill="white" transform="translate(0.768311 0.496155)"/>
</clipPath>
</defs>
</svg>
