<svg width="150" height="131" viewBox="0 0 150 131" fill="none" xmlns="http://www.w3.org/2000/svg">
<g clip-path="url(#clip0_182_515)">
<path d="M67.0004 130.674C50.0636 130.674 36.2136 116.792 36.2136 99.8148V71.7238C36.2136 54.7471 50.0636 40.8644 67.0004 40.8644C83.9372 40.8644 97.7873 54.7471 97.7873 71.7238V99.8352C97.7873 116.792 83.9372 130.674 67.0004 130.674Z" fill="#A5A693"/>
<path d="M90.4358 39.6431L90.3952 39.3988C89.5626 34.4727 89.9281 32.4371 86.293 24.4576C84.8714 21.3432 83.7139 19.9794 82.6376 16.7021C82.536 16.3764 82.2923 14.4833 82.1502 14.1576C80.9317 6.84989 78.3932 2.90086 70.6356 0.661728C68.5033 0.0510541 65.5383 0.376747 64.8072 0.478526C57.6791 1.4556 52.7037 6.84989 51.4852 14.1576C51.3024 14.5851 51.1603 14.9922 51.0384 15.3993C50.2667 17.9234 49.3326 20.3661 47.9923 22.646C45.1085 27.5924 42.895 32.9053 41.9405 38.5439L41.8999 38.7881C41.2703 39.8873 50.8354 43.0018 66.838 43.4903C82.8 43.0221 91.0857 40.7423 90.4358 39.6431Z" fill="#534741"/>
<path d="M66.696 47.8668C66.696 47.8668 73.946 48.335 74.1897 42.0857L74.2912 34.3912C74.3521 30.2183 71.0419 26.7782 66.9601 26.7171C62.8782 26.6764 59.4867 30.0351 59.4461 34.208L59.3446 41.9025C59.2837 46.0755 62.5938 47.8057 66.696 47.8668Z" fill="#C79D69"/>
<path d="M80.14 17.0889C79.8354 17.0482 79.5104 17.0278 79.2058 17.0278L79.2667 16.4986C79.9978 9.92363 75.3067 3.95939 68.8488 3.24693C62.3909 2.53448 56.5219 7.33845 55.8111 13.9134L55.6689 15.1551C55.4252 15.094 55.1815 15.0329 54.9378 14.9922C51.9526 14.6665 49.2719 16.865 48.947 19.898C48.6221 22.931 50.7544 25.679 53.7397 26.0047C54.0646 26.0454 54.3692 26.0251 54.6738 26.0047C54.9378 31.7858 59.2837 36.7119 65.1121 37.3632C71.1639 38.035 76.6267 33.8417 77.9061 27.8978C78.0686 27.9589 78.231 27.9996 78.4138 28.0403C81.3788 28.5085 84.1609 26.4525 84.6483 23.4195C85.1154 20.3865 83.1049 17.5571 80.14 17.0889Z" fill="#F2C99B"/>
<path d="M80.079 14.8294C79.8556 10.4936 78.3122 7.11451 75.9768 5.14C75.5504 4.77359 72.0574 1.59809 67.4272 2.86015C67.2241 2.92122 67.1226 3.02299 67.021 3.14513C66.8992 3.02299 66.7976 2.92122 66.6149 2.86015C61.9847 1.59809 58.4917 4.77359 58.0652 5.14C55.7298 7.11451 54.1864 10.4936 53.963 14.8294C53.76 18.8191 55.7095 43.1443 55.9938 42.7575C57.0092 41.353 57.4357 38.0146 58.0652 15.2975C58.1059 13.9744 58.512 11.8778 59.832 11.7149C62.5533 11.3689 65.6198 9.92361 67.021 7.86767C68.4223 9.92361 71.4888 11.3689 74.21 11.7149C75.5301 11.8778 75.9362 13.9541 75.9768 15.2975C76.6064 38.0146 77.0328 41.353 78.0482 42.7575C78.3122 43.1443 80.2821 18.8394 80.079 14.8294Z" fill="#736357"/>
<path d="M57.9433 14.9515L53.11 13.4249C52.8663 13.3434 52.7242 13.0788 52.8054 12.8345L52.907 12.4885C52.9882 12.2442 53.2522 12.1017 53.4959 12.1832L58.3292 13.7098C58.5729 13.7913 58.715 14.0559 58.6338 14.3002L58.5323 14.6462C58.4713 14.8905 58.187 15.033 57.9433 14.9515Z" fill="#666724"/>
<path d="M58.654 12.7123L53.8207 11.1857C53.577 11.1042 53.4349 10.8396 53.5161 10.5953L53.6176 10.2493C53.6989 10.005 53.9629 9.86254 54.2066 9.94396L59.0399 11.4706C59.2836 11.5521 59.4257 11.8167 59.3445 12.061L59.2429 12.407C59.1617 12.6513 58.8977 12.7938 58.654 12.7123Z" fill="#666724"/>
<path d="M72.7681 22.1371C73.0261 22.1371 73.2352 21.1529 73.2352 19.9387C73.2352 18.7246 73.0261 17.7403 72.7681 17.7403C72.5101 17.7403 72.301 18.7246 72.301 19.9387C72.301 21.1529 72.5101 22.1371 72.7681 22.1371Z" fill="#534741"/>
<path d="M61.741 22.1371C61.999 22.1371 62.2081 21.1529 62.2081 19.9387C62.2081 18.7246 61.999 17.7403 61.741 17.7403C61.483 17.7403 61.2739 18.7246 61.2739 19.9387C61.2739 21.1529 61.483 22.1371 61.741 22.1371Z" fill="#534741"/>
<path d="M69.4172 25.5162C69.5797 26.4322 69.1126 26.8597 68.7064 26.8393L67.6707 26.7782C67.2443 26.7579 66.9194 26.3304 66.96 25.8215L67.2646 19.9183C68.3206 19.8573 69.4172 25.5162 69.4172 25.5162Z" fill="#C79D69"/>
<path d="M64.7668 32.4168C64.7668 32.4168 67.1429 29.1802 69.0924 32.4168" stroke="#534741" stroke-width="0.199968" stroke-miterlimit="10" stroke-linecap="round"/>
<path d="M74.7177 15.094C74.7177 15.094 72.3417 17.6385 70.3718 15.1144" stroke="#534741" stroke-width="0.180931" stroke-miterlimit="10" stroke-linecap="round"/>
<path d="M59.5676 16.1729C59.5676 16.1729 62.7357 13.6895 63.9135 16.2136" stroke="#534741" stroke-width="0.180931" stroke-miterlimit="10" stroke-linecap="round"/>
<path d="M53.3335 44.8338C51.8916 43.4903 46.7537 46.849 43.545 51.4902C40.6207 55.7445 35.5031 62.4823 32.6397 71.561C26.7301 90.3494 29.8575 93.6674 32.6397 97.9828C37.5136 105.596 47.0583 104.822 54.7753 94.9498C63.0203 84.4258 62.736 63.4187 62.0252 60.6299C60.7662 55.7649 56.8873 53.7904 51.6885 54.3603C49.8202 54.5842 55.1409 46.5234 53.3335 44.8338Z" fill="#7C7C71"/>
<path d="M59.7917 45.8313C61.2336 44.2639 65.0515 44.6303 65.742 46.1977C66.1684 47.1544 65.5186 48.7218 64.9703 49.5564C64.6047 50.106 64.3001 50.2892 64.0564 50.961C63.7315 51.7752 63.9142 52.162 63.6909 52.9151C63.5893 53.2408 63.3659 53.7294 62.4318 54.6861C61.2133 55.9278 59.548 57.597 58.7966 57.1899C58.0249 56.7827 59.0403 54.7675 59.2434 49.9635C59.345 47.3376 59.1013 46.5845 59.7917 45.8313Z" fill="#C79D69"/>
<path d="M70.9607 40.8237C70.9811 40.5388 69.3564 39.3581 69.0721 39.1139C67.7724 37.9739 65.8228 36.7119 64.2185 37.6075C63.4062 38.0554 57.7403 41.3123 57.2123 41.5973C56.6843 41.8619 56.5015 42.4726 56.4 42.8593C55.7095 45.4445 55.9735 49.251 56.0547 50.106C56.1157 50.9813 56.1969 51.9584 55.811 53.1593C55.608 53.7497 53.0898 56.7827 53.0289 57.5766C52.907 59.0625 55.4658 61.0981 57.1311 60.5689C57.456 60.4671 57.72 60.2839 58.6135 59.0422C58.6542 58.9811 58.6948 58.92 58.7557 58.859C60.0554 57.027 60.7052 56.1109 61.1926 55.0117C61.6597 53.9329 62.472 51.9176 61.9034 50.2078C61.8222 49.9431 61.7003 49.6989 61.7003 49.6989C60.9896 48.1111 60.1366 48.1722 60.2991 47.7447C60.4209 47.3987 62.472 46.3198 62.6751 46.4012C62.9391 46.503 63.0813 47.0119 62.9797 47.419C62.8173 48.1111 62.0862 48.1111 61.9237 48.7421C61.7816 49.2714 62.1268 50.0042 62.5736 50.167C63.4062 50.4317 63.7921 49.7396 63.8124 49.7599C63.8124 49.7599 63.4874 49.6989 63.4671 50.737C63.4671 51.3273 63.8733 52.0194 64.3201 52.0601C64.645 52.1008 65.5385 50.6963 65.8838 50.5335C66.2899 50.3503 66.5742 50.7777 66.9398 50.6352C67.3866 50.4724 67.3256 49.7599 67.6506 48.6607C68.1176 47.0526 68.7472 46.9101 68.666 45.9738C68.6253 45.5056 68.4832 45.587 67.9552 44.3453C67.3053 42.7983 67.4881 42.554 67.0413 42.1062C66.2899 41.353 65.3151 41.5769 65.2136 41.0884C65.1324 40.7016 65.6604 40.1927 65.6604 40.1927C66.5336 40.437 66.6961 40.4166 67.4475 40.3759C67.4475 40.3759 68.2801 41.2716 68.869 41.4955C69.722 41.8008 70.9201 41.2512 70.9607 40.8237Z" fill="#F2C99B"/>
<path d="M81.5208 44.5284C85.5824 45.5869 94.2336 51.1033 98.9653 56.7215C103.758 62.4008 104.489 63.3779 106.236 66.1056C109.647 71.4795 118.197 66.4313 123.761 70.1157C129.346 73.8001 130.564 89.7386 124.655 93.9116C116.247 99.8351 109.383 95.4993 103.068 91.9981C99.6355 90.105 97.0157 90.3086 94.6803 81.5556C92.9745 75.225 95.188 68.1004 90.0704 57.2304C87.3492 51.5512 80.4851 44.2638 81.5208 44.5284Z" fill="#A5A693"/>
<path d="M117.384 80.7414C117.039 80.8839 116.531 81.0264 115.922 80.945C115.354 80.8636 115.293 80.66 114.155 80.1104C113.16 79.6422 112.815 79.6219 112.49 79.174C112.328 78.9501 112.267 78.7262 112.125 78.2784C112.043 78.0341 111.921 77.5659 111.861 76.7721C111.779 75.7543 111.759 75.2657 111.962 74.7365C112.165 74.2479 112.328 74.309 112.957 73.4744C113.445 72.823 113.709 72.3752 113.891 71.6221C114.115 70.7875 113.973 70.6246 114.196 69.505C114.277 69.159 114.399 68.7722 114.663 67.9987C115.049 66.8791 115.008 64.9454 115.191 63.7647C115.374 62.5637 116.166 61.1795 117.12 61.0981C117.73 61.0574 118.217 61.5459 118.258 61.6274C119.293 62.8894 119.192 65.2303 118.562 67.3677C118.4 67.9377 118.603 68.2837 118.664 68.7315C119.131 71.9885 120.857 72.3549 120.959 74.5329C121.06 76.4464 119.801 78.0952 119.131 78.9705C118.522 79.7847 117.872 80.375 117.384 80.7414Z" fill="#C79D69"/>
<path d="M118.562 68.1413C118.501 68.2431 118.623 69.0369 118.582 70.5026C118.562 71.1947 118.521 73.0063 117.689 74.7773C117.323 75.5711 116.876 76.1818 117.12 76.8739C117.283 77.3217 117.567 77.3014 117.851 77.8103C118.44 78.8484 118.095 80.1308 118.054 80.1308C118.034 80.1308 118.988 80.9451 120.247 80.6805C120.572 80.6194 120.776 80.2937 121.019 80.3751C121.222 80.4362 121.263 80.6804 121.385 80.9044C121.771 81.5354 122.806 81.5761 123.152 81.5761C124.573 81.6168 125.629 80.5787 125.751 80.4362C126.584 79.4591 126.746 77.9731 127.721 76.8943C128.005 76.5889 128.208 76.4668 128.35 76.1208C128.716 75.2658 128.452 74.0852 127.782 73.4541C127.396 73.1081 127.193 73.1285 126.584 72.5178C125.852 71.7443 125.771 71.4186 125.121 70.3194C124.878 69.9122 124.472 69.5662 124.086 69.4237C123.253 69.1387 122.745 69.7494 122.156 69.4237C121.628 69.1387 121.872 68.5688 121.161 67.9581C120.999 67.8156 120.593 67.4288 119.963 67.4288C119.679 67.4288 118.927 67.5103 118.562 68.1413Z" fill="#F2C99B"/>
<path d="M149.106 130.491H0.330078L17.0232 113.27H129.529L149.106 130.491Z" fill="#999999"/>
<path d="M129.346 121.881H81.7037L78.4341 111.845L117.588 111.499L129.346 121.881Z" fill="#999999"/>
<path d="M129.346 121.881H81.7034V126.603H129.346V121.881Z" fill="#666666"/>
<path d="M81.7034 126.603L78.4338 115.55V111.967L81.7034 121.881V126.603Z" fill="#7B7B7B"/>
<path d="M18.3635 121.881H66.0059L69.2755 111.845L30.1218 111.499L18.3635 121.881Z" fill="#999999"/>
<path d="M18.3623 126.611L66.0046 126.611L66.0046 121.889L18.3623 121.889L18.3623 126.611Z" fill="#666666"/>
<path d="M66.0059 126.603L69.2754 115.55V111.967L66.0059 121.881V126.603Z" fill="#7B7B7B"/>
<path d="M33.2695 107.184V116.771H33.2898C33.2898 117.952 39.2807 118.929 46.6525 118.929C54.0242 118.929 60.0151 117.972 60.0151 116.771V107.184H33.2695Z" fill="#C1272D"/>
<path d="M46.6524 109.341C54.0324 109.341 60.015 108.375 60.015 107.184C60.015 105.992 54.0324 105.026 46.6524 105.026C39.2724 105.026 33.2898 105.992 33.2898 107.184C33.2898 108.375 39.2724 109.341 46.6524 109.341Z" fill="#C1454A"/>
<path d="M87.9385 107.184V116.771H87.9588C87.9588 117.952 93.9496 118.929 101.321 118.929C108.693 118.929 114.684 117.972 114.684 116.771V107.184H87.9385Z" fill="#2E3192"/>
<path d="M101.301 109.341C108.681 109.341 114.664 108.375 114.664 107.184C114.664 105.992 108.681 105.026 101.301 105.026C93.9211 105.026 87.9385 105.992 87.9385 107.184C87.9385 108.375 93.9211 109.341 101.301 109.341Z" fill="#4A4C92"/>
</g>
<defs>
<clipPath id="clip0_182_515">
<rect width="148.776" height="130.379" fill="white" transform="translate(0.329102 0.295349)"/>
</clipPath>
</defs>
</svg>
