<svg width="102" height="173" viewBox="0 0 102 173" fill="none" xmlns="http://www.w3.org/2000/svg">
<g clip-path="url(#clip0_182_437)">
<path d="M54.3318 18.0868C54.5651 18.7104 55.343 19.1521 56.1986 19.1781C57.2097 19.204 58.169 18.6844 58.3246 17.905" stroke="#534741" stroke-width="0.139097" stroke-miterlimit="10" stroke-linecap="round"/>
<path d="M48.2649 18.0868C48.4982 18.7104 49.2761 19.1521 50.1317 19.1781C51.1428 19.204 52.1021 18.6844 52.2577 17.905" stroke="#534741" stroke-width="0.139097" stroke-miterlimit="10" stroke-linecap="round"/>
<path d="M33.8751 19.1781C33.9528 19.0222 31.6194 16.1123 31.6194 16.1123L34.5233 14.8911L35.8196 12.215L34.601 9.61687L36.7789 10.1105L35.7937 8.032H38.3864L40.0976 5.92749" stroke="#534741" stroke-width="0.79987" stroke-miterlimit="10" stroke-linecap="round"/>
<path d="M53.6316 4.26465L55.3169 1.43266L56.328 4.26465L58.2726 4.57643L61.0728 1.40668L60.6579 5.38186L62.6025 5.90149C62.6025 5.90149 63.7433 7.33048 63.7433 7.56431C63.7433 7.79815 66.4138 6.60299 66.4138 6.60299L65.999 8.55161L68.0991 10.0845" stroke="#534741" stroke-width="0.79987" stroke-miterlimit="10" stroke-linecap="round"/>
<path d="M43.0415 134.27L35.0615 130.9L28.959 145.409L36.9389 148.779L43.0415 134.27Z" fill="#F2C99B"/>
<path d="M56.5747 140.456L48.5947 137.085L42.4922 151.594L50.4721 154.964L56.5747 140.456Z" fill="#C79D69"/>
<path d="M60.5804 137.524H43.935C36.9087 137.524 29.2601 132.172 27.8341 125.339C26.9526 121.13 25.9155 115.986 29.286 104.164L30.1416 103.462C35.5864 89.1725 34.5493 91.1731 44.7906 91.1731H61.436C71.6773 91.1731 75.5405 93.5894 78.8592 103.281L79.8963 116.453C79.8704 129.808 70.8217 137.524 60.5804 137.524Z" fill="#343418"/>
<path d="M52.2835 114.764C39.8384 114.764 29.1304 114.037 29.1304 101.592V66.0489C29.1304 53.5777 39.2939 43.3929 51.7391 43.3929C64.1842 43.3929 74.3477 53.5777 74.3477 66.0489V101.592C74.3477 114.037 64.7287 114.764 52.2835 114.764Z" fill="#A5A693"/>
<path d="M74.1665 42.2497L74.1406 42.0159C73.3628 37.4691 73.7258 35.5725 70.3552 28.2197C69.0329 25.3357 67.9699 24.0886 66.9846 21.0488C66.8809 20.763 66.6735 18.9962 66.5439 18.6844C65.429 11.9292 63.0696 8.29182 55.9136 6.21329C53.9432 5.64169 51.1949 5.95347 50.5207 6.03142C43.9352 6.94077 39.346 11.9033 38.2052 18.6585C38.0497 19.0482 37.8941 19.4379 37.7904 19.8017C37.0644 22.114 36.2088 24.4004 34.9902 26.5049C32.3197 31.0777 30.2714 35.9882 29.3899 41.1845L29.364 41.4183C28.7677 42.4316 37.6348 45.3156 52.3875 45.7573C67.1143 45.3675 74.7628 43.289 74.1665 42.2497Z" fill="#534741"/>
<path d="M52.2319 49.8624C52.2319 49.8624 58.9471 50.3041 59.1545 44.5362L59.2323 37.4432C59.2841 33.5979 56.2247 30.4022 52.4652 30.3502C48.6798 30.2983 45.5685 33.4161 45.5167 37.2614L45.4389 44.3543C45.387 48.1996 48.4465 49.8105 52.2319 49.8624Z" fill="#C79D69"/>
<path d="M64.6511 21.4385C64.3659 21.3865 64.0807 21.3865 63.7955 21.3865L63.8474 20.8929C64.5215 14.8132 60.1916 9.30509 54.2283 8.65555C48.265 8.00601 42.8462 12.4229 42.1721 18.5026L42.0684 19.6458C41.835 19.5938 41.6276 19.5158 41.3942 19.4899C38.6459 19.1781 36.1569 21.2046 35.8458 24.0107C35.5347 26.8167 37.5051 29.3369 40.2794 29.6487C40.5646 29.6746 40.8498 29.6746 41.135 29.6487C41.3942 35.0009 45.3871 39.5476 50.78 40.1192C56.3543 40.7428 61.4102 36.8715 62.6028 31.3634C62.7584 31.4154 62.914 31.4674 63.0695 31.4934C65.7919 31.935 68.3847 30.0124 68.8254 27.2324C69.2403 24.4783 67.3994 21.8802 64.6511 21.4385Z" fill="#F2C99B"/>
<path d="M64.5996 19.3599C64.3922 15.3588 62.9662 12.241 60.8142 10.4223C60.4253 10.0845 57.1844 7.14859 52.9063 8.31776C52.7248 8.36972 52.6211 8.47365 52.5174 8.57758C52.4137 8.47365 52.31 8.36972 52.1285 8.31776C47.8505 7.14859 44.6096 10.0845 44.2207 10.4223C42.0687 12.241 40.6427 15.3588 40.4353 19.3599C40.2538 23.0493 42.0428 45.4974 42.328 45.1337C43.2613 43.8346 43.6503 40.7688 44.2466 19.7756C44.2725 18.5545 44.6614 16.6319 45.88 16.476C48.395 16.1642 51.2211 14.8132 52.5174 12.9165C53.8138 14.8132 56.6399 16.1382 59.1548 16.476C60.3734 16.6319 60.7623 18.5545 60.7883 19.7756C61.3846 40.7428 61.7735 43.8346 62.7069 45.1337C62.9662 45.4974 64.7811 23.0493 64.5996 19.3599Z" fill="#736357"/>
<path d="M43.987 19.4119L39.8386 18.1129C39.5275 18.0089 39.346 17.6712 39.4497 17.3594C39.5534 17.0476 39.8905 16.8657 40.2016 16.9697L44.35 18.2687C44.6611 18.3727 44.8426 18.7104 44.7389 19.0222C44.6611 19.334 44.3241 19.5159 43.987 19.4119Z" fill="#343418"/>
<path d="M44.6354 17.3335L40.4871 16.0344C40.1759 15.9305 39.9944 15.5927 40.0981 15.281C40.2019 14.9692 40.5389 14.7873 40.85 14.8912L44.9984 16.1903C45.3095 16.2942 45.491 16.632 45.3873 16.9438C45.3095 17.2556 44.9725 17.4374 44.6354 17.3335Z" fill="#343418"/>
<path d="M57.8323 26.0892C58.0614 26.0892 58.2472 25.1819 58.2472 24.0626C58.2472 22.9434 58.0614 22.0361 57.8323 22.0361C57.6032 22.0361 57.4175 22.9434 57.4175 24.0626C57.4175 25.1819 57.6032 26.0892 57.8323 26.0892Z" fill="#534741"/>
<path d="M47.4615 26.0892C47.6906 26.0892 47.8763 25.1819 47.8763 24.0626C47.8763 22.9434 47.6906 22.0361 47.4615 22.0361C47.2324 22.0361 47.0466 22.9434 47.0466 24.0626C47.0466 25.1819 47.2324 26.0892 47.4615 26.0892Z" fill="#534741"/>
<path d="M54.7472 29.233C54.9028 30.0904 54.462 30.4802 54.0731 30.4542L53.1138 30.4022C52.7249 30.3762 52.4397 29.9865 52.4397 29.5188L52.7249 24.0627C53.7361 24.0107 54.7472 29.233 54.7472 29.233Z" fill="#C79D69"/>
<path d="M71.5736 22.036H74.1923L71.2366 25.8813L72.7144 25.3357L73.3626 27.6221L75.6183 26.0891L72.5329 29.5447H74.7368L76.3443 31.0256L75.4627 34.4292L81.7631 33.0522L77.874 37.3392" stroke="#534741" stroke-width="0.79987" stroke-miterlimit="10" stroke-linecap="round"/>
<path d="M43.5457 47.1083C43.2086 46.2509 42.4568 45.6273 41.3678 45.1597C37.0379 43.315 32.1117 45.4714 29.8301 49.6025C28.3263 52.3046 26.3299 55.2925 23.6335 58.2544C19.4332 62.8271 16.9701 63.5286 14.533 67.6597C11.3439 73.0639 9.55489 81.9756 13.2366 85.587C18.3702 90.6274 29.4931 87.042 36.286 77.065C38.9306 73.1678 41.7308 72.3364 47.1496 54.9287C47.9793 52.2266 49.9498 48.5373 48.6015 45.8352C47.0459 42.7174 41.7567 41.2884 38.7751 42.3536C35.8712 43.3929 36.286 46.8485 32.1377 55.0846C29.0004 61.2942 26.7448 63.2948 27.2374 63.7625C28.4819 64.9316 45.6458 52.5644 43.5457 47.1083Z" fill="#7C7C71"/>
<path d="M61.3062 44.8999C65.6361 43.0552 70.5623 45.2117 72.8439 49.3427C74.3477 52.0448 76.3441 55.0327 79.0406 57.9946C83.2408 62.5674 85.7039 63.2689 88.1411 67.3999C91.3301 72.8041 93.1191 81.7158 89.4374 85.3272C84.3038 90.3676 73.181 86.7822 66.388 76.8053C63.7434 72.908 60.9432 72.0766 55.5244 54.669C54.6947 51.9669 52.7242 48.2775 54.0725 45.5754C55.6281 42.4576 60.9173 41.0286 63.899 42.0939C66.8028 43.1331 66.388 46.5887 70.5364 54.8248C70.6141 54.9807 70.666 55.1106 70.7179 55.2406C72.8958 60.5928 60.2173 45.3416 61.3062 44.8999Z" fill="#7C7C71"/>
<path d="M52.1282 33.8057L51.9467 31.6492C51.9208 31.2335 51.8171 30.8438 51.6874 30.4801V24.0366C51.6874 23.569 51.3245 23.1792 50.9096 23.1792C50.4948 23.1792 50.1318 23.569 50.1318 24.0366V26.6608L49.6132 21.6463C49.5614 21.0488 49.1984 20.2433 48.7836 20.2433H48.5502C48.1095 20.2433 47.7724 20.633 47.7724 21.1007V20.5811C47.7724 20.1134 47.4094 19.7237 46.9946 19.7237H46.7872C46.3464 19.7237 46.0093 20.1134 46.0093 20.5811V21.4385C45.8797 21.2046 45.6204 21.0488 45.3612 21.0488H45.1537C44.713 21.0488 44.35 21.2046 44.2203 22.166L43.6499 30.9477L43.5981 31.2595C43.5203 30.9218 43.4425 30.61 43.3647 30.3502C43.3388 30.2462 43.2351 29.8825 43.0018 29.4668C42.6906 28.9472 42.3536 28.7653 42.2758 28.7393C42.1202 28.6614 41.5239 28.2197 41.0313 28.8432C40.8757 29.0771 41.2387 29.9085 41.3424 30.3761C41.498 31.1296 41.1091 32.6625 41.1091 32.8184C41.2646 34.9489 41.1091 36.0401 41.498 37.2353C41.6276 37.625 41.6276 37.7549 42.198 38.5344C42.3536 38.7422 42.5869 39.028 42.8203 39.3398C41.3683 41.4703 39.8905 44.7959 41.498 46.3808C42.6647 47.498 45.3612 47.9397 45.4908 47.9137C47.7205 47.1602 49.5614 42.8733 50.0281 40.8987C50.054 40.8207 50.054 40.7428 50.0799 40.6648C51.4022 40.1192 52.3615 38.7162 52.3615 37.1054V36.5598C52.2838 35.5984 52.2319 34.6891 52.1282 33.8057Z" fill="#C79F75"/>
<path d="M64.2878 30.3762C64.3656 29.9085 64.7286 29.0511 64.573 28.8433C64.1323 28.1937 63.5878 28.6614 63.4322 28.7394C63.3545 28.7913 63.0433 28.9472 62.7322 29.4668C62.4988 29.8566 62.4211 30.2203 62.3951 30.3502C62.3433 30.636 62.2655 30.9478 62.1877 31.2596L62.1618 31.1037L62.2655 22.5557C62.2136 21.5944 61.8766 21.3866 61.4877 21.3606L61.2803 21.3346C61.0469 21.3086 60.8136 21.4385 60.6839 21.6204C60.6839 21.6464 60.658 21.6204 60.658 21.6204L60.7099 20.841C60.7358 20.3733 60.4506 19.9316 60.0357 19.9056L59.8543 19.8796C59.4394 19.8277 59.0764 20.1914 59.0505 20.6851L58.532 27.882C58.506 28.2457 58.2468 28.5055 57.9356 28.5055H57.9097C57.6245 28.5055 57.3912 28.2717 57.3393 27.9599L56.1207 20.711C56.0429 20.2434 55.654 19.9316 55.2392 20.0355H55.0318C54.6428 20.1395 54.4614 20.9968 54.5132 21.5944L54.8762 26.6348L54.4614 24.1146C54.3836 23.6989 54.0984 23.3612 53.7354 23.3872C53.2687 23.3872 52.9576 23.9068 53.0353 24.4004L54.3058 31.4934C54.3576 32.5327 54.228 33.8317 54.228 33.8317C54.1243 34.7151 54.0724 35.6245 54.0724 36.5338V37.0535C54.0724 38.2226 54.5391 39.2619 55.2392 39.9634C55.2651 40.1453 55.2133 40.3271 55.2651 40.483L56.3022 44.3543C56.7689 46.147 58.6097 47.2123 60.3987 46.7446L60.8914 46.6147C62.6803 46.147 63.7434 44.3023 63.2767 42.5096L62.5507 39.7815C62.9137 39.3658 63.2767 38.8722 63.51 38.5344C64.0545 37.755 64.0286 37.6251 64.1582 37.2353C64.5212 36.0662 64.3656 34.9749 64.5212 32.8185C64.5212 32.6626 64.1582 31.1297 64.2878 30.3762Z" fill="#C79F75"/>
<path d="M44.8424 75.792C43.572 75.6361 43.1831 81.8197 36.9087 97.6945C34.0048 105.021 29.9601 102.085 29.286 104.164C27.2896 110.244 30.6342 116.817 29.3119 118.74C28.8453 119.415 27.6267 121.104 27.4711 123.494C27.2637 126.69 29.8046 132.588 32.7344 132.796C39.0866 133.237 47.1759 107.152 46.5537 85.1454C46.5018 83.7943 46.2944 75.9739 44.8424 75.792Z" fill="#343418"/>
<path d="M37.8678 140.33C43.857 141.993 44.4793 140.148 47.2535 132.64L66.1027 80.3127C67.7621 74.311 64.21 68.0494 58.2208 66.4126C52.2316 64.7497 45.9831 68.3092 44.3496 74.311L32.6564 127.651C30.2711 136.355 31.9045 138.693 37.8678 140.33Z" fill="#6F711E"/>
<path d="M50.8573 144.669C56.5873 147.085 57.4169 145.345 61.1505 138.226L86.5075 88.7567C88.9187 83.0148 86.1963 76.3635 80.4664 73.9472C74.7364 71.531 68.099 74.259 65.6878 80.001L47.3053 131.419C43.831 139.759 45.1533 142.253 50.8573 144.669Z" fill="#343418"/>
<path d="M79.8704 47.8878L81.7631 53.214L86.8967 50.5639L85.6781 55.9941L88.4523 58.3064H92.6007C92.6007 58.3064 91.0451 62.4635 91.4858 63.165C91.9007 63.8665 94.2341 67.1142 94.2341 67.1142L97.0084 68.2574H101.157L95.3749 74.363" stroke="#534741" stroke-width="0.79987" stroke-miterlimit="10" stroke-linecap="round"/>
<path d="M6.83274 72.1545L4.75854 64.9057L11.1885 66.0229V61.1124L15.6221 62.6972L18.863 57.8387L16.7889 52.0448L22.5707 54.1233L15.3888 38.3785L19.7964 43.3929L22.5707 38.3785" stroke="#534741" stroke-width="0.79987" stroke-miterlimit="10" stroke-linecap="round"/>
<path d="M4.75861 84.9374H8.23288L1.98438 91.0691L8.23288 88.0033L9.37368 91.0691L13.6517 89.3283L11.1886 97.9022L16.5556 91.4068" stroke="#534741" stroke-width="0.79987" stroke-miterlimit="10" stroke-linecap="round"/>
<path d="M95.8417 94.4208C95.1416 94.4208 88.4524 91.4069 88.4524 91.4069L93.5341 101.124L86.8967 99.747L90.5265 106.918H83.1372V114.738L89.4894 116.635L81.7631 119.467L88.7894 123.364L81.7631 125.91L78.0295 132.77" stroke="#534741" stroke-width="0.79987" stroke-miterlimit="10" stroke-linecap="round"/>
<path d="M17.9298 109.386L15.3889 116.193L10.3071 117.96H17.9298L22.5708 121.078L16.426 125.469L22.5708 127.08L13.6518 131.964L25.1117 130.327" stroke="#534741" stroke-width="0.79987" stroke-miterlimit="10" stroke-linecap="round"/>
<path d="M38.3349 158.543C38.8016 157.218 38.9572 158.128 41.0832 157.504C44.0908 156.621 47.8244 158.284 48.9652 161.038C49.5874 162.545 49.017 164.103 48.1614 166.208C47.4354 168.001 45.9576 172.366 43.0537 172.677C40.2536 172.989 37.0126 171.612 35.9237 168.806C34.7051 165.662 37.609 160.544 38.3349 158.543Z" fill="#B3B3B3"/>
<path d="M42.924 149.398C39.7349 156.309 36.3644 159.037 38.1015 164.077C38.9312 166.52 42.6906 168.286 46.2427 166.78C50.2096 165.091 49.4058 159.946 51.9986 153.009C52.6986 151.113 51.143 148.67 51.143 148.67C51.6874 146.904 47.5391 144.903 46.139 146.774C45.9834 146.956 43.9092 147.241 42.924 149.398Z" fill="#333333"/>
<path d="M47.7722 157.114C47.5647 157.036 47.3573 157.088 47.1758 157.218L43.8831 156.023C43.8312 155.815 43.7016 155.633 43.4941 155.555C43.183 155.452 42.82 155.607 42.7163 155.919C42.6126 156.231 42.7682 156.595 43.0793 156.699C43.2349 156.751 43.3904 156.751 43.5201 156.673L47.0203 157.946C47.0981 158.076 47.2018 158.18 47.3573 158.232C47.6685 158.335 48.0314 158.18 48.1351 157.868C48.2389 157.582 48.0833 157.244 47.7722 157.114Z" fill="#B3B3B3"/>
<path d="M48.4724 155.14C48.2649 155.062 48.0316 155.114 47.876 155.244L46.1389 155.322L44.6092 154.152C44.6092 153.919 44.4536 153.685 44.1943 153.607C43.8832 153.503 43.5202 153.659 43.4165 153.971C43.3128 154.282 43.4684 154.646 43.7795 154.75C43.9091 154.802 44.0128 154.776 44.1425 154.75L46.1648 156.309L46.3463 156.075L47.7464 155.997C47.8242 156.127 47.9279 156.205 48.0575 156.257C48.3686 156.361 48.7316 156.205 48.8353 155.893C48.965 155.607 48.7835 155.27 48.4724 155.14Z" fill="#B3B3B3"/>
<path d="M49.1205 153.347C48.8872 153.269 48.6279 153.321 48.4723 153.503L46.8389 153.581L45.2833 152.36C45.2833 152.1 45.1277 151.892 44.8684 151.788C44.5573 151.684 44.1943 151.84 44.0906 152.152C43.9869 152.464 44.1424 152.827 44.4536 152.931C44.5573 152.983 44.6869 152.957 44.7906 152.931L46.813 154.49L46.9685 154.282L48.4464 154.204C48.5242 154.308 48.602 154.386 48.7316 154.438C49.0427 154.542 49.4057 154.386 49.5094 154.075C49.6131 153.815 49.4316 153.451 49.1205 153.347Z" fill="#B3B3B3"/>
<path d="M49.8207 151.372C49.5355 151.269 49.2244 151.398 49.0947 151.658L47.5909 151.736L45.9575 150.489C45.9834 150.203 45.8279 149.943 45.5686 149.84C45.2575 149.736 44.8945 149.892 44.7908 150.203C44.6871 150.515 44.8426 150.879 45.1538 150.983C45.2316 151.009 45.3353 151.009 45.413 151.009L47.5391 152.646L47.6687 152.464L49.2244 152.386C49.2762 152.438 49.3281 152.464 49.4059 152.49C49.717 152.594 50.08 152.438 50.1837 152.126C50.3133 151.84 50.1578 151.476 49.8207 151.372Z" fill="#B3B3B3"/>
<path d="M24.5669 153.269C25.0336 151.944 25.1891 152.853 27.3152 152.23C30.3227 151.346 34.0563 153.009 35.1971 155.763C35.8193 157.27 35.2489 158.829 34.3933 160.934C33.6674 162.726 32.1895 167.091 29.2856 167.403C26.4855 167.715 23.2446 166.338 22.1556 163.532C20.937 160.388 23.8409 155.296 24.5669 153.269Z" fill="#B3B3B3"/>
<path d="M29.182 144.123C25.993 151.035 22.6224 153.763 24.3595 158.803C25.1892 161.245 28.9487 163.012 32.5007 161.505C36.4676 159.816 35.6639 154.672 38.2566 147.735C38.9567 145.838 37.401 143.396 37.401 143.396C37.9455 141.629 33.7971 139.629 32.397 141.499C32.2415 141.681 30.1673 141.967 29.182 144.123Z" fill="#333333"/>
<path d="M34.0043 151.866C33.7969 151.788 33.5895 151.84 33.408 151.97L30.1152 150.775C30.0634 150.567 29.9337 150.385 29.7263 150.307C29.4152 150.203 29.0522 150.359 28.9485 150.671C28.8448 150.983 29.0004 151.346 29.3115 151.45C29.467 151.502 29.6226 151.502 29.7523 151.424L33.2524 152.697C33.3302 152.827 33.4339 152.931 33.5895 152.983C33.9006 153.087 34.2636 152.931 34.3673 152.619C34.497 152.334 34.3414 151.97 34.0043 151.866Z" fill="#B3B3B3"/>
<path d="M34.7304 149.891C34.523 149.813 34.2897 149.865 34.1341 149.995L32.397 150.073L30.8672 148.904C30.8672 148.67 30.7117 148.436 30.4524 148.358C30.1413 148.255 29.7783 148.41 29.6746 148.722C29.5709 149.034 29.7264 149.398 30.0376 149.502C30.1672 149.554 30.2709 149.528 30.4005 149.502L32.4229 151.061L32.6044 150.827L34.0044 150.749C34.0822 150.879 34.1859 150.957 34.3156 151.009C34.6267 151.113 34.9897 150.957 35.0934 150.645C35.1971 150.359 35.0415 149.995 34.7304 149.891Z" fill="#B3B3B3"/>
<path d="M35.3788 148.073C35.1455 147.995 34.8862 148.047 34.7306 148.229L33.0972 148.307L31.5416 147.085C31.5416 146.826 31.386 146.618 31.1267 146.514C30.8156 146.41 30.4526 146.566 30.3489 146.878C30.2452 147.189 30.4007 147.553 30.7119 147.657C30.8156 147.709 30.9452 147.683 31.0489 147.657L33.0713 149.216L33.2268 149.008L34.7047 148.93C34.7825 149.034 34.8603 149.112 34.9899 149.164C35.301 149.268 35.664 149.112 35.7677 148.8C35.8455 148.54 35.6899 148.203 35.3788 148.073Z" fill="#B3B3B3"/>
<path d="M36.0785 146.098C35.7933 145.994 35.4822 146.124 35.3525 146.384L33.8488 146.462L32.2153 145.215C32.2413 144.929 32.0857 144.669 31.8264 144.565C31.5153 144.461 31.1523 144.617 31.0486 144.929C30.9449 145.241 31.1005 145.604 31.4116 145.708C31.4894 145.734 31.5931 145.734 31.6709 145.734L33.7969 147.371L33.9265 147.189L35.4822 147.111C35.534 147.163 35.5859 147.189 35.6637 147.215C35.9748 147.319 36.3378 147.163 36.4415 146.852C36.5452 146.54 36.3896 146.228 36.0785 146.098Z" fill="#B3B3B3"/>
</g>
<defs>
<clipPath id="clip0_182_437">
<rect width="101.584" height="171.972" fill="white" transform="translate(0.325195 0.757202)"/>
</clipPath>
</defs>
</svg>
