<svg width="175" height="177" viewBox="0 0 175 177" fill="none" xmlns="http://www.w3.org/2000/svg">
<g clip-path="url(#clip0_101_502)">
<path d="M106.41 107.875C105.147 106.449 102.967 103.834 102.839 100.14C102.674 95.3851 106.007 90.0818 109.084 90.0453C112.656 90.0087 116.703 97.232 124.359 98.7682C131.19 100.14 135.568 85.2175 137.985 77.3175C140.037 70.6062 151.502 78.9816 156.099 79.9508C159.908 80.7555 161.868 86.8633 162.894 90.0453C165.055 96.7566 165.586 106.193 161.813 114.751C156.245 127.387 144.762 130.222 142.875 130.642C129.249 133.696 119.451 122.633 106.41 107.875Z" fill="#646454"/>
<path d="M149.872 171.55C134.927 172.904 121.722 160.048 120.531 143.004L124.89 111.679C123.7 94.6353 127.216 73.4406 142.93 71.4473C157.875 70.0941 170.11 83.9739 171.3 101.036L174.908 138.103C176.081 155.147 164.817 170.197 149.872 171.55Z" fill="#A5A693"/>
<path d="M128.315 78.0124L125.183 53.6541C125.147 53.4164 125.165 53.1603 125.22 52.9409L125.073 52.3557C122.637 42.5173 126.703 36.4094 135.33 33.6481C143.645 30.9782 152.308 36.2631 155.128 45.4249C155.311 45.7541 155.495 46.1016 155.641 46.4307C157.07 49.4846 158.718 52.4106 160.623 55.0805C163.883 59.6705 166.612 64.736 168.333 70.3136L168.407 70.5696C169.212 71.6668 160.22 77.0615 144.414 80.5909L133.15 82.383C127.399 81.7429 129.597 82.9316 128.315 78.0124Z" fill="#534741"/>
<path d="M140.733 85.126C140.733 85.126 133.7 86.1867 133.059 79.2925L132.473 70.789C132.161 66.1807 135.147 62.1027 139.121 61.7552C143.095 61.3895 146.612 64.8823 146.923 69.4906L147.509 77.9941C147.82 82.6024 144.707 84.7603 140.733 85.126Z" fill="#C79D69"/>
<path d="M149.56 48.8629C149.304 48.8812 149.084 48.9543 148.846 49.0092L148.755 47.6194C148.242 40.2863 142.674 34.7636 136.355 35.3305C130.037 35.8974 125.293 42.3527 125.806 49.6858L126.593 61.0237C127.106 68.3568 132.674 73.8795 138.993 73.3126C144.689 72.8006 149.066 67.4791 149.505 61.0786C149.799 61.1152 150.11 61.1335 150.421 61.0969C153.333 60.8409 155.513 57.8784 155.275 54.4953C155.018 51.1305 152.473 48.6069 149.56 48.8629Z" fill="#F2C99B"/>
<path d="M128.448 54.6258C128.7 54.6085 128.83 53.5081 128.738 52.168C128.646 50.8278 128.367 49.7554 128.115 49.7726C127.863 49.7899 127.733 50.8903 127.825 52.2304C127.917 53.5706 128.196 54.643 128.448 54.6258Z" fill="#534741"/>
<path d="M138.155 54.3145C138.407 54.2973 138.537 53.1969 138.445 51.8567C138.353 50.5166 138.074 49.4441 137.822 49.4614C137.57 49.4786 137.44 50.579 137.532 51.9192C137.623 53.2594 137.902 54.3318 138.155 54.3145Z" fill="#534741"/>
<path d="M129.799 58.7013C129.615 59.7253 130.165 60.1825 130.641 60.1277L131.813 60.0179C132.289 59.9814 132.656 59.4876 132.601 58.939L132.143 52.3923C130.934 52.374 129.799 58.7013 129.799 58.7013Z" fill="#C79D69"/>
<path d="M125.842 64.9555C124.67 58.3538 122.582 45.9735 125.879 40.4691C126.758 38.9879 130.421 35.4951 132.949 35.2756C133.059 35.2573 133.132 35.2573 133.168 35.2756C133.297 35.0562 133.462 34.8733 133.755 34.7636C138.864 32.7155 143.15 35.9157 143.663 36.2814C146.502 38.2381 148.59 41.9321 149.286 46.9062C149.927 51.4779 150.22 79.7496 149.853 79.3473C148.553 77.8661 147.729 74.0807 144.67 47.9851C144.487 46.449 143.81 44.1083 142.308 44.09C138.553 44.0534 134.048 42.2613 132.894 39.2073C131.923 41.8224 129.121 45.1323 126.795 46.2844C125.421 46.9793 126.136 56.068 126.319 57.5858C127.454 67.0219 131.374 81.5601 130.861 82.1818C130.531 82.6024 126.648 69.4906 125.842 64.9555Z" fill="#736357"/>
<path d="M144.799 48.4057L149.725 46.833C149.927 46.7782 150.037 46.5221 149.982 46.3027L149.835 45.7175C149.78 45.4981 149.579 45.3518 149.377 45.4249L144.451 46.9976C144.249 47.0525 144.139 47.3085 144.194 47.5279L144.341 48.1131C144.377 48.3325 144.597 48.4788 144.799 48.4057Z" fill="#666724"/>
<path d="M144.176 45.9004L149.103 44.3277C149.304 44.2728 149.414 44.0168 149.359 43.7974L149.212 43.2122C149.157 42.9927 148.956 42.8465 148.755 42.9196L143.828 44.4923C143.626 44.5471 143.516 44.8032 143.571 45.0226L143.718 45.6078C143.773 45.8272 143.974 45.9735 144.176 45.9004Z" fill="#666724"/>
<path d="M83.1136 92.77C83.3333 91.2522 85.3114 90.2281 88.6264 87.6496C88.9011 87.4302 89.652 86.8633 89.8352 86.0587C90 85.4003 89.8352 84.9249 89.5238 83.6813C89.0842 81.9441 88.9744 81.0114 88.9011 80.1702C88.8095 78.9999 88.7912 79.0364 88.8278 77.4272C88.8645 75.4156 88.8278 74.6293 88.9377 73.4223C89.0476 72.2703 89.7802 67.2596 90.6776 67.1133C91.6483 66.967 91.5201 67.7716 91.7582 67.6985C91.7582 67.6985 92.1245 64.224 92.2527 62.5781C92.326 61.5541 92.7656 58.2441 93.1685 57.5675C93.8278 56.5068 94.5055 57.1469 94.5055 57.1469C94.5238 56.4703 94.5787 55.6108 94.6703 55.3731C94.9267 54.6964 96.1905 54.5867 96.337 55.5193C96.4286 56.068 96.4469 56.6714 96.6667 56.8726C96.6667 56.8726 97.2527 56.196 98.022 56.8909C98.5165 57.348 98.5531 59.8168 98.5714 60.402C98.6081 61.6089 98.315 70.0392 98.6813 70.1307C98.8462 70.1672 99.1941 69.1797 99.3223 68.2105C99.5055 66.967 99.3956 65.4492 99.8352 63.5656C100.147 62.2124 101.355 62.8159 101.557 63.4925C102.015 65.0103 101.96 67.1133 101.813 68.7774C101.3 74.1721 101.136 73.0017 101.117 74.5196C101.081 77.0614 101.044 77.2443 101.117 80.1702C101.209 83.9191 100.989 85.5649 100.348 86.8816C100.018 87.5765 99.7253 88.0702 98.5531 89.3869C97.3443 90.7584 90.7509 97.3417 90.4762 97.488C87.8571 98.8596 82.7656 95.0559 83.1136 92.77Z" fill="#C79D69"/>
<path d="M109.249 93.3918C109.029 91.8739 109.121 91.2339 105.788 88.6554C105.513 88.436 104.762 87.8691 104.579 87.0645C104.414 86.4061 104.579 85.9307 104.89 84.6871C105.33 82.9499 105.44 82.0172 105.513 81.176C105.604 80.0057 105.623 80.0422 105.586 78.433C105.549 76.4214 105.586 75.6351 105.476 74.4281C105.366 73.2761 104.634 68.2654 103.736 68.1191C102.766 67.9728 102.894 68.7774 102.656 68.7043C102.656 68.7043 102.289 65.2298 102.161 63.5839C102.088 62.5599 101.648 59.2499 101.245 58.5733C100.586 57.5126 99.9084 58.1527 99.9084 58.1527C99.8901 57.4761 99.8352 56.6166 99.7436 56.3789C99.4872 55.7022 98.2234 55.5925 98.0769 56.5251C97.9853 57.0738 97.967 57.6772 97.7473 57.8784C97.7473 57.8784 97.1612 57.2018 96.3919 57.8967C95.8974 58.3538 95.8608 60.8226 95.8425 61.4078C95.8059 62.6147 96.0989 71.045 95.7326 71.1365C95.5678 71.173 95.2198 70.1855 95.0916 69.2163C94.9084 67.9728 95.0183 66.455 94.5788 64.5714C94.2674 63.2182 93.0586 63.8217 92.8571 64.4983C92.3993 66.0161 92.4542 68.1191 92.6007 69.7832C93.1136 75.1779 93.2784 74.0075 93.2967 75.5254C93.3333 78.0672 93.37 78.2501 93.2967 81.176C93.2051 84.9249 93.4249 86.5707 94.0659 87.8874C94.3956 88.5823 94.6886 89.076 95.8608 90.3927C97.0696 91.7642 103.663 98.3475 103.938 98.4938C106.557 99.8654 109.597 95.6594 109.249 93.3918Z" fill="#F2C99B"/>
<path d="M88.2967 106.686C90.0366 105.26 93.0586 102.645 93.2235 98.9511C93.4432 94.1964 88.8462 88.8932 84.5971 88.8566C79.6887 88.82 74.0843 96.0434 63.5531 97.5795C54.1392 98.9511 46.9963 78.049 40.293 73.8064C30.0183 67.3145 26.1539 77.793 19.8169 78.7622C14.5788 79.5668 11.8681 85.6747 10.4579 88.8566C7.49085 95.568 12.7106 89.2406 17.9121 97.799C25.5861 110.435 37.1612 118.792 39.4322 120.31C58.6081 133.184 70.3297 121.444 88.2967 106.686Z" fill="#56571E"/>
<path d="M28.2784 177C43.4982 177.055 55.6777 162.169 55.348 143.937L48.1502 111.057C47.8205 92.8249 42.3993 70.6427 26.337 69.9661C11.1172 69.9296 0 85.821 0.32967 104.053L0 143.773C0.32967 162.005 13.0586 176.963 28.2784 177Z" fill="#6F711E"/>
<path d="M61.9963 125.449C63.7912 123.986 71.8315 118.207 75.0183 110.143C77.2527 104.492 71.3187 95.4765 67.5092 95.4217C63.0952 95.3668 55.2564 99.902 46.2088 104.108C37.3993 108.204 28.315 104.711 24.9817 94.5805C20.5128 80.9932 18.022 77.0432 12.3443 78.305C7.65567 79.3657 5.29303 83.718 4.0293 87.8874C1.3553 96.6652 3.00366 107.473 7.49084 118.738C17.9853 145.126 50.2381 135.068 61.9963 125.449Z" fill="#666724"/>
<path d="M86.4835 1.04236L90.1649 8.50346C90.4396 9.05207 90.9707 9.4361 91.5751 9.52753L99.8352 10.7162C101.374 10.9356 101.978 12.8192 100.879 13.8981L94.9084 19.7134C94.4689 20.134 94.2674 20.7558 94.3773 21.3592L95.7876 29.5701C96.044 31.0879 94.4506 32.2583 93.0769 31.5451L85.696 27.6683C85.1465 27.3757 84.5055 27.3757 83.9561 27.6683L76.5751 31.5451C75.2015 32.2583 73.6081 31.1062 73.8645 29.5701L75.2747 21.3592C75.3846 20.7558 75.1832 20.134 74.7436 19.7134L68.7729 13.8981C67.6557 12.8192 68.2784 10.9356 69.8169 10.7162L78.0769 9.52753C78.6813 9.4361 79.2125 9.05207 79.4872 8.50346L83.1685 1.04236C83.8095 -0.347453 85.7876 -0.347453 86.4835 1.04236Z" fill="#FFE193"/>
<path d="M111.538 26.0407L112.839 28.6558C112.93 28.8569 113.114 28.9849 113.333 29.0215L116.227 29.4421C116.758 29.5153 116.978 30.1736 116.593 30.5576L114.505 32.5875C114.359 32.7338 114.286 32.9532 114.322 33.1727L114.817 36.0437C114.908 36.574 114.341 36.9764 113.864 36.7386L111.282 35.3854C111.099 35.294 110.861 35.294 110.678 35.3854L108.059 36.7203C107.582 36.9764 107.015 36.574 107.106 36.0254L107.601 33.1544C107.637 32.9349 107.564 32.7338 107.418 32.5692L105.311 30.5393C104.927 30.1553 105.128 29.497 105.678 29.4238L108.571 29.0032C108.791 28.9666 108.974 28.8386 109.066 28.6375L110.366 26.0224C110.604 25.547 111.282 25.547 111.538 26.0407Z" fill="#FFE193"/>
<path d="M61.1538 26.0407L62.4542 28.6558C62.5458 28.8569 62.7289 28.9849 62.9487 29.0215L65.8425 29.4421C66.3736 29.5153 66.5934 30.1736 66.2088 30.5576L64.1209 32.5875C63.9743 32.7338 63.9011 32.9532 63.9377 33.1727L64.4322 36.0437C64.5238 36.574 63.956 36.9764 63.4798 36.7386L60.8974 35.3854C60.7143 35.294 60.4762 35.294 60.293 35.3854L57.7106 36.7386C57.2344 36.9946 56.6667 36.5923 56.7582 36.0437L57.2527 33.1727C57.2894 32.9532 57.2161 32.7521 57.0696 32.5875L54.9817 30.5576C54.5971 30.1736 54.7985 29.5153 55.348 29.4421L58.2417 29.0215C58.4615 28.9849 58.6447 28.8569 58.7363 28.6558L60.0366 26.0407C60.2198 25.547 60.8974 25.547 61.1538 26.0407Z" fill="#FFE193"/>
<path d="M42.967 46.3759C42.9854 46.193 42.9487 46.0101 42.8938 45.8273L43.0037 45.3884C44.7985 38.1284 40.4579 33.2092 31.8132 30.4296C23.5165 27.778 15.3114 31.0879 13.1136 37.8176C12.9487 38.0553 12.8022 38.293 12.674 38.5307C11.4469 40.7252 10.0183 42.8099 8.31503 44.6935C5.40294 47.912 10.0366 61.3347 25.7326 65.2481L32.967 66.0893C41.4652 66.0893 42.967 46.3759 42.967 46.3759Z" fill="#534741"/>
<path d="M26.3919 81.9258C26.3919 81.9258 33.4249 82.9864 34.0659 76.0922L34.652 67.5888C34.9634 62.9804 31.978 58.9024 28.0037 58.555C24.0293 58.1892 20.5128 61.6821 20.2015 66.2904L19.6154 74.7939C19.304 79.4022 22.4176 81.56 26.3919 81.9258Z" fill="#C79D69"/>
<path d="M17.5824 45.6809C17.8388 45.6992 18.0586 45.7724 18.2967 45.8272L18.3883 44.4374C18.9011 37.1043 24.4689 31.5816 30.7875 32.1485C37.1062 32.7154 41.8498 39.1708 41.337 46.5038L40.5494 57.8418C40.0366 65.1749 34.4689 70.6976 28.1502 70.1307C22.4542 69.6186 18.0769 64.2971 17.6374 57.8967C17.3443 57.9332 17.033 57.9515 16.7216 57.9149C13.8095 57.6589 11.63 54.6964 11.8681 51.3133C12.1062 47.9485 14.6703 45.4066 17.5824 45.6809Z" fill="#F2C99B"/>
<path d="M39.3113 49.0178C39.4032 47.6776 39.2731 46.5772 39.0208 46.56C38.7685 46.5427 38.4895 47.6152 38.3976 48.9553C38.3057 50.2955 38.4358 51.3959 38.6881 51.4131C38.9404 51.4304 39.2194 50.3579 39.3113 49.0178Z" fill="#534741"/>
<path d="M29.6101 48.7066C29.702 47.3664 29.572 46.2661 29.3197 46.2488C29.0674 46.2316 28.7884 47.304 28.6965 48.6442C28.6046 49.9843 28.7346 51.0847 28.9869 51.102C29.2392 51.1192 29.5183 50.0468 29.6101 48.7066Z" fill="#534741"/>
<path d="M37.326 55.5193C37.5092 56.5434 36.9597 57.0006 36.4835 56.9457L35.3114 56.836C34.8352 56.7994 34.4689 56.3057 34.5238 55.7571L34.9817 49.2103C36.1905 49.192 37.326 55.5193 37.326 55.5193Z" fill="#C79D69"/>
<path d="M22.2894 29.9541C22.2894 29.9541 29.2857 24.1388 33.1319 25.108C34.8352 25.5287 35.6044 27.6865 35.9158 28.9117L37.2527 27.2659C39.1392 24.3217 41.8864 26.443 43.0586 29.5335C44.2125 32.5509 45.8059 38.7684 43.8278 45.0409C42.967 47.7839 40.9707 44.5106 39.9451 40.5423C39.7436 39.7377 38.4799 35.8425 37.1978 35.1476C36.4103 34.727 35.989 35.5499 35.7875 36.2631C35.7509 36.4643 35.7143 36.6837 35.6593 36.8849L35.6044 37.1226C35.6044 37.1226 34.1209 32.2948 32.4542 35.3488C31.3919 37.2872 31.1538 39.5548 28.7363 42.4807C25.9707 45.8272 18.0403 45.8821 17.5824 45.6444C17.1245 45.4066 16.9963 41.9321 16.9963 41.9321L22.2894 29.9541Z" fill="#534741"/>
<path d="M65.6044 100.487C65.8242 98.9693 67.8022 97.9453 71.1172 95.3668C71.3919 95.1474 72.1428 94.5804 72.326 93.7758C72.4908 93.1175 72.326 92.642 72.0146 91.3985C71.5751 89.6612 71.4652 88.7286 71.3919 87.8874C71.3003 86.717 71.282 86.7536 71.3187 85.1444C71.3553 83.1328 71.3187 82.3464 71.4286 81.1395C71.5384 79.9874 72.271 74.9768 73.1685 74.8305C74.1392 74.6842 74.011 75.4888 74.2491 75.4157C74.2491 75.4157 74.6154 71.9411 74.7436 70.2953C74.8168 69.2712 75.2564 65.9613 75.6593 65.2847C76.3187 64.224 76.9963 64.8641 76.9963 64.8641C77.0146 64.1874 77.0696 63.3279 77.1612 63.0902C77.4176 62.4136 78.6813 62.3039 78.8278 63.2365C78.9194 63.7851 78.9377 64.3886 79.1575 64.5897C79.1575 64.5897 79.7436 63.9131 80.5128 64.608C81.0073 65.0652 81.0439 67.534 81.0622 68.1191C81.0989 69.3261 80.8058 77.7564 81.1721 77.8478C81.337 77.8844 81.685 76.8969 81.8132 75.9277C81.9963 74.6842 81.8864 73.1664 82.326 71.2828C82.6373 69.9296 83.8461 70.533 84.0476 71.2096C84.5055 72.7275 84.4505 74.8305 84.304 76.4946C83.7912 81.8893 83.6264 80.7189 83.608 82.2367C83.5714 84.7786 83.5348 84.9615 83.608 87.8874C83.6996 91.6362 83.4798 93.2821 82.8388 94.5987C82.5091 95.2936 82.2161 95.7874 81.0439 97.1041C79.8351 98.4756 73.2417 105.059 72.967 105.205C70.3663 106.577 65.2747 102.755 65.6044 100.487Z" fill="#C79D69"/>
<path d="M103.681 129.637C101.685 128.174 87.033 115.336 85.9341 110.015C84.6886 103.943 90.1099 95.7508 94.359 95.696C99.2857 95.6411 106.63 102.517 115.293 109.283C123.297 115.537 141.3 108.899 145.037 98.7499C150.037 85.1626 152.821 81.2126 159.139 82.4744C164.377 83.5351 167.015 87.8874 168.425 92.0568C171.392 100.835 169.744 111.715 164.56 122.907C156.886 139.438 144.707 138.561 142.088 139C125.769 141.706 116.813 139.274 103.681 129.637Z" fill="#7C7C71"/>
<path d="M93.8095 101.475C93.5897 99.9568 91.6117 98.9327 88.2967 96.3542C88.022 96.1348 87.2711 95.5679 87.0879 94.7633C86.9231 94.1049 87.0879 93.6295 87.3993 92.386C87.8388 90.6487 87.9487 89.7161 88.022 88.8749C88.1136 87.7045 88.1319 87.7411 88.0952 86.1318C88.0586 84.1202 88.0952 83.3339 87.9853 82.1269C87.8755 80.9749 87.1429 75.9642 86.2454 75.8179C85.2747 75.6716 85.4029 76.4763 85.1648 76.4031C85.1648 76.4031 84.7985 72.9286 84.6703 71.2827C84.5971 70.2587 84.1575 66.9487 83.7546 66.2721C83.0952 65.2298 82.4176 65.8698 82.4176 65.8698C82.3993 65.1932 82.3443 64.3337 82.2527 64.096C81.9963 63.4193 80.7326 63.3096 80.5861 64.2423C80.4945 64.7909 80.4762 65.3943 80.2564 65.5955C80.2564 65.5955 79.6703 64.9189 78.9011 65.6138C78.4066 66.071 78.37 68.5397 78.3516 69.1249C78.315 70.3318 78.6081 78.7621 78.2418 78.8536C78.0769 78.8901 77.7289 77.9026 77.6007 76.9334C77.4176 75.6899 77.5275 74.1721 77.0879 72.2885C76.7766 70.9353 75.5678 71.5388 75.3663 72.2154C74.9084 73.7332 74.9634 75.8362 75.1099 77.5003C75.6227 82.895 75.7875 81.7246 75.8059 83.2425C75.8425 85.7844 75.8791 85.9672 75.8059 88.8931C75.7143 92.642 75.9341 94.2878 76.5751 95.6045C76.9048 96.2994 77.1978 96.7931 78.37 98.1098C79.5788 99.4813 86.1722 106.065 86.4469 106.211C89.0476 107.564 94.1575 103.742 93.8095 101.475Z" fill="#F2C99B"/>
<path d="M31.337 61.0055C31.337 61.0055 34.1758 63.6205 36.4103 61.0055" stroke="#534741" stroke-width="0.1853" stroke-miterlimit="10" stroke-linecap="round"/>
<path d="M129.908 64.9372C129.908 64.9372 132.747 67.5522 134.982 64.9372" stroke="#534741" stroke-width="0.1853" stroke-miterlimit="10" stroke-linecap="round"/>
</g>
<defs>
<clipPath id="clip0_101_502">
<rect width="175" height="177" fill="white"/>
</clipPath>
</defs>
</svg>
