<svg width="163" height="163" viewBox="0 0 163 163" fill="none" xmlns="http://www.w3.org/2000/svg">
<g clip-path="url(#clip0_182_705)">
<path d="M93.592 161.893L87.2521 162.366C84.6848 162.55 82.0912 162.498 79.55 162.182L72.3718 161.288C47.1696 158.868 50.5229 149.241 50.5229 136.773V99.579C50.5229 86.848 60.8972 76.4316 73.5769 76.4316H91.6272C104.307 76.4316 114.681 86.848 114.681 99.579V135.642C114.655 148.741 117.065 159.341 93.592 161.893Z" fill="#A5A693"/>
<path d="M62.2857 78.7726C59.0372 79.5354 45.9121 93.2923 43.8687 112.468C43.0566 120.017 43.8949 129.197 56.234 131.854C75.1488 135.931 97.0763 110.653 98.7268 109.232C105.8 103.156 95.5831 97.5798 90.7103 100.842C88.7716 102.13 59.8493 116.65 60.3995 110.206C60.6877 106.891 67.3419 97.6588 69.2281 88.2157C70.8262 80.3508 64.8007 78.1676 62.2857 78.7726Z" fill="#7C7C71"/>
<path d="M97.0239 83.4811C96.2641 79.3514 97.0501 79.3514 100.063 78.4834C106.455 76.6684 116.043 94.5813 116.515 95.4757C120.733 103.525 127.361 112.494 120.654 123.2C116.253 130.223 107.241 136.641 101.713 133.327C97.1025 130.565 97.2335 127.145 97.3121 124.41C97.4692 119.754 107.136 117.992 104.569 104.55C103.285 97.8167 98.7791 92.8979 97.0239 83.4811Z" fill="#7C7C71"/>
<path d="M91.3393 127.461C92.9112 127.724 93.7233 127.777 93.8543 127.777C94.1425 127.777 94.3782 127.724 94.5878 127.645L93.4089 125.672C93.0421 125.041 89.2435 117.808 89.2435 117.808C88.9815 117.36 89.1387 116.782 89.6102 116.492C90.0818 116.203 90.6844 116.335 90.9463 116.782L93.3827 120.832C93.9591 121.779 95.138 121.359 94.2996 120.043L91.3131 115.046C91.0511 114.598 91.2083 114.02 91.6799 113.73C92.1514 113.441 92.754 113.573 93.016 114.02L96.1073 119.149C96.3431 119.517 96.6574 119.491 96.3693 118.991L93.6971 114.493C93.4351 114.046 93.5923 113.467 94.0639 113.178C94.5354 112.889 95.138 113.02 95.4 113.467L98.0983 117.939C98.4913 118.649 98.9366 118.465 98.7271 117.965L96.8408 114.862C96.5788 114.414 96.736 113.836 97.2076 113.546C97.6792 113.257 98.2817 113.388 98.5437 113.836L102.264 119.991C102.29 120.017 102.29 120.043 102.29 120.07C102.316 120.122 102.369 120.149 102.395 120.201L104.202 123.174C105.591 125.488 104.7 128.618 102.211 130.118C101.583 130.512 99.1986 131.591 98.6485 131.775C96.5003 132.564 94.2472 131.591 93.5399 131.301C92.2562 130.749 91.9418 130.197 90.501 129.96C89.3221 129.749 88.6409 129.96 88.379 129.513C88.0908 128.96 89.2697 127.093 91.3393 127.461Z" fill="#F2C99B"/>
<path d="M105.905 85.9273L105.853 85.6905C105.015 80.8243 105.407 78.7989 101.792 70.9341C100.378 67.8565 99.251 66.4887 98.1769 63.2797C98.0721 62.964 97.8363 61.0964 97.7053 60.7545C96.5002 53.5209 93.9852 49.628 86.3355 47.4184C84.2397 46.8134 81.3055 47.1291 80.572 47.2343C73.551 48.1812 68.6258 53.5209 67.4207 60.7545C67.2374 61.1753 67.1064 61.5699 66.9754 61.9908C66.2156 64.4896 65.2987 66.9096 63.9888 69.1454C61.1333 74.0379 58.9589 79.2724 58.0157 84.8488L57.9633 85.0855C57.3346 86.164 66.792 89.2679 82.563 89.7413C98.3603 89.2679 106.534 87.0057 105.905 85.9273Z" fill="#534741"/>
<path d="M82.4581 94.0551C82.4581 94.0551 89.6101 94.5286 89.8459 88.3472L89.9507 80.7454C90.0031 76.6157 86.7545 73.2225 82.7201 73.1699C78.6856 73.1173 75.3585 76.4578 75.3061 80.5612L75.2013 88.1631C75.1751 92.2665 78.4498 94.0025 82.4581 94.0551Z" fill="#C79D69"/>
<path d="M95.74 63.6217C95.4257 63.5691 95.1375 63.5691 94.8231 63.5691L94.8755 63.043C95.5829 56.5459 90.972 50.6539 84.606 49.9437C78.2399 49.2335 72.4502 53.9945 71.7429 60.4915L71.6119 61.7278C71.3761 61.6752 71.1404 61.5963 70.9046 61.57C67.9704 61.2543 65.3245 63.4112 64.9839 66.4099C64.6433 69.4085 66.7653 72.1178 69.6995 72.4335C70.0139 72.4598 70.3282 72.4598 70.6164 72.4335C70.8784 78.1414 75.1748 83.0076 80.9121 83.6389C86.8852 84.2965 92.2819 80.1405 93.5394 74.2747C93.6966 74.3273 93.8538 74.3799 94.0372 74.4062C96.9451 74.8797 99.7221 72.828 100.194 69.8557C100.639 66.9097 98.648 64.0951 95.74 63.6217Z" fill="#F2C99B"/>
<path d="M95.6877 61.4121C95.4519 57.1245 93.9325 53.784 91.6533 51.8375C91.2341 51.4692 87.776 48.3391 83.2176 49.5753C83.0342 49.6279 82.9294 49.7332 82.7984 49.8647C82.6936 49.7595 82.5888 49.6279 82.3792 49.5753C77.7946 48.3391 74.3627 51.4692 73.9436 51.8375C71.6382 53.784 70.1187 57.1245 69.9091 61.4121C69.6995 65.3576 71.6382 89.3994 71.9263 89.0048C72.9219 87.6107 73.341 84.3227 73.9698 61.8855C73.996 60.5703 74.4151 58.5187 75.725 58.3608C78.4234 58.0189 81.4361 56.5985 82.8246 54.5731C84.2131 56.5985 87.2258 58.0189 89.9242 58.3608C91.2079 58.5187 91.6271 60.5703 91.6794 61.8855C92.3082 84.3227 92.7274 87.637 93.7229 89.0048C93.9325 89.3994 95.8711 65.3576 95.6877 61.4121Z" fill="#736357"/>
<path d="M73.7081 61.4648L69.2021 60.0444C68.8877 59.9392 68.7044 59.5972 68.8091 59.2816L68.8353 59.2027C68.9401 58.887 69.2807 58.7029 69.5951 58.8081L74.1011 60.2285C74.4155 60.3337 74.5988 60.6757 74.4941 60.9913L74.4679 61.0702C74.3893 61.3859 74.0225 61.57 73.7081 61.4648Z" fill="#666724"/>
<path d="M74.389 59.2552L69.883 57.8348C69.5686 57.7296 69.3853 57.3876 69.4901 57.072L69.5162 56.9931C69.621 56.6774 69.9616 56.4933 70.276 56.5985L74.782 58.0189C75.0964 58.1241 75.2798 58.4661 75.175 58.7817L75.1488 58.8606C75.0702 59.1763 74.7296 59.3604 74.389 59.2552Z" fill="#666724"/>
<path d="M88.4571 68.5931C88.703 68.5931 88.9024 67.6274 88.9024 66.4362C88.9024 65.2449 88.703 64.2792 88.4571 64.2792C88.2111 64.2792 88.0117 65.2449 88.0117 66.4362C88.0117 67.6274 88.2111 68.5931 88.4571 68.5931Z" fill="#534741"/>
<path d="M77.3753 68.5931C77.6213 68.5931 77.8207 67.6274 77.8207 66.4362C77.8207 65.2449 77.6213 64.2792 77.3753 64.2792C77.1293 64.2792 76.9299 65.2449 76.9299 66.4362C76.9299 67.6274 77.1293 68.5931 77.3753 68.5931Z" fill="#534741"/>
<path d="M85.1825 71.96C85.3397 72.8544 84.8944 73.2752 84.4752 73.2752L83.4535 73.2226C83.0343 73.1963 82.72 72.7755 82.7462 72.2757L83.0605 66.4362C84.0822 66.3836 85.1825 71.96 85.1825 71.96Z" fill="#C79D69"/>
<path d="M78.7117 76.8525C84.0298 74.301 86.7282 77.1681 86.7282 77.1681" stroke="#534741" stroke-width="0.199968" stroke-miterlimit="10" stroke-linecap="round"/>
<path d="M79.7861 60.5441C79.7861 60.5441 80.3101 61.833 77.8213 62.2801" stroke="#534741" stroke-width="0.199968" stroke-miterlimit="10" stroke-linecap="round"/>
<path d="M86.0209 60.7283C86.0209 60.7283 85.4969 62.0172 87.9857 62.4643" stroke="#534741" stroke-width="0.199968" stroke-miterlimit="10" stroke-linecap="round"/>
<path d="M107.084 99.7632C105.512 100.237 104.7 100.368 104.569 100.394C104.281 100.421 104.045 100.394 103.835 100.342L104.909 98.1324C105.25 97.4221 108.656 89.4258 108.656 89.4258C108.892 88.926 108.682 88.3473 108.21 88.0843C107.713 87.8475 107.136 88.058 106.874 88.5314L104.647 93.0557C104.124 94.1079 102.918 93.8185 103.678 92.3455L106.403 86.7691C106.639 86.2693 106.429 85.6906 105.957 85.4276C105.46 85.1909 104.883 85.4013 104.621 85.8748L101.818 91.609C101.609 92.0036 101.294 92.0562 101.556 91.4775L103.993 86.4797C104.228 85.98 104.019 85.4013 103.547 85.1383C103.049 84.9015 102.473 85.1119 102.211 85.5854L99.7485 90.5832C99.4079 91.3723 98.9364 91.2407 99.1198 90.6884L100.823 87.2163C101.058 86.7165 100.849 86.1378 100.377 85.8748C99.8795 85.638 99.3031 85.8485 99.0412 86.3219L95.6617 93.1872C95.6355 93.2135 95.6355 93.2398 95.6355 93.2924C95.6093 93.3451 95.5569 93.3977 95.5307 93.4503L93.8802 96.7908C93.0681 98.448 93.2253 100.342 94.116 101.815C93.7754 102.131 93.5134 102.578 93.5134 103.025C93.5396 103.367 93.4611 104.261 94.509 105.366C95.4521 106.339 96.1594 106.129 96.3952 106.208C97.3645 106.497 98.7268 105.839 99.3555 104.945C99.6175 105.024 99.8271 105.103 99.9319 105.129C102.106 105.708 104.359 104.419 105.04 104.024C106.298 103.288 106.586 102.683 108.027 102.236C109.18 101.894 109.913 102.025 110.149 101.526C110.411 100.973 109.127 99.1582 107.084 99.7632Z" fill="#F2C99B"/>
<path d="M5.5678 63.3323C4.31031 63.3323 3.41959 63.1219 3.02662 62.7536C1.34996 61.0965 3.07901 53.9681 4.25791 50.4171C5.96077 45.1827 9.36648 37.5282 15.8897 30.8997C27.5739 19.0103 45.2574 15.4593 47.4056 17.5899C49.2132 19.3786 47.5628 26.2439 46.3053 30.0316C44.8906 34.2403 41.4849 42.3681 34.5687 49.4176C24.9541 59.1763 11.3313 63.3323 5.5678 63.3323ZM4.93905 60.7545C8.00419 61.0702 22.282 58.1505 32.6825 47.6026C43.4497 36.6602 45.9909 22.2194 45.5194 19.6153C42.6376 19.2471 28.2289 22.1142 17.7236 32.7672C7.29685 43.3677 4.59848 57.8085 4.93905 60.7545Z" fill="#534741"/>
<path d="M35.8258 34.0299C40.096 38.2648 38.4718 43.7886 34.2801 48.0761C30.0885 52.3637 24.8489 53.7841 20.5787 49.5754C16.3085 45.3405 16.2561 38.4489 20.4739 34.1614C24.6918 29.8739 31.5556 29.795 35.8258 34.0299Z" fill="#534741"/>
<path d="M26.2638 53.1002C23.9584 53.1002 21.7578 52.1795 19.8453 50.2856C15.1821 45.6562 15.1297 38.0807 19.7405 33.3986C24.3514 28.7165 31.8963 28.6639 36.5595 33.2934C40.8297 37.5283 40.2534 43.4729 35.0138 48.7863C32.1845 51.6534 29.1455 53.1002 26.2638 53.1002ZM28.2024 31.9256C25.6612 31.9256 23.1201 32.8988 21.2076 34.8716C17.4089 38.7383 17.4351 45.0249 21.3124 48.8389C26.2376 53.7315 31.5295 49.4439 33.573 47.3659C35.2234 45.6825 40.2272 39.8167 35.1448 34.7927C33.18 32.8725 30.6912 31.9256 28.2024 31.9256Z" fill="#534741"/>
<path d="M130.715 133.511C130.374 133.511 130.112 133.458 129.902 133.353C127.23 131.906 125.501 113.888 133.439 99.2107C137.84 91.0828 144.18 85.5853 148.712 82.4025C151.175 80.6928 157.986 76.4842 160.03 77.6152C162.257 78.8252 162.571 85.9009 162.388 89.8728C162.204 94.3182 161.182 103.077 156.467 111.758C149.158 125.357 134.906 133.511 130.715 133.511ZM158.798 80.0615C155.943 80.5349 142.87 87.2687 135.744 100.447C128.671 113.546 130.06 128.171 131.186 130.881C134.199 130.302 147.14 123.542 154.188 110.521C161.523 97.0012 159.977 82.4288 158.798 80.0615Z" fill="#534741"/>
<path d="M147.717 94.9232C152.982 97.7903 154.947 104.419 152.066 109.706C149.21 114.993 142.608 116.966 137.342 114.072C132.077 111.205 132.208 104.945 135.063 99.6579C137.945 94.3708 142.451 92.0561 147.717 94.9232Z" fill="#534741"/>
<path d="M142.53 116.466C140.565 116.466 138.626 115.966 136.871 115.019C130.872 111.758 131.212 104.708 134.199 99.2108C135.771 96.3173 137.814 94.2656 140.119 93.3187C142.634 92.2928 145.438 92.5296 148.215 94.0552C153.978 97.1854 156.126 104.472 152.983 110.232C151.463 113.047 148.948 115.072 145.909 115.993C144.783 116.282 143.656 116.466 142.53 116.466ZM143.289 94.7128C142.477 94.7128 141.665 94.8706 140.905 95.1863C139.045 95.9491 137.343 97.6851 136.006 100.158C133.701 104.445 132.784 110.416 137.866 113.178C140.172 114.441 142.844 114.73 145.359 113.967C147.874 113.231 149.97 111.521 151.201 109.206C153.795 104.419 152.013 98.4216 147.245 95.8176C145.857 95.081 144.547 94.7128 143.289 94.7128Z" fill="#534741"/>
<path d="M31.2416 128.25C28.517 128.25 23.618 125.304 20.8411 123.305C17.2258 120.727 10.493 115.072 5.80357 106.392C1.40235 98.2638 0.302047 89.9254 0.118663 84.3753C0.0400693 81.3767 0.249651 73.354 2.29308 72.2493C4.3627 71.1182 10.6502 74.8796 13.6891 77.0103C18.1951 80.193 24.4826 85.6905 28.8838 93.871C36.7955 108.575 35.0403 126.567 32.3681 128.04C32.0537 128.171 31.6608 128.25 31.2416 128.25ZM3.62916 74.6692C2.47646 77.51 1.06178 92.0824 8.08278 105.129C15.392 118.676 28.386 125.304 31.0058 125.62C32.1585 122.937 33.678 108.286 26.5784 95.081C19.505 81.9817 6.53711 75.1953 3.62916 74.6692Z" fill="#534741"/>
<path d="M25.2946 109.285C20.0289 112.152 13.4271 110.179 10.5715 104.866C7.71594 99.5527 9.68077 92.9504 14.9465 90.0833C20.2123 87.2162 24.8493 89.1627 27.7048 94.4761C30.5604 99.7894 30.5604 106.392 25.2946 109.285Z" fill="#534741"/>
<path d="M20.1338 111.626C18.9811 111.626 17.8546 111.468 16.7281 111.126C13.6891 110.206 11.1741 108.18 9.65466 105.366C8.13519 102.551 7.82082 99.3422 8.71154 96.2647C9.62847 93.2134 11.6457 90.6882 14.4489 89.1626C20.0552 86.1114 25.3471 87.9263 28.5956 93.9762C30.1675 96.896 30.8748 100.079 30.5605 102.893C30.1937 106.155 28.5432 108.68 25.7663 110.179C24.011 111.126 22.0986 111.626 20.1338 111.626ZM19.636 89.8202C18.2999 89.8202 16.8852 90.2148 15.4444 91.0039C13.139 92.2665 11.4361 94.3445 10.7026 96.8697C9.94284 99.3948 10.231 102.078 11.4885 104.393C12.746 106.707 14.8156 108.417 17.3306 109.154C19.8456 109.916 22.5178 109.627 24.8232 108.364C27.5477 106.891 28.3599 104.445 28.5432 102.657C28.8052 100.237 28.2027 97.5009 26.8142 94.9495C24.9803 91.5826 22.4916 89.8202 19.636 89.8202Z" fill="#534741"/>
<path d="M83.6372 26.4542C74.599 26.4542 66.8968 23.5871 61.9979 21.1935C59.3257 19.8783 52.3571 15.9327 52.3309 13.5917C52.3047 11.2243 58.5398 7.41025 61.8407 5.7268C66.7397 3.22794 74.5204 0.2293 83.7944 0.124084C83.9254 0.124084 84.0564 0.124084 84.1874 0.124084C93.2518 0.124084 100.954 2.9649 105.827 5.38485C108.499 6.70005 115.467 10.6456 115.494 13.013C115.52 15.5644 109.521 19.2733 105.958 21.0356C102.002 23.0347 93.8805 26.3753 84.0302 26.4805C83.8992 26.4542 83.7682 26.4542 83.6372 26.4542ZM55.1079 13.5127C57.0727 15.8538 69.0451 23.8239 83.6372 23.8239C83.7682 23.8239 83.873 23.8239 84.004 23.8239C99.3297 23.6923 111.276 15.2488 112.769 13.0919C110.961 10.8034 98.9629 2.72817 84.1874 2.72817C84.0564 2.72817 83.9516 2.72817 83.8206 2.72817C68.9927 2.85968 56.9417 11.198 55.1079 13.5127Z" fill="#534741"/>
<path d="M94.8236 17.3007C94.876 23.3242 90.0294 25.0866 84.0301 25.1392C78.0308 25.1918 73.158 23.5347 73.1056 17.5111C73.0533 11.4875 77.8736 6.56869 83.8729 6.48978C89.8722 6.41087 94.7712 11.2771 94.8236 17.3007Z" fill="#534741"/>
<path d="M83.7419 26.165C80.3362 26.165 77.7426 25.6126 75.8302 24.4815C73.3676 23.0348 72.1101 20.6938 72.0839 17.511C72.0315 10.9351 77.2972 5.51647 83.8729 5.46387C83.8991 5.46387 83.9515 5.46387 83.9777 5.46387C90.4747 5.46387 95.819 10.7509 95.8714 17.3006C95.9238 23.1137 91.9418 26.0861 84.0563 26.165C83.9253 26.165 83.8205 26.165 83.7419 26.165ZM83.9777 7.54187C83.9515 7.54187 83.9253 7.54187 83.8991 7.54187C81.2793 7.56817 78.8167 8.62033 76.9567 10.5142C75.1228 12.4081 74.1273 14.8806 74.1273 17.5373C74.1535 19.9836 75.0442 21.6933 76.8519 22.7455C78.4761 23.6924 80.9387 24.1396 84.0039 24.1396C92.8325 24.0607 93.828 20.2203 93.8018 17.3532C93.7494 11.9083 89.3482 7.54187 83.9777 7.54187Z" fill="#534741"/>
<path d="M156.441 70.2765C153.611 70.2765 148.974 68.3826 146.171 67.0148C142.189 65.042 134.644 60.5441 128.645 52.7055C123.012 45.3668 120.602 37.3178 119.554 31.8729C118.978 28.9268 117.93 20.9831 119.79 19.5364C121.65 18.0897 128.461 20.799 131.788 22.4298C136.74 24.8498 143.813 29.2688 149.446 36.6339C159.61 49.891 160.711 67.9355 158.301 69.803C157.881 70.145 157.226 70.2765 156.441 70.2765ZM121.493 21.7459C120.812 24.7445 121.702 39.3695 130.714 51.1273C140.067 63.306 153.873 67.8565 156.571 67.6987C157.279 64.8579 156.467 50.1541 147.35 38.2647C138.312 26.428 124.453 21.7985 121.493 21.7459Z" fill="#534741"/>
<path d="M143.447 55.7831C138.679 59.4657 134.565 57.9663 130.924 53.2053C127.283 48.4443 125.449 42.184 130.19 38.5015C134.932 34.819 141.77 35.7133 145.438 40.5006C149.105 45.2879 148.215 52.1269 143.447 55.7831Z" fill="#534741"/>
<path d="M138.26 58.8606C135.745 58.8606 132.968 57.5717 130.112 53.8366C128.016 51.1273 126.706 48.1812 126.392 45.5771C125.999 42.3418 127.099 39.6062 129.588 37.686C134.775 33.6615 142.268 34.6611 146.276 39.8692C150.284 45.0774 149.289 52.6003 144.102 56.6248C142.477 57.8347 140.486 58.8606 138.26 58.8606ZM136.819 37.2651C134.723 37.2651 132.627 37.9227 130.819 39.3168C128.933 40.7898 128.121 42.8152 128.409 45.3141C128.671 47.5762 129.85 50.154 131.71 52.574C135.299 57.2824 138.836 58.0452 142.792 54.9676C147.088 51.6533 147.9 45.4193 144.599 41.1055C142.687 38.6066 139.779 37.2651 136.819 37.2651Z" fill="#534741"/>
</g>
<defs>
<clipPath id="clip0_182_705">
<rect width="162.374" height="162.374" fill="white" transform="translate(0.0925293 0.0977783)"/>
</clipPath>
</defs>
</svg>
