<svg width="102" height="162" viewBox="0 0 102 162" fill="none" xmlns="http://www.w3.org/2000/svg">
<g clip-path="url(#clip0_182_555)">
<path d="M85.9846 143.312H77.4131C71.3746 143.312 66.4373 138.372 66.4373 132.33V33.7291C66.4373 27.6871 71.3746 22.7469 77.4131 22.7469H85.9846C92.0232 22.7469 96.9605 27.6871 96.9605 33.7291V132.33C96.9605 138.372 92.0232 143.312 85.9846 143.312Z" stroke="#534741" stroke-width="1.03135" stroke-miterlimit="10"/>
<path d="M85.9846 110.09H77.4131C71.3746 110.09 66.4373 105.15 66.4373 99.1079V12.3157C66.4373 6.27371 71.3746 1.33357 77.4131 1.33357H85.9846C92.0232 1.33357 96.9605 6.27371 96.9605 12.3157V99.1079C96.9605 105.15 92.0232 110.09 85.9846 110.09Z" fill="#C6C6E6" stroke="#534741" stroke-width="0.979521" stroke-miterlimit="10"/>
<path d="M21.5613 146.746H15.8347V155.708H21.5613V146.746Z" fill="#F2C99B"/>
<path d="M27.7832 146.948H22.6624V153.909H27.7832V146.948Z" fill="#C79D69"/>
<path d="M22.6619 158.83C22.6619 158.83 27.9113 158.408 29.4347 158.683C30.9581 158.959 32.7017 159.326 33.2524 159.179C33.803 159.032 35.9688 158.757 36.3543 158.224C36.7397 157.692 36.6112 156.406 36.6112 156.406L36.4827 155.359L35.7669 155.635L30.1505 156.131L22.9189 155.065L22.3866 155.543C22.3866 155.543 21.9645 155.727 22.0929 156.608C22.2214 157.508 22.3499 158.445 22.4417 158.61C22.5334 158.775 22.6619 158.83 22.6619 158.83Z" fill="#B3B3B3"/>
<path d="M23.2124 155.855C23.2675 155.837 26.9017 155.708 30.077 156.388C33.2339 157.067 34.3719 156.498 34.3719 156.498C34.3719 156.498 36.4826 155.855 36.3725 155.561C36.2624 155.267 36.4092 154.808 35.4915 154.515C34.5554 154.202 32.8118 154.092 31.527 153.027C30.2421 151.943 28.1681 150.327 28.058 150.419C27.9479 150.529 27.7276 151.007 27.7276 151.099C27.7276 151.209 27.5074 152.88 25.9472 152.88C24.4055 152.88 22.9004 152.219 22.7536 151.503C22.57 150.676 22.3865 151.301 22.3865 151.301L22.2764 155.837L23.2124 155.855Z" fill="#333333"/>
<path d="M29.6 151.466L29.1962 151.154L28.8108 151.595C28.7741 151.576 28.7374 151.558 28.6823 151.558C28.5355 151.558 28.407 151.686 28.407 151.833C28.407 151.98 28.5355 152.109 28.6823 152.109C28.8108 152.109 28.9209 152.017 28.9576 151.888L29.6 151.466Z" fill="#B3B3B3"/>
<path d="M30.3156 152.017L29.9118 151.705L29.6365 152.072C29.6182 152.072 29.5998 152.054 29.5815 152.054C29.4346 152.054 29.3062 152.182 29.3062 152.329C29.3062 152.476 29.4346 152.641 29.5998 152.641C29.7467 152.641 29.8751 152.513 29.8751 152.366V152.347L30.3156 152.017Z" fill="#B3B3B3"/>
<path d="M31.1235 152.66L30.7197 152.347L30.4627 152.696C30.4443 152.696 30.426 152.678 30.4076 152.678C30.2608 152.678 30.1323 152.807 30.1323 152.953C30.1323 153.1 30.2608 153.229 30.4076 153.229C30.5545 153.229 30.683 153.1 30.683 152.953V152.935L31.1235 152.66Z" fill="#B3B3B3"/>
<path d="M31.8027 153.229L31.3989 152.917L31.2154 153.174C31.0869 153.192 30.9951 153.302 30.9951 153.449C30.9951 153.596 31.1236 153.725 31.2704 153.725C31.4173 153.725 31.5457 153.596 31.5457 153.449V153.431L31.8027 153.229Z" fill="#B3B3B3"/>
<path d="M15.8342 161.383C15.8342 161.383 21.4874 160.924 23.1209 161.218C24.7544 161.512 26.6449 161.916 27.2323 161.75C27.838 161.585 30.1506 161.291 30.5728 160.722C30.9949 160.153 30.8481 158.775 30.8481 158.775L30.7012 157.637L29.9304 157.93L23.8734 158.463L16.0912 157.324L15.5038 157.839C15.5038 157.839 15.045 158.022 15.1918 158.977C15.3387 159.932 15.4671 160.961 15.5773 161.126C15.7057 161.328 15.8342 161.383 15.8342 161.383Z" fill="#B3B3B3"/>
<path d="M16.4214 158.169C16.4949 158.151 20.4043 158.022 23.7999 158.739C27.1954 159.455 28.4252 158.849 28.4252 158.849C28.4252 158.849 30.7011 158.151 30.5726 157.857C30.4442 157.563 30.6093 157.049 29.6182 156.718C28.6271 156.388 26.7366 156.278 25.36 155.121C23.9834 153.964 21.7442 152.201 21.6157 152.311C21.4872 152.421 21.267 152.935 21.267 153.045C21.267 153.156 21.0284 154.955 19.3581 154.955C17.6879 154.955 16.0911 154.239 15.9075 153.468C15.7056 152.586 15.5037 153.247 15.5037 153.247L15.3752 158.132L16.4214 158.169Z" fill="#333333"/>
<path d="M23.2862 153.449L22.864 153.119L22.4602 153.596C22.4235 153.578 22.3685 153.56 22.3318 153.56C22.1666 153.56 22.0381 153.688 22.0381 153.853C22.0381 154.019 22.1666 154.147 22.3318 154.147C22.4786 154.147 22.5887 154.055 22.6254 153.909L23.2862 153.449Z" fill="#B3B3B3"/>
<path d="M24.057 154.055L23.6348 153.725L23.3412 154.129C23.3228 154.129 23.3045 154.111 23.2861 154.111C23.1209 154.111 22.9924 154.239 22.9924 154.404C22.9924 154.57 23.1209 154.698 23.2861 154.698C23.4513 154.698 23.5798 154.57 23.5798 154.404C23.5798 154.386 23.5798 154.386 23.5798 154.386L24.057 154.055Z" fill="#B3B3B3"/>
<path d="M24.9383 154.735L24.5161 154.404L24.2408 154.772C24.2225 154.772 24.2041 154.753 24.1858 154.753C24.0206 154.753 23.8921 154.882 23.8921 155.047C23.8921 155.212 24.0206 155.341 24.1858 155.341C24.3509 155.341 24.4794 155.212 24.4794 155.047V155.029L24.9383 154.735Z" fill="#B3B3B3"/>
<path d="M25.6722 155.341L25.25 155.01L25.0665 155.304C24.938 155.341 24.8279 155.451 24.8279 155.598C24.8279 155.763 24.9564 155.892 25.1215 155.892C25.2867 155.892 25.4152 155.763 25.4152 155.598V155.58L25.6722 155.341Z" fill="#B3B3B3"/>
<path d="M17.7616 36.6858C12.1451 41.1118 14.3293 50.5329 15.192 54.261C16.8806 61.5885 20.8451 65.9226 25.2685 70.7526C29.8754 75.7846 33.2159 79.4575 36.9235 78.4291C40.2273 77.5108 43.1089 73.0666 43.1272 69.3018C43.1456 63.7556 36.9235 63.9209 33.6013 56.2811C32.3533 53.3978 33.3811 53.71 30.9583 43.8298C29.3982 37.4755 28.5356 35.6023 26.4432 34.8126C23.8736 33.876 20.1476 34.8126 17.7616 36.6858Z" fill="#7C7C71"/>
<path d="M46.1741 70.3852C46.1741 70.5689 47 70.9178 47.7525 70.9178C47.9544 70.9178 48.193 70.8995 48.4684 71.028C48.707 71.1566 48.7804 71.2851 49.019 71.5422C49.331 71.8728 49.4595 71.8728 49.8816 72.2034C50.3405 72.5707 50.3405 72.8094 50.781 73.0849C51.0747 73.2685 51.2582 73.2869 51.3867 73.2502C51.5152 73.2134 51.6437 73.1032 51.662 72.9563C51.6804 72.8094 51.5152 72.6441 51.3316 72.4421C50.9095 72.0014 51.0196 72.0014 50.4139 71.4688C50.1203 71.2117 49.8266 71.028 49.8449 71.0096C49.8633 70.9729 50.1203 71.1566 50.5791 71.3219C51.0563 71.5055 51.093 71.4504 51.3683 71.5973C51.6804 71.7626 51.662 71.8544 52.1759 72.2585C52.7633 72.7359 53.0019 72.7727 53.112 72.7727C53.3506 72.791 53.6994 72.7543 53.7728 72.5707C53.8095 72.4605 53.8645 72.3503 53.8278 72.2952C53.5892 72.0748 53.3506 71.9646 53.1304 71.781C52.7633 71.4871 52.5981 71.3586 52.3595 71.1382C51.7171 70.5138 50.6158 70.2383 50.3405 70.1465C48.3949 69.5037 46.1741 70.0914 46.1741 70.3852Z" fill="#C79D69"/>
<path d="M44.7609 67.8142C46.3577 68.1815 46.1925 68.0713 48.8539 68.5671C49.1842 68.6222 48.8722 68.5855 52.2127 69.3936C52.5247 69.467 55.2412 70.1465 55.2962 70.6975C55.3146 70.8811 55.2412 70.9729 55.2412 70.9729C55.1127 71.1382 54.819 71.1015 54.819 71.175C54.819 71.23 54.9659 71.2484 54.9842 71.3402C55.0026 71.4688 54.6905 71.6341 54.507 71.7075C53.938 71.9279 53.369 71.4504 52.5798 71.0831C51.2216 70.4587 49.9368 70.4955 49.533 70.4955C48.6153 70.5322 48.7254 70.7342 47.6241 70.7893C47.2387 70.8077 46.8165 70.8077 46.6513 71.0648C46.5412 71.2484 46.5963 71.4872 46.633 71.6524C46.7431 72.0932 47.0184 72.3687 47.3121 72.6258C47.6608 72.9563 47.6975 72.8829 48.0279 73.1951C48.2849 73.4338 48.5235 73.6726 48.6703 74.0582C48.7621 74.2786 48.8539 74.5541 48.7437 74.8479C48.6153 75.1418 48.2665 75.3805 47.9729 75.3254C47.8077 75.2887 47.7343 75.1969 47.3488 74.7561C47.1653 74.5357 46.9634 74.3153 46.7798 74.095C46.3944 73.6358 45.9906 73.3604 45.5134 73.0298C44.7241 72.4972 44.7241 72.6809 44.1368 72.2585C43.8248 72.0381 43.1457 71.5423 42.7235 70.6975C42.4299 70.1282 41.1267 70.2016 40.6311 69.816C39.6033 69.0263 40.6678 67.2265 41.3469 67.0429C42.3197 66.7858 44.3938 67.7224 44.7609 67.8142Z" fill="#F2C99B"/>
<path d="M24.2224 149.74C28.6091 150.199 28.7192 148.197 29.3065 139.933L33.0325 82.5428C33.1059 76.0784 29.5819 70.4037 25.1952 69.9445C20.8085 69.4854 17.1376 74.4072 17.0642 80.89L18.4224 137.858C18.3123 147.26 19.8174 149.281 24.2224 149.74Z" fill="#666724"/>
<path d="M18.257 149.63C22.607 148.73 22.5519 146.71 22.4601 138.298L21.4873 80.0636C21.0468 73.5992 17.119 69.0631 12.7507 69.9629C8.4007 70.8628 5.20704 76.8865 5.64755 83.3509L11.5944 139.602C12.2551 148.987 13.907 150.529 18.257 149.63Z" fill="#6F711E"/>
<path d="M18.4039 89.5765C12.8793 88.8603 0.269828 92.0374 1.73817 71.2117V57.383C1.73817 50.5513 3.46348 43.793 6.96916 37.953C9.74066 33.3251 12.3103 31.3049 18.1837 31.3049C27.2323 31.3049 30.0039 39.6242 30.0039 48.6964L34.3538 77.1252C34.3538 86.1607 31.3254 89.5765 18.4039 89.5765Z" fill="#A5A693"/>
<path d="M28.2786 32.3518L31.252 18.1925C31.2887 18.0456 31.2887 17.917 31.252 17.7701L31.3621 17.4395C33.3444 11.7648 30.8482 8.01836 25.1767 6.03495C19.7255 4.12501 13.7236 6.86137 11.5211 12.1321C11.3742 12.3157 11.2641 12.4994 11.1356 12.7014C10.0711 14.4277 8.85969 16.0805 7.50146 17.5681C5.15211 20.1391 3.15149 22.9857 1.79327 26.1812L1.7382 26.3281C1.15087 26.9341 6.98754 30.4785 17.4312 33.1965L24.9014 34.7208C28.7558 34.5923 27.2324 35.1983 28.2786 32.3518Z" fill="#534741"/>
<path d="M27.8014 34.6107H27.5444L30.5545 12.628L31.3254 10.6996C32.0596 11.2322 32.5368 15.7316 31.2887 17.6048L31.3254 18.0639L31.0685 19.2577L27.8014 34.6107Z" fill="#736357"/>
<path d="M19.7069 36.0248C19.7069 36.0248 24.3689 36.943 25.048 32.9211L25.7455 27.9626C26.1309 25.263 24.2771 22.7654 21.6341 22.3797C18.9911 22.0124 16.5133 23.904 16.1278 26.6036L15.4304 31.5621C15.0449 34.2434 17.0639 35.6391 19.7069 36.0248Z" fill="#C79D69"/>
<path d="M15.1184 14.3726C15.2836 14.391 15.4305 14.4461 15.5956 14.4828L15.7058 13.6747C16.3115 9.39574 20.2393 6.38391 24.4424 6.97158C28.6456 7.55926 31.5823 11.5444 30.9766 15.8234L30.0405 22.4531C29.4348 26.7321 25.507 29.744 21.3038 29.1563C17.5229 28.6237 14.7697 25.318 14.7146 21.5349C14.5127 21.5349 14.3108 21.5349 14.1089 21.5165C12.1634 21.2411 10.8235 19.4229 11.0988 17.4395C11.3742 15.4745 13.1729 14.0971 15.1184 14.3726Z" fill="#F2C99B"/>
<path d="M18.0185 33.7842L2.49072 27.3014L13.6869 12.6096L19.4685 6.14516L24.9014 6.31044L30.0039 9.0468L27.4343 9.85485L23.3412 17.1641L18.0185 33.7842Z" fill="#534741"/>
<path d="M30.9767 9.68956C30.9583 9.65283 30.683 9.48755 30.6646 9.50591C30.6279 9.37736 30.5545 9.28554 30.426 9.23044C28.2235 8.22038 25.9659 10.167 25.6906 10.3874C24.2039 11.5995 22.9191 13.7482 22.1482 16.6131C21.4508 19.2393 18.8811 35.3452 19.083 35.1065C19.8172 34.225 20.5147 32.0396 24.2039 17.0906C24.4242 16.2091 24.9381 14.8501 25.6355 14.795C27.3792 14.6664 29.6368 13.5094 30.426 11.7281C30.6646 13.1789 31.9494 11.1955 30.9767 9.68956Z" fill="#736357"/>
<path d="M24.2221 16.7968L21.3221 15.7683C21.1018 15.6949 20.9733 15.4378 21.0651 15.2174C21.1385 14.997 21.3955 14.8685 21.6157 14.9603L24.5157 15.9887C24.736 16.0622 24.8645 16.3193 24.7727 16.5397C24.6809 16.7417 24.4423 16.8702 24.2221 16.7968Z" fill="#666724"/>
<path d="M24.7362 15.3459L21.8362 14.3175C21.616 14.244 21.4875 13.9869 21.5793 13.7665C21.6527 13.5462 21.9097 13.4176 22.1299 13.5094L25.0299 14.5379C25.2501 14.6113 25.3786 14.8684 25.2869 15.0888C25.1951 15.3092 24.9565 15.4194 24.7362 15.3459Z" fill="#666724"/>
<path d="M15.0635 17.2559C14.623 19.3127 15.4856 21.241 17.009 21.5716L18.404 15.1439C16.8806 14.8317 15.504 15.199 15.0635 17.2559Z" fill="#F2C99B"/>
<path d="M31.7661 22.2144C31.8395 22.8204 31.4724 23.0592 31.1604 23.0225L30.3711 22.9123C30.0591 22.8755 29.8389 22.5633 29.8756 22.2511L30.4079 18.4312C31.2338 18.4496 31.7661 22.2144 31.7661 22.2144Z" fill="#C79D69"/>
<path d="M28.8868 17.2171C28.9973 16.4338 28.9566 15.7803 28.796 15.7577C28.6354 15.735 28.4157 16.3517 28.3052 17.135C28.1948 17.9184 28.2354 18.5718 28.396 18.5945C28.5566 18.6172 28.7763 18.0005 28.8868 17.2171Z" fill="#534741"/>
<path d="M11.576 38.559C4.58302 39.9915 2.52733 49.8534 1.60961 53.5815C-0.170756 60.8907 -0.0789842 66.2716 1.70139 72.5707C3.55517 79.1269 7.2811 83.5896 11.0437 84.3242C14.4026 84.9853 16.9355 82.7815 18.3121 79.2922C19.9089 75.252 15.1735 71.6892 15.6323 63.3883C15.7975 60.2479 15.7057 61.0376 17.9633 51.1022C19.4133 44.7113 19.0462 42.1769 17.5228 40.5424C15.669 38.5407 14.5494 37.953 11.576 38.559Z" fill="#7C7C71"/>
<path d="M23.9656 87.0974C24.039 87.0239 24.1491 86.9321 24.296 86.8035C24.6447 86.5097 24.8649 86.473 25.1586 86.2159C25.5808 85.8669 25.7827 85.6282 25.8194 85.4629C25.8928 85.1874 25.6725 84.9854 25.4339 85.0405C25.1036 85.114 24.8649 85.2976 24.4612 85.5547C23.782 85.9955 23.1947 85.6098 22.6441 85.4445C21.3226 85.0405 19.065 84.765 18.5694 85.4262C18.1473 85.9955 19.0466 87.2994 19.689 87.9422C20.2029 88.4564 21.1574 89.5766 22.5707 89.3195C23.2131 89.2093 22.9377 89.0991 25.0852 87.8136C25.3605 87.6483 26.0029 87.3545 26.0947 87.0423C26.113 86.9504 26.0947 86.8586 26.058 86.7852C25.9111 86.4913 25.5441 86.4362 25.1953 86.5832L23.9656 87.0974Z" fill="#C79D69"/>
<path d="M12.6042 82.1388C12.5308 83.0571 12.6593 81.845 16.5504 86.5648C16.5504 86.5648 19.12 88.8787 20.258 89.4664C20.57 89.6317 21.5795 90.0174 22.6624 89.8521C22.8092 89.8337 23.1763 89.7786 23.7453 89.6501C24.5896 89.448 24.9383 89.448 25.1035 89.2093C25.2687 88.9706 25.0668 88.5298 24.8282 88.438C24.5529 88.3278 24.5529 88.236 23.6535 88.3645C22.7725 88.4931 22.6807 88.6216 22.332 88.5482C21.7814 88.4196 21.6162 87.6667 20.6985 86.8219C20.0561 86.2158 19.8542 86.2709 19.6156 86.0322C19.2485 85.6465 19.689 85.4078 19.7624 85.3894C20.0928 85.3343 20.313 85.4078 20.9921 85.6649C21.6162 85.8853 22.2402 86.124 22.7909 86.1607C23.2314 86.1975 23.7453 86.3077 24.0206 85.9036C24.4244 85.2792 23.8738 84.8017 23.3048 84.5263C22.589 84.159 22.0567 84.2324 21.194 83.7549C21.0289 83.6631 21.0289 83.6448 20.3865 83.0754C18.4592 81.3675 18.1472 81.2757 17.8168 81.2573C17.2662 81.2206 16.0548 79.2923 15.5776 79.2005C14.6048 79.0352 12.751 80.2289 12.6042 82.1388Z" fill="#F2C99B"/>
</g>
<defs>
<clipPath id="clip0_182_555">
<rect width="100.784" height="161.574" fill="white" transform="translate(0.325195 0.213318)"/>
</clipPath>
</defs>
</svg>
