<svg width="103" height="143" viewBox="0 0 103 143" fill="none" xmlns="http://www.w3.org/2000/svg">
<g clip-path="url(#clip0_182_483)">
<path d="M29.6245 120.404L11.9778 117.136L10.169 126.914L27.8157 130.182L29.6245 120.404Z" fill="#F2C99B"/>
<path d="M19.9005 118.267C19.8744 118.659 18.2832 118.111 17.2398 119.338C16.6659 120.016 16.2486 120.851 16.1182 121.556C15.7269 123.801 16.692 125.419 16.692 125.419C16.692 125.419 17.4746 124.871 17.6833 125.236C19.1179 127.637 19.6657 128.133 19.8222 128.577C19.9266 128.864 19.1179 129.282 18.3615 130.039C16.5877 131.866 14.9965 132.831 13.0662 134.763C11.3968 136.459 10.5621 137.295 10.2491 138.443C10.0665 139.069 9.9882 139.852 9.38825 140.818C9.10132 141.314 8.71004 141.966 7.95358 142.41C6.98844 143.01 5.99721 142.932 4.48428 142.802C3.04961 142.697 2.31923 142.619 1.82362 142.254C1.40626 141.94 0.780222 141.262 0.597627 137.556C0.493287 135.233 0.415032 133.64 0.858476 131.422C1.32801 129.125 1.69319 129.36 2.81485 125.654C3.70173 122.731 4.14518 121.269 4.4582 119.599C4.84947 117.563 4.9799 116.049 6.15372 115.344C6.64933 115.031 7.14495 115.005 7.95358 115.005C10.6664 115.031 12.7793 115.631 14.3705 116.049C17.8659 117.067 19.9266 117.85 19.9005 118.267Z" fill="#333333"/>
<path d="M7.30131 142.723C6.38833 142.28 4.90149 141.001 4.87541 135.963C4.87541 134.11 4.84932 132.518 5.55362 130.639C6.04923 129.308 7.6665 125.549 8.42296 123.592C9.36202 121.191 10.4315 118.215 11.0575 117.223C11.3445 116.78 11.6053 116.336 12.1009 115.997C12.3096 115.84 12.5444 115.762 12.7531 115.683C11.3445 115.318 9.64895 114.953 7.58824 114.926C6.80569 114.9 6.28399 114.953 5.78838 115.24C4.61456 115.944 4.51022 117.458 4.11894 119.52C3.80592 121.191 3.38857 122.678 2.52776 125.628C1.4322 129.386 1.06701 129.125 0.623562 131.448C0.206203 133.693 0.284458 135.285 0.414882 137.634C0.623562 141.366 1.2496 142.071 1.66696 142.384C2.24083 142.802 6.33616 143.193 7.30131 142.723Z" fill="#B3B3B3"/>
<path d="M17.4486 130.9L18.1007 130.273L17.2399 130.039C17.2138 130.012 17.0052 128.681 16.953 128.133C17.0573 127.924 17.0573 127.69 16.9008 127.507C16.6922 127.246 16.327 127.194 16.0661 127.402C15.8053 127.611 15.7531 127.977 15.9618 128.238C15.9879 128.264 16.0139 128.29 16.0661 128.316L16.5096 130.769L17.4486 130.9Z" fill="#B3B3B3"/>
<path d="M15.8313 132.283L16.5356 131.709L15.8574 131.422L15.5705 129.517C15.7009 129.308 15.7009 129.047 15.5444 128.838C15.3357 128.577 14.9705 128.525 14.7097 128.734C14.4488 128.942 14.3966 129.308 14.6053 129.569C14.6314 129.595 14.6314 129.595 14.6575 129.621L15.127 132.074L15.8313 132.283Z" fill="#B3B3B3"/>
<path d="M14.5532 133.353L15.2575 132.753L14.4228 132.388L14.2141 130.952C14.3706 130.743 14.3967 130.456 14.2402 130.221C14.0315 130.013 13.6663 129.96 13.4055 130.143C13.1446 130.352 13.0924 130.717 13.3011 130.978L13.6663 132.884L14.5532 133.353Z" fill="#B3B3B3"/>
<path d="M13.4054 134.423L14.0575 133.797L12.8055 132.022C12.8315 131.866 12.8055 131.709 12.7011 131.552C12.4924 131.291 12.1273 131.239 11.8664 131.448C11.6056 131.657 11.5534 132.022 11.7621 132.283C11.8403 132.388 11.9447 132.44 12.0751 132.492L13.4054 134.423Z" fill="#B3B3B3"/>
<path d="M93.5906 128.394C96.1208 128.707 97.0859 129.699 99.7205 127.872L99.877 127.742C103.372 124.819 103.738 119.52 100.581 116.205C99.5379 115.109 98.2076 114.065 96.6947 113.073L59.0541 89.1656C54.6196 86.8687 48.881 89.1134 46.2725 94.1507C43.664 99.1881 45.1508 105.191 49.5853 107.462L89.5996 125.21C93.8775 127.455 92.182 128.212 93.5906 128.394Z" fill="#666724"/>
<path d="M101.859 122.6C102.772 117.014 101.259 116.649 95.051 115.005L51.8283 104.017C46.9243 103.207 42.1508 107.149 41.2378 112.734C40.3248 118.319 43.6115 123.566 48.5155 124.375L92.0513 128.786C99.1985 129.934 100.946 128.211 101.859 122.6Z" fill="#666724"/>
<path d="M89.9909 124.557C89.2606 124.114 88.4519 123.618 87.5389 123.07L39.3861 94.7249C33.7779 91.9843 26.9436 94.3334 24.2047 99.9449C21.4658 105.556 23.8134 112.395 29.4217 115.135L40.3252 119.755L30.8564 118.998C22.8483 118.424 20.8919 118.241 20.1355 123.435C19.379 128.629 20.8919 130.717 29.8651 132.022L83.7045 142.358C89.8866 143.271 95.547 139.748 96.3035 134.554C96.9034 130.43 94.2167 126.489 89.9909 124.557Z" fill="#6F711E"/>
<path d="M38.4468 121.791H31.7952C23.1089 121.791 16.0138 114.692 16.0138 106C16.0138 97.3088 15.779 91.0969 24.4653 91.0969L38.4468 90.2356C47.1331 90.2356 54.2282 97.3349 54.2282 106.026C54.2282 114.665 47.1331 121.791 38.4468 121.791Z" fill="#6F711E"/>
<path d="M49.6112 41.2976C50.4459 38.2439 56.4715 36.3125 61.1407 37.8263C64.8448 39.0269 66.749 42.0806 67.2968 42.9941C68.6271 45.2127 68.4967 46.5438 69.1749 53.3559C69.9052 60.6379 70.3748 62.3866 70.5574 68.1026C70.7139 73.0877 70.453 74.5755 69.8531 76.0632C68.8358 78.6732 66.2534 82.7709 63.1753 82.7448C59.1582 82.6926 56.4976 75.6195 56.1063 74.5755C52.1936 64.1354 58.9496 58.0018 54.6195 49.4931C52.3501 44.8734 48.933 43.7772 49.6112 41.2976Z" fill="#7C7C71"/>
<path d="M59.1844 99.1619L54.4891 105.922C51.698 109.967 47.2375 112.734 42.3335 112.943C42.3074 112.943 42.2813 112.943 42.2552 112.943C33.5689 113.308 16.9789 109.472 15.7008 103.886C14.9704 100.702 16.0399 85.2766 16.0399 77.577C16.0399 77.577 16.0399 53.9824 24.4131 44.1948C30.8039 36.7301 38.7077 34.4072 47.707 34.4072C60.2538 34.4072 64.2448 39.9665 64.4274 52.1553C64.4274 52.7817 64.4274 53.4604 64.3753 54.0868L62.7841 82.6665C62.3406 87.4429 67.8706 91.5145 65.4708 93.1327C63.071 94.8032 60.8538 96.7346 59.1844 99.1619Z" fill="#A5A693"/>
<path d="M89.1561 59.7505C89.73 59.5156 90.2517 58.0018 88.2431 58.2889C87.9823 58.3411 88.5822 58.0279 88.1388 57.5581C87.5649 56.9316 84.9042 57.793 84.3825 57.9757C83.9391 58.1323 83.3652 58.3933 82.8435 58.4455C82.5827 58.4716 82.061 58.315 81.3045 58.4455C78.9047 58.837 77.7048 58.7848 77.2614 58.4194C76.4266 57.7408 77.1831 57.793 77.6005 57.8974C78.4874 58.1323 80.3394 58.2367 81.4089 57.4276C81.5132 57.3493 81.7219 57.1666 81.6958 56.7489C81.6697 55.8354 79.9742 55.9398 79.5829 55.9398C78.6699 55.9659 78.3569 56.1225 77.6266 56.1486C77.1831 56.1486 76.3484 55.731 75.3832 55.6527C74.6007 55.6005 74.2355 55.6005 73.7399 55.6527C73.453 55.6788 73.4269 55.7049 72.6965 55.8876C71.4966 56.1486 71.2879 56.1486 70.2706 56.4096C69.6967 56.5401 69.4359 56.6184 69.2794 56.6706C68.3142 57.0621 68.2099 57.5842 67.3752 58.1584C66.6187 58.6804 65.7318 59.2807 65.2623 59.7505C64.2189 60.7945 63.8798 62.8825 64.6623 63.8743C65.9666 65.5186 67.5578 63.3784 74.6529 63.1957C78.6178 63.0913 84.6956 63.6916 87.3301 62.3866C87.4867 62.3083 89.5735 61.2904 89.5735 60.3508C89.5735 59.8027 89.1561 59.7505 89.1561 59.7505Z" fill="#C79D69"/>
<path d="M26.4218 42.1067C27.2826 41.4803 33.3343 37.3043 39.0469 40.7495C39.5164 41.0366 44.5769 43.229 44.6552 46.6743C44.7856 51.7899 42.8031 57.6364 43.5857 60.4291C44.4204 63.4567 46.0116 64.7617 47.7071 64.2919C49.5852 63.796 58.115 60.7684 61.3756 59.6722C64.0363 58.7848 68.4446 63.5089 69.0185 65.7797C70.5836 72.0437 66.0709 76.3503 60.7496 80.6307C52.9502 86.8948 45.0204 91.5667 34.7951 89.8702C20.6049 87.4951 17.4747 69.8513 18.179 58.7848C18.3094 56.2009 20.1614 46.5177 26.4218 42.1067Z" fill="#7C7C71"/>
<path d="M66.2794 40.5146L75.5656 22.1661C75.67 21.9834 75.7221 21.7746 75.7221 21.5919L76.0091 21.1482C80.8087 14.0751 78.748 8.0198 71.7051 3.21735C64.8969 -1.4024 55.6628 0.163617 50.7067 6.58428C50.4458 6.79308 50.2111 7.00188 49.9763 7.21069C47.8634 9.19431 45.6201 11.0213 43.1942 12.5612C39.0206 15.2235 35.2383 18.4077 32.2125 22.2966L32.082 22.4793C31.0647 23.1057 37.7686 30.1006 51.098 37.6697L60.8016 42.4982C66.1229 43.751 63.8013 44.0121 66.2794 40.5146Z" fill="#534741"/>
<path d="M64.7922 43.4378L64.4531 43.3334L76.6609 14.2577L78.4347 11.8826C79.2433 12.9005 78.2521 19.2428 75.8522 21.357L75.7218 22.0095L74.9132 23.5755L64.7922 43.4378Z" fill="#736357"/>
<path d="M53.158 42.3938C53.158 42.3938 59.2358 45.3693 61.6356 40.097L64.4267 33.5459C65.9396 29.9962 64.3224 25.8724 60.827 24.3847C57.3316 22.897 53.2363 24.5935 51.7234 28.1692L48.9323 34.7204C47.4193 38.2439 49.6626 40.9061 53.158 42.3938Z" fill="#C79D69"/>
<path d="M54.8016 10.9952C55.0103 11.0996 55.219 11.204 55.4016 11.3345L55.845 10.2644C58.2448 4.60062 64.74 1.91229 70.2961 4.26132C75.8522 6.61034 78.4346 13.1615 76.0347 18.8253L72.3307 27.5688C69.9309 33.2326 63.4357 35.9209 57.8796 33.5719C52.8713 31.4578 50.315 25.8984 51.6192 20.7045C51.3323 20.6523 51.0715 20.574 50.7845 20.4435C48.2282 19.3473 47.0283 16.3457 48.1499 13.7357C49.2455 11.1257 52.2192 9.89897 54.8016 10.9952Z" fill="#F2C99B"/>
<path d="M51.6454 38.6876L32.7078 24.0975L53.4975 8.04586L63.801 1.28589L71.183 3.50441L77.1826 9.14207L73.3742 9.29867L65.0792 17.8335L51.6454 38.6876Z" fill="#534741"/>
<path d="M78.2783 10.3688C78.2522 10.2905 77.9653 10.0034 77.9392 10.0034C77.9131 9.82066 77.887 9.66406 77.7305 9.53356C75.0699 7.34114 71.2615 9.16815 70.7919 9.37696C68.3139 10.4732 65.7315 12.9788 63.6707 16.6067C61.7405 19.9476 52.2977 41.1149 52.6629 40.8539C53.9932 39.9143 55.767 37.1737 66.3053 18.0161C66.9314 16.8938 68.1313 15.2234 69.1225 15.4061C71.5745 15.8498 75.0959 15.0929 76.8176 12.9527C76.5828 15.0668 79.0609 12.8222 78.2783 10.3688Z" fill="#736357"/>
<path d="M66.4094 17.6508L62.8097 15.1712C62.5227 14.9885 62.4705 14.597 62.6531 14.3099C62.8357 14.0228 63.227 13.9706 63.5139 14.1533L67.1137 16.6329C67.4006 16.8156 67.4528 17.2071 67.2702 17.4942C67.0615 17.7552 66.6963 17.8335 66.4094 17.6508Z" fill="#666724"/>
<path d="M67.6355 15.8498L64.0357 13.3703C63.7488 13.1876 63.6966 12.7961 63.8792 12.509C64.0618 12.2219 64.4531 12.1697 64.74 12.3524L68.3397 14.8319C68.6267 15.0146 68.6788 15.4061 68.4963 15.6932C68.2876 15.9803 67.9224 16.0325 67.6355 15.8498Z" fill="#666724"/>
<path d="M53.68 14.9102C52.3236 17.5725 52.7932 20.5479 54.7756 21.5658L59.0275 13.2659C57.045 12.248 55.0365 12.248 53.68 14.9102Z" fill="#F2C99B"/>
<path d="M74.7828 27.856C74.6785 28.7173 74.0785 28.9261 73.6351 28.7434L72.5917 28.2997C72.1743 28.117 71.9656 27.6211 72.1482 27.2035L74.2872 22.14C75.4349 22.5054 74.7828 27.856 74.7828 27.856Z" fill="#C79D69"/>
<path d="M72.6663 19.9413C73.1054 18.9064 73.2894 17.9943 73.0772 17.9041C72.865 17.814 72.3371 18.58 71.8979 19.6149C71.4588 20.6499 71.2748 21.562 71.487 21.6521C71.6991 21.7422 72.2271 20.9763 72.6663 19.9413Z" fill="#534741"/>
<path d="M86.2086 60.4291C86.1825 60.3769 86.1825 60.3247 86.1303 60.2986C85.3999 59.4895 81.5654 58.8631 76.9223 58.8631C76.1919 58.8631 75.4876 58.8892 74.8094 58.9153L74.4703 22.636L74.1573 23.3407L73.8443 58.9414C73.2183 58.9936 72.6183 59.0197 72.0705 59.098L72.0966 21.0178L71.3662 21.2266L71.0532 59.2024C68.9142 59.5156 67.5317 59.9854 67.5317 60.5335C67.5317 61.4732 71.7314 62.2562 76.8962 62.2562C79.0091 62.2562 80.9394 62.1257 82.5045 61.9169V73.0617C82.5045 73.3749 82.7653 73.6359 83.0784 73.6359C83.3914 73.6359 83.6522 73.3749 83.6522 73.0617V61.7342C84.3826 61.6037 84.9565 61.421 85.3999 61.2644V79.4823C85.3999 79.7172 85.5825 79.8999 85.8173 79.8999C86.052 79.8999 86.2346 79.7172 86.2346 79.4823V60.5857V60.5596C86.2868 60.5074 86.2346 60.4813 86.2086 60.4291Z" fill="#0071BC"/>
<path d="M62.1581 62.726C62.4711 62.3084 62.6537 62.4389 65.0535 61.4732C67.1142 60.638 67.4794 60.3248 68.6793 60.116C69.5401 59.9594 69.6967 60.0638 70.5835 59.8811C71.9921 59.5679 71.9921 59.2286 73.0355 59.0459C73.3485 58.9937 75.1484 58.5239 76.5309 59.4374C77.0265 59.7767 77.6004 60.4553 79.4263 60.4553C80.1828 60.4553 80.1567 60.3248 81.1479 60.3248C81.8522 60.3248 82.2174 60.2465 82.713 60.5858C83.1304 60.8468 83.1826 61.1339 83.5478 61.3166C83.9129 61.5254 86.4171 61.2905 86.9388 61.0295C87.4866 60.7424 87.5909 60.4553 88.0083 60.1943C88.3213 59.9855 88.843 59.6984 89.3125 60.0116C89.4429 60.116 89.4429 60.2726 89.5995 60.4031C89.5995 60.4031 90.1994 60.2204 90.6168 60.5336C90.7994 60.6641 90.8515 60.9773 90.7994 61.1861C90.7472 61.4993 90.2777 61.6559 89.9125 61.7864C89.2082 62.0735 86.1562 64.1354 85.5041 64.5008C84.7216 64.9184 84.0695 65.1533 82.7391 65.2838C81.5914 65.3882 80.6262 65.6231 79.8698 65.7014C78.6699 65.8058 76.87 65.9624 74.6789 65.6231C73.1138 65.3882 72.4095 65.0489 70.5575 64.9967C69.7749 64.9706 69.3575 64.9706 68.7576 65.075C68.1316 65.2055 67.6359 65.4404 65.6274 66.615C64.2449 67.4502 64.1406 67.5285 63.8797 67.5024C62.5233 67.3458 61.1147 64.2137 62.1581 62.726Z" fill="#F2C99B"/>
</g>
<defs>
<clipPath id="clip0_182_483">
<rect width="102.383" height="142.377" fill="white" transform="translate(0.362793 0.555176)"/>
</clipPath>
</defs>
</svg>
