<svg width="90" height="184" viewBox="0 0 90 184" fill="none" xmlns="http://www.w3.org/2000/svg">
<g clip-path="url(#clip0_182_668)">
<path d="M32.7137 150.456C32.7558 150.792 31.3034 150.582 30.6298 151.777C30.2509 152.427 30.0194 153.223 30.0194 153.831C30.0404 155.802 31.135 156.997 31.135 156.997C31.135 156.997 31.7244 156.41 31.9348 156.683C33.5135 158.486 34.0608 158.8 34.2713 159.157C34.3976 159.387 33.7872 159.848 33.261 160.624C32.0611 162.448 30.8403 163.517 29.5352 165.446C28.3775 167.144 27.8092 167.983 27.725 168.989C27.6829 169.555 27.725 170.205 27.3882 171.127C27.2198 171.589 26.9883 172.197 26.42 172.7C25.7043 173.35 24.8413 173.434 23.5362 173.58C22.2943 173.706 21.6839 173.769 21.1997 173.538C20.7788 173.35 20.1683 172.868 19.4316 169.765C18.9685 167.815 18.6528 166.494 18.6738 164.565C18.6949 162.553 19.0527 162.7 19.4106 159.387C19.6842 156.767 19.8316 155.467 19.8526 154.02C19.8526 152.238 19.7263 150.959 20.6104 150.184C20.9893 149.848 21.4102 149.743 22.0628 149.617C24.3782 149.219 26.2516 149.387 27.6619 149.492C30.7982 149.743 32.6716 150.079 32.7137 150.456Z" fill="#333333"/>
<path d="M25.9357 173.056C25.0937 172.826 23.6413 171.987 22.8204 167.752C22.5257 166.18 22.2521 164.859 22.5468 163.161C22.7573 161.966 23.5361 158.528 23.8729 156.767C24.2939 154.586 24.7359 151.924 25.0937 150.98C25.2621 150.561 25.4305 150.142 25.7883 149.785C25.9567 149.617 26.1251 149.513 26.2935 149.408C25.0516 149.324 23.5571 149.282 21.81 149.576C21.1365 149.68 20.7155 149.806 20.3366 150.142C19.4525 150.917 19.5999 152.217 19.5999 154.02C19.5999 155.467 19.4736 156.787 19.221 159.429C18.8842 162.762 18.5264 162.616 18.5264 164.649C18.5264 166.599 18.8421 167.941 19.3262 169.912C20.1051 173.035 20.7365 173.517 21.1575 173.727C21.6417 173.916 25.1569 173.601 25.9357 173.056Z" fill="#B3B3B3"/>
<path d="M32.6503 161.483L33.1134 160.855L32.3346 160.792C32.2925 160.792 31.9347 159.681 31.7873 159.24C31.8505 159.052 31.8084 158.842 31.64 158.716C31.4295 158.527 31.1137 158.548 30.9243 158.758C30.7349 158.968 30.7559 159.282 30.9664 159.471C30.9874 159.492 31.0295 159.513 31.0716 159.534L31.8505 161.525L32.6503 161.483Z" fill="#B3B3B3"/>
<path d="M31.4923 162.909L31.9975 162.322L31.366 162.175L30.8188 160.624C30.9029 160.435 30.8609 160.205 30.6925 160.058C30.482 159.869 30.1662 159.89 29.9768 160.1C29.7873 160.31 29.8084 160.624 30.0189 160.813C30.0399 160.834 30.061 160.834 30.082 160.855L30.8609 162.846L31.4923 162.909Z" fill="#B3B3B3"/>
<path d="M30.5875 164.02L31.0927 163.412L30.3138 163.245L29.9139 162.071C30.0192 161.861 29.9981 161.63 29.8087 161.463C29.5982 161.274 29.2824 161.295 29.093 161.505C28.9036 161.714 28.9246 162.029 29.1351 162.217C29.1351 162.217 29.1351 162.217 29.1561 162.217L29.7666 163.769L30.5875 164.02Z" fill="#B3B3B3"/>
<path d="M29.7666 165.11L30.2297 164.482L28.9036 163.182C28.9036 163.035 28.8404 162.909 28.7352 162.804C28.5247 162.616 28.209 162.637 28.0195 162.846C27.8301 163.056 27.8511 163.37 28.0616 163.559C28.1458 163.643 28.251 163.664 28.3563 163.685L29.7666 165.11Z" fill="#B3B3B3"/>
<path d="M76.8116 166.704C78.8533 166.955 79.6322 167.752 81.7581 166.285L81.8844 166.18C84.705 163.832 84.9997 159.576 82.4528 156.913C81.6108 156.033 80.5373 155.194 79.3164 154.397L48.9214 135.215C45.343 133.37 40.7122 135.173 38.6072 139.219C36.5023 143.265 37.7021 148.087 41.2805 149.911L73.57 164.167C77.022 165.949 75.6749 166.578 76.8116 166.704Z" fill="#666724"/>
<path d="M83.4632 162.071C84.1999 157.584 82.9791 157.291 77.9693 155.97L43.0908 147.123C39.1335 146.473 35.2815 149.638 34.5448 154.125C33.8081 158.611 36.4603 162.825 40.4175 163.475L75.5487 167.018C81.3162 167.962 82.7265 166.557 83.4632 162.071Z" fill="#666724"/>
<path d="M19.3263 168.171H11.054C8.80174 168.171 6.97046 166.347 6.97046 164.104C6.97046 161.861 8.80174 160.037 11.054 160.037H19.3263C21.5786 160.037 23.4099 161.861 23.4099 164.104C23.4099 166.347 21.5786 168.171 19.3263 168.171Z" fill="#F2C99B"/>
<path d="M14.2745 160.016C14.3166 160.351 12.8642 160.142 12.1906 161.337C11.8117 161.987 11.5802 162.783 11.5802 163.391C11.6012 165.362 12.6958 166.557 12.6958 166.557C12.6958 166.557 13.2851 165.97 13.4956 166.243C15.0743 168.046 15.6216 168.36 15.8321 168.716C15.9584 168.947 15.348 169.408 14.8217 170.184C13.6219 172.008 12.4011 173.077 11.096 175.006C9.93832 176.704 9.36999 177.543 9.2858 178.549C9.2437 179.115 9.2858 179.765 8.94901 180.687C8.78062 181.149 8.54907 181.757 7.98075 182.26C7.24402 182.931 6.40205 183.015 5.097 183.161C3.8551 183.287 3.24467 183.35 2.76054 183.119C2.33956 182.931 1.72913 182.449 0.992407 179.346C0.529324 177.396 0.213586 176.075 0.234635 174.146C0.255684 172.134 0.613521 172.281 0.971358 168.968C1.245 166.347 1.39234 165.048 1.41339 163.601C1.41339 161.819 1.2871 160.54 2.17116 159.764C2.55005 159.429 2.97103 159.324 3.62356 159.198C5.93897 158.8 7.81235 158.968 9.22265 159.073C12.38 159.324 14.2324 159.66 14.2745 160.016Z" fill="#333333"/>
<path d="M7.49648 182.616C6.65451 182.386 5.20212 181.547 4.3812 177.312C4.08651 175.74 3.81287 174.419 4.10756 172.721C4.31805 171.526 5.09687 168.088 5.43366 166.326C5.85464 164.146 6.29668 161.484 6.65451 160.54C6.82291 160.121 6.9913 159.702 7.34914 159.345C7.51753 159.177 7.68592 159.073 7.85432 158.968C6.61241 158.884 5.11792 158.842 3.37084 159.136C2.69726 159.24 2.27628 159.366 1.89739 159.702C1.01332 160.477 1.16067 161.777 1.16067 163.58C1.16067 165.027 1.03437 166.347 0.781782 168.989C0.444995 172.301 0.0871582 172.134 0.0871582 174.167C0.0871582 176.117 0.402896 177.459 0.887028 179.43C1.66585 182.553 2.29733 183.035 2.71831 183.245C3.20244 183.476 6.73871 183.161 7.49648 182.616Z" fill="#B3B3B3"/>
<path d="M14.2116 171.044L14.6747 170.415L13.8959 170.352C13.8538 170.352 13.4959 169.241 13.3486 168.8C13.4117 168.612 13.3696 168.402 13.2012 168.276C12.9908 168.088 12.675 168.109 12.4856 168.318C12.2961 168.528 12.3172 168.842 12.5277 169.031C12.5487 169.052 12.5908 169.073 12.6329 169.094L13.4117 171.086L14.2116 171.044Z" fill="#B3B3B3"/>
<path d="M13.0536 172.469L13.5587 171.882L12.9273 171.735L12.401 170.184C12.4852 169.995 12.4431 169.765 12.2747 169.618C12.0642 169.429 11.7485 169.45 11.5591 169.66C11.3696 169.87 11.3907 170.184 11.6012 170.373C11.6222 170.394 11.6433 170.394 11.6643 170.415L12.4431 172.406L13.0536 172.469Z" fill="#B3B3B3"/>
<path d="M12.1485 173.58L12.6537 172.972L11.8749 172.805L11.4749 171.631C11.5802 171.421 11.5591 171.19 11.3697 171.023C11.1592 170.834 10.8435 170.855 10.654 171.064C10.4646 171.274 10.4856 171.589 10.6961 171.777C10.6961 171.777 10.6961 171.777 10.7172 171.777L11.3276 173.329L12.1485 173.58Z" fill="#B3B3B3"/>
<path d="M11.3276 174.67L11.7907 174.042L10.4646 172.742C10.4646 172.595 10.4015 172.469 10.2962 172.364C10.0857 172.176 9.76999 172.197 9.58054 172.406C9.3911 172.616 9.41215 172.93 9.62264 173.119C9.70684 173.203 9.81208 173.224 9.91733 173.245L11.3276 174.67Z" fill="#B3B3B3"/>
<path d="M73.8854 163.643C73.2961 163.287 72.6435 162.888 71.9068 162.448L33.071 139.68C28.5454 137.479 23.0305 139.366 20.8204 143.873C18.6102 148.38 20.5046 153.873 25.0302 156.075L33.8288 159.785L26.1879 159.177C19.7258 158.716 18.1471 158.569 17.5367 162.741C16.9263 166.913 18.1471 168.591 25.3881 169.639L68.8336 177.941C73.8223 178.675 78.39 175.844 79.0004 171.672C79.4845 168.36 77.2954 165.173 73.8854 163.643Z" fill="#6F711E"/>
<path d="M18.6948 132.363C16.5899 133.81 16.8425 138.066 17.1161 142.657C17.3056 145.865 17.4529 148.401 18.9895 150.896C19.6631 152.007 21.8522 155.089 29.03 157.081C39.2809 159.911 53.3418 158.716 54.2469 154.439C54.4364 153.538 54.1206 152.175 36.4183 140.602C24.4623 132.762 20.7997 130.896 18.6948 132.363Z" fill="#6F711E"/>
<path d="M37.3653 148.968C37.3653 148.968 13.3902 148.066 15.1163 129.68L15.2426 122.258C15.6004 112.279 22.5045 96.3038 40.4174 96.9537C58.3513 97.6036 65.6344 107.73 66.2869 119.91C66.2869 119.91 76.0958 148.968 54.1836 149.177C54.0573 149.177 52.5207 149.219 50.6894 149.282C46.2481 149.408 41.8067 149.324 37.3653 148.968Z" fill="#A5A693"/>
<path d="M29.3664 82.2363C30.482 86.3454 25.2408 88.7773 20.4837 95.2136C18.042 98.505 19.4102 102.111 20.8415 103.033C24.483 105.361 27.8298 100.581 31.1135 101.713C35.7654 103.327 41.2803 113.809 33.6184 119.26C28.0824 123.181 18.3787 123.181 11.643 119.344C3.83374 114.9 2.46554 105.423 4.21263 98.0229C6.04391 90.2658 13.7479 84.794 19.8943 82.2782C22.4623 81.23 29.2612 81.838 29.3664 82.2363Z" fill="#A5A693"/>
<path d="M64.0558 81.9218C62.7718 83.599 67.2553 90.1401 70.4126 96.136C73.57 102.132 71.6335 104.774 70.2021 105.696C66.5606 108.023 60.3722 102.866 57.0885 103.998C52.4366 105.612 46.9217 116.095 54.5836 121.545C60.1196 125.466 69.8233 125.466 76.559 121.629C84.3683 117.185 85.7365 107.709 83.9894 100.308C82.1581 92.551 77.7378 86.4712 72.3492 82.5508C67.15 78.7561 64.3084 81.5864 64.0558 81.9218Z" fill="#A5A693"/>
<path d="M59.488 110.644L59.5301 110.455C60.2037 106.786 61.0036 105.465 60.4773 98.9452C60.2668 96.4085 59.8248 95.1506 59.8879 92.5719C59.8879 92.3203 60.2037 90.9367 60.2037 90.6641C61.2351 85.2342 60.4563 81.8169 55.5729 78.2529C54.2257 77.2676 52.0576 76.7434 51.5104 76.6176C46.2481 75.4646 41.3436 77.9594 38.6072 82.7604C38.3756 83.0119 38.1652 83.2635 37.9757 83.5151C36.7759 85.0665 35.4919 86.555 33.9764 87.8129C30.6716 90.5383 27.7458 93.6831 25.6198 97.3729L25.5356 97.5406C24.7989 98.1486 30.7348 102.803 41.8698 107.247C53.2364 111.042 59.6353 111.587 59.488 110.644Z" fill="#534741"/>
<path d="M40.6494 110.287C40.6494 110.287 45.638 112.489 47.4062 108.17L49.4479 102.824C50.5636 99.9306 49.1322 96.6601 46.2695 95.5699C43.4068 94.4798 40.1652 95.9683 39.0496 98.8824L37.0079 104.228C35.8922 107.143 37.7867 109.218 40.6494 110.287Z" fill="#C79D69"/>
<path d="M58.0362 92.2156C57.8257 92.0898 57.6152 92.0059 57.4047 91.943L57.5941 91.5866C59.8043 87.163 58.0362 81.796 53.679 79.6366C49.3218 77.4772 43.9542 79.3222 41.7441 83.7457L41.3231 84.5843C41.1757 84.4795 41.0284 84.3747 40.86 84.2908C38.8393 83.2845 36.3976 84.1441 35.3662 86.1777C34.3558 88.2113 35.1557 90.6851 37.1764 91.6705C37.3869 91.7753 37.6184 91.8592 37.8289 91.9221C36.5239 96.0312 38.313 100.602 42.2493 102.551C46.3328 104.564 51.2583 103.054 53.7 99.2178C53.8053 99.3017 53.9105 99.3856 54.0158 99.4485C55.9733 100.539 58.4782 99.8049 59.5938 97.8342C60.6884 95.8215 59.9937 93.3267 58.0362 92.2156Z" fill="#F2C99B"/>
<path d="M58.5622 90.6431C59.5305 87.5403 59.299 84.7939 58.1834 82.8232C57.9729 82.4668 56.331 79.343 52.7527 79.0285C52.6053 79.0076 52.5001 79.0705 52.3948 79.1124C52.3527 79.0076 52.3106 78.9027 52.1843 78.7979C49.2374 76.7224 45.9748 78.0432 45.5749 78.1899C43.4279 78.9656 41.4703 80.9363 40.1863 83.9134C39.0075 86.6598 34.1241 104.165 34.4188 103.977C35.4923 103.264 36.65 101.042 42.9437 85.297C43.3226 84.3746 44.1435 83.0328 45.1118 83.2425C47.1325 83.7037 49.6584 83.4731 51.1529 82.4039C51.616 84.2069 53.3841 85.9889 55.2154 86.9323C56.0995 87.3935 55.8469 88.9449 55.5312 89.8883C50.1215 105.947 49.5742 108.379 49.9321 109.637C50.0373 109.994 57.6782 93.4733 58.5622 90.6431Z" fill="#736357"/>
<path d="M42.8595 84.9407L40.0599 82.8023C39.8494 82.6346 39.8073 82.3201 39.9757 82.1104C40.1441 81.9008 40.4599 81.8589 40.6704 82.0266L43.4699 84.165C43.6804 84.3327 43.7225 84.6472 43.5541 84.8569C43.3857 85.0665 43.07 85.1084 42.8595 84.9407Z" fill="#666724"/>
<path d="M43.933 83.557L41.1334 81.4186C40.9229 81.2509 40.8808 80.9364 41.0492 80.7268C41.2176 80.5171 41.5334 80.4752 41.7438 80.6429L44.5434 82.7813C44.7539 82.9491 44.796 83.2635 44.6276 83.4732C44.4592 83.6828 44.1435 83.7248 43.933 83.557Z" fill="#666724"/>
<path d="M52.4248 92.4386C52.7369 91.5906 52.8484 90.8515 52.6737 90.7877C52.4991 90.724 52.1045 91.3597 51.7924 92.2076C51.4803 93.0556 51.3689 93.7947 51.5435 93.8584C51.7181 93.9222 52.1127 93.2865 52.4248 92.4386Z" fill="#534741"/>
<path d="M44.5088 89.5453C44.8209 88.6974 44.9324 87.9583 44.7577 87.8945C44.5831 87.8307 44.1885 88.4664 43.8764 89.3144C43.5643 90.1623 43.4529 90.9014 43.6275 90.9652C43.8021 91.029 44.1967 90.3933 44.5088 89.5453Z" fill="#534741"/>
<path d="M48.3114 95.3812C48.1851 96.073 47.7641 96.2407 47.4694 96.1149L46.7538 95.8005C46.4591 95.6747 46.3538 95.2973 46.5012 94.9619L48.2483 90.9156C49.006 91.1253 48.3114 95.3812 48.3114 95.3812Z" fill="#C79D69"/>
<path d="M66.4973 14.5825H61.0666C58.8564 14.5825 57.2356 12.7166 57.3198 10.5153C57.4251 7.62215 56.3937 4.56128 54.5413 2.77926C50.9419 -0.679945 45.0902 -0.53319 41.5961 2.15032C39.007 4.14198 37.6388 7.30768 37.7651 10.5572C37.8493 12.7585 36.1233 14.5825 33.9131 14.5825H28.5876C26.9248 14.5825 25.4513 15.6307 24.9251 17.1821L5.62295 73.2003C4.75993 75.6951 6.63331 78.3158 9.28551 78.3158H47.553H85.8205C88.4727 78.3158 90.346 75.7161 89.483 73.2003L70.1598 17.2031C69.6336 15.6307 68.1602 14.5825 66.4973 14.5825Z" fill="#333333"/>
<path d="M82.3051 77.9803H74.9589C74.8958 77.9803 74.8537 78.0013 74.8116 78.0013H64.7922C63.3608 78.0013 62.2031 79.1544 62.2031 80.58C62.2031 81.8589 63.1503 82.8652 64.3922 83.0748C65.1921 84.0811 66.413 85.1294 67.2128 85.3181C67.2128 85.3181 71.8858 86.2405 71.1911 83.1587H75.3799C76.0535 83.1587 76.6639 82.8861 77.127 82.4668H79.9897C80.5159 82.4668 80.9369 82.0475 80.9369 81.5234H81.2948C81.821 81.5234 82.242 81.1041 82.242 80.58C82.242 80.2865 82.0946 80.0349 81.8631 79.8462H82.3262C82.8524 79.8462 83.2734 79.4269 83.2734 78.9028C83.2734 78.3787 82.8314 77.9803 82.3051 77.9803Z" fill="#C79D69"/>
<path d="M9.87495 78.3577H17.2211C17.2843 78.3577 17.3264 78.3787 17.3685 78.3787H27.3879C28.8192 78.3787 29.9769 79.5318 29.9769 80.9574C29.9769 82.2362 29.0297 83.2425 27.7878 83.4522C26.988 84.4585 25.7671 85.5068 24.9672 85.6954C24.9672 85.6954 20.2943 86.6179 20.9889 83.5361H16.8212C16.1476 83.5361 15.5372 83.2635 15.0741 82.8442H12.2325C11.7062 82.8442 11.2852 82.4249 11.2852 81.9008H10.9274C10.4012 81.9008 9.9802 81.4815 9.9802 80.9574C9.9802 80.6639 10.1275 80.4123 10.3591 80.2236H9.87495C9.34872 80.2236 8.92773 79.8043 8.92773 79.2802C8.92773 78.7561 9.36977 78.3577 9.87495 78.3577Z" fill="#C79D69"/>
<path d="M43.6167 98.2954C44.7534 97.6455 47.0688 98.526 47.0056 99.6791" stroke="#534741" stroke-width="0.199968" stroke-miterlimit="10" stroke-linecap="round"/>
</g>
<defs>
<clipPath id="clip0_182_668">
<rect width="89.5855" height="183.17" fill="white" transform="translate(0.0869141 0.158813)"/>
</clipPath>
</defs>
</svg>
