<svg width="27" height="30" viewBox="0 0 27 30" fill="none" xmlns="http://www.w3.org/2000/svg">
<path d="M26.2175 6.64956C25.7155 4.82577 24.7226 3.38199 23.2658 2.36073C21.4273 1.0707 19.3126 0.613192 17.4864 0.335687C14.9593 -0.0480704 12.6704 -0.101822 10.4907 0.169434C8.44596 0.424438 6.90691 0.831946 5.50164 1.48946C2.74877 2.77698 1.09681 4.86202 0.592382 7.68458C0.346919 9.0546 0.18246 10.2934 0.0867292 11.4746C-0.134187 14.206 0.0658649 16.6235 0.699159 18.8635C1.31527 21.0473 2.39285 22.6086 3.99327 23.6336C4.40196 23.8949 4.92235 24.0836 5.428 24.2661C5.68083 24.3574 5.92383 24.4474 6.13616 24.5424V28.955C6.13616 29.5325 6.59517 30 7.16219 30C7.42975 30 7.68625 29.8937 7.87772 29.7037L11.8751 25.7437C12.0494 25.5412 12.0494 25.5412 12.2285 25.5374C13.5945 25.5099 14.99 25.4562 16.3769 25.3799C18.0571 25.2862 20.0036 25.1212 21.8372 24.3424C23.5149 23.6286 24.7398 22.4961 25.4749 20.9773C26.242 19.3923 26.6986 17.6748 26.8692 15.7285C27.1686 12.3059 26.9551 9.33586 26.2175 6.64956ZM19.2574 19.6748C18.856 20.3436 18.2547 20.8061 17.5477 21.1061C17.031 21.3261 16.5033 21.2798 15.9939 21.0598C11.718 19.2173 8.36619 16.3122 6.14966 12.1384C5.6931 11.2784 5.37522 10.3421 5.01071 9.43336C4.93585 9.24586 4.94198 9.0271 4.90884 8.82335C4.94075 7.35457 6.04656 6.5283 7.16342 6.2783C7.59052 6.18205 7.96854 6.3358 8.28518 6.64456C9.16149 7.49707 9.85492 8.48459 10.3765 9.59211C10.6048 10.0784 10.5017 10.5084 10.1127 10.8696C10.0329 10.9446 9.94819 11.0146 9.86106 11.0809C8.97371 11.7609 8.84361 12.2747 9.31613 13.2984C10.1212 15.0397 11.4578 16.2085 13.1871 16.9335C13.6424 17.1248 14.072 17.0298 14.4205 16.6535C14.4672 16.6035 14.5199 16.5547 14.5543 16.4972C15.2367 15.3385 16.2247 15.4535 17.1378 16.1147C17.738 16.5485 18.3197 17.006 18.9137 17.4485C19.8146 18.1248 19.8072 18.7598 19.2574 19.6748ZM14.1272 7.67833C13.8977 7.67833 13.667 7.69708 13.4411 7.73583C13.0582 7.80208 12.6974 7.53832 12.6336 7.14832C12.5697 6.75956 12.8275 6.3908 13.2104 6.3258C13.5111 6.2758 13.8204 6.24955 14.1272 6.24955C17.1648 6.24955 19.6366 8.7671 19.6366 11.8609C19.6366 12.1747 19.6108 12.4897 19.5605 12.7959C19.5028 13.1447 19.2058 13.3922 18.8695 13.3922C18.8315 13.3922 18.7922 13.3897 18.7529 13.3822C18.3712 13.3159 18.1135 12.9484 18.1773 12.5597C18.2154 12.3322 18.2338 12.0972 18.2338 11.8622C18.2338 9.55461 16.3916 7.67833 14.1272 7.67833ZM17.182 12.3209C17.182 12.7147 16.8678 13.0347 16.4812 13.0347C16.0946 13.0347 15.7804 12.7147 15.7804 12.3209C15.7804 11.1396 14.8366 10.1784 13.6768 10.1784C13.2902 10.1784 12.976 9.85837 12.976 9.46461C12.976 9.07085 13.2902 8.75085 13.6768 8.75085C15.6086 8.7496 17.182 10.3521 17.182 12.3209ZM21.9022 13.1922C21.8286 13.5247 21.5402 13.7484 21.2186 13.7484C21.1671 13.7484 21.1143 13.7422 21.0627 13.7309C20.6847 13.6434 20.4479 13.2609 20.5338 12.8772C20.6356 12.4209 20.6872 11.9497 20.6872 11.4771C20.6872 8.00458 17.9135 5.17828 14.5028 5.17828C14.0376 5.17828 13.5761 5.23078 13.1282 5.33453C12.7526 5.42328 12.3746 5.18078 12.2899 4.79577C12.204 4.41076 12.4409 4.02826 12.8189 3.94201C13.3687 3.81325 13.9357 3.7495 14.5052 3.7495C18.6879 3.7495 22.0912 7.21582 22.0912 11.4759C22.0912 12.0559 22.0274 12.6334 21.9022 13.1922Z" fill="#E22697"/>
</svg>
