<svg width="30" height="30" viewBox="0 0 30 30" fill="none" xmlns="http://www.w3.org/2000/svg">
<path d="M25.595 4.39374C22.4704 1.26765 18.2082 -0.309647 13.733 0.0505357C7.71643 0.533781 2.44275 4.7179 0.67786 10.4898C-0.582779 14.6139 -0.0530105 18.9196 2.00003 22.4764L0.0550443 28.9342C-0.13105 29.554 0.434737 30.1378 1.06055 29.9712L7.81998 28.1598C10.0096 29.3544 12.4738 29.9832 14.9831 29.9847H14.9891C21.2848 29.9847 27.1018 26.1338 29.1143 20.1682C31.0743 14.3513 29.6245 8.42778 25.595 4.39374ZM22.3248 20.3408C22.0127 21.2158 20.4834 22.0592 19.796 22.1207C19.1087 22.1838 18.4649 22.4314 15.3013 21.1842C11.4938 19.6835 9.08962 15.78 8.90353 15.5309C8.71593 15.2803 7.37425 13.5004 7.37425 11.6574C7.37425 9.81448 8.34224 8.90802 8.68592 8.53434C9.02959 8.15914 9.4348 8.0661 9.68542 8.0661C9.93455 8.0661 10.1852 8.0661 10.4028 8.0751C10.6699 8.08561 10.9656 8.09911 11.2462 8.72193C11.5794 9.46331 12.3073 11.3152 12.4003 11.5028C12.4933 11.6904 12.5564 11.9095 12.4318 12.1587C12.3073 12.4078 12.2442 12.5639 12.0581 12.783C11.8705 13.0021 11.6649 13.2707 11.4968 13.4388C11.3092 13.6249 11.1141 13.829 11.3318 14.2027C11.5509 14.5779 12.3013 15.804 13.4148 16.796C14.8465 18.0717 16.0517 18.4664 16.4268 18.6555C16.802 18.8431 17.0196 18.8115 17.2388 18.5609C17.4579 18.3118 18.1752 17.4684 18.4244 17.0932C18.6735 16.718 18.9241 16.781 19.2678 16.9056C19.6115 17.0301 21.4529 17.9366 21.8266 18.1242C22.2018 18.3118 22.4509 18.4048 22.5439 18.5609C22.637 18.7155 22.637 19.4659 22.3248 20.3408Z" fill="#E22697"/>
</svg>
