<svg width="48" height="37" viewBox="0 0 48 37" fill="none" xmlns="http://www.w3.org/2000/svg">
<ellipse cx="29.8602" cy="18.5737" rx="17.859" ry="17.5971" fill="#E9BF2C" fill-opacity="0.59"/>
<path d="M28.5017 18.7873C28.9547 18.7873 29.3219 18.42 29.3219 17.967C29.3219 17.5141 28.9547 17.1468 28.5017 17.1468L28.5017 18.7873ZM0.746908 17.387C0.426592 17.7073 0.42659 18.2266 0.746904 18.5469L5.96673 23.7668C6.28705 24.0871 6.80638 24.0871 7.12669 23.7668C7.44701 23.4465 7.44701 22.9272 7.1267 22.6068L2.48685 17.967L7.12673 13.3271C7.44704 13.0068 7.44704 12.4875 7.12673 12.1672C6.80641 11.8468 6.28708 11.8468 5.96676 12.1672L0.746908 17.387ZM28.5017 17.1468L1.32689 17.1467L1.32689 18.7872L28.5017 18.7873L28.5017 17.1468Z" fill="#6F711F"/>
</svg>
