<svg width="25" height="19" viewBox="0 0 25 19" fill="none" xmlns="http://www.w3.org/2000/svg">
<circle r="8.8099" transform="matrix(-1 0 0 1 9.64127 9.53133)" fill="#E9BF2C" fill-opacity="0.59"/>
<path d="M10.3115 9.83524C9.97597 9.83524 9.70395 9.56322 9.70394 9.22766C9.70394 8.89211 9.97596 8.62008 10.3115 8.62008L10.3115 9.83524ZM24.1465 8.79798C24.3838 9.03525 24.3838 9.41995 24.1466 9.65722L20.28 13.5239C20.0427 13.7611 19.658 13.7611 19.4207 13.5239C19.1834 13.2866 19.1834 12.9019 19.4207 12.6646L22.8577 9.22761L19.4207 5.79063C19.1834 5.55336 19.1834 5.16866 19.4207 4.93139C19.6579 4.69411 20.0426 4.69411 20.2799 4.93138L24.1465 8.79798ZM10.3115 8.62008L23.7169 8.62002L23.7169 9.83518L10.3115 9.83524L10.3115 8.62008Z" fill="#6F711F"/>
</svg>
