<svg width="625" height="586" viewBox="0 0 625 586" fill="none" xmlns="http://www.w3.org/2000/svg">
<path d="M88.5 98.5C88.5 92.9772 92.9772 88.5 98.5 88.5H166.5C172.023 88.5 176.5 92.9772 176.5 98.5V166.5C176.5 172.023 172.023 176.5 166.5 176.5H98.5C92.9772 176.5 88.5 172.023 88.5 166.5V98.5Z" fill="white"/>
<path fill-rule="evenodd" clip-rule="evenodd" d="M88 98.5C88 92.701 92.701 88 98.5 88H166.5C172.299 88 177 92.701 177 98.5V166.5C177 172.299 172.299 177 166.5 177H98.5C92.701 177 88 172.299 88 166.5V98.5ZM98.5 89C93.2533 89 89 93.2533 89 98.5V166.5C89 171.747 93.2533 176 98.5 176H166.5C171.747 176 176 171.747 176 166.5V98.5C176 93.2533 171.747 89 166.5 89H98.5Z" fill="#6F711F"/>
<path fill-rule="evenodd" clip-rule="evenodd" d="M10.5 88.5C4.97715 88.5 0.5 92.9772 0.5 98.5V166.5C0.5 172.023 4.97715 176.5 10.5 176.5H78.5C84.0229 176.5 88.5 172.023 88.5 166.5V145.035C89.6956 145.38 90.9594 145.566 92.2664 145.566C99.7404 145.566 105.799 139.507 105.799 132.033C105.799 124.559 99.7404 118.5 92.2664 118.5C90.9594 118.5 89.6956 118.685 88.5 119.031V98.5C88.5 92.9772 84.0229 88.5 78.5 88.5H10.5Z" fill="white"/>
<path fill-rule="evenodd" clip-rule="evenodd" d="M10.5 89C5.25329 89 1 93.2533 1 98.5V166.5C1 171.747 5.2533 176 10.5 176H78.5C83.7467 176 88 171.747 88 166.5V144.37L88.6389 144.554C89.7899 144.887 91.0069 145.066 92.2664 145.066C99.4643 145.066 105.299 139.231 105.299 132.033C105.299 124.835 99.4643 119 92.2664 119C91.0069 119 89.7899 119.179 88.6389 119.511L88 119.696V98.5C88 93.2533 83.7467 89 78.5 89H10.5ZM0 98.5C0 92.701 4.70101 88 10.5 88H78.5C84.299 88 89 92.701 89 98.5V118.382C90.0485 118.132 91.1423 118 92.2664 118C100.017 118 106.299 124.283 106.299 132.033C106.299 139.783 100.017 146.066 92.2664 146.066C91.1423 146.066 90.0485 145.933 89 145.683V166.5C89 172.299 84.299 177 78.5 177H10.5C4.70101 177 0 172.299 0 166.5V98.5Z" fill="#6F711F"/>
<path fill-rule="evenodd" clip-rule="evenodd" d="M296.142 176.5H274.5C268.977 176.5 264.5 180.977 264.5 186.5V254.5C264.5 260.023 268.977 264.5 274.5 264.5H342.5C348.023 264.5 352.5 260.023 352.5 254.5V186.5C352.5 180.977 348.023 176.5 342.5 176.5H319.923C320.971 174.579 321.566 172.375 321.566 170.033C321.566 162.559 315.507 156.5 308.033 156.5C300.559 156.5 294.5 162.559 294.5 170.033C294.5 172.375 295.095 174.579 296.142 176.5Z" fill="white"/>
<path fill-rule="evenodd" clip-rule="evenodd" d="M294 170.033C294 162.283 300.283 156 308.033 156C315.783 156 322.066 162.283 322.066 170.033C322.066 172.166 321.589 174.189 320.737 176H342.5C348.299 176 353 180.701 353 186.5V254.5C353 260.299 348.299 265 342.5 265H274.5C268.701 265 264 260.299 264 254.5V186.5C264 180.701 268.701 176 274.5 176H295.328C294.476 174.189 294 172.166 294 170.033ZM308.033 157C300.835 157 295 162.835 295 170.033C295 172.29 295.573 174.411 296.581 176.261L296.984 177H274.5C269.253 177 265 181.253 265 186.5V254.5C265 259.747 269.253 264 274.5 264H342.5C347.747 264 352 259.747 352 254.5V186.5C352 181.253 347.747 177 342.5 177H319.081L319.484 176.261C320.493 174.411 321.066 172.29 321.066 170.033C321.066 162.835 315.231 157 308.033 157Z" fill="#6F711F"/>
<path fill-rule="evenodd" clip-rule="evenodd" d="M186.5 176.5C180.977 176.5 176.5 180.977 176.5 186.5V254.5C176.5 260.023 180.977 264.5 186.5 264.5H254.5C260.023 264.5 264.5 260.023 264.5 254.5V232.279C266.249 233.104 268.204 233.566 270.266 233.566C277.74 233.566 283.799 227.507 283.799 220.033C283.799 212.559 277.74 206.5 270.266 206.5C268.204 206.5 266.249 206.961 264.5 207.787V186.5C264.5 180.977 260.023 176.5 254.5 176.5H186.5Z" fill="white"/>
<path fill-rule="evenodd" clip-rule="evenodd" d="M186.5 177C181.253 177 177 181.253 177 186.5V254.5C177 259.747 181.253 264 186.5 264H254.5C259.747 264 264 259.747 264 254.5V231.491L264.713 231.827C266.397 232.621 268.279 233.066 270.266 233.066C277.464 233.066 283.299 227.231 283.299 220.033C283.299 212.835 277.464 207 270.266 207C268.279 207 266.397 207.444 264.713 208.239L264 208.575V186.5C264 181.253 259.747 177 254.5 177H186.5ZM176 186.5C176 180.701 180.701 176 186.5 176H254.5C260.299 176 265 180.701 265 186.5V207.022C266.627 206.363 268.405 206 270.266 206C278.017 206 284.299 212.283 284.299 220.033C284.299 227.783 278.017 234.066 270.266 234.066C268.405 234.066 266.627 233.703 265 233.044V254.5C265 260.299 260.299 265 254.5 265H186.5C180.701 265 176 260.299 176 254.5V186.5Z" fill="#6F711F"/>
<path fill-rule="evenodd" clip-rule="evenodd" d="M206 82.0328C206 74.2827 212.283 68 220.033 68C227.783 68 234.066 74.2827 234.066 82.0328C234.066 84.1658 233.589 86.1887 232.737 88H254.5C260.299 88 265 92.701 265 98.5V119.022C266.627 118.363 268.405 118 270.266 118C278.017 118 284.299 124.283 284.299 132.033C284.299 139.783 278.017 146.066 270.266 146.066C268.405 146.066 266.627 145.703 265 145.044V166.5C265 172.299 260.299 177 254.5 177H233.044C233.703 178.627 234.066 180.405 234.066 182.266C234.066 190.017 227.783 196.299 220.033 196.299C212.283 196.299 206 190.017 206 182.266C206 180.405 206.363 178.627 207.022 177H186.5C180.701 177 176 172.299 176 166.5V144.672C174.189 145.524 172.166 146 170.033 146C162.283 146 156 139.717 156 131.967C156 124.217 162.283 117.934 170.033 117.934C172.166 117.934 174.189 118.411 176 119.263V98.5C176 92.701 180.701 88 186.5 88H207.328C206.476 86.1887 206 84.1658 206 82.0328ZM220.033 69C212.835 69 207 74.835 207 82.0328C207 84.2895 207.573 86.4109 208.581 88.2607L208.984 89H186.5C181.253 89 177 93.2533 177 98.5V120.919L176.261 120.516C174.411 119.507 172.29 118.934 170.033 118.934C162.835 118.934 157 124.769 157 131.967C157 139.165 162.835 145 170.033 145C172.29 145 174.411 144.427 176.261 143.419L177 143.016V166.5C177 171.747 181.253 176 186.5 176H208.575L208.239 176.713C207.444 178.397 207 180.279 207 182.266C207 189.464 212.835 195.299 220.033 195.299C227.231 195.299 233.066 189.464 233.066 182.266C233.066 180.279 232.621 178.397 231.827 176.713L231.49 176H254.5C259.747 176 264 171.747 264 166.5V143.491L264.713 143.827C266.397 144.621 268.279 145.066 270.266 145.066C277.464 145.066 283.299 139.231 283.299 132.033C283.299 124.835 277.464 119 270.266 119C268.279 119 266.397 119.444 264.713 120.239L264 120.575V98.5C264 93.2533 259.747 89 254.5 89H231.081L231.484 88.2607C232.493 86.4109 233.066 84.2895 233.066 82.0328C233.066 74.835 227.231 69 220.033 69Z" fill="#6F711F"/>
<path fill-rule="evenodd" clip-rule="evenodd" d="M120.142 176.5H98.5C92.9772 176.5 88.5 180.977 88.5 186.5V254.5C88.5 260.023 92.9772 264.5 98.5 264.5H166.5C172.023 264.5 176.5 260.023 176.5 254.5V233.035C177.696 233.38 178.959 233.566 180.266 233.566C187.74 233.566 193.799 227.507 193.799 220.033C193.799 212.559 187.74 206.5 180.266 206.5C178.959 206.5 177.696 206.685 176.5 207.031V186.5C176.5 180.977 172.023 176.5 166.5 176.5H143.923C144.971 174.579 145.566 172.375 145.566 170.033C145.566 162.559 139.507 156.5 132.033 156.5C124.559 156.5 118.5 162.559 118.5 170.033C118.5 172.375 119.095 174.579 120.142 176.5Z" fill="white"/>
<path fill-rule="evenodd" clip-rule="evenodd" d="M118 170.033C118 162.283 124.283 156 132.033 156C139.783 156 146.066 162.283 146.066 170.033C146.066 172.166 145.589 174.189 144.737 176H166.5C172.299 176 177 180.701 177 186.5V206.382C178.049 206.132 179.142 206 180.266 206C188.017 206 194.299 212.283 194.299 220.033C194.299 227.783 188.017 234.066 180.266 234.066C179.142 234.066 178.049 233.933 177 233.683V254.5C177 260.299 172.299 265 166.5 265H98.5C92.701 265 88 260.299 88 254.5V186.5C88 180.701 92.701 176 98.5 176H119.328C118.476 174.189 118 172.166 118 170.033ZM132.033 157C124.835 157 119 162.835 119 170.033C119 172.29 119.573 174.411 120.581 176.261L120.984 177H98.5C93.2533 177 89 181.253 89 186.5V254.5C89 259.747 93.2533 264 98.5 264H166.5C171.747 264 176 259.747 176 254.5V232.37L176.639 232.554C177.79 232.887 179.007 233.066 180.266 233.066C187.464 233.066 193.299 227.231 193.299 220.033C193.299 212.835 187.464 207 180.266 207C179.007 207 177.79 207.179 176.639 207.511L176 207.696V186.5C176 181.253 171.747 177 166.5 177H143.081L143.484 176.261C144.493 174.411 145.066 172.29 145.066 170.033C145.066 162.835 139.231 157 132.033 157Z" fill="#6F711F"/>
<path d="M352.5 11.5C352.5 5.97715 356.977 1.5 362.5 1.5H430.5C436.023 1.5 440.5 5.97715 440.5 11.5V79.5C440.5 85.0229 436.023 89.5 430.5 89.5H362.5C356.977 89.5 352.5 85.0229 352.5 79.5V11.5Z" fill="white"/>
<path fill-rule="evenodd" clip-rule="evenodd" d="M352 11.5C352 5.70101 356.701 1 362.5 1H430.5C436.299 1 441 5.70101 441 11.5V79.5C441 85.299 436.299 90 430.5 90H362.5C356.701 90 352 85.299 352 79.5V11.5ZM362.5 2C357.253 2 353 6.2533 353 11.5V79.5C353 84.7467 357.253 89 362.5 89H430.5C435.747 89 440 84.7467 440 79.5V11.5C440 6.25329 435.747 2 430.5 2H362.5Z" fill="#6F711F"/>
<path fill-rule="evenodd" clip-rule="evenodd" d="M31.1424 176.5H10.5C4.97715 176.5 0.5 180.977 0.5 186.5V254.5C0.5 260.023 4.97715 264.5 10.5 264.5H78.5C84.0229 264.5 88.5 260.023 88.5 254.5V233.035C89.6956 233.38 90.9594 233.566 92.2664 233.566C99.7404 233.566 105.799 227.507 105.799 220.033C105.799 212.559 99.7404 206.5 92.2664 206.5C90.9594 206.5 89.6956 206.685 88.5 207.031V186.5C88.5 180.977 84.0229 176.5 78.5 176.5H54.9233C55.9706 174.579 56.5657 172.375 56.5657 170.033C56.5657 162.559 50.5068 156.5 43.0328 156.5C35.5589 156.5 29.5 162.559 29.5 170.033C29.5 172.375 30.0951 174.579 31.1424 176.5Z" fill="white"/>
<path fill-rule="evenodd" clip-rule="evenodd" d="M29 170.033C29 162.283 35.2827 156 43.0328 156C50.783 156 57.0657 162.283 57.0657 170.033C57.0657 172.166 56.5895 174.189 55.7373 176H78.5C84.299 176 89 180.701 89 186.5V206.382C90.0485 206.132 91.1423 206 92.2664 206C100.017 206 106.299 212.283 106.299 220.033C106.299 227.783 100.017 234.066 92.2664 234.066C91.1423 234.066 90.0485 233.933 89 233.683V254.5C89 260.299 84.299 265 78.5 265H10.5C4.70101 265 0 260.299 0 254.5V186.5C0 180.701 4.70101 176 10.5 176H30.3284C29.4762 174.189 29 172.166 29 170.033ZM43.0328 157C35.835 157 30 162.835 30 170.033C30 172.29 30.5731 174.411 31.5814 176.261L31.9843 177H10.5C5.25329 177 1 181.253 1 186.5V254.5C1 259.747 5.2533 264 10.5 264H78.5C83.7467 264 88 259.747 88 254.5V232.37L88.6389 232.554C89.7899 232.887 91.0069 233.066 92.2664 233.066C99.4643 233.066 105.299 227.231 105.299 220.033C105.299 212.835 99.4643 207 92.2664 207C91.0069 207 89.7899 207.179 88.6389 207.511L88 207.696V186.5C88 181.253 83.7467 177 78.5 177H54.0814L54.4843 176.261C55.4926 174.411 56.0657 172.29 56.0657 170.033C56.0657 162.835 50.2307 157 43.0328 157Z" fill="#6F711F"/>
<path fill-rule="evenodd" clip-rule="evenodd" d="M362.5 176.5C356.977 176.5 352.5 180.977 352.5 186.5V208.077C350.579 207.029 348.375 206.434 346.033 206.434C338.559 206.434 332.5 212.493 332.5 219.967C332.5 227.441 338.559 233.5 346.033 233.5C348.375 233.5 350.579 232.905 352.5 231.858V254.5C352.5 260.023 356.977 264.5 362.5 264.5H430.5C436.023 264.5 440.5 260.023 440.5 254.5V186.5C440.5 180.977 436.023 176.5 430.5 176.5H362.5Z" fill="white"/>
<path fill-rule="evenodd" clip-rule="evenodd" d="M362.5 177C357.253 177 353 181.253 353 186.5V208.919L352.261 208.516C350.411 207.507 348.29 206.934 346.033 206.934C338.835 206.934 333 212.769 333 219.967C333 227.165 338.835 233 346.033 233C348.29 233 350.411 232.427 352.261 231.419L353 231.016V254.5C353 259.747 357.253 264 362.5 264H430.5C435.747 264 440 259.747 440 254.5V186.5C440 181.253 435.747 177 430.5 177H362.5ZM352 186.5C352 180.701 356.701 176 362.5 176H430.5C436.299 176 441 180.701 441 186.5V254.5C441 260.299 436.299 265 430.5 265H362.5C356.701 265 352 260.299 352 254.5V232.672C350.189 233.524 348.166 234 346.033 234C338.283 234 332 227.717 332 219.967C332 212.217 338.283 205.934 346.033 205.934C348.166 205.934 350.189 206.411 352 207.263V186.5Z" fill="#6F711F"/>
<path fill-rule="evenodd" clip-rule="evenodd" d="M384.142 88.5H362.5C356.977 88.5 352.5 92.9771 352.5 98.5V166.5C352.5 172.023 356.977 176.5 362.5 176.5L384.245 176.5C383.093 178.491 382.434 180.802 382.434 183.267C382.434 190.74 388.493 196.799 395.967 196.799C403.441 196.799 409.5 190.74 409.5 183.267C409.5 180.802 408.841 178.491 407.69 176.5L430.5 176.5C436.023 176.5 440.5 172.023 440.5 166.5V98.5C440.5 92.9771 436.023 88.5 430.5 88.5H407.923C408.971 86.5786 409.566 84.375 409.566 82.0327C409.566 74.5591 403.507 68.5 396.033 68.5C388.559 68.5 382.5 74.5591 382.5 82.0327C382.5 84.375 383.095 86.5786 384.142 88.5ZM352.5 144.755C354.491 145.907 356.802 146.566 359.266 146.566C366.74 146.566 372.799 140.507 372.799 133.033C372.799 125.559 366.74 119.5 359.266 119.5C356.802 119.5 354.491 120.159 352.5 121.31L352.5 144.755Z" fill="white"/>
<path fill-rule="evenodd" clip-rule="evenodd" d="M385.826 89.5H362.5C357.529 89.5 353.5 93.5293 353.5 98.5V119.689C355.269 118.924 357.219 118.5 359.266 118.5C367.293 118.5 373.799 125.007 373.799 133.033C373.799 141.059 367.293 147.566 359.266 147.566C357.219 147.566 355.269 147.142 353.5 146.376V166.5C353.5 171.471 357.529 175.5 362.5 175.5L385.978 175.501L385.11 177.001C384.045 178.843 383.434 180.982 383.434 183.267C383.434 190.188 389.045 195.799 395.967 195.799C402.889 195.799 408.5 190.188 408.5 183.267C408.5 180.982 407.89 178.843 406.824 177.001L405.956 175.501L430.5 175.5C435.471 175.5 439.5 171.471 439.5 166.5V98.5C439.5 93.5293 435.471 89.5 430.5 89.5H406.239L407.045 88.0214C408.014 86.2432 408.566 84.2036 408.566 82.0327C408.566 75.1114 402.955 69.5 396.033 69.5C389.111 69.5 383.5 75.1114 383.5 82.0327C383.5 84.2036 384.051 86.2432 385.021 88.0214L385.826 89.5ZM352.5 98.5C352.5 92.9771 356.977 88.5 362.5 88.5H384.142C383.965 88.1745 383.801 87.841 383.65 87.5C382.911 85.8281 382.5 83.9782 382.5 82.0327C382.5 74.5591 388.559 68.5 396.033 68.5C403.507 68.5 409.566 74.5591 409.566 82.0327C409.566 83.9782 409.155 85.8281 408.416 87.5C408.265 87.841 408.101 88.1745 407.923 88.5H430.5C436.023 88.5 440.5 92.9771 440.5 98.5V166.5C440.5 172.023 436.023 176.5 430.5 176.5L407.69 176.5C407.878 176.826 408.053 177.159 408.214 177.5C409.039 179.25 409.5 181.204 409.5 183.267C409.5 190.74 403.441 196.799 395.967 196.799C388.493 196.799 382.434 190.74 382.434 183.267C382.434 181.204 382.896 179.25 383.721 177.5C383.882 177.159 384.057 176.826 384.245 176.5L362.5 176.5C356.977 176.5 352.5 172.023 352.5 166.5V98.5ZM353.5 145.279C355.249 146.104 357.204 146.566 359.266 146.566C366.74 146.566 372.799 140.507 372.799 133.033C372.799 125.559 366.74 119.5 359.266 119.5C357.204 119.5 355.249 119.961 353.5 120.787C353.159 120.948 352.825 121.122 352.5 121.31V144.756C352.825 144.944 353.159 145.118 353.5 145.279Z" fill="#6F711F"/>
<path fill-rule="evenodd" clip-rule="evenodd" d="M98.5 0.5C92.9772 0.5 88.5 4.97715 88.5 10.5V78.5C88.5 84.0229 92.9772 88.5 98.5 88.5H119.031C118.685 89.6957 118.5 90.9594 118.5 92.2665C118.5 99.7405 124.559 105.799 132.033 105.799C139.507 105.799 145.566 99.7405 145.566 92.2665C145.566 90.9594 145.38 89.6957 145.035 88.5H166.5C172.023 88.5 176.5 84.0229 176.5 78.5V10.5C176.5 4.97715 172.023 0.5 166.5 0.5H98.5Z" fill="white"/>
<path fill-rule="evenodd" clip-rule="evenodd" d="M98.5 1C93.2533 1 89 5.2533 89 10.5V78.5C89 83.7467 93.2533 88 98.5 88H119.696L119.511 88.6389C119.179 89.7899 119 91.0069 119 92.2665C119 99.4643 124.835 105.299 132.033 105.299C139.231 105.299 145.066 99.4643 145.066 92.2665C145.066 91.0069 144.887 89.7899 144.554 88.6389L144.37 88H166.5C171.747 88 176 83.7467 176 78.5V10.5C176 5.25329 171.747 1 166.5 1H98.5ZM88 10.5C88 4.70101 92.701 0 98.5 0H166.5C172.299 0 177 4.70101 177 10.5V78.5C177 84.299 172.299 89 166.5 89H145.683C145.933 90.0485 146.066 91.1424 146.066 92.2665C146.066 100.017 139.783 106.299 132.033 106.299C124.283 106.299 118 100.017 118 92.2665C118 91.1423 118.132 90.0485 118.382 89H98.5C92.701 89 88 84.299 88 78.5V10.5Z" fill="#6F711F"/>
<path fill-rule="evenodd" clip-rule="evenodd" d="M176.5 11.5C176.5 5.97715 180.977 1.5 186.5 1.5H254.5C260.023 1.5 264.5 5.97715 264.5 11.5V32.8088C266.348 31.9697 268.416 31.5 270.6 31.5C278.442 31.5 284.799 37.5589 284.799 45.0328C284.799 52.5068 278.442 58.5657 270.6 58.5657C268.416 58.5657 266.348 58.096 264.5 57.2569V79.5C264.5 85.0229 260.023 89.5 254.5 89.5H186.5C180.977 89.5 176.5 85.0229 176.5 79.5V56.8576C174.579 57.9049 172.375 58.5 170.033 58.5C162.559 58.5 156.5 52.4411 156.5 44.9672C156.5 37.4932 162.559 31.4343 170.033 31.4343C172.375 31.4343 174.579 32.0294 176.5 33.0767V11.5Z" fill="white"/>
<path fill-rule="evenodd" clip-rule="evenodd" d="M176 11.5C176 5.70101 180.701 1 186.5 1H254.5C260.299 1 265 5.70101 265 11.5V32.0542C266.727 31.3745 268.618 31 270.6 31C278.695 31 285.299 37.2603 285.299 45.0328C285.299 52.8054 278.695 59.0657 270.6 59.0657C268.618 59.0657 266.727 58.6912 265 58.0115V79.5C265 85.299 260.299 90 254.5 90H186.5C180.701 90 176 85.299 176 79.5V57.6716C174.189 58.5238 172.166 59 170.033 59C162.283 59 156 52.7173 156 44.9672C156 37.217 162.283 30.9343 170.033 30.9343C172.166 30.9343 174.189 31.4105 176 32.2627V11.5ZM186.5 2C181.253 2 177 6.2533 177 11.5V33.9186L176.261 33.5157C174.411 32.5074 172.29 31.9343 170.033 31.9343C162.835 31.9343 157 37.7693 157 44.9672C157 52.165 162.835 58 170.033 58C172.29 58 174.411 57.4269 176.261 56.4186L177 56.0157V79.5C177 84.7467 181.253 89 186.5 89H254.5C259.747 89 264 84.7467 264 79.5V56.4808L264.707 56.8017C266.491 57.6116 268.489 58.0657 270.6 58.0657C278.189 58.0657 284.299 52.2083 284.299 45.0328C284.299 37.8574 278.189 32 270.6 32C268.489 32 266.491 32.4541 264.707 33.264L264 33.5849V11.5C264 6.25329 259.747 2 254.5 2H186.5Z" fill="#6F711F"/>
<path fill-rule="evenodd" clip-rule="evenodd" d="M0.5 10.5C0.5 4.97715 4.97715 0.5 10.5 0.5H78.5C84.0229 0.5 88.5 4.97715 88.5 10.5V31.3633C89.9825 30.8053 91.5888 30.5 93.2664 30.5C100.74 30.5 106.799 36.5589 106.799 44.0328C106.799 51.5068 100.74 57.5657 93.2664 57.5657C91.5888 57.5657 89.9825 57.2604 88.5 56.7024V78.5C88.5 84.0229 84.0229 88.5 78.5 88.5H57.0346C57.3804 89.6957 57.5657 90.9594 57.5657 92.2665C57.5657 99.7405 51.5068 105.799 44.0328 105.799C36.5589 105.799 30.5 99.7405 30.5 92.2665C30.5 90.9594 30.6853 89.6957 31.0311 88.5H10.5C4.97715 88.5 0.5 84.0229 0.5 78.5V10.5Z" fill="white"/>
<path fill-rule="evenodd" clip-rule="evenodd" d="M0 10.5C0 4.70101 4.70101 0 10.5 0H78.5C84.299 0 89 4.70101 89 10.5V30.6605C90.3459 30.2314 91.7796 30 93.2664 30C101.017 30 107.299 36.2827 107.299 44.0328C107.299 51.783 101.017 58.0657 93.2664 58.0657C91.7796 58.0657 90.3459 57.8343 89 57.4052V78.5C89 84.299 84.299 89 78.5 89H57.6834C57.9334 90.0485 58.0657 91.1424 58.0657 92.2665C58.0657 100.017 51.783 106.299 44.0328 106.299C36.2827 106.299 30 100.017 30 92.2665C30 91.1423 30.1323 90.0485 30.3823 89H10.5C4.70101 89 0 84.299 0 78.5V10.5ZM10.5 1C5.25329 1 1 5.2533 1 10.5V78.5C1 83.7467 5.2533 88 10.5 88H31.6961L31.5114 88.6389C31.1785 89.7899 31 91.0069 31 92.2665C31 99.4643 36.835 105.299 44.0328 105.299C51.2307 105.299 57.0657 99.4643 57.0657 92.2665C57.0657 91.0069 56.8871 89.7899 56.5543 88.6389L56.3696 88H78.5C83.7467 88 88 83.7467 88 78.5V55.98L88.6761 56.2345C90.1032 56.7716 91.6499 57.0657 93.2664 57.0657C100.464 57.0657 106.299 51.2307 106.299 44.0328C106.299 36.835 100.464 31 93.2664 31C91.6499 31 90.1032 31.2941 88.6761 31.8312L88 32.0857V10.5C88 5.25329 83.7467 1 78.5 1H10.5Z" fill="#6F711F"/>
<path fill-rule="evenodd" clip-rule="evenodd" d="M274.5 0.5C268.977 0.5 264.5 4.97715 264.5 10.5V78.5C264.5 84.0229 268.977 88.5 274.5 88.5H342.5C348.023 88.5 352.5 84.0229 352.5 78.5V56.2792C354.249 57.1043 356.204 57.5657 358.266 57.5657C365.74 57.5657 371.799 51.5068 371.799 44.0328C371.799 36.5589 365.74 30.5 358.266 30.5C356.204 30.5 354.249 30.9614 352.5 31.7865V10.5C352.5 4.97715 348.023 0.5 342.5 0.5H274.5ZM320.694 88.5C321.843 86.5389 322.5 84.262 322.5 81.8335C322.5 74.4696 316.456 68.5 309 68.5C301.544 68.5 295.5 74.4696 295.5 81.8335C295.5 84.262 296.157 86.5389 297.306 88.5H320.694Z" fill="white"/>
<path fill-rule="evenodd" clip-rule="evenodd" d="M351.5 54.7018L352.927 55.3747C354.545 56.1383 356.355 56.5657 358.266 56.5657C365.188 56.5657 370.799 50.9545 370.799 44.0328C370.799 37.1111 365.188 31.5 358.266 31.5C356.355 31.5 354.545 31.9274 352.927 32.6909L351.5 33.3639V10.5C351.5 5.52944 347.471 1.5 342.5 1.5H274.5C269.529 1.5 265.5 5.52944 265.5 10.5V78.5C265.5 83.4706 269.529 87.5 274.5 87.5H295.677C294.92 85.7615 294.5 83.8452 294.5 81.8335C294.5 73.9056 301.004 67.5 309 67.5C316.996 67.5 323.5 73.9056 323.5 81.8335C323.5 83.8452 323.08 85.7615 322.323 87.5H342.5C347.471 87.5 351.5 83.4706 351.5 78.5V54.7018ZM320.694 88.5C320.884 88.1751 321.061 87.8415 321.224 87.5C322.042 85.7803 322.5 83.8596 322.5 81.8335C322.5 74.4696 316.456 68.5 309 68.5C301.544 68.5 295.5 74.4696 295.5 81.8335C295.5 83.8596 295.958 85.7803 296.776 87.5C296.939 87.8415 297.116 88.1751 297.306 88.5H274.5C268.977 88.5 264.5 84.0229 264.5 78.5V10.5C264.5 4.97715 268.977 0.5 274.5 0.5H342.5C348.023 0.5 352.5 4.97715 352.5 10.5V31.7865C352.826 31.6326 353.16 31.4913 353.5 31.3633C354.983 30.8053 356.589 30.5 358.266 30.5C365.74 30.5 371.799 36.5589 371.799 44.0328C371.799 51.5068 365.74 57.5657 358.266 57.5657C356.589 57.5657 354.983 57.2604 353.5 56.7024C353.16 56.5744 352.826 56.4331 352.5 56.2792V78.5C352.5 84.0229 348.023 88.5 342.5 88.5H320.694Z" fill="#6F711F"/>
<path fill-rule="evenodd" clip-rule="evenodd" d="M208.142 88.5H186.5C180.977 88.5 176.5 92.9772 176.5 98.5V120.077C174.579 119.029 172.375 118.434 170.033 118.434C162.559 118.434 156.5 124.493 156.5 131.967C156.5 139.441 162.559 145.5 170.033 145.5C172.375 145.5 174.579 144.905 176.5 143.858V166.5C176.5 172.023 180.977 176.5 186.5 176.5H207.787C206.961 178.249 206.5 180.204 206.5 182.266C206.5 189.74 212.559 195.799 220.033 195.799C227.507 195.799 233.566 189.74 233.566 182.266C233.566 180.204 233.104 178.249 232.279 176.5H254.5C260.023 176.5 264.5 172.023 264.5 166.5V144.279C266.249 145.104 268.204 145.566 270.266 145.566C277.74 145.566 283.799 139.507 283.799 132.033C283.799 124.559 277.74 118.5 270.266 118.5C268.204 118.5 266.249 118.961 264.5 119.787V98.5C264.5 92.9772 260.023 88.5 254.5 88.5H231.923C232.971 86.5786 233.566 84.3752 233.566 82.0328C233.566 74.5589 227.507 68.5 220.033 68.5C212.559 68.5 206.5 74.5589 206.5 82.0328C206.5 84.3752 207.095 86.5786 208.142 88.5Z" fill="white"/>
<path fill-rule="evenodd" clip-rule="evenodd" d="M206 82.0328C206 74.2827 212.283 68 220.033 68C227.783 68 234.066 74.2827 234.066 82.0328C234.066 84.1658 233.589 86.1887 232.737 88H254.5C260.299 88 265 92.701 265 98.5V119.022C266.627 118.363 268.405 118 270.266 118C278.017 118 284.299 124.283 284.299 132.033C284.299 139.783 278.017 146.066 270.266 146.066C268.405 146.066 266.627 145.703 265 145.044V166.5C265 172.299 260.299 177 254.5 177H233.044C233.703 178.627 234.066 180.405 234.066 182.266C234.066 190.017 227.783 196.299 220.033 196.299C212.283 196.299 206 190.017 206 182.266C206 180.405 206.363 178.627 207.022 177H186.5C180.701 177 176 172.299 176 166.5V144.672C174.189 145.524 172.166 146 170.033 146C162.283 146 156 139.717 156 131.967C156 124.217 162.283 117.934 170.033 117.934C172.166 117.934 174.189 118.411 176 119.263V98.5C176 92.701 180.701 88 186.5 88H207.328C206.476 86.1887 206 84.1658 206 82.0328ZM220.033 69C212.835 69 207 74.835 207 82.0328C207 84.2895 207.573 86.4109 208.581 88.2607L208.984 89H186.5C181.253 89 177 93.2533 177 98.5V120.919L176.261 120.516C174.411 119.507 172.29 118.934 170.033 118.934C162.835 118.934 157 124.769 157 131.967C157 139.165 162.835 145 170.033 145C172.29 145 174.411 144.427 176.261 143.419L177 143.016V166.5C177 171.747 181.253 176 186.5 176H208.575L208.239 176.713C207.444 178.397 207 180.279 207 182.266C207 189.464 212.835 195.299 220.033 195.299C227.231 195.299 233.066 189.464 233.066 182.266C233.066 180.279 232.621 178.397 231.827 176.713L231.49 176H254.5C259.747 176 264 171.747 264 166.5V143.491L264.713 143.827C266.397 144.621 268.279 145.066 270.266 145.066C277.464 145.066 283.299 139.231 283.299 132.033C283.299 124.835 277.464 119 270.266 119C268.279 119 266.397 119.444 264.713 120.239L264 120.575V98.5C264 93.2533 259.747 89 254.5 89H231.081L231.484 88.2607C232.493 86.4109 233.066 84.2895 233.066 82.0328C233.066 74.835 227.231 69 220.033 69Z" fill="#6F711F"/>
<g filter="url(#filter0_d_340_1576)">
<path fill-rule="evenodd" clip-rule="evenodd" d="M328 131.481H348.123C346.89 129.375 346.184 126.93 346.184 124.321C346.184 116.412 352.674 110 360.679 110C368.685 110 375.174 116.412 375.174 124.321C375.174 126.93 374.468 129.375 373.235 131.481H396.58C402.103 131.481 406.58 135.959 406.58 141.481V164.256C408.637 163.148 410.997 162.518 413.505 162.518C421.51 162.518 428 168.93 428 176.84C428 184.749 421.51 191.161 413.505 191.161C410.997 191.161 408.637 190.531 406.58 189.424V209C406.58 214.523 402.103 219 396.58 219H328C322.477 219 318 214.523 318 209V141.481C318 135.959 322.477 131.481 328 131.481ZM374.846 219C376.079 216.893 376.785 214.448 376.785 211.84C376.785 203.93 370.295 197.518 362.29 197.518C354.285 197.518 347.795 203.93 347.795 211.84C347.795 214.448 348.501 216.893 349.734 219H374.846ZM325.247 189.561C322.607 189.561 320.132 188.864 318 187.646L318 162.835C320.132 161.616 322.607 160.919 325.247 160.919C333.253 160.919 339.742 167.331 339.742 175.24C339.742 183.15 333.253 189.561 325.247 189.561Z" fill="#6F711F"/>
</g>
<g clip-path="url(#clip0_340_1576)">
<path d="M573.539 574.576C567.798 575.263 563.811 570.117 562.229 560.203L550.851 511.146C549.27 501.232 553.429 492.279 560.167 491.147C566.905 490.015 573.642 497.15 575.224 507.064L578.833 550.151C579.211 554.851 579.417 559.585 579.177 564.182C578.867 570.151 577.733 574.576 573.539 574.576Z" fill="#C79D69"/>
<path d="M608.431 575.88C602.656 576.154 599.012 570.494 598.118 560.065L590.177 508.231C589.283 497.802 594.062 488.848 600.834 488.196C607.64 487.545 613.862 495.503 614.756 505.932L615.375 550.975C615.443 555.88 615.306 560.786 614.756 565.589C614.068 571.729 612.625 576.223 608.431 575.88Z" fill="#FFD29B"/>
<path d="M532.15 388.438C529.194 427.717 534.144 488.162 535.21 516.738C535.554 525.452 618.778 530.495 624.072 515.606C629.606 500.135 608.671 406.654 600.524 384.39C586.774 346.688 534.625 355.539 532.15 388.438Z" fill="#C79D69"/>
<path d="M421.288 247.067L420.119 243.465C419.913 242.779 419.775 242.092 419.741 241.406L414.138 231.904C413.828 231.149 414.138 230.292 414.825 230.017C415.513 229.743 416.338 230.12 416.647 230.875L419.706 234.237L417.197 225.763C416.888 224.803 416.922 223.259 417.609 222.95L417.953 222.813C418.641 222.539 419.466 222.916 419.775 223.671L419.431 222.847C419.122 222.093 419.431 221.235 420.119 220.961L420.463 220.823C421.15 220.549 421.975 220.926 422.285 221.681L425.069 228.679C423.625 222.607 423.625 221.99 423.625 221.99C423.419 220 425.825 219.863 427.166 222.641L433.147 236.741L433.422 237.221C433.319 236.672 433.251 236.089 433.182 235.609C433.147 235.403 433.044 234.751 433.182 233.962C433.354 232.899 433.766 232.418 433.869 232.281C434.076 232.041 434.729 230.909 435.932 231.629C436.344 231.904 436.31 233.516 436.482 234.339C436.757 235.643 438.407 237.839 438.476 238.113C439.679 241.681 440.676 243.327 440.813 245.489C440.882 246.209 440.985 246.415 440.573 248.027C440.47 248.507 439.885 250.497 439.713 251.115C441.466 255.746 444.457 259.828 441.982 262.229C439.954 264.219 436.757 267.341 436.551 267.341C432.838 267.615 430.879 261.955 429.813 258.147C429.263 257.633 428.644 257.049 428.129 256.535C426.032 256.123 424.141 254.648 423.213 252.418L422.8 251.526C422.216 250.051 421.7 248.576 421.288 247.067Z" fill="#F2C99B"/>
<path d="M585.158 582.364H553.189L559.651 560.58H581.446L585.158 582.364Z" fill="#2B2522"/>
<path d="M566.492 582.364H536.413L537.444 576.909C539.541 570.734 547.791 570.22 554.357 570.22L563.02 564.045L566.492 582.364Z" fill="#2B2522"/>
<path d="M616.99 563.29L595.54 563.805L582.649 575.331C578.764 575.811 575.292 576.257 575.292 576.257C575.292 576.257 571.717 576.395 570.858 580.305L569.895 585.588C569.895 585.588 589.249 586.48 598.805 585.76C608.362 585.039 617.403 583.873 617.403 583.873L616.99 563.29Z" fill="#534741"/>
<path d="M617.334 579.756C617.334 579.756 609.05 580.854 599.493 581.575C590.315 582.261 572.095 581.472 570.686 581.403L569.93 585.554C569.93 585.554 589.283 586.446 598.84 585.726C608.396 585.005 617.437 583.839 617.437 583.839L617.334 579.756Z" fill="#42210B"/>
<path d="M590.624 573.65L589.868 569.568L594.199 571.112" stroke="#C7B299" stroke-width="0.1318" stroke-miterlimit="10" stroke-linecap="round"/>
<path d="M472.68 257.289L471.442 258.078C468.727 259.794 465.083 259.005 463.364 256.295L458.276 248.267C456.558 245.557 457.348 241.921 460.064 240.206L461.301 239.417C464.017 237.701 467.661 238.49 469.38 241.2L474.467 249.228C476.221 251.938 475.396 255.574 472.68 257.289Z" fill="#C79D69"/>
<path d="M473.814 253.962C471.889 255.197 469.277 254.614 468.039 252.693L461.164 241.852C459.926 239.931 460.511 237.324 462.436 236.089C464.361 234.854 466.973 235.437 468.211 237.358L475.086 248.199C476.324 250.154 475.739 252.727 473.814 253.962Z" fill="#F2C99B"/>
<path d="M456.523 220.515C457.417 220.206 458.654 221.475 459.926 222.847C461.611 224.665 462.642 226.278 463.226 227.238C465.461 230.875 466.595 232.693 466.973 233.859C467.764 236.192 468.727 238.868 467.558 241.681C466.561 244.151 464.43 245.489 463.845 245.866C463.364 246.175 462.161 246.895 460.442 247.238C459.17 247.513 458.311 247.684 457.417 247.41C456.007 246.964 455.904 245.866 453.636 242.984C452.02 240.892 451.607 240.892 450.782 239.382C449.957 237.942 449.27 236.672 449.51 235.334C449.923 233.207 453.326 233.791 454.289 231.492C454.804 230.257 453.979 229.948 454.357 227.135C454.426 226.552 454.701 225.592 455.251 223.705C456.042 220.926 456.214 220.652 456.523 220.515Z" fill="#C79D69"/>
<path d="M456.558 220C458.483 220.137 458.139 221.852 457.933 222.264C457.623 222.916 456.592 226.312 453.979 226.003C451.401 225.695 452.845 222.539 452.845 222.539C452.845 222.539 454.082 219.863 456.558 220Z" fill="#F2C99B"/>
<path d="M454.254 236.947C454.289 237.152 455.732 238.936 455.32 239.588C454.907 240.309 454.151 240.411 452.879 239.588C450.129 237.736 449.167 236.912 448.995 236.192C448.685 234.923 448.582 233.516 450.439 233.379C452.707 233.207 454.082 235.849 454.254 236.947Z" fill="#F2C99B"/>
<path d="M451.47 228.37C450.645 228.405 449.235 229.297 449.339 231.492C449.442 233.791 454.048 240.857 456.558 240.171C457.658 239.863 458.483 239.279 458.414 238.113C458.311 236.466 456.454 235.574 454.323 232.899C452.536 230.566 452.329 228.336 451.47 228.37Z" fill="#F2C99B"/>
<path d="M456.076 228.679C456.454 229.297 457.039 230.086 457.142 231.321C457.176 231.767 457.073 232.556 456.523 233.07C455.801 233.688 454.529 233.585 453.807 233.002C452.157 231.629 451.401 229.743 450.92 227.581C450.404 225.249 450.817 224.528 450.954 224.322C451.504 223.465 452.673 222.779 453.601 223.087C454.942 223.499 454.117 225.592 456.076 228.679Z" fill="#F2C99B"/>
<path d="M465.633 221.99C465.152 221.887 464.705 222.23 464.43 222.401C463.57 223.053 463.433 224.117 463.398 224.391C463.295 225.214 463.673 226.106 464.395 227.822C465.014 229.297 465.358 229.811 465.152 230.6C465.014 231.183 464.67 231.595 464.464 231.87C463.776 232.693 463.192 232.727 462.676 233.31C461.095 235.094 460.958 236.123 460.82 237.427C460.476 240.48 460.751 241.441 461.336 242.298C462.264 243.67 464.017 243.945 464.292 243.979C466.045 244.219 467.352 243.327 467.73 243.087C470.858 240.995 470.824 236.089 470.789 233.31C470.755 231.183 470.755 228.851 469.242 227.101C468.658 226.449 468.211 226.244 467.558 225.249C466.492 223.602 466.492 222.196 465.633 221.99Z" fill="#F2C99B"/>
<path d="M461.542 252.933C461.886 261.063 468.245 275.334 470.686 279.588C472.886 283.43 486.637 297.392 501.453 304.322C533.388 319.279 551.298 317.323 553.051 300.171C554.976 281.303 526.41 283.464 502.931 274.819C492.755 271.08 478.593 248.061 475.636 246.689C469.174 243.636 461.37 248.576 461.542 252.933Z" fill="#535417"/>
<path d="M597.396 370.873L566.492 307.066C554.392 285.831 549.338 273.996 526.547 277.907C526.547 277.907 516.062 277.667 508.637 288.164C498.084 285.282 485.296 283.533 474.089 280.651C463.57 277.975 447.138 256.535 444.045 255.437C437.273 253.07 430.019 258.765 430.638 263.087C431.807 271.149 439.61 284.699 442.463 288.679C445.042 292.281 460.133 304.768 475.602 310.153C479.761 311.594 483.749 312.898 487.53 314.064C498.187 317.289 507.125 324.562 512.419 334.339C513.14 335.642 513.828 336.98 514.515 338.318C518.194 345.488 528.06 367.992 530.122 386.242C531.566 398.832 529.675 399.93 539.507 397.391C548.995 394.955 567.764 399.244 575.224 399.244C586.464 399.244 600.524 391.079 600.524 384.458C600.559 379.724 599.459 375.093 597.396 370.873Z" fill="#6F711E"/>
<path d="M508.19 241.475C504.134 233.31 513.45 226.552 517.919 225.9C518.572 225.798 533.56 221.338 536.31 226.792C536.31 226.792 548.995 224.94 550.06 235.849C550.095 236.123 550.129 242.024 550.335 243.43C550.438 244.219 560.442 248.542 555.732 258.559C554.289 261.612 551.16 263.259 547.791 263.773C544.354 264.322 543.701 273.927 533.147 269.331C533.147 269.331 533.113 269.331 533.113 269.296C527.028 263.362 530.603 255.3 536.997 254.374C537.444 254.305 537.891 254.305 538.372 254.305C538.544 253.276 538.922 252.281 539.472 251.423C538.097 250.188 537.066 248.507 536.791 246.518C536.619 245.454 536.722 244.425 536.929 243.43C535.519 242.298 534.454 240.72 534.041 238.868C532.563 238.799 531.222 238.319 530.019 237.53C529.4 237.804 528.747 238.01 528.025 238.113C527.372 238.216 526.753 238.216 526.135 238.147C525.447 239.279 524.553 240.24 523.419 240.926C523.728 241.578 523.969 242.298 524.072 243.019C524.381 245.146 523.831 247.204 522.663 248.851C524.244 250.085 525.378 251.904 525.688 254.031C525.86 255.3 525.722 256.535 525.378 257.667C527.922 260.377 528.988 259.691 525.653 264.425C524.725 266.243 519.019 269.434 516.2 269.159C510.356 268.61 508.74 264.494 508.5 262.127C508.397 261.097 508.122 260.103 507.64 259.211C506.987 258.044 506.231 256.398 506.025 254.888C505.303 249.605 510.012 245.18 508.19 241.475Z" fill="#998E82"/>
<path d="M531.257 285.522C531.257 285.522 522.697 286.895 521.7 279.553L520.738 270.497C520.222 265.591 523.728 261.132 528.575 260.617C533.422 260.102 537.822 263.705 538.338 268.61L539.301 277.667C539.851 282.572 536.104 285.008 531.257 285.522Z" fill="#F2C99B"/>
<path d="M540.951 246.586C540.641 246.621 540.366 246.689 540.091 246.758L539.919 245.283C539.06 237.461 532.082 231.767 524.416 232.59C516.716 233.413 511.112 240.48 511.972 248.302L513.278 260.411C514.137 268.233 521.116 273.927 528.782 273.104C535.725 272.349 540.916 266.518 541.26 259.657C541.638 259.691 541.982 259.691 542.394 259.657C545.935 259.279 548.513 256.054 548.135 252.418C547.688 248.816 544.491 246.209 540.951 246.586Z" fill="#F2C99B"/>
<path d="M510.322 259.416C510.218 260.514 510.94 260.926 511.525 260.823L512.934 260.549C513.519 260.446 513.897 259.862 513.759 259.279L512.453 252.384C510.975 252.555 510.322 259.416 510.322 259.416Z" fill="#C79D69"/>
<path d="M519.612 252.505C519.914 252.473 520.034 251.286 519.879 249.854C519.725 248.423 519.355 247.288 519.053 247.321C518.751 247.353 518.631 248.54 518.786 249.972C518.94 251.403 519.31 252.538 519.612 252.505Z" fill="#534741"/>
<path d="M534.075 268.61C534.007 268.713 531.875 272.898 526.066 274.373C524.691 274.717 521.734 274.751 521.013 273.413L520.806 271.56C521.803 271.835 522.869 272.075 524.072 272.109C525.653 272.212 529.297 272.075 534.075 268.61Z" fill="#877052"/>
<path d="M517.85 239.897C515.615 234.82 517.953 231.561 522.422 230.909C524.725 230.566 530.603 229.811 532.322 231.149C533.56 229.708 535.279 228.645 537.341 228.37C541.81 227.719 546.004 230.806 546.657 235.3C547.173 238.868 554.048 256.706 550.988 258.25C551.126 258.696 545.145 263.19 544.904 263.567C539.197 272.246 536.585 262.298 539.301 260.171C543.323 257.049 537.857 247.513 537.238 247.924C532.666 250.977 529.4 250.84 526.925 248.302C525.825 247.135 525.413 246.003 525.275 245.146C525.172 244.391 524.416 243.67 523.625 243.568C521.666 243.327 518.984 242.435 517.85 239.897Z" fill="#998E82"/>
<path d="M543.151 251.869C543.838 255.643 542.119 259.108 539.335 259.622L537.204 247.856C539.988 247.375 542.463 248.13 543.151 251.869Z" fill="#F2C99B"/>
</g>
<defs>
<filter id="filter0_d_340_1576" x="317" y="110" width="116" height="117" filterUnits="userSpaceOnUse" color-interpolation-filters="sRGB">
<feFlood flood-opacity="0" result="BackgroundImageFix"/>
<feColorMatrix in="SourceAlpha" type="matrix" values="0 0 0 0 0 0 0 0 0 0 0 0 0 0 0 0 0 0 127 0" result="hardAlpha"/>
<feOffset dx="2" dy="5"/>
<feGaussianBlur stdDeviation="1.5"/>
<feComposite in2="hardAlpha" operator="out"/>
<feColorMatrix type="matrix" values="0 0 0 0 0 0 0 0 0 0 0 0 0 0 0 0 0 0 0.65 0"/>
<feBlend mode="normal" in2="BackgroundImageFix" result="effect1_dropShadow_340_1576"/>
<feBlend mode="normal" in="SourceGraphic" in2="effect1_dropShadow_340_1576" result="shape"/>
</filter>
<clipPath id="clip0_340_1576">
<rect width="211" height="366" fill="white" transform="translate(414 220)"/>
</clipPath>
</defs>
</svg>
