<svg width="360" height="219" viewBox="0 0 360 219" fill="none" xmlns="http://www.w3.org/2000/svg">
<path d="M69.0063 81.2554C69.0063 76.6994 72.6997 73.0061 77.2556 73.0061H133.351C137.907 73.0061 141.6 76.6994 141.6 81.2554V137.35C141.6 141.906 137.907 145.6 133.351 145.6H77.2556C72.6997 145.6 69.0063 141.906 69.0063 137.35V81.2554Z" fill="white"/>
<path fill-rule="evenodd" clip-rule="evenodd" d="M68.5933 81.2552C68.5933 76.4715 72.4712 72.5935 77.255 72.5935H133.35C138.134 72.5935 142.012 76.4715 142.012 81.2552V137.35C142.012 142.134 138.134 146.012 133.35 146.012H77.255C72.4712 146.012 68.5933 142.134 68.5933 137.35V81.2552ZM77.255 73.4184C72.9268 73.4184 69.4182 76.9271 69.4182 81.2552V137.35C69.4182 141.678 72.9268 145.187 77.255 145.187H133.35C137.678 145.187 141.187 141.678 141.187 137.35V81.2552C141.187 76.9271 137.678 73.4184 133.35 73.4184H77.255Z" fill="#6F711F" fill-opacity="0.31"/>
<path fill-rule="evenodd" clip-rule="evenodd" d="M4.66186 73.0061C0.105918 73.0061 -3.5874 76.6994 -3.5874 81.2554V137.35C-3.5874 141.906 0.105919 145.6 4.66186 145.6H60.7568C65.3128 145.6 69.0061 141.906 69.0061 137.35V119.643C69.9924 119.928 71.0349 120.081 72.1131 120.081C78.2786 120.081 83.2767 115.083 83.2767 108.917C83.2767 102.752 78.2786 97.7539 72.1131 97.7539C71.0349 97.7539 69.9924 97.9067 69.0061 98.192V81.2554C69.0061 76.6994 65.3128 73.0061 60.7568 73.0061H4.66186Z" fill="white"/>
<path fill-rule="evenodd" clip-rule="evenodd" d="M4.66172 73.4184C0.33358 73.4184 -3.17507 76.9271 -3.17507 81.2552V137.35C-3.17507 141.678 0.333581 145.187 4.66173 145.187H60.7567C65.0848 145.187 68.5935 141.678 68.5935 137.35V119.094L69.1205 119.247C70.07 119.521 71.0739 119.668 72.113 119.668C78.0507 119.668 82.8641 114.855 82.8641 108.917C82.8641 102.98 78.0507 98.1662 72.113 98.1662C71.0739 98.1662 70.07 98.3135 69.1205 98.5881L68.5935 98.7405V81.2552C68.5935 76.9271 65.0848 73.4184 60.7567 73.4184H4.66172ZM-4 81.2552C-4 76.4715 -0.122014 72.5935 4.66172 72.5935H60.7567C65.5404 72.5935 69.4184 76.4715 69.4184 81.2552V97.6566C70.2834 97.4504 71.1857 97.3413 72.113 97.3413C78.5063 97.3413 83.689 102.524 83.689 108.917C83.689 115.311 78.5063 120.493 72.113 120.493C71.1857 120.493 70.2834 120.384 69.4184 120.178V137.35C69.4184 142.134 65.5404 146.012 60.7567 146.012H4.66173C-0.122013 146.012 -4 142.134 -4 137.35V81.2552Z" fill="#6F711F" fill-opacity="0.31"/>
<path fill-rule="evenodd" clip-rule="evenodd" d="M240.296 145.599H222.443C217.887 145.599 214.193 149.293 214.193 153.849V209.944C214.193 214.5 217.887 218.193 222.443 218.193H278.538C283.094 218.193 286.787 214.5 286.787 209.944V153.849C286.787 149.293 283.094 145.599 278.538 145.599H259.914C260.777 144.014 261.268 142.197 261.268 140.264C261.268 134.099 256.27 129.101 250.105 129.101C243.939 129.101 238.941 134.099 238.941 140.264C238.941 142.197 239.432 144.014 240.296 145.599Z" fill="white"/>
<path fill-rule="evenodd" clip-rule="evenodd" d="M238.529 140.265C238.529 133.871 243.711 128.688 250.105 128.688C256.498 128.688 261.681 133.871 261.681 140.265C261.681 142.024 261.288 143.693 260.585 145.187H278.537C283.321 145.187 287.199 149.065 287.199 153.849V209.944C287.199 214.727 283.321 218.605 278.537 218.605H222.442C217.659 218.605 213.781 214.727 213.781 209.944V153.849C213.781 149.065 217.659 145.187 222.442 145.187H239.624C238.921 143.693 238.529 142.024 238.529 140.265ZM250.105 129.513C244.167 129.513 239.353 134.327 239.353 140.265C239.353 142.126 239.826 143.876 240.658 145.402L240.99 146.012H222.442C218.114 146.012 214.606 149.521 214.606 153.849V209.944C214.606 214.272 218.114 217.781 222.442 217.781H278.537C282.866 217.781 286.374 214.272 286.374 209.944V153.849C286.374 149.521 282.866 146.012 278.537 146.012H259.219L259.551 145.402C260.383 143.876 260.856 142.126 260.856 140.265C260.856 134.327 256.042 129.513 250.105 129.513Z" fill="#6F711F" fill-opacity="0.31"/>
<path fill-rule="evenodd" clip-rule="evenodd" d="M149.849 145.599C145.293 145.599 141.6 149.293 141.6 153.849V209.944C141.6 214.5 145.293 218.193 149.849 218.193H205.944C210.5 218.193 214.193 214.5 214.193 209.944V191.613C215.636 192.294 217.249 192.674 218.95 192.674C225.115 192.674 230.114 187.676 230.114 181.511C230.114 175.345 225.115 170.347 218.95 170.347C217.249 170.347 215.636 170.728 214.193 171.409V153.849C214.193 149.293 210.5 145.599 205.944 145.599H149.849Z" fill="white"/>
<path fill-rule="evenodd" clip-rule="evenodd" d="M149.849 146.012C145.521 146.012 142.012 149.521 142.012 153.849V209.944C142.012 214.272 145.521 217.781 149.849 217.781H205.944C210.272 217.781 213.781 214.272 213.781 209.944V190.963L214.369 191.24C215.758 191.895 217.311 192.262 218.95 192.262C224.888 192.262 229.701 187.449 229.701 181.511C229.701 175.573 224.888 170.76 218.95 170.76C217.311 170.76 215.758 171.126 214.369 171.782L213.781 172.059V153.849C213.781 149.521 210.272 146.012 205.944 146.012H149.849ZM141.187 153.849C141.187 149.065 145.065 145.187 149.849 145.187H205.944C210.727 145.187 214.605 149.065 214.605 153.849V170.778C215.947 170.234 217.414 169.935 218.95 169.935C225.343 169.935 230.526 175.118 230.526 181.511C230.526 187.904 225.343 193.087 218.95 193.087C217.414 193.087 215.947 192.788 214.605 192.244V209.944C214.605 214.727 210.727 218.605 205.944 218.605H149.849C145.065 218.605 141.187 214.727 141.187 209.944V153.849Z" fill="#6F711F" fill-opacity="0.31"/>
<path fill-rule="evenodd" clip-rule="evenodd" d="M165.935 67.671C165.935 61.2778 171.118 56.095 177.511 56.095C183.904 56.095 189.087 61.2778 189.087 67.671C189.087 69.4306 188.694 71.0993 187.991 72.5935H205.944C210.727 72.5935 214.605 76.4715 214.605 81.2552V98.1842C215.947 97.6406 217.414 97.3413 218.95 97.3413C225.343 97.3413 230.526 102.524 230.526 108.917C230.526 115.311 225.343 120.493 218.95 120.493C217.414 120.493 215.947 120.194 214.605 119.65V137.35C214.605 142.134 210.727 146.012 205.944 146.012H188.244C188.788 147.354 189.087 148.821 189.087 150.356C189.087 156.75 183.904 161.932 177.511 161.932C171.118 161.932 165.935 156.75 165.935 150.356C165.935 148.821 166.234 147.354 166.778 146.012H149.849C145.065 146.012 141.187 142.134 141.187 137.35V119.343C139.693 120.046 138.024 120.439 136.265 120.439C129.871 120.439 124.688 115.256 124.688 108.863C124.688 102.47 129.871 97.2871 136.265 97.2871C138.024 97.2871 139.693 97.6799 141.187 98.3829V81.2552C141.187 76.4715 145.065 72.5935 149.849 72.5935H167.031C166.328 71.0993 165.935 69.4306 165.935 67.671ZM177.511 56.9199C171.573 56.9199 166.76 61.7333 166.76 67.671C166.76 69.5326 167.233 71.2826 168.064 72.8086L168.397 73.4184H149.849C145.521 73.4184 142.012 76.9271 142.012 81.2552V99.7489L141.402 99.4165C139.876 98.5848 138.126 98.112 136.265 98.112C130.327 98.112 125.513 102.925 125.513 108.863C125.513 114.801 130.327 119.614 136.265 119.614C138.126 119.614 139.876 119.141 141.402 118.31L142.012 117.977V137.35C142.012 141.678 145.521 145.187 149.849 145.187H168.059L167.782 145.775C167.126 147.165 166.76 148.717 166.76 150.356C166.76 156.294 171.573 161.108 177.511 161.108C183.449 161.108 188.262 156.294 188.262 150.356C188.262 148.717 187.895 147.165 187.24 145.775L186.963 145.187H205.944C210.272 145.187 213.781 141.678 213.781 137.35V118.369L214.369 118.647C215.758 119.302 217.311 119.668 218.95 119.668C224.888 119.668 229.701 114.855 229.701 108.917C229.701 102.98 224.888 98.1662 218.95 98.1662C217.311 98.1662 215.758 98.5328 214.369 99.1881L213.781 99.4656V81.2552C213.781 76.9271 210.272 73.4184 205.944 73.4184H186.625L186.957 72.8086C187.789 71.2826 188.262 69.5326 188.262 67.671C188.262 61.7333 183.449 56.9199 177.511 56.9199Z" fill="#6F711F" fill-opacity="0.31"/>
<path fill-rule="evenodd" clip-rule="evenodd" d="M95.109 145.599H77.2556C72.6997 145.599 69.0063 149.293 69.0063 153.849V209.944C69.0063 214.5 72.6997 218.193 77.2556 218.193H133.351C137.907 218.193 141.6 214.5 141.6 209.944V192.236C142.586 192.521 143.629 192.674 144.707 192.674C150.872 192.674 155.87 187.676 155.87 181.511C155.87 175.345 150.872 170.347 144.707 170.347C143.629 170.347 142.586 170.5 141.6 170.785V153.849C141.6 149.293 137.907 145.599 133.351 145.599H114.726C115.59 144.014 116.081 142.197 116.081 140.264C116.081 134.099 111.083 129.101 104.918 129.101C98.7522 129.101 93.7541 134.099 93.7541 140.264C93.7541 142.197 94.2451 144.014 95.109 145.599Z" fill="white"/>
<path fill-rule="evenodd" clip-rule="evenodd" d="M93.341 140.265C93.341 133.871 98.5238 128.688 104.917 128.688C111.31 128.688 116.493 133.871 116.493 140.265C116.493 142.024 116.1 143.693 115.397 145.187H133.35C138.134 145.187 142.012 149.065 142.012 153.849V170.25C142.877 170.044 143.779 169.935 144.706 169.935C151.1 169.935 156.282 175.118 156.282 181.511C156.282 187.904 151.1 193.087 144.706 193.087C143.779 193.087 142.877 192.978 142.012 192.772V209.944C142.012 214.727 138.134 218.605 133.35 218.605H77.255C72.4712 218.605 68.5933 214.727 68.5933 209.944V153.849C68.5933 149.065 72.4712 145.187 77.255 145.187H94.4369C93.7339 143.693 93.341 142.024 93.341 140.265ZM104.917 129.513C98.9794 129.513 94.166 134.327 94.166 140.265C94.166 142.126 94.6388 143.876 95.4705 145.402L95.8029 146.012H77.255C72.9268 146.012 69.4182 149.521 69.4182 153.849V209.944C69.4182 214.272 72.9268 217.781 77.255 217.781H133.35C137.678 217.781 141.187 214.272 141.187 209.944V191.688L141.714 191.84C142.663 192.115 143.667 192.262 144.706 192.262C150.644 192.262 155.457 187.449 155.457 181.511C155.457 175.573 150.644 170.76 144.706 170.76C143.667 170.76 142.663 170.907 141.714 171.182L141.187 171.334V153.849C141.187 149.521 137.678 146.012 133.35 146.012H114.031L114.364 145.402C115.195 143.876 115.668 142.126 115.668 140.265C115.668 134.327 110.855 129.513 104.917 129.513Z" fill="#6F711F" fill-opacity="0.31"/>
<path d="M286.787 9.48669C286.787 4.93075 290.48 1.23743 295.036 1.23743H351.131C355.687 1.23743 359.38 4.93075 359.38 9.48669V65.5817C359.38 70.1376 355.687 73.8309 351.131 73.8309H295.036C290.48 73.8309 286.787 70.1376 286.787 65.5817V9.48669Z" fill="white"/>
<path fill-rule="evenodd" clip-rule="evenodd" d="M286.374 9.48655C286.374 4.70282 290.252 0.824829 295.036 0.824829H351.131C355.914 0.824829 359.792 4.70281 359.792 9.48655V65.5815C359.792 70.3653 355.914 74.2433 351.131 74.2433H295.036C290.252 74.2433 286.374 70.3653 286.374 65.5815V9.48655ZM295.036 1.64976C290.708 1.64976 287.199 5.15841 287.199 9.48655V65.5815C287.199 69.9097 290.708 73.4183 295.036 73.4183H351.131C355.459 73.4183 358.968 69.9097 358.968 65.5815V9.48655C358.968 5.15841 355.459 1.64976 351.131 1.64976H295.036Z" fill="#6F711F" fill-opacity="0.31"/>
<path fill-rule="evenodd" clip-rule="evenodd" d="M21.6903 145.599H4.66186C0.105918 145.599 -3.5874 149.293 -3.5874 153.849V209.944C-3.5874 214.5 0.105919 218.193 4.66186 218.193H60.7568C65.3128 218.193 69.0061 214.5 69.0061 209.944V192.236C69.9924 192.521 71.0349 192.674 72.1131 192.674C78.2786 192.674 83.2767 187.676 83.2767 181.511C83.2767 175.345 78.2786 170.347 72.1131 170.347C71.0349 170.347 69.9924 170.5 69.0061 170.785V153.849C69.0061 149.293 65.3128 145.599 60.7568 145.599H41.3078C42.1717 144.014 42.6627 142.197 42.6627 140.264C42.6627 134.099 37.6645 129.101 31.4991 129.101C25.3336 129.101 20.3355 134.099 20.3355 140.264C20.3355 142.197 20.8264 144.014 21.6903 145.599Z" fill="white"/>
<path fill-rule="evenodd" clip-rule="evenodd" d="M19.9229 140.265C19.9229 133.871 25.1056 128.688 31.4989 128.688C37.8922 128.688 43.075 133.871 43.075 140.265C43.075 142.024 42.6821 143.693 41.9792 145.187H60.7567C65.5404 145.187 69.4184 149.065 69.4184 153.849V170.25C70.2834 170.044 71.1857 169.935 72.113 169.935C78.5063 169.935 83.689 175.118 83.689 181.511C83.689 187.904 78.5063 193.087 72.113 193.087C71.1857 193.087 70.2834 192.978 69.4184 192.772V209.944C69.4184 214.727 65.5404 218.605 60.7567 218.605H4.66173C-0.122013 218.605 -4 214.727 -4 209.944V153.849C-4 149.065 -0.122014 145.187 4.66172 145.187H21.0187C20.3157 143.693 19.9229 142.024 19.9229 140.265ZM31.4989 129.513C25.5612 129.513 20.7478 134.327 20.7478 140.265C20.7478 142.126 21.2206 143.876 22.0523 145.402L22.3847 146.012H4.66172C0.33358 146.012 -3.17507 149.521 -3.17507 153.849V209.944C-3.17507 214.272 0.333581 217.781 4.66173 217.781H60.7567C65.0848 217.781 68.5935 214.272 68.5935 209.944V191.688L69.1205 191.84C70.07 192.115 71.0739 192.262 72.113 192.262C78.0507 192.262 82.8641 187.449 82.8641 181.511C82.8641 175.573 78.0507 170.76 72.113 170.76C71.0739 170.76 70.07 170.907 69.1205 171.182L68.5935 171.334V153.849C68.5935 149.521 65.0848 146.012 60.7567 146.012H40.6131L40.9455 145.402C41.7773 143.876 42.2501 142.126 42.2501 140.265C42.2501 134.327 37.4366 129.513 31.4989 129.513Z" fill="#6F711F" fill-opacity="0.31"/>
<path fill-rule="evenodd" clip-rule="evenodd" d="M295.036 145.599C290.48 145.599 286.787 149.293 286.787 153.849V171.648C285.202 170.784 283.384 170.293 281.452 170.293C275.287 170.293 270.289 175.291 270.289 181.457C270.289 187.622 275.287 192.62 281.452 192.62C283.384 192.62 285.202 192.129 286.787 191.265V209.944C286.787 214.5 290.48 218.193 295.036 218.193H351.131C355.687 218.193 359.381 214.5 359.381 209.944V153.849C359.381 149.293 355.687 145.599 351.131 145.599H295.036Z" fill="white"/>
<path fill-rule="evenodd" clip-rule="evenodd" d="M295.036 146.012C290.708 146.012 287.199 149.521 287.199 153.849V172.342L286.59 172.01C285.064 171.178 283.314 170.706 281.452 170.706C275.514 170.706 270.701 175.519 270.701 181.457C270.701 187.394 275.514 192.208 281.452 192.208C283.314 192.208 285.064 191.735 286.59 190.903L287.199 190.571V209.944C287.199 214.272 290.708 217.781 295.036 217.781H351.131C355.459 217.781 358.968 214.272 358.968 209.944V153.849C358.968 149.521 355.459 146.012 351.131 146.012H295.036ZM286.375 153.849C286.375 149.065 290.252 145.187 295.036 145.187H351.131C355.915 145.187 359.793 149.065 359.793 153.849V209.944C359.793 214.727 355.915 218.605 351.131 218.605H295.036C290.252 218.605 286.375 214.727 286.375 209.944V191.937C284.88 192.64 283.212 193.033 281.452 193.033C275.059 193.033 269.876 187.85 269.876 181.457C269.876 175.063 275.059 169.881 281.452 169.881C283.212 169.881 284.88 170.273 286.375 170.976V153.849Z" fill="#6F711F" fill-opacity="0.31"/>
<path fill-rule="evenodd" clip-rule="evenodd" d="M312.889 73.0058H295.036C290.48 73.0058 286.787 76.6991 286.787 81.2551V137.35C286.787 141.906 290.48 145.599 295.036 145.599L312.974 145.6C312.024 147.242 311.48 149.148 311.48 151.181C311.48 157.346 316.478 162.345 322.644 162.345C328.809 162.345 333.807 157.346 333.807 151.181C333.807 149.148 333.264 147.242 332.314 145.6L351.131 145.599C355.687 145.599 359.38 141.906 359.38 137.35V81.2551C359.38 76.6991 355.687 73.0058 351.131 73.0058H332.507C333.371 71.4208 333.862 69.603 333.862 67.6708C333.862 61.5056 328.863 56.5073 322.698 56.5073C316.533 56.5073 311.534 61.5056 311.534 67.6708C311.534 69.603 312.025 71.4208 312.889 73.0058ZM286.787 119.412C288.429 120.362 290.335 120.906 292.368 120.906C298.534 120.906 303.532 115.908 303.532 109.742C303.532 103.577 298.534 98.5786 292.368 98.5786C290.335 98.5786 288.429 99.1222 286.787 100.072L286.787 119.412Z" fill="white"/>
<path fill-rule="evenodd" clip-rule="evenodd" d="M314.279 73.8308H295.036C290.936 73.8308 287.612 77.1547 287.612 81.2551V98.7347C289.071 98.1034 290.679 97.7536 292.368 97.7536C298.989 97.7536 304.357 103.121 304.357 109.742C304.357 116.363 298.989 121.731 292.368 121.731C290.679 121.731 289.071 121.381 287.612 120.75V137.35C287.612 141.451 290.936 144.774 295.036 144.774L314.404 144.775L313.688 146.013C312.809 147.532 312.305 149.297 312.305 151.181C312.305 156.891 316.934 161.52 322.644 161.52C328.354 161.52 332.982 156.891 332.982 151.181C332.982 149.297 332.479 147.532 331.6 146.013L330.884 144.775L351.131 144.774C355.231 144.774 358.555 141.451 358.555 137.35V81.2551C358.555 77.1547 355.231 73.8308 351.131 73.8308H331.117L331.782 72.611C332.582 71.1441 333.037 69.4617 333.037 67.6708C333.037 61.9612 328.408 57.3323 322.698 57.3323C316.988 57.3323 312.359 61.9612 312.359 67.6708C312.359 69.4617 312.814 71.1441 313.614 72.611L314.279 73.8308ZM286.787 81.2551C286.787 76.6991 290.48 73.0058 295.036 73.0058H312.889C312.743 72.7374 312.607 72.4622 312.483 72.1809C311.873 70.8017 311.534 69.2757 311.534 67.6708C311.534 61.5056 316.533 56.5073 322.698 56.5073C328.863 56.5073 333.862 61.5056 333.862 67.6708C333.862 69.2757 333.523 70.8017 332.913 72.1809C332.789 72.4622 332.653 72.7374 332.507 73.0058H351.131C355.687 73.0058 359.38 76.6991 359.38 81.2551V137.35C359.38 141.906 355.687 145.599 351.131 145.599L332.314 145.6C332.469 145.868 332.613 146.143 332.746 146.425C333.427 147.868 333.807 149.48 333.807 151.181C333.807 157.346 328.809 162.345 322.644 162.345C316.478 162.345 311.48 157.346 311.48 151.181C311.48 149.48 311.861 147.868 312.541 146.425C312.674 146.143 312.819 145.868 312.974 145.6L295.036 145.599C290.48 145.599 286.787 141.906 286.787 137.35V81.2551ZM287.612 119.844C289.055 120.525 290.667 120.906 292.368 120.906C298.534 120.906 303.532 115.908 303.532 109.742C303.532 103.577 298.534 98.5786 292.368 98.5786C290.667 98.5786 289.055 98.9591 287.612 99.6398C287.33 99.7726 287.055 99.9169 286.787 100.072V119.413C287.055 119.568 287.33 119.712 287.612 119.844Z" fill="#6F711F" fill-opacity="0.31"/>
<path fill-rule="evenodd" clip-rule="evenodd" d="M77.2556 0.412598C72.6997 0.412598 69.0063 4.10592 69.0063 8.66186V64.7568C69.0063 69.3128 72.6997 73.0061 77.2556 73.0061H94.1922C93.907 73.9924 93.7541 75.0349 93.7541 76.1132C93.7541 82.2786 98.7522 87.2768 104.918 87.2768C111.083 87.2768 116.081 82.2786 116.081 76.1132C116.081 75.0349 115.928 73.9924 115.643 73.0061H133.351C137.907 73.0061 141.6 69.3128 141.6 64.7568V8.66186C141.6 4.10592 137.907 0.412598 133.351 0.412598H77.2556Z" fill="white"/>
<path fill-rule="evenodd" clip-rule="evenodd" d="M77.255 0.824926C72.9268 0.824926 69.4182 4.33358 69.4182 8.66173V64.7567C69.4182 69.0848 72.9268 72.5935 77.255 72.5935H94.7402L94.5878 73.1205C94.3133 74.07 94.166 75.074 94.166 76.113C94.166 82.0507 98.9794 86.8642 104.917 86.8642C110.855 86.8642 115.668 82.0507 115.668 76.113C115.668 75.074 115.521 74.07 115.246 73.1205L115.094 72.5935H133.35C137.678 72.5935 141.187 69.0848 141.187 64.7567V8.66172C141.187 4.33358 137.678 0.824926 133.35 0.824926H77.255ZM68.5933 8.66173C68.5933 3.87799 72.4712 0 77.255 0H133.35C138.134 0 142.012 3.87799 142.012 8.66172V64.7567C142.012 69.5404 138.134 73.4184 133.35 73.4184H116.178C116.384 74.2834 116.493 75.1857 116.493 76.113C116.493 82.5063 111.31 87.6891 104.917 87.6891C98.5238 87.6891 93.341 82.5063 93.341 76.113C93.341 75.1857 93.4502 74.2834 93.6564 73.4184H77.255C72.4712 73.4184 68.5933 69.5404 68.5933 64.7567V8.66173Z" fill="#6F711F" fill-opacity="0.31"/>
<path fill-rule="evenodd" clip-rule="evenodd" d="M141.6 9.48669C141.6 4.93075 145.293 1.23743 149.849 1.23743H205.944C210.5 1.23743 214.193 4.93075 214.193 9.48669V27.0648C215.718 26.3727 217.424 25.9852 219.225 25.9852C225.694 25.9852 230.938 30.9833 230.938 37.1488C230.938 43.3143 225.694 48.3124 219.225 48.3124C217.424 48.3124 215.718 47.925 214.193 47.2328V65.5817C214.193 70.1376 210.5 73.8309 205.944 73.8309H149.849C145.293 73.8309 141.6 70.1376 141.6 65.5817V46.9034C140.015 47.7673 138.197 48.2582 136.265 48.2582C130.099 48.2582 125.101 43.2601 125.101 37.0946C125.101 30.9291 130.099 25.931 136.265 25.931C138.197 25.931 140.015 26.4219 141.6 27.2859V9.48669Z" fill="white"/>
<path fill-rule="evenodd" clip-rule="evenodd" d="M141.187 9.48655C141.187 4.70282 145.065 0.824829 149.849 0.824829H205.944C210.727 0.824829 214.605 4.70282 214.605 9.48655V26.4423C216.03 25.8816 217.59 25.5726 219.225 25.5726C225.903 25.5726 231.351 30.7369 231.351 37.1487C231.351 43.5604 225.903 48.7247 219.225 48.7247C217.59 48.7247 216.03 48.4158 214.605 47.8551V65.5815C214.605 70.3653 210.727 74.2433 205.944 74.2433H149.849C145.065 74.2433 141.187 70.3653 141.187 65.5815V47.5747C139.693 48.2777 138.024 48.6705 136.265 48.6705C129.871 48.6705 124.688 43.4878 124.688 37.0945C124.688 30.7012 129.871 25.5184 136.265 25.5184C138.024 25.5184 139.693 25.9113 141.187 26.6142V9.48655ZM149.849 1.64976C145.521 1.64976 142.012 5.15841 142.012 9.48655V27.9803L141.402 27.6479C139.876 26.8161 138.126 26.3433 136.265 26.3433C130.327 26.3433 125.513 31.1568 125.513 37.0945C125.513 43.0322 130.327 47.8456 136.265 47.8456C138.126 47.8456 139.876 47.3728 141.402 46.5411L142.012 46.2087V65.5815C142.012 69.9097 145.521 73.4183 149.849 73.4183H205.944C210.272 73.4183 213.781 69.9097 213.781 65.5815V46.5924L214.363 46.8571C215.835 47.5253 217.483 47.8998 219.225 47.8998C225.485 47.8998 230.526 43.0679 230.526 37.1487C230.526 31.2295 225.485 26.3975 219.225 26.3975C217.483 26.3975 215.835 26.7721 214.363 27.4403L213.781 27.705V9.48655C213.781 5.15841 210.272 1.64976 205.944 1.64976H149.849Z" fill="#6F711F" fill-opacity="0.31"/>
<path fill-rule="evenodd" clip-rule="evenodd" d="M-3.5874 8.66186C-3.5874 4.10592 0.105918 0.412598 4.66186 0.412598H60.7568C65.3128 0.412598 69.0061 4.10592 69.0061 8.66186V25.8725C70.229 25.4122 71.5541 25.1604 72.938 25.1604C79.1035 25.1604 84.1016 30.1585 84.1016 36.324C84.1016 42.4895 79.1035 47.4876 72.938 47.4876C71.5541 47.4876 70.229 47.2358 69.0061 46.7755V64.7568C69.0061 69.3128 65.3128 73.0061 60.7568 73.0061H43.0495C43.3347 73.9924 43.4876 75.0349 43.4876 76.1132C43.4876 82.2786 38.4895 87.2768 32.324 87.2768C26.1585 87.2768 21.1604 82.2786 21.1604 76.1132C21.1604 75.0349 21.3132 73.9924 21.5985 73.0061H4.66186C0.105919 73.0061 -3.5874 69.3128 -3.5874 64.7568V8.66186Z" fill="white"/>
<path fill-rule="evenodd" clip-rule="evenodd" d="M-4 8.66173C-4 3.87799 -0.122014 0 4.66173 0H60.7567C65.5405 0 69.4184 3.87799 69.4184 8.66172V25.2926C70.5287 24.9387 71.7114 24.7478 72.9379 24.7478C79.3312 24.7478 84.514 29.9306 84.514 36.3238C84.514 42.7171 79.3312 47.8999 72.9379 47.8999C71.7114 47.8999 70.5287 47.709 69.4184 47.3551V64.7567C69.4184 69.5404 65.5405 73.4184 60.7567 73.4184H43.5845C43.7908 74.2834 43.8999 75.1857 43.8999 76.113C43.8999 82.5063 38.7171 87.6891 32.3238 87.6891C25.9306 87.6891 20.7478 82.5063 20.7478 76.113C20.7478 75.1857 20.8569 74.2834 21.0631 73.4184H4.66173C-0.122012 73.4184 -4 69.5404 -4 64.7567V8.66173ZM4.66173 0.824926C0.33358 0.824926 -3.17507 4.33358 -3.17507 8.66173V64.7567C-3.17507 69.0848 0.333581 72.5935 4.66173 72.5935H22.147L21.9946 73.1205C21.72 74.07 21.5727 75.074 21.5727 76.113C21.5727 82.0507 26.3862 86.8642 32.3238 86.8642C38.2615 86.8642 43.075 82.0507 43.075 76.113C43.075 75.074 42.9277 74.07 42.6531 73.1205L42.5007 72.5935H60.7567C65.0848 72.5935 68.5935 69.0848 68.5935 64.7567V46.1794L69.1513 46.3893C70.3285 46.8324 71.6044 47.075 72.9379 47.075C78.8756 47.075 83.6891 42.2615 83.6891 36.3238C83.6891 30.3862 78.8756 25.5727 72.9379 25.5727C71.6044 25.5727 70.3285 25.8153 69.1513 26.2584L68.5935 26.4683V8.66172C68.5935 4.33358 65.0848 0.824926 60.7567 0.824926H4.66173Z" fill="#6F711F" fill-opacity="0.31"/>
<path fill-rule="evenodd" clip-rule="evenodd" d="M222.443 0.412598C217.887 0.412598 214.193 4.10592 214.193 8.66186V64.7568C214.193 69.3128 217.887 73.0061 222.443 73.0061H278.538C283.094 73.0061 286.787 69.3128 286.787 64.7568V46.4263C288.23 47.107 289.842 47.4876 291.544 47.4876C297.709 47.4876 302.707 42.4895 302.707 36.324C302.707 30.1585 297.709 25.1604 291.544 25.1604C289.842 25.1604 288.23 25.541 286.787 26.2217V8.66186C286.787 4.10592 283.094 0.412598 278.538 0.412598H222.443ZM260.549 73.0061C261.497 71.3883 262.039 69.5101 262.039 67.5067C262.039 61.4321 257.053 56.5076 250.903 56.5076C244.752 56.5076 239.766 61.4321 239.766 67.5067C239.766 69.5101 240.308 71.3883 241.256 73.0061H260.549Z" fill="white"/>
<path fill-rule="evenodd" clip-rule="evenodd" d="M285.962 45.1251L287.139 45.6802C288.474 46.3101 289.967 46.6627 291.544 46.6627C297.254 46.6627 301.882 42.0339 301.882 36.324C301.882 30.6141 297.254 25.9853 291.544 25.9853C289.967 25.9853 288.474 26.3379 287.139 26.9678L285.962 27.5229V8.66186C285.962 4.56151 282.638 1.23752 278.538 1.23752H222.443C218.342 1.23752 215.018 4.56151 215.018 8.66186V64.7568C215.018 68.8572 218.342 72.1812 222.443 72.1812H239.912C239.287 70.747 238.941 69.1662 238.941 67.5067C238.941 60.9668 244.306 55.6827 250.903 55.6827C257.499 55.6827 262.864 60.9668 262.864 67.5067C262.864 69.1662 262.518 70.747 261.893 72.1812H278.538C282.638 72.1812 285.962 68.8572 285.962 64.7568V45.1251ZM260.549 73.0061C260.706 72.7381 260.852 72.4629 260.986 72.1812C261.662 70.7625 262.039 69.1782 262.039 67.5067C262.039 61.4321 257.053 56.5076 250.903 56.5076C244.752 56.5076 239.766 61.4321 239.766 67.5067C239.766 69.1782 240.144 70.7625 240.819 72.1812C240.953 72.4629 241.099 72.7381 241.256 73.0061H222.443C217.887 73.0061 214.193 69.3128 214.193 64.7568V8.66186C214.193 4.10592 217.887 0.412598 222.443 0.412598H278.538C283.094 0.412598 286.787 4.10592 286.787 8.66186V26.2217C287.056 26.0947 287.331 25.9781 287.612 25.8725C288.835 25.4122 290.16 25.1604 291.544 25.1604C297.709 25.1604 302.707 30.1585 302.707 36.324C302.707 42.4895 297.709 47.4876 291.544 47.4876C290.16 47.4876 288.835 47.2358 287.612 46.7755C287.331 46.6699 287.056 46.5533 286.787 46.4263V64.7568C286.787 69.3128 283.094 73.0061 278.538 73.0061H260.549Z" fill="#6F711F" fill-opacity="0.31"/>
<path fill-rule="evenodd" clip-rule="evenodd" d="M167.702 73.0058H149.849C145.293 73.0058 141.6 76.6992 141.6 81.2551V99.0543C140.015 98.1904 138.197 97.6994 136.265 97.6994C130.099 97.6994 125.101 102.698 125.101 108.863C125.101 115.029 130.099 120.027 136.265 120.027C138.197 120.027 140.015 119.536 141.6 118.672V137.35C141.6 141.906 145.293 145.599 149.849 145.599H167.409C166.728 147.042 166.347 148.655 166.347 150.356C166.347 156.522 171.345 161.52 177.511 161.52C183.676 161.52 188.675 156.522 188.675 150.356C188.675 148.655 188.294 147.042 187.613 145.599H205.944C210.5 145.599 214.193 141.906 214.193 137.35V119.02C215.636 119.7 217.249 120.081 218.95 120.081C225.115 120.081 230.114 115.083 230.114 108.917C230.114 102.752 225.115 97.7536 218.95 97.7536C217.249 97.7536 215.636 98.1342 214.193 98.8149V81.2551C214.193 76.6992 210.5 73.0058 205.944 73.0058H187.32C188.184 71.4208 188.675 69.6032 188.675 67.6709C188.675 61.5054 183.676 56.5073 177.511 56.5073C171.345 56.5073 166.347 61.5054 166.347 67.6709C166.347 69.6032 166.838 71.4208 167.702 73.0058Z" fill="white"/>
<path fill-rule="evenodd" clip-rule="evenodd" d="M165.935 67.671C165.935 61.2778 171.118 56.095 177.511 56.095C183.904 56.095 189.087 61.2778 189.087 67.671C189.087 69.4306 188.694 71.0993 187.991 72.5935H205.944C210.727 72.5935 214.605 76.4715 214.605 81.2552V98.1842C215.947 97.6406 217.414 97.3413 218.95 97.3413C225.343 97.3413 230.526 102.524 230.526 108.917C230.526 115.311 225.343 120.493 218.95 120.493C217.414 120.493 215.947 120.194 214.605 119.65V137.35C214.605 142.134 210.727 146.012 205.944 146.012H188.244C188.788 147.354 189.087 148.821 189.087 150.356C189.087 156.75 183.904 161.932 177.511 161.932C171.118 161.932 165.935 156.75 165.935 150.356C165.935 148.821 166.234 147.354 166.778 146.012H149.849C145.065 146.012 141.187 142.134 141.187 137.35V119.343C139.693 120.046 138.024 120.439 136.265 120.439C129.871 120.439 124.688 115.256 124.688 108.863C124.688 102.47 129.871 97.2871 136.265 97.2871C138.024 97.2871 139.693 97.6799 141.187 98.3829V81.2552C141.187 76.4715 145.065 72.5935 149.849 72.5935H167.031C166.328 71.0993 165.935 69.4306 165.935 67.671ZM177.511 56.9199C171.573 56.9199 166.76 61.7333 166.76 67.671C166.76 69.5326 167.233 71.2826 168.064 72.8086L168.397 73.4184H149.849C145.521 73.4184 142.012 76.9271 142.012 81.2552V99.7489L141.402 99.4165C139.876 98.5848 138.126 98.112 136.265 98.112C130.327 98.112 125.513 102.925 125.513 108.863C125.513 114.801 130.327 119.614 136.265 119.614C138.126 119.614 139.876 119.141 141.402 118.31L142.012 117.977V137.35C142.012 141.678 145.521 145.187 149.849 145.187H168.059L167.782 145.775C167.126 147.165 166.76 148.717 166.76 150.356C166.76 156.294 171.573 161.108 177.511 161.108C183.449 161.108 188.262 156.294 188.262 150.356C188.262 148.717 187.895 147.165 187.24 145.775L186.963 145.187H205.944C210.272 145.187 213.781 141.678 213.781 137.35V118.369L214.369 118.647C215.758 119.302 217.311 119.668 218.95 119.668C224.888 119.668 229.701 114.855 229.701 108.917C229.701 102.98 224.888 98.1662 218.95 98.1662C217.311 98.1662 215.758 98.5328 214.369 99.1881L213.781 99.4656V81.2552C213.781 76.9271 210.272 73.4184 205.944 73.4184H186.625L186.957 72.8086C187.789 71.2826 188.262 69.5326 188.262 67.671C188.262 61.7333 183.449 56.9199 177.511 56.9199Z" fill="#6F711F" fill-opacity="0.31"/>
</svg>
