<svg width="121" height="61" viewBox="0 0 121 61" fill="none" xmlns="http://www.w3.org/2000/svg">
<path d="M29.99 0.659668C13.8565 0.659668 0.782227 14.0868 0.782227 30.6556C0.782227 47.2203 13.8565 60.6516 29.99 60.6516C46.1194 60.6516 59.1978 47.2245 59.1978 30.6556C59.1938 14.0868 46.1194 0.659668 29.99 0.659668ZM57.385 36.5734C56.1144 40.0808 54.0061 43.2724 51.3556 45.9071C45.99 51.1184 38.3178 53.965 30.7143 52.7848L29.3061 52.5147C28.8408 52.4108 28.3835 52.2529 27.9222 52.1241L27.2303 51.9163C27.0037 51.8373 26.7852 51.7376 26.5586 51.6503L25.2232 51.0976L23.9445 50.4202C23.5115 50.2041 23.1109 49.9298 22.7103 49.6597L22.1074 49.2566C21.9051 49.1236 21.7027 48.9907 21.5206 48.8286L20.3917 47.906C20.1974 47.7564 20.0275 47.586 19.8535 47.4115L19.3315 46.8962C18.9835 46.5554 18.6314 46.2146 18.332 45.824L17.3932 44.6936L16.5596 43.476C16.4261 43.2682 16.2723 43.0729 16.155 42.8568L15.7989 42.2085C15.5682 41.7722 15.3052 41.3524 15.111 40.8953L14.5242 39.5281L14.3785 39.1832L14.2652 38.8299L14.0386 38.1193C13.7028 37.1801 13.5328 36.1952 13.3345 35.2186C13.2415 34.7282 13.2212 34.2295 13.1605 33.735C13.112 33.2363 13.0472 32.746 13.0634 32.2306V31.466C13.0634 31.2125 13.0553 30.9548 13.0917 30.7013L13.2455 29.1762L13.545 27.6718C13.6583 27.1731 13.8282 26.6911 13.9698 26.2007C15.2728 22.3317 17.9071 18.9656 21.3062 16.8379C23.0057 15.7782 24.8833 15.0218 26.8256 14.5979L27.5581 14.4525L27.9222 14.3818C28.0436 14.3652 28.1691 14.3569 28.2905 14.3403C28.7842 14.2946 29.2778 14.2405 29.7715 14.2031C30.2814 14.2073 30.7872 14.199 31.297 14.2198C31.8029 14.278 32.3127 14.3112 32.8145 14.4026C36.8367 15.1091 40.5029 17.6358 42.6192 21.2138C43.6794 22.9966 44.3309 25.0288 44.5494 27.09C44.5899 27.6095 44.6586 28.1165 44.6303 28.6567C44.6222 28.9227 44.6303 29.1928 44.606 29.4588L44.517 30.2567C44.4968 30.5226 44.428 30.7845 44.3754 31.0421C44.3147 31.2998 44.2742 31.5657 44.1893 31.8192C44.0274 32.3262 43.8777 32.8374 43.6511 33.3194C42.8256 35.2768 41.4417 36.9474 39.7745 38.1733C38.0831 39.366 36.0962 40.1224 34.0689 40.2636C33.814 40.2803 33.5671 40.3177 33.3041 40.3094L32.5231 40.2927C32.0052 40.2387 31.4832 40.1805 30.9774 40.0475C29.9617 39.8024 28.9905 39.3868 28.1124 38.8216C26.3603 37.6829 24.9926 35.9417 24.3208 33.9428C23.9931 32.9371 23.8353 31.8982 23.8433 30.8343C23.8595 29.758 24.1064 28.6858 24.5515 27.7217C24.9966 26.7576 25.64 25.8973 26.421 25.2116C27.202 24.5301 28.1205 24.0148 29.0957 23.7239C30.075 23.4372 31.0826 23.3333 32.1144 23.4953C33.1342 23.6491 34.0932 24.1062 34.8903 24.7462C36.4766 26.0469 37.3425 28.1996 36.9419 30.2359C36.7315 31.2457 36.1852 32.16 35.4366 32.8041C34.684 33.4441 33.7452 33.8348 32.7943 33.8722C31.8393 33.9345 30.8681 33.5771 30.1923 32.9247C29.5044 32.2805 29.1079 31.3455 29.1281 30.4271C29.2171 31.3413 29.6987 32.1725 30.3785 32.6961C31.0623 33.228 31.9323 33.44 32.7457 33.2987C33.5712 33.1906 34.336 32.7792 34.9065 32.2016C35.473 31.6156 35.8413 30.8468 35.9344 30.0531C36.0193 29.2718 35.8575 28.4282 35.5216 27.7134C35.1938 26.982 34.6597 26.3752 34.0325 25.9223C33.3931 25.4859 32.6607 25.1992 31.9121 25.1451C31.1756 25.0828 30.3785 25.2241 29.6622 25.4901C28.946 25.7644 28.2864 26.1758 27.7401 26.716C27.1979 27.2563 26.769 27.9045 26.4898 28.6069C26.2106 29.3092 26.0851 30.0655 26.1134 30.8177C26.1539 31.5824 26.3117 32.3636 26.5909 33.0784C27.1736 34.5038 28.2055 35.7173 29.4963 36.4819C30.1438 36.856 30.8479 37.1219 31.5722 37.2632C32.3006 37.4128 33.0249 37.4378 33.7897 37.3214C35.3152 37.151 36.7517 36.5193 37.9617 35.5968C39.1513 34.6534 40.1346 33.4192 40.685 31.9979C40.8428 31.653 40.9359 31.2831 41.0451 30.9174C41.1018 30.7346 41.1179 30.5434 41.1625 30.3606C41.1948 30.1736 41.2434 29.9907 41.2515 29.7996L41.3041 29.2344C41.3203 29.0474 41.3041 28.852 41.3041 28.665C41.3203 28.291 41.2515 27.8921 41.2151 27.5014C41.0127 25.9389 40.4867 24.4262 39.6571 23.1088C38.8236 21.7956 37.731 20.6528 36.4523 19.7926C35.1777 18.9324 33.7249 18.3506 32.2237 18.1012C31.8474 18.0389 31.467 18.0181 31.0866 17.9724C30.7062 17.9599 30.3218 17.9724 29.9415 17.9641L28.7639 18.0804C28.6668 18.0929 28.5656 18.0971 28.4685 18.1095L28.1812 18.1719L27.6026 18.2924C26.0649 18.6373 24.5879 19.2399 23.2445 20.0793C20.5454 21.7458 18.4696 24.4137 17.4215 27.4391C17.3082 27.8256 17.1625 28.1996 17.0695 28.5902L16.8186 29.7705L16.6851 30.9715C16.6527 31.1709 16.6608 31.3746 16.6567 31.574L16.6486 32.1808C16.6244 32.5797 16.677 32.9953 16.7134 33.4109C16.7579 33.8223 16.766 34.242 16.8388 34.6493C17.0088 35.4596 17.1059 36.2866 17.377 37.0721L17.547 37.6705L17.6319 37.9697L17.7493 38.2564L18.2106 39.4117C18.3603 39.7982 18.5829 40.1514 18.765 40.5255L19.0482 41.0782C19.1413 41.2652 19.2708 41.4272 19.376 41.6059L20.0518 42.649L20.8246 43.6215C21.0674 43.9581 21.3628 44.249 21.6501 44.5482L22.0791 44.997C22.2207 45.1466 22.3623 45.3004 22.5242 45.4292C23.7381 46.5596 25.1261 47.4655 26.5707 48.2634L27.6956 48.7787C27.8858 48.8618 28.0679 48.9574 28.2621 49.0322L28.8489 49.2317C29.2414 49.3564 29.6258 49.5143 30.0264 49.6223L31.2323 49.9049C34.4574 50.5948 37.9171 50.2872 41.1827 49.3979C44.4482 48.4753 47.5317 46.8089 50.1619 44.5482C52.7962 42.2875 54.9651 39.42 56.4583 36.1827C57.9474 32.9454 58.7446 29.3383 58.7851 25.6771C58.9712 27.4973 58.9348 29.3507 58.7122 31.1876C58.4613 33.0078 58.0162 34.8238 57.385 36.5734Z" fill="url(#paint0_linear_379_867)"/>
<path d="M43.8341 14.2265L59.8249 35.1241L75.8156 14.2265H77.8216V55.783H73.1218V28.7354C73.1218 28.1383 73.1791 27.1034 73.2937 25.6306C71.4597 28.0985 69.2435 30.9048 66.6453 34.0494C64.0852 37.1542 61.7927 39.8211 59.7675 42.0502L57.475 39.3634C52.8516 33.8703 50.0241 30.5067 48.9924 29.2728C48.6485 28.8349 48.3047 28.3772 47.9608 27.8995C47.6551 27.4218 47.3494 26.984 47.0437 26.5859L46.356 25.5709C46.4706 26.6855 46.5279 27.7403 46.5279 28.7354V55.783H41.8281V14.2265H43.8341Z" fill="white"/>
<path d="M101.963 13.6294H103.855L120.763 55.783H115.776L110.389 42.5876H95.4297L90.1567 55.783H85.1704L101.963 13.6294ZM103.683 25.3918L103.224 23.8394L102.881 22.4661L102.479 23.7797L102.021 25.3918L97.2064 38.1692H108.555L103.683 25.3918Z" fill="white"/>
<defs>
<linearGradient id="paint0_linear_379_867" x1="29.99" y1="0.659668" x2="29.99" y2="60.6516" gradientUnits="userSpaceOnUse">
<stop stop-color="#6F711F"/>
<stop offset="1" stop-color="#FFF6D0"/>
</linearGradient>
</defs>
</svg>
