<svg width="60" height="30" viewBox="0 0 60 30" fill="none" xmlns="http://www.w3.org/2000/svg">
<g clip-path="url(#clip0_228_256)">
<path d="M14.6063 0C6.53822 0 0 6.71493 0 15.001C0 23.2851 6.53822 30.0021 14.6063 30.0021C22.6723 30.0021 29.2126 23.2871 29.2126 15.001C29.2105 6.71493 22.6723 0 14.6063 0ZM28.306 17.9605C27.6706 19.7146 26.6163 21.3107 25.2908 22.6283C22.6076 25.2345 18.7708 26.6581 14.9685 26.0679L14.2643 25.9328C14.0316 25.8808 13.8029 25.8019 13.5722 25.7374L13.2262 25.6335C13.1129 25.594 13.0036 25.5442 12.8903 25.5005L12.2225 25.2241L11.583 24.8853C11.3665 24.7773 11.1662 24.6401 10.9658 24.505L10.6643 24.3034C10.5631 24.2369 10.462 24.1704 10.3709 24.0894L9.80632 23.628C9.70919 23.5532 9.6242 23.468 9.53718 23.3807L9.27614 23.123C9.10211 22.9525 8.92606 22.7821 8.77631 22.5868L8.30684 22.0215L7.88998 21.4125C7.8232 21.3086 7.7463 21.2109 7.68762 21.1029L7.50954 20.7787C7.3942 20.5604 7.26267 20.3505 7.16553 20.1219L6.87211 19.4382L6.79926 19.2657L6.7426 19.089L6.62928 18.7336C6.46132 18.2639 6.37633 17.7714 6.27718 17.283C6.23063 17.0378 6.22052 16.7884 6.19016 16.541C6.16588 16.2917 6.1335 16.0464 6.1416 15.7887V15.4063C6.1416 15.2795 6.13755 15.1507 6.15576 15.0239L6.23266 14.2612L6.3824 13.5088C6.43906 13.2594 6.52406 13.0184 6.59488 12.7731C7.24648 10.8382 8.56384 9.15483 10.2637 8.09075C11.1136 7.56079 12.0525 7.18254 13.0238 6.97056L13.3901 6.89782L13.5722 6.86249C13.6329 6.85417 13.6957 6.85002 13.7564 6.8417C14.0032 6.81884 14.2501 6.79182 14.497 6.77312C14.752 6.7752 15.0049 6.77104 15.2599 6.78143C15.5128 6.81053 15.7678 6.82716 16.0187 6.87288C18.0302 7.22619 19.8636 8.48978 20.9219 10.2792C21.4521 11.1708 21.7779 12.187 21.8872 13.2179C21.9074 13.4777 21.9418 13.7312 21.9276 14.0014C21.9236 14.1344 21.9276 14.2695 21.9155 14.4025L21.871 14.8015C21.8608 14.9345 21.8264 15.0655 21.8001 15.1943C21.7698 15.3232 21.7495 15.4562 21.7071 15.583C21.6261 15.8365 21.5512 16.0921 21.4379 16.3332C21.0251 17.3121 20.333 18.1476 19.4993 18.7606C18.6535 19.3571 17.6599 19.7354 16.6461 19.806C16.5186 19.8143 16.3951 19.833 16.2636 19.8289L15.873 19.8206C15.614 19.7936 15.353 19.7645 15.1 19.698C14.5921 19.5753 14.1064 19.3675 13.6673 19.0849C12.7911 18.5154 12.1071 17.6446 11.7712 16.645C11.6073 16.142 11.5284 15.6224 11.5324 15.0904C11.5405 14.5521 11.664 14.0159 11.8866 13.5338C12.1092 13.0516 12.4309 12.6214 12.8215 12.2785C13.212 11.9377 13.6714 11.6799 14.1591 11.5345C14.6488 11.3911 15.1526 11.3391 15.6687 11.4202C16.1786 11.4971 16.6582 11.7257 17.0568 12.0457C17.8501 12.6962 18.2831 13.7728 18.0828 14.7911C17.9776 15.2962 17.7044 15.7534 17.33 16.0755C16.9536 16.3956 16.4842 16.5909 16.0086 16.6096C15.5311 16.6408 15.0454 16.4621 14.7075 16.1358C14.3634 15.8136 14.1651 15.346 14.1753 14.8867C14.2198 15.344 14.4606 15.7596 14.8005 16.0215C15.1425 16.2875 15.5776 16.3935 15.9843 16.3228C16.3972 16.2688 16.7796 16.063 17.0649 15.7742C17.3482 15.4811 17.5324 15.0966 17.5789 14.6997C17.6214 14.309 17.5405 13.8871 17.3725 13.5296C17.2086 13.1638 16.9415 12.8604 16.6278 12.6339C16.3081 12.4157 15.9418 12.2723 15.5675 12.2452C15.1992 12.2141 14.8005 12.2847 14.4424 12.4177C14.0842 12.5549 13.7543 12.7607 13.4812 13.0308C13.21 13.301 12.9955 13.6252 12.8559 13.9764C12.7162 14.3277 12.6535 14.7059 12.6677 15.0821C12.6879 15.4645 12.7668 15.8552 12.9065 16.2127C13.1979 16.9255 13.7139 17.5324 14.3594 17.9148C14.6832 18.1018 15.0353 18.2348 15.3975 18.3055C15.7617 18.3803 16.124 18.3928 16.5064 18.3346C17.2693 18.2494 17.9877 17.9335 18.5927 17.4721C19.1877 17.0003 19.6794 16.3831 19.9546 15.6723C20.0335 15.4998 20.0801 15.3149 20.1347 15.132C20.1631 15.0405 20.1711 14.9449 20.1934 14.8535C20.2096 14.76 20.2339 14.6685 20.2379 14.5729L20.2642 14.2903C20.2723 14.1967 20.2642 14.0991 20.2642 14.0055C20.2723 13.8185 20.2379 13.619 20.2197 13.4236C20.1185 12.6422 19.8555 11.8857 19.4406 11.2269C19.0238 10.5701 18.4774 9.99861 17.8379 9.56841C17.2005 9.13821 16.474 8.84725 15.7233 8.72255C15.5351 8.69137 15.3449 8.68098 15.1547 8.65812C14.9645 8.65189 14.7722 8.65812 14.582 8.65396L13.9931 8.71216C13.9446 8.71839 13.894 8.72047 13.8454 8.72671L13.7017 8.75788L13.4124 8.81815C12.6434 8.99065 11.9048 9.292 11.2329 9.71181C9.88321 10.5452 8.84511 11.8795 8.321 13.3924C8.26434 13.5857 8.19149 13.7728 8.14495 13.9681L8.01949 14.5584L7.95271 15.159C7.93652 15.2587 7.94057 15.3606 7.93854 15.4603L7.9345 15.7638C7.92236 15.9633 7.94866 16.1711 7.96688 16.3789C7.98913 16.5847 7.99318 16.7946 8.02961 16.9983C8.1146 17.4035 8.16316 17.8171 8.29874 18.2099L8.38373 18.5092L8.42623 18.6588L8.48491 18.8022L8.7156 19.38C8.79048 19.5733 8.90177 19.7499 8.99284 19.937L9.13449 20.2134C9.18103 20.3069 9.24578 20.3879 9.2984 20.4773L9.63634 20.999L10.0228 21.4853C10.1443 21.6536 10.292 21.7991 10.4357 21.9487L10.6502 22.1732C10.721 22.248 10.7918 22.3249 10.8728 22.3893C11.4798 22.9546 12.1739 23.4077 12.8963 23.8067L13.4589 24.0644C13.554 24.106 13.6451 24.1538 13.7422 24.1912L14.0356 24.291C14.2319 24.3533 14.4242 24.4323 14.6245 24.4863L15.2275 24.6276C16.8403 24.9726 18.5705 24.8188 20.2035 24.3741C21.8366 23.9127 23.3785 23.0793 24.6939 21.9487C26.0112 20.8181 27.0959 19.3841 27.8426 17.7652C28.5873 16.1462 28.9859 14.3422 29.0061 12.5113C29.0992 13.4215 29.081 14.3485 28.9697 15.2671C28.8443 16.1773 28.6217 17.0856 28.306 17.9605Z" fill="url(#paint0_linear_228_256)"/>
</g>
<path d="M21.5295 6.78505L29.5262 17.236L37.5229 6.78505H38.526V27.5675H36.1758V14.041C36.1758 13.7424 36.2044 13.2248 36.2617 12.4883C35.3446 13.7225 34.2363 15.1259 32.937 16.6985C31.6567 18.2512 30.5103 19.585 29.4975 20.6998L28.3511 19.3561C26.039 16.609 24.625 14.9268 24.1091 14.3097C23.9371 14.0908 23.7652 13.8618 23.5932 13.623C23.4403 13.3841 23.2875 13.1651 23.1346 12.966L22.7907 12.4584C22.848 13.0158 22.8766 13.5433 22.8766 14.041V27.5675H20.5264V6.78505H21.5295Z" fill="#000000"/>
<path d="M50.599 6.48645H51.5448L60.0001 27.5675H57.5065L54.8123 20.9685H47.3315L44.6946 27.5675H42.201L50.599 6.48645ZM51.4588 12.3688L51.2295 11.5925L51.0575 10.9057L50.8569 11.5626L50.6276 12.3688L48.22 18.7589H53.8951L51.4588 12.3688Z" fill="#000000"/>
<defs>
<linearGradient id="paint0_linear_228_256" x1="14.6063" y1="0" x2="14.6063" y2="30.0021" gradientUnits="userSpaceOnUse">
<stop stop-color="#6F711F"/>
<stop offset="1" stop-color="#FFF6D0"/>
</linearGradient>
<clipPath id="clip0_228_256">
<rect width="29.2105" height="30" fill="white"/>
</clipPath>
</defs>
</svg>
