<svg width="24" height="24" viewBox="0 0 24 24" fill="none" xmlns="http://www.w3.org/2000/svg">
<path d="M23.081 11.6604C23.083 11.6604 23.0845 11.6604 23.0865 11.6604C23.2262 11.6604 23.3595 11.6018 23.4541 11.4991C23.5503 11.3949 23.5979 11.2552 23.5854 11.1139C23.0825 5.58259 18.7032 1.2018 13.1714 0.697903C13.0311 0.686884 12.8899 0.732465 12.7857 0.829137C12.6815 0.925308 12.6234 1.06105 12.6249 1.2028C12.712 8.55388 13.6818 11.5577 23.081 11.6604ZM23.081 12.6762C13.6818 12.7789 12.7125 15.7827 12.6254 23.1338C12.6239 23.2756 12.682 23.4113 12.7862 23.5075C12.8793 23.5931 13.0011 23.6407 13.1263 23.6407C13.1413 23.6407 13.1568 23.6402 13.1719 23.6387C18.7037 23.1348 23.083 18.7545 23.5854 13.2227C23.5979 13.0814 23.5508 12.9417 23.4541 12.8375C23.3575 12.7333 23.2227 12.6817 23.081 12.6762ZM11.024 0.700408C5.50973 1.21883 1.14446 5.59862 0.644072 11.1149C0.63155 11.2562 0.678634 11.3959 0.775306 11.5001C0.869974 11.6028 1.00371 11.6609 1.14296 11.6609C1.14496 11.6609 1.14697 11.6609 1.14897 11.6609C10.5171 11.5532 11.4844 8.55087 11.5725 1.20481C11.574 1.06305 11.5154 0.92681 11.4112 0.830639C11.306 0.734468 11.1653 0.687385 11.024 0.700408ZM1.14847 12.6757C0.992692 12.6582 0.870475 12.7323 0.774805 12.8365C0.678634 12.9407 0.631049 13.0804 0.643571 13.2217C1.14396 18.738 5.50973 23.1178 11.024 23.6362C11.0396 23.6377 11.0556 23.6382 11.0711 23.6382C11.1963 23.6382 11.3176 23.5911 11.4107 23.5055C11.5149 23.4093 11.5735 23.2731 11.572 23.1313C11.4839 15.7857 10.5171 12.7834 1.14847 12.6757Z" fill="white"/>
</svg>
