<svg width="22" height="22" viewBox="0 0 22 22" fill="none" xmlns="http://www.w3.org/2000/svg">
<path d="M18.4095 3.788C16.2369 1.61435 13.2733 0.517604 10.1615 0.768049C5.97801 1.10406 2.31107 4.01341 1.08388 8.02679C0.207325 10.8944 0.575689 13.8883 2.00323 16.3614L0.650823 20.8517C0.521426 21.2827 0.914834 21.6886 1.34998 21.5728L6.05001 20.3132C7.57251 21.1439 9.28597 21.5811 11.0307 21.5822H11.0349C15.4125 21.5822 19.4572 18.9045 20.8566 14.7565C22.2194 10.7118 21.2114 6.59299 18.4095 3.788ZM16.1357 14.8765C15.9186 15.4849 14.8553 16.0713 14.3773 16.1141C13.8994 16.1579 13.4517 16.3301 11.252 15.4629C8.60456 14.4194 6.93283 11.7052 6.80343 11.532C6.67299 11.3577 5.74008 10.1201 5.74008 8.83866C5.74008 7.55721 6.41316 6.92692 6.65212 6.66708C6.89109 6.4062 7.17284 6.34151 7.34711 6.34151C7.52033 6.34151 7.6946 6.34151 7.84591 6.34777C8.03166 6.35507 8.23723 6.36446 8.43237 6.79752C8.66404 7.31302 9.17014 8.60073 9.23484 8.73117C9.29954 8.86161 9.34337 9.01397 9.25676 9.18719C9.17014 9.36042 9.12632 9.46894 8.99692 9.6213C8.86648 9.77365 8.72352 9.96044 8.60664 10.0773C8.4762 10.2067 8.34054 10.3486 8.49185 10.6085C8.64421 10.8694 9.16597 11.7219 9.94026 12.4117C10.9358 13.2987 11.7737 13.5731 12.0346 13.7046C12.2955 13.835 12.4468 13.8131 12.5992 13.6389C12.7515 13.4656 13.2503 12.8792 13.4235 12.6183C13.5968 12.3574 13.771 12.4012 14.01 12.4879C14.249 12.5745 15.5294 13.2048 15.7892 13.3352C16.0501 13.4656 16.2233 13.5303 16.288 13.6389C16.3527 13.7463 16.3527 14.2681 16.1357 14.8765Z" fill="white"/>
</svg>
