<svg width="20" height="21" viewBox="0 0 20 21" fill="none" xmlns="http://www.w3.org/2000/svg">
<path d="M18.8097 4.59124C18.4682 3.37324 17.7929 2.40903 16.8019 1.72698C15.5514 0.86545 14.113 0.559906 12.8708 0.374576C11.1519 0.118287 9.59495 0.0823899 8.11231 0.263546C6.7215 0.433848 5.67464 0.705999 4.71877 1.14511C2.84628 2.00498 1.72261 3.39745 1.3795 5.28247C1.21254 6.19743 1.10067 7.02474 1.03556 7.81364C0.885288 9.63772 1.02136 11.2523 1.45213 12.7483C1.87121 14.2067 2.60418 15.2494 3.69278 15.9339C3.97078 16.1084 4.32474 16.2345 4.66869 16.3563C4.84066 16.4173 5.00595 16.4774 5.15038 16.5408V19.4877C5.15038 19.8734 5.4626 20.1857 5.84828 20.1857C6.03027 20.1857 6.20475 20.1147 6.33498 19.9878L9.05399 17.3431C9.17253 17.2079 9.17253 17.2079 9.29441 17.2054C10.2236 17.187 11.1728 17.1511 12.1161 17.1002C13.259 17.0376 14.583 16.9274 15.8302 16.4073C16.9714 15.9306 17.8046 15.1742 18.3046 14.1599C18.8264 13.1014 19.1369 11.9543 19.253 10.6545C19.4567 8.3688 19.3114 6.38527 18.8097 4.59124ZM14.0754 13.2901C13.8024 13.7367 13.3934 14.0456 12.9125 14.2459C12.5611 14.3928 12.2021 14.362 11.8556 14.215C8.94713 12.9845 6.66724 11.0444 5.15956 8.25693C4.84901 7.68258 4.63279 7.0573 4.38485 6.45039C4.33392 6.32516 4.3381 6.17907 4.31556 6.04299C4.33726 5.06208 5.08943 4.51027 5.84912 4.3433C6.13964 4.27902 6.39676 4.3817 6.61214 4.58791C7.2082 5.15725 7.67988 5.81676 8.03467 6.55641C8.18995 6.88115 8.11982 7.16833 7.85519 7.40959C7.80092 7.45968 7.74332 7.50643 7.68405 7.55068C7.08048 8.00482 6.99198 8.34793 7.31339 9.03164C7.86103 10.1945 8.77015 10.9751 9.94641 11.4593C10.2561 11.587 10.5483 11.5236 10.7854 11.2723C10.8171 11.2389 10.853 11.2063 10.8764 11.1679C11.3406 10.3941 12.0126 10.4709 12.6337 10.9125C13.0419 11.2022 13.4376 11.5077 13.8417 11.8032C14.4544 12.2549 14.4494 12.679 14.0754 13.2901ZM10.5859 5.2783C10.4298 5.2783 10.2728 5.29082 10.1192 5.3167C9.85875 5.36095 9.61331 5.1848 9.5699 4.92434C9.52649 4.66471 9.70181 4.41844 9.96227 4.37503C10.1668 4.34163 10.3772 4.3241 10.5859 4.3241C12.6521 4.3241 14.3334 6.00543 14.3334 8.0716C14.3334 8.28114 14.3158 8.49152 14.2816 8.69605C14.2424 8.92896 14.0404 9.09425 13.8116 9.09425C13.7857 9.09425 13.759 9.09259 13.7323 9.08758C13.4727 9.04333 13.2974 8.79789 13.3408 8.53827C13.3667 8.38633 13.3792 8.22938 13.3792 8.07244C13.3792 6.53136 12.1261 5.2783 10.5859 5.2783ZM12.6637 8.37882C12.6637 8.64178 12.45 8.8555 12.1871 8.8555C11.9241 8.8555 11.7104 8.64178 11.7104 8.37882C11.7104 7.58991 11.0684 6.94794 10.2795 6.94794C10.0165 6.94794 9.80282 6.73422 9.80282 6.47126C9.80282 6.20829 10.0165 5.99457 10.2795 5.99457C11.5935 5.99374 12.6637 7.06398 12.6637 8.37882ZM15.8745 8.96068C15.8244 9.18274 15.6282 9.33218 15.4095 9.33218C15.3744 9.33218 15.3385 9.328 15.3034 9.32049C15.0463 9.26205 14.8852 9.0066 14.9436 8.75031C15.0129 8.4456 15.048 8.13087 15.048 7.81531C15.048 5.49619 13.1613 3.60866 10.8413 3.60866C10.5249 3.60866 10.211 3.64373 9.90634 3.71302C9.65088 3.77229 9.39376 3.61033 9.33616 3.35321C9.27772 3.09608 9.43884 2.84063 9.69596 2.78303C10.07 2.69704 10.4556 2.65447 10.843 2.65447C13.6881 2.65447 16.003 4.96942 16.003 7.81448C16.003 8.20183 15.9596 8.58752 15.8745 8.96068Z" fill="white"/>
</svg>
