<svg width="24" height="24" viewBox="0 0 24 24" fill="none" xmlns="http://www.w3.org/2000/svg">
<path d="M12.0693 0.647461C5.71702 0.647461 0.548828 5.81565 0.548828 12.168C0.548828 18.5203 5.71702 23.6884 12.0693 23.6884C18.4221 23.6884 23.5898 18.5203 23.5898 12.168C23.5898 5.81565 18.4221 0.647461 12.0693 0.647461ZM17.0647 14.4395C18.1852 15.4343 18.4181 15.7894 18.4562 15.85C18.9205 16.5863 17.9413 16.676 17.9413 16.676H15.8776C15.8776 16.676 15.3752 16.6815 14.9459 16.397C14.2462 15.9387 13.5134 15.0501 12.9985 15.2044C12.5662 15.3336 12.5702 15.9176 12.5702 16.417C12.5702 16.5958 12.4164 16.676 12.0693 16.676C11.7222 16.676 11.5779 16.676 11.4242 16.676C10.2937 16.676 9.06698 16.2953 7.8433 15.0165C6.11222 13.2088 4.59402 9.56733 4.59402 9.56733C4.59402 9.56733 4.50436 9.384 4.60204 9.2723C4.71274 9.14708 5.01377 9.16311 5.01377 9.16311L7.01483 9.16261C7.01483 9.16261 7.20317 9.19817 7.33841 9.29334C7.4501 9.37148 7.51222 9.52075 7.51222 9.52075C7.51222 9.52075 7.84831 10.6307 8.27657 11.3385C9.11306 12.7199 9.50226 12.755 9.78626 12.6062C10.201 12.3909 10.0658 10.9222 10.0658 10.9222C10.0658 10.9222 10.0843 10.2916 9.86791 10.0106C9.70111 9.79323 9.38204 9.67752 9.24279 9.65949C9.13009 9.64497 9.31843 9.44762 9.55835 9.33492C9.87893 9.19216 10.3152 9.1556 11.0675 9.16261C11.6531 9.16812 11.8219 9.20318 12.0503 9.25577C12.741 9.41506 12.5702 9.83531 12.5702 11.3109C12.5702 11.7838 12.5051 12.4485 12.8617 12.6688C13.0155 12.764 13.5424 12.8802 14.4801 11.3575C14.9254 10.6352 15.2795 9.4371 15.2795 9.4371C15.2795 9.4371 15.3527 9.30536 15.4664 9.24025C15.5826 9.17363 15.5791 9.17513 15.7383 9.17513C15.8976 9.17513 17.495 9.16261 17.8456 9.16261C18.1957 9.16261 18.5243 9.1586 18.5809 9.36397C18.6621 9.65899 18.3224 10.6698 17.4619 11.7667C16.0479 13.5669 15.8911 13.3986 17.0647 14.4395Z" fill="white"/>
</svg>
