<svg width="123" height="92" viewBox="0 0 123 92" fill="none" xmlns="http://www.w3.org/2000/svg">
<circle r="45.8792" transform="matrix(-1 0 0 1 46.1542 45.8992)" fill="#E9BF2C" fill-opacity="0.59"/>
<path d="M49.6443 47.4815C47.8968 47.4815 46.4802 46.0649 46.4802 44.3174C46.4802 42.5699 47.8968 41.1533 49.6443 41.1533L49.6443 47.4815ZM121.693 42.0797C122.928 43.3154 122.928 45.3188 121.693 46.5544L101.557 66.6906C100.321 67.9263 98.3178 67.9263 97.0821 66.6906C95.8464 65.455 95.8464 63.4516 97.0821 62.2159L114.981 44.3171L97.0819 26.4184C95.8463 25.1828 95.8463 23.1794 97.0819 21.9437C98.3176 20.7081 100.321 20.7081 101.557 21.9437L121.693 42.0797ZM49.6443 41.1533L119.455 41.153L119.455 47.4812L49.6443 47.4815L49.6443 41.1533Z" fill="#6F711F"/>
</svg>
